<?xml version="1.0" encoding="utf-8"?>
<svg xmlns:xlink="http://www.w3.org/1999/xlink" version="1.1" xml:space="preserve" x="0" y="0" width="1280" height="752" style="overflow:hidden;text-rendering:optimizeLegibility" xmlns="http://www.w3.org/2000/svg">
	<!--Title: Map Generated Using Maperitive (http://maperitive.net)-->
	<!--Map Generator: Maperitive v2.3.20 by Igor Brejc
Time: 02/20/2013 10:13:11
-->
	<defs>
		<rect x="0" y="0" width="1280" height="752" id="MapFrame" />
	</defs>
	<g id="Map">
		<g id="Polygons" style="stroke-linejoin:round">
			<g id="building__fill" style="fill:#BCA9A9;stroke:#000000">
				<path style="fill-rule:evenodd;stroke:none" d="M411.26 374.98 l8.04 0.18 0.04 -1.64 14.51 0.33 -0.04 1.64 10.29 0.24 1.06 -47.19 -10.96 -0.25 -0.05 1.98 -11.45 -0.26 0.05 -2 -10.44 -0.23 -1.06 47.2 Z M420.29 337.42 l15.02 0.3 -0.54 27.34 -15.02 -0.29 0.54 -27.35 Z" />
				<path style="fill-rule:evenodd;stroke:none" d="M391.64 406.54 l-0.51 19.88 3.36 0.09 -0.11 4.13 -15.01 -0.38 -0.32 12.6 -1.01 -0.02 -0.22 8.66 6.96 0.18 0.01 -0.52 14.38 0.37 -0.01 0.52 8.03 0.2 0.2 -7.82 -1.59 -0.04 0.34 -13.43 -3.08 -0.08 0.11 -4.13 3.08 0.08 -0.04 1.55 8.89 0.23 0.23 -8.86 -2.05 -0.05 0.18 -7.07 2.05 0.05 0.21 -8.24 -8.29 -0.21 -0.07 2.74 -15.71 -0.4 Z M399.68 414.62 l4.74 0.12 -0.12 4.71 -4.74 -0.12 0.12 -4.71 Z M394.21 437.44 l-0.15 5.99 -7.47 -0.19 0.15 -6 7.47 0.19 Z" />
				<path style="stroke:none" d="M768.54 508.02 l8.53 -1.44 1.29 7.64 -8.53 1.44 -1.29 -7.65 Z" />
				<path style="stroke:none" d="M602.49 325.62 l16.22 -1.7 2.78 26.58 -16.21 1.7 -2.78 -26.58 Z" />
				<path style="stroke:none" d="M755.38 111.63 l10.83 -0.67 1.99 32.19 -10.83 0.67 -1.99 -32.19 Z" />
				<path style="stroke:none" d="M875.05 674.01 l3.92 0.21 -0.27 4.99 -3.92 -0.22 0.27 -4.98 Z" />
				<path style="stroke:none" d="M836.7 430.74 l-3.74 -5.73 -1.97 1.28 -4.74 -7.25 -5.68 3.71 8.47 12.98 7.65 -5 Z" />
				<path style="stroke:none" d="M539.27 268.44 l-26.91 2.6 1.61 16.69 26.91 -2.59 -1.61 -16.69 Z" />
				<path style="stroke:none" d="M562.2 297.9 l18.36 -1.93 1.06 10.12 -18.36 1.93 -1.06 -10.12 Z" />
				<path style="stroke:none" d="M759.52 348.04 l7.57 -17.79 -11.78 -5.01 -7.57 17.78 11.78 5.02 Z" />
				<path style="stroke:none" d="M253.18 166.22 l11.99 1.83 -0.19 1.23 2.88 0.44 -0.49 3.23 -2.73 -0.42 -0.33 2.12 -12.14 -1.86 1 -6.58 Z" />
				<path style="stroke:none" d="M805.04 569.28 l-6.77 -3.27 6.9 -14.3 6.77 3.27 -6.9 14.3 Z" />
				<path style="stroke:none" d="M856.93 161.87 l2.13 -5.45 -6.97 -2.73 -0.52 1.32 -6.49 -2.54 -1.62 4.13 13.46 5.27 Z" />
				<path style="stroke:none" d="M423.27 593.36 l19.74 3.21 -5.8 38.1 -3.05 -0.48 -0.13 1.72 3.04 0.43 -0.88 7.49 -17.7 -2.92 -2.24 1.56 -0.57 4.65 -6.53 -0.93 0.85 -6.76 7 -5.95 2.45 0.35 0.14 -1.9 -3.23 -0.5 6.89 -38.07 Z" />
				<path style="stroke:none" d="M873.66 658.97 l-0.26 4.99 25.41 1.33 -0.11 2.21 -1.62 -0.09 -0.23 4.26 3.21 0.17 -0.1 1.78 -4.77 -0.26 -0.27 4.94 20.45 1.12 -0.16 2.92 3.99 0.22 0.26 -4.67 4.76 0.26 7.42 0.38 0.08 -1.68 4.29 0.22 0.16 -3.09 -12.91 -0.66 -0.05 0.94 -6.72 -0.35 0.5 -9.8 -7.56 -0.39 -0.53 10.34 -5.36 -0.27 0.41 -7.92 3.75 0.19 0.28 -5.28 -34.29 -1.79 Z" />
				<path style="stroke:none" d="M656.91 234.56 l13.13 -1.24 1.18 12.5 -13.13 1.24 -1.18 -12.5 Z" />
				<path style="stroke:none" d="M790.5 141.42 l4.79 -23.7 -15.73 -3.18 -2.53 12.52 1.92 0.39 -2.26 11.17 13.82 2.79 Z" />
				<path style="stroke:none" d="M442.51 410.21 l-0.13 4.2 -2.1 1.3 -4.21 -0.17 -0.31 8.12 14.06 0.63 0.17 -13.95 -7.48 -0.13 Z" />
				<path style="stroke:none" d="M788.47 462.06 l25.69 -7.41 2.39 8.27 -25.69 7.41 -2.39 -8.27 Z" />
				<path style="stroke:none" d="M695.18 366.9 l11.57 -1.39 3.01 10.78 1.74 -0.22 3.11 10.12 1.48 -0.2 3.14 10.34 -14.29 2.07 -1.66 -10.7 -2.9 0.38 -0.98 -10.53 -2.99 0.37 -1.24 -11.03 Z" />
				<path style="stroke:none" d="M864.23 663.44 l-0.43 8.13 3.4 0.18 0.43 -8.13 -3.4 -0.18 Z" />
				<path style="stroke:none" d="M702.99 537.51 l-4.3 -25.42 11.54 -1.95 4.3 25.42 -11.54 1.95 Z" />
				<path style="stroke:none" d="M821.51 632.05 l15.17 -10.16 8 11.95 -15.17 10.16 -8 -11.95 Z" />
				<path style="stroke:none" d="M759.77 193.91 l-10.6 2.31 1.88 12.2 2.1 -0.66 1.99 11.2 8.05 -1.26 0.77 -13.19 -2.92 0.33 -1.27 -10.92 Z" />
				<path style="stroke:none" d="M625.98 474.42 l9.78 0.19 -0.39 20.53 -9.78 -0.19 0.39 -20.53 Z" />
				<path style="stroke:none" d="M828.87 74.82 l-4.83 25.93 -11.58 -2.16 4.83 -25.92 11.57 2.15 Z" />
				<path style="stroke:none" d="M642.22 349.39 l42.54 -3.93 -1.24 -13.46 4.98 -0.46 2.11 22.83 -5.01 0.46 -0.36 -3.89 -42.51 3.93 -0.51 -5.48 Z" />
				<path style="stroke:none" d="M807.26 341.65 l-13.08 29.85 -5.46 -2.4 3.43 -7.82 -2.5 -1.1 -1.87 4.28 -1.32 -0.58 -0.61 1.39 -29.21 -12.79 0.84 -1.9 1.68 0.74 10.07 -23.02 -14.52 -6.36 6.91 -15.78 19.12 8.37 13.1 -29.94 15.4 6.74 -9.64 22.03 8.83 3.87 9.51 -21.72 4.79 2.1 -14.26 32.59 3.21 1.4 -3.66 8.36 -0.75 1.7 Z" />
				<path style="stroke:none" d="M786.15 586.6 l7.7 -13.55 8.99 5.11 -7.7 13.55 -8.99 -5.11 Z" />
				<path style="stroke:none" d="M824.05 466.88 l13.42 2.9 -3.68 17.05 -13.42 -2.9 3.68 -17.05 Z" />
				<path style="stroke:none" d="M868.07 208.79 l12.61 -33.71 6.06 2.26 -12.61 33.71 -6.06 -2.26 Z" />
				<path style="stroke:none" d="M859.87 113.08 l-22.79 -4.15 3.62 -16.32 -3.37 -0.26 2.59 -17.1 26.94 5.18 -6.99 32.64 Z" />
				<path style="stroke:none" d="M324.78 444.7 l25.08 0.94 -0.74 19.82 -25.08 -0.94 0.74 -19.82 Z" />
				<path style="stroke:none" d="M749.2 245.86 l30.7 -10.58 -6.99 -20.28 -30.7 10.58 6.99 20.28 Z" />
				<path style="stroke:none" d="M265.72 150.12 l-15.36 -4 -2.34 8.97 5.41 1.41 0.69 -2.64 3.24 0.84 0.39 -1.5 6.71 1.75 1.26 -4.83 Z" />
				<path style="stroke:none" d="M740.16 583.66 l15.12 -2.85 -2.58 -13.73 -15.12 2.85 2.58 13.73 Z" />
				<path style="stroke:none" d="M638.97 538.08 l-17.89 -0.16 0.24 -26.17 0.01 -1.35 -0.86 0 0.04 -3.97 15.52 0.14 -0.02 2.39 3.24 0.03 -0.27 29.08 Z" />
				<path style="stroke:none" d="M699.61 492.55 l-10.35 -11.4 -10.89 9.9 10.35 11.4 10.89 -9.9 Z" />
				<path style="stroke:none" d="M573.14 338.96 l17.84 -1.68 1.29 13.72 -17.84 1.68 -1.29 -13.72 Z" />
				<path style="stroke:none" d="M478.09 266.32 l7.16 -0.19 -0.12 -4.64 7.82 -0.21 0.27 10.19 -7.35 0.19 -0.03 -1.01 -1.22 0.03 0.03 1.12 -6.41 0.17 -0.15 -5.65 Z" />
				<path style="stroke:none" d="M512.19 176.21 l55.38 -5.9 2.52 23.69 5.63 -0.6 0.8 7.54 8.7 -0.93 0.46 4.35 5.42 -0.58 -0.2 -1.9 4.82 -0.51 1.41 13.25 -18.62 1.98 0.51 4.75 -59.5 6.34 -0.38 -3.57 -1.82 0.19 -5.12 -48.11 Z" />
				<path style="stroke:none" d="M647.75 371.81 l33.9 -3.42 0.86 8.48 -33.9 3.42 -0.86 -8.48 Z" />
				<path style="stroke:none" d="M424.14 566.38 l10.74 0.13 -0.06 15.7 -11.11 -0.19 0.43 -15.64 Z" />
				<path style="stroke:none" d="M819.81 345.12 l2.97 -6.69 15.24 6.74 -3.03 6.85 -7.73 -3.41 -6.63 15 -7.51 -3.32 5.95 -13.46 0.75 -1.7 Z" />
				<path style="stroke:none" d="M617.37 445.38 l-5.67 -21.43 -18.09 4.79 5.67 21.43 18.09 -4.79 Z" />
				<path style="stroke:none" d="M764.91 480.04 l1.19 4.79 6.94 -1.72 -1.18 -4.79 -6.95 1.72 Z" />
				<path style="stroke:none" d="M647.68 254.07 l-13.31 1.28 0.72 7.48 13.31 -1.28 -0.72 -7.48 Z" />
				<path style="stroke:none" d="M367.56 224.22 l21.01 0.56 0.88 -32.98 -21.01 -0.56 -0.88 32.98 Z" />
				<path style="stroke:none" d="M896.95 168.29 l-2.87 7.34 -6.83 -2.67 -0.88 2.25 -5.29 -2.07 3.75 -9.6 12.12 4.74 Z" />
				<path style="stroke:none" d="M777.3 502.74 l-1.64 -9.17 -8.77 1.56 1.64 9.17 8.77 -1.56 Z" />
				<path style="stroke:none" d="M453.82 467.03 l-7 -0.37 v-6.07 l-3.56 -3.78 -5.11 -0.38 0.46 -7.59 16.05 0.86 -0.85 17.33 Z" />
				<path style="stroke:none" d="M341.85 285.89 l-19.05 -0.59 -0.36 11.57 19.05 0.59 0.36 -11.57 Z" />
				<path style="stroke:none" d="M717.37 505.61 l28.64 -4.42 2.65 17.15 -28.64 4.42 -2.64 -17.15 Z" />
				<path style="stroke:none" d="M717.54 568.13 l7.56 -1.16 1.98 13.26 -0.81 1.98 -6.28 1.16 -2.44 -15.24 Z" />
				<path style="stroke:none" d="M715.03 428 l-7.3 0.59 -0.44 -5.44 -7.42 0.6 0.49 6.05 -15.82 1.29 -0.45 -5.54 -3.69 0.3 -1.99 -24.45 34.24 -2.78 2.39 29.38 Z" />
				<path style="stroke:none" d="M898.66 121.28 l5.39 -24.82 -3.33 -0.72 -0.41 1.9 -17.39 -3.77 -4.9 22.58 16.21 3.52 0.36 -1.64 1.61 0.35 -0.43 1.97 2.9 0.63 Z" />
				<path style="stroke:none" d="M817.04 384.23 l8.94 -6.16 14.2 17.78 6.17 13.64 -9.28 4.56 -7.38 -12.86 -12.65 -16.96 Z" />
				<path style="stroke:none" d="M560.77 336.52 l-21.55 1.83 0.08 0.9 -7.1 0.6 1.13 13.28 7.26 -0.62 0.06 0.71 21.4 -1.82 -1.26 -14.89 Z" />
				<path style="stroke:none" d="M465.84 291.97 l0.77 8.39 9.18 -0.75 -0.39 -4.12 -5.06 -3.85 -4.5 0.33 Z" />
				<path style="stroke:none" d="M832.98 195.31 l5.45 -13.8 5.9 2.56 -5.45 13.91 -5.9 -2.67 Z" />
				<path style="stroke:none" d="M639.85 500.74 l21.64 0.25 0.18 -15.81 -21.64 -0.25 -0.18 15.82 Z" />
				<path style="stroke:none" d="M730.66 227.94 l-19.89 6.81 -2.13 -6.23 6.13 -2.1 -0.51 -1.49 4.93 -1.69 -2.54 -7.42 -7.27 2.49 -1.85 -5.42 7.44 -2.54 -0.83 -2.44 8.66 -2.96 7.87 22.99 Z" />
				<path style="stroke:none" d="M213.45 275.22 l18.35 10.88 -23.72 37.95 -0.1 0.15 53.61 62.4 -13.56 12.29 -51.2 -54.25 -18.39 -11.14 20.2 -33.07 2.44 1.63 5.13 -8.03 5.03 3.1 2.85 -4.62 -5.64 -3.51 0.66 -6.66 4.35 -7.12 Z" />
				<path style="stroke:none" d="M640.72 512.54 l7.23 0.03 -0.01 3 15.21 0.06 -0.05 10.37 -7.32 -0.03 0.01 -2.69 -15.13 -0.07 0.05 -10.68 Z" />
				<path style="stroke:none" d="M881.16 669.43 l-0.1 2.14 3.81 0.18 0.1 -2.14 -3.8 -0.18 Z" />
				<path style="stroke:none" d="M321.2 304.36 l49.27 8.35 -1.26 7.45 -49.27 -8.35 1.26 -7.45 Z" />
				<path style="stroke:none" d="M842.25 122.14 l-3.11 18.39 -12.95 -2.33 3.88 -18.91 12.17 2.85 Z" />
				<path style="stroke:none" d="M243.33 205.22 l23.93 -0.1 0.01 2.93 -1.36 0.01 0.02 4.66 -11.92 0.05 0.02 4.45 4.03 -0.02 0.01 3.11 -1.51 0.01 0.01 2.7 -24.29 0.11 -0.01 -2.67 -1.38 0.01 -0.02 -3.08 14.67 -0.06 -0.02 -4.59 -0.71 0 -0.02 -4.63 -1.46 0.01 -0.01 -2.9 Z" />
				<path style="stroke:none" d="M764.74 198.1 l12.15 0.44 -0.24 6.82 -3.06 -0.11 -0.31 8.59 -9.08 -0.33 0.55 -15.4 Z" />
				<path style="stroke:none" d="M898.57 219.74 l33.77 5.38 -3.14 19.7 -33.77 -5.38 3.13 -19.7 Z" />
				<path style="stroke:none" d="M416.85 536.55 l21.14 1.32 -0.43 16.09 -21.41 -1.17 0.71 -16.24 Z" />
				<path style="stroke:none" d="M840.74 226.57 l2.86 -7.32 -24.34 -8.91 -3.18 7.32 24.65 8.91 Z" />
				<path style="stroke:none" d="M636.31 268.42 l32.84 -3.19 1.52 15.58 -32.84 3.19 -1.51 -15.58 Z" />
				<path style="stroke:none" d="M795.01 178.96 l-7.66 -1.88 -1.61 6.58 7.65 1.88 1.62 -6.58 Z" />
				<path style="stroke:none" d="M910.87 164.73 l10.49 4.27 8.43 -20.71 -5.25 -2.14 4.84 -11.89 -7.82 -3.18 -8.93 21.94 4.57 1.86 -2.23 5.49 -1.98 -0.8 -2.11 5.18 Z" />
				<path style="stroke:none" d="M855.98 61.92 l-2.94 13.96 12.75 2.69 2.95 -13.96 -12.75 -2.69 Z" />
				<path style="stroke:none" d="M369.75 254.92 l-16.47 -0.3 0.1 -5.53 -5.44 -0.1 -0.1 5.48 -2.67 -0.05 -0.14 7.42 0.94 0.02 -0.02 1.28 2.58 0.04 0.02 -1.29 18.22 0.33 -0.03 1.44 2.84 0.05 0.16 -8.8 Z" />
				<path style="stroke:none" d="M441.51 288.29 l20.55 0.43 -0.32 7.77 -20.37 -0.18 0.14 -8.03 Z" />
				<path style="stroke:none" d="M809.28 110.13 l7.77 1.66 -2.43 11.36 -7.77 -1.66 2.43 -11.36 Z" />
				<path style="stroke:none" d="M512.87 344.13 l17.5 -1.87 1.5 14.04 -17.5 1.87 -1.5 -14.04 Z" />
				<path style="stroke:none" d="M565.87 465.25 l-41.94 2.38 -2.56 -45.04 19.93 -1.13 -0.11 -1.87 24.54 -1.39 1.51 26.54 -2.53 0.14 1.16 20.38 Z" />
				<path style="stroke:none" d="M582.6 390.02 l21.19 -1.85 0.73 8.4 -21.18 1.85 -0.73 -8.4 Z" />
				<path style="stroke:none" d="M805.28 448.01 l14.98 -4.66 1.87 6 -14.98 4.66 -1.87 -6 Z" />
				<path style="stroke:none" d="M859.22 303.76 l-15.08 -6.28 2.31 -5.56 2.62 1.09 0.32 -0.77 -2.39 -1 2.03 -4.87 10.91 4.54 -2.01 4.83 -0.88 -0.37 -0.35 0.84 4.83 2.01 -2.3 5.53 Z" />
				<path style="stroke:none" d="M781.01 3.78 l-56.02 22.9 22.95 56.13 51.06 -20.87 -12.6 -30.83 4.96 -2.03 -10.34 -25.3 Z" />
				<path style="stroke:none" d="M552.32 243.53 l-12.82 1.25 2.25 23.16 14.55 -1.41 -1.93 -19.85 -1.74 0.17 -0.32 -3.31 Z" />
				<path style="stroke:none" d="M849.68 696.61 l8.78 0.46 -0.06 1.04 3.47 0.18 0.47 -9.01 1.36 0.07 -0.13 2.47 17.82 0.94 0.34 -6.5 3.5 0.18 -0.19 3.57 5.09 0.26 0.22 -4.25 -0.7 -0.03 0.18 -3.49 -9.36 -0.48 0.06 -1.13 -3.81 -0.2 -0.23 4.5 -4.65 -0.24 0.52 -10.14 -6.1 -0.31 -0.11 2.16 -2.89 -0.15 -0.45 8.71 -3.33 -0.17 0.04 -0.68 -2.68 -0.14 -0.08 1.64 -1.1 -0.06 -0.09 1.73 3.52 0.18 -0.15 2.99 -6.47 -0.34 0.06 -1.1 -3.29 -0.17 -0.18 3.35 0.85 0.05 -0.22 4.09 Z" />
				<path style="stroke:none" d="M397.44 534.13 l-0.59 17.49 -21.9 -0.16 0.69 -16.11 16.11 0.16 0.05 -1.76 5.63 0.37 Z" />
				<path style="stroke:none" d="M869.17 660.12 l-0.15 3.07 3.64 0.18 0.15 -3.07 -3.64 -0.18 Z" />
				<path style="stroke:none" d="M708.81 172.2 l-13.68 -39.68 12.83 -4.36 10.6 30.96 -3.5 1.2 3.25 8.98 -9.49 2.91 Z" />
				<path style="stroke:none" d="M777.36 250.35 l26.6 -8.55 7.28 22.63 -26.6 8.55 -7.28 -22.63 Z" />
				<path style="stroke:none" d="M776.75 537.5 l3.11 -0.4 0.34 2.6 10.85 -1.41 0.65 4.96 -2.89 0.38 0.25 1.93 -11.07 1.45 -1.24 -9.5 Z" />
				<path style="stroke:none" d="M430.49 493.61 l8.85 0.05 -0.02 3.54 1.77 0.01 -0.05 9.53 -3.27 -0.02 -0.09 15.87 -7.66 -0.04 0.02 -3.46 1.79 0.01 0.05 -9.15 1.75 0.01 0.02 -3.16 -1.36 -0.01 0.02 -4.59 -1.86 -0.01 0.05 -8.57 Z" />
				<path style="stroke:none" d="M861.68 125.51 l-10.88 -1.81 -2.07 9.07 11.66 2.07 1.29 -9.33 Z" />
				<path style="stroke:none" d="M820.75 453.32 l2.47 7.87 17.45 -5.48 -2.47 -7.87 -17.44 5.48 Z" />
				<path style="stroke:none" d="M257.38 284.14 l12.64 0.16 -0.14 11.54 -5.52 -0.07 0.03 -2.28 -7.12 -0.09 0.11 -9.25 Z" />
				<path style="stroke:none" d="M850.19 321.46 l5.93 -13.5 -10.58 -4.65 -5.93 13.5 10.58 4.65 Z" />
				<path style="stroke:none" d="M399.07 192.24 l16.9 0.18 -0.3 28.57 -16.9 -0.18 0.3 -28.57 Z" />
				<path style="stroke:none" d="M840.74 338.05 l7.51 3.25 5.41 -12.51 -7.51 -3.25 -5.41 12.51 Z" />
				<path style="stroke:none" d="M288.43 186 l39.51 0.71 -0.5 28 -34.16 -0.62 0.16 -9.15 -2.84 -0.05 0.16 -9 -2.51 -0.05 0.18 -9.85 Z" />
				<path style="stroke:none" d="M642.2 428.85 l4.07 13.87 -18.27 5.35 -0.92 -3.14 -5.6 1.64 -1.11 -3.79 5.64 -1.65 -2.03 -6.93 18.23 -5.34 Z" />
				<path style="stroke:none" d="M809.08 155.41 l13.71 3.34 -1.81 7.46 3.87 0.94 -3.4 13.96 -3.91 -0.95 -1.67 6.89 -13.68 -3.33 6.89 -28.31 Z" />
				<path style="stroke:none" d="M465.23 278.59 l8.59 -0.98 0.38 4.64 -3.43 4.93 -4.72 0.43 -0.82 -9.03 Z" />
				<path style="stroke:none" d="M413.13 536.42 l-11.48 -0.05 -0.64 10.74 11.69 0.21 0.43 -10.9 Z" />
				<path style="stroke:none" d="M318.51 432.8 l37.25 1.2 2.42 -75.53 -37.25 -1.2 -2.42 75.53 Z" />
				<path style="stroke:none" d="M646.15 365.71 l58.88 -5.69 2.9 4.88 -61.55 6.5 -0.23 -5.69 Z" />
				<path style="stroke:none" d="M600.53 384.64 l-1.54 -15.33 2.72 -0.27 -0.45 -4.44 -17.5 1.76 0.25 2.53 1.23 -0.12 0.34 3.34 2.43 -0.25 1.4 13.89 11.12 -1.12 Z" />
				<path style="stroke:none" d="M538.94 368.75 l-14.84 1.62 4.7 43.04 14.84 -1.62 -4.7 -43.04 Z" />
				<path style="stroke:none" d="M333.14 485.71 l-0.59 17.81 25.47 0.85 0.59 -17.81 -25.46 -0.85 Z" />
				<path style="stroke:none" d="M671.71 402.86 l0.82 9.68 -16.31 1.39 -0.82 -9.68 16.31 -1.39 Z" />
				<path style="stroke:none" d="M787.37 230.56 l20.63 -6.91 -6.06 -18.1 -20.63 6.91 6.06 18.1 Z" />
				<path style="stroke:none" d="M838.73 330.5 l3.21 -7.29 -11.53 -5.09 -3.21 7.29 11.53 5.09 Z" />
				<path style="stroke:none" d="M728 548.45 l22.62 -4.03 1.95 10.93 -22.62 4.03 -1.95 -10.93 Z" />
				<path style="stroke:none" d="M616.07 281.32 l-1.29 -13.82 -26.56 2.48 1.29 13.82 26.56 -2.48 Z" />
				<path style="stroke:none" d="M904.15 211.58 l6.08 -14.68 -2.9 -1.2 1.52 -3.67 2.82 1.17 8.62 -20.8 -8.64 -3.58 -14.3 34.5 -2.49 -1.03 -1.92 4.64 11.21 4.65 Z" />
				<path style="stroke:none" d="M715.89 567.82 l6.72 43.8 -18.03 2.77 -6.72 -43.8 18.03 -2.77 Z" />
				<path style="stroke:none" d="M443.98 487.92 l16.9 0.38 -0.43 19.18 -13.34 -0.3 0.17 -7.85 -3.56 -0.08 0.25 -11.33 Z" />
				<path style="stroke:none" d="M463.85 303.98 l14.07 -1.57 0.43 3.82 12.57 -1.4 1.57 14.09 -26.64 2.97 -1.99 -17.91 Z" />
				<path style="stroke:none" d="M613.3 233.7 l2.97 30.83 -28.28 2.72 -2.97 -30.83 28.28 -2.73 Z" />
				<path style="stroke:none" d="M771.02 435.44 l10.4 -4.62 1.56 3.52 2.44 -1.08 4.15 9.33 -2.37 1.05 2.49 5.6 6.85 -3.04 1.52 3.4 -6.98 3.1 1.66 3.73 -10.35 4.6 -11.37 -25.59 Z" />
				<path style="stroke:none" d="M843.61 202.25 l7.36 2.93 2.14 -5.38 -2.04 -0.81 1.66 -4.16 6.68 2.66 -1.6 4.02 -2.69 -1.07 -2.25 5.65 7.47 2.97 6.04 -15.17 -16.79 -6.68 -5.99 15.05 Z" />
				<path style="stroke:none" d="M875.15 668.52 l-0.19 3.32 3.72 0.21 0.19 -3.32 -3.72 -0.22 Z" />
				<path style="stroke:none" d="M799.85 390.94 l-1.47 1.28 -6.17 8.25 15.18 20.64 10.73 -2.3 1.53 -1.53 -19.8 -26.34 Z" />
				<path style="stroke:none" d="M765.65 106.87 l-10.89 0.52 -0.62 -13.03 2.06 -0.1 -0.1 -2.14 8.83 -0.42 0.72 15.18 Z" />
				<path style="stroke:none" d="M700.94 280.98 l14.56 -5.11 -1.08 -2.98 37.57 -12.94 1.08 2.88 14.2 -4.86 8.27 25.53 -55.55 19.42 -1.62 -4.31 -10.61 3.41 -6.83 -21.03 Z" />
				<path style="stroke:none" d="M694.9 470.06 l-13.56 12.19 -12.06 -13.41 13.56 -12.19 12.06 13.41 Z" />
				<path style="stroke:none" d="M643.34 290.53 l34.5 -2.8 1.26 15.56 -34.5 2.79 -1.26 -15.56 Z" />
				<path style="stroke:none" d="M841.66 161.09 l25.4 10.05 4.93 -12.46 2.63 1.04 2.63 -6.65 6.68 2.65 -2.74 6.93 -2.77 -1.1 -7.56 19.11 -31.94 -12.64 2.74 -6.93 Z" />
				<path style="stroke:none" d="M701.44 259.14 l13.88 -4.74 -2.41 -7.07 5.69 -1.94 -3.76 -11 -19.57 6.69 6.17 18.06 Z" />
				<path style="stroke:none" d="M461.78 250.61 l6.02 -0.58 0.77 7.92 -6.02 0.58 -0.77 -7.92 Z" />
				<path style="stroke:none" d="M700.09 626.84 l24.93 -3.99 1.77 11.05 -24.93 3.99 -1.77 -11.05 Z" />
				<path style="stroke:none" d="M402.71 514.48 l0.44 -24.55 21.06 0.38 0.03 -1.58 3.78 0.07 -0.07 3.62 -3.17 -0.06 -0.41 22.52 -21.67 -0.39 Z" />
				<path style="stroke:none" d="M463.06 261.2 l4.01 -0.18 -0.04 -0.85 3.68 -0.17 0.45 9.87 -7.69 0.35 -0.41 -9.03 Z" />
				<path style="stroke:none" d="M852.82 61.13 l-2.25 12.52 -33.42 -6.01 2.5 -13.89 28.22 5.07 -0.25 1.38 5.2 0.93 Z" />
				<path style="stroke:none" d="M748.15 523.6 l1.82 11.38 -20.48 3.27 -1.82 -11.38 20.48 -3.27 Z" />
				<path style="stroke:none" d="M743.43 101.34 l-9.58 0.37 1.9 49.72 9.58 -0.37 -1.9 -49.72 Z" />
				<path style="stroke:none" d="M644.1 315.49 l41.58 -3.89 1.09 11.64 -5.71 0.53 0.8 8.51 -35.87 3.36 -1.88 -20.15 Z" />
				<path style="stroke:none" d="M321.99 533.4 l39.54 1.47 -0.74 19.76 -39.31 -1.17 0.51 -20.06 Z" />
				<path style="stroke:none" d="M740.11 467.12 l-14.58 30.08 -19.52 -9.46 14.58 -30.08 19.52 9.46 Z" />
				<path style="stroke:none" d="M554.88 280.55 l25.92 -2.54 1.59 16.23 -25.92 2.54 -1.59 -16.23 Z" />
				<path style="stroke:none" d="M689.93 391.44 l-36.59 3.86 0.79 8.5 36.75 -4.01 -0.94 -8.34 Z" />
				<path style="stroke:none" d="M440.89 511.54 l17.57 0.81 -0.33 7.3 -2.54 -0.12 -0.2 4.3 -6.43 -0.3 -0.11 2.48 -8.6 -0.39 0.65 -14.08 Z" />
				<path style="stroke:none" d="M760.9 462.42 l1.06 4.28 5.72 -1.41 -1.06 -4.28 -5.72 1.41 Z" />
				<path style="stroke:none" d="M325.12 244.22 l-1.11 38.82 12.42 0.36 0.84 -29.27 2.25 0.07 0.27 -9.55 -14.66 -0.42 Z" />
				<path style="stroke:none" d="M571.22 430.52 l-0.72 -9.7 11.05 -3.15 10.61 39.99 -15.29 3.72 -1.24 -4.56 0.4 -0.13 -1.9 -5.77 0.87 -0.29 -1.1 -2.9 -1.09 -11.02 -1.59 -6.2 Z" />
				<path style="stroke:none" d="M811.25 362.86 l14.42 6.05 -4.87 11.6 -14.42 -6.05 4.87 -11.6 Z" />
				<path style="stroke:none" d="M806.45 533.63 l7.32 -0.23 -0.04 -1.23 1.18 -0.04 0.08 2.42 3.78 -0.12 0.05 1.8 1.67 -0.05 0.44 14.14 -6.38 0.2 -0.03 -1.07 -7.57 0.23 -0.5 -16.05 Z" />
				<path style="stroke:none" d="M387.07 379.83 l-10.31 -0.36 1.13 -32.92 17.24 0.59 -0.74 21.7 -6.94 -0.24 -0.38 11.22 Z" />
				<path style="stroke:none" d="M887.6 667.05 l-0.45 7.74 3.43 0.2 0.45 -7.73 -3.43 -0.2 Z" />
				<path style="stroke:none" d="M680.51 512.21 l1.82 11.39 -12.04 1.92 -1.82 -11.39 12.04 -1.92 Z" />
				<path style="stroke:none" d="M806.82 491.43 l21.62 4.7 -5.01 23 -21.62 -4.7 5.01 -23 Z" />
				<path style="stroke:none" d="M804.11 476.01 l-4.68 20.51 -13.07 -2.99 1.34 -5.86 -4.3 -0.98 1.52 -6.66 -4.21 -0.96 1.83 -8 21.58 4.92 Z" />
				<path style="stroke:none" d="M454.54 205.87 l26.54 -2.93 1.71 15.54 -26.54 2.93 -1.71 -15.54 Z" />
				<path style="stroke:none" d="M449.01 183.9 l-24.87 -0.55 -0.75 33.61 -1.61 -0.04 -0.14 6.52 26.48 0.59 0.89 -40.13 Z" />
				<path style="stroke:none" d="M734.71 226.84 l8.65 -2.95 -3.78 -11.08 6.28 -2.14 -3.02 -8.84 -14.92 5.09 6.8 19.92 Z" />
				<path style="stroke:none" d="M376.84 564.27 l10.37 0.5 -0.69 13.53 -10.61 -0.37 0.93 -13.66 Z" />
				<path style="stroke:none" d="M475.77 245.16 l7.29 -0.31 0.24 5.68 1.9 -0.08 -0.13 -3.03 6.8 -0.29 0.34 8.04 -7.22 0.31 -0.05 -1.19 -1.1 0.05 0.05 1.26 -7.67 0.33 -0.46 -10.76 Z" />
				<path style="stroke:none" d="M898.81 123.1 l-3.37 -0.72 -0.37 1.72 -1.45 -0.31 0.4 -1.87 -13.46 -2.88 -0.49 2.3 -2.34 -0.5 -4.57 21.37 17.73 3.79 -0.38 1.76 2.9 0.62 5.4 -25.27 Z" />
				<path style="stroke:none" d="M291.58 496.39 l17.2 0.02 0.12 13.1 h-7.82 v-4.47 h-9.4 l-0.09 -8.66 Z" />
				<path style="stroke:none" d="M641.4 581.03 l25.54 -3.94 2.17 12.91 -2.58 0.81 2.31 17.53 -22.42 3.13 -5.02 -30.44 Z" />
				<path style="stroke:none" d="M505.04 249.18 l6.72 -0.79 -0.2 -1.67 13.43 -1.58 0.21 1.78 9.11 -1.07 1.8 15.34 -2.63 0.31 0.39 3.28 -7.32 0.86 -0.39 -3.35 -4.35 0.51 -0.3 -2.53 -14.97 1.76 -1.51 -12.86 Z" />
				<path style="stroke:none" d="M451.12 256.11 h8.72 l-1.12 17.54 -17.61 0.06 0.24 -8.72 4.93 0.01 4.74 -4.34 0.1 -4.55 Z" />
				<path style="stroke:none" d="M735.64 164.73 l16.74 -0.85 0.81 15.94 -16.74 0.85 -0.81 -15.94 Z" />
				<path style="stroke:none" d="M596.37 158.51 l31.47 -3.29 6.06 58.1 -31.47 3.29 -6.06 -58.1 Z" />
				<path style="stroke:none" d="M579.25 398.32 l-2.29 -21.19 -1.04 0.11 -0.57 -5.3 -2.34 0.25 -0.44 -4.08 -21.32 2.31 0.43 4.01 1.47 -0.16 0.52 4.77 -10.5 1.14 1.28 11.82 11.34 -1.23 1.08 9.97 22.39 -2.42 Z" />
				<path style="stroke:none" d="M812.35 241.16 l8.75 24.89 24.98 -8.78 -7.76 -22.08 -14.69 5.17 -0.99 -2.81 -10.29 3.62 Z" />
				<path style="stroke:none" d="M284.87 426.81 l19.29 0.65 -0.68 20.01 -19.29 -0.65 0.68 -20.01 Z" />
				<path style="stroke:none" d="M816.46 121.81 l9.01 1.99 -2.15 9.73 -9.01 -1.99 2.15 -9.73 Z" />
				<path style="stroke:none" d="M684.11 218.8 l11.45 -4.18 4.12 11.28 -0.91 0.33 1.61 4.4 0.88 -0.33 2.37 6.48 -14.05 5.13 -4.17 -11.42 2.62 -0.96 -3.92 -10.74 Z" />
				<path style="stroke:none" d="M488.26 286.32 l-1.12 0.11 -5.21 -4.46 -0.4 -4.48 8.92 -0.71 0.79 9.27 -1.17 0.11 0.4 4.33 1.13 -0.08 0.71 8.35 -8.55 0.4 -0.38 -4.15 4.04 -4.3 1.13 -0.08 -0.29 -4.3 Z" />
				<path style="stroke:none" d="M395.9 562.35 l20.79 0.75 v5.77 l-2.73 -0.05 -0.25 11.9 -16.95 -0.12 0.68 -12.08 -1.86 -0.03 0.31 -6.15 Z" />
				<path style="stroke:none" d="M870.56 249.24 l0.62 9.85 17.73 -1.12 1.51 23.97 50.09 -3.15 -1.67 -26.51 -50.19 3.16 -0.27 -4.37 -8.86 0.55 -0.18 -2.93 -8.77 0.55 Z" />
				<path style="stroke:none" d="M373.54 488.83 l18.1 0.59 -0.69 21.37 -18.1 -0.59 0.69 -21.37 Z" />
				<path style="stroke:none" d="M243.84 241.7 l-1.02 0.76 -0.51 8.74 1.02 0.83 6.76 0.13 0.45 -0.57 9.12 0.13 0.13 15.95 -0.89 0.96 -0.45 5.87 0.89 1.15 8.74 0.25 0.77 -0.76 v-5.87 l-0.96 -1.09 h-1.21 l-0.19 -1.65 1.34 -1.21 0.51 -10.85 -1.08 -0.51 -0.19 -1.91 -2.23 -0.19 -0.25 -6.57 -1.08 -0.83 -6.06 -0.38 -0.7 0.63 -0.06 -1.2 -5.36 -0.03 -0.48 0.59 -0.18 -1.53 -0.65 -0.75 -6.15 -0.08 Z" />
				<path style="stroke:none" d="M646.56 613.23 l4.21 26.5 26.36 -3.53 -3.4 -20.11 -1.9 0.27 -0.95 -6.66 -24.32 3.53 Z" />
				<path style="stroke:none" d="M878.48 80.65 l1.82 3.38 9.18 2.08 0.95 -2.08 11.52 2.77 -0.17 2.43 3.55 0.87 5.11 -27.55 -20.53 -4.42 -4.68 24.08 -6.76 -1.56 Z" />
				<path style="stroke:none" d="M615.46 367.23 l15.77 -1.66 0.68 6.42 -2.54 0.27 2.45 23.21 -13.23 1.4 -3.13 -29.63 Z" />
				<path style="stroke:none" d="M603.82 484.16 l13.44 -4.41 4.91 14.94 -13.44 4.41 -4.91 -14.95 Z" />
				<path style="stroke:none" d="M721.89 592.37 l10.13 -1.84 3.56 19.61 7.33 -1.33 -0.29 -1.59 11.16 -2.03 -0.12 -0.66 5.55 -1.01 0.81 4.47 -6.76 1.23 1.03 5.65 -8.82 1.61 1 5.49 -8.02 1.46 0.63 3.48 -11.08 2.01 -0.85 -4.69 0.51 -0.1 -5.77 -31.76 Z" />
				<path style="stroke:none" d="M788.94 147.9 l-8.05 31.43 -13.26 -3.4 4.35 -17.01 -2.62 -0.67 1.64 -6.42 -2.56 -0.66 2.05 -8.01 18.44 4.72 Z" />
				<path style="stroke:none" d="M796.83 436.2 l6.07 -3.82 -10.58 -16.84 -6.07 3.81 10.58 16.84 Z" />
				<path style="stroke:none" d="M230.69 249.41 l-0.09 5.58 1.7 0.02 -0.31 20.33 5.32 0.09 0.33 -21.08 -1.96 -0.03 0.08 -4.82 -5.06 -0.08 Z" />
				<path style="stroke:none" d="M637.4 405.02 l2.99 11.82 -25.95 6.56 -2.99 -11.82 25.95 -6.56 Z" />
				<path style="stroke:none" d="M595.99 294.26 l22.28 -2.34 2 19.09 -22.28 2.34 -2 -19.09 Z" />
				<path style="stroke:none" d="M678.08 534.48 l12.66 -2.39 1.76 9.28 -12.66 2.39 -1.76 -9.28 Z" />
				<path style="stroke:none" d="M325.39 573.33 l-13.19 -0.39 -1.27 18.65 13.55 0.74 0.91 -19 Z" />
				<path style="stroke:none" d="M641.8 199.57 l-1.5 -15.3 16.29 -1.6 2.53 25.77 -13.7 1.35 -1.03 -10.46 -2.6 0.25 Z" />
				<path style="stroke:none" d="M318.83 322.35 l-0.15 27.31 47.87 2.1 0.7 -27.58 -48.42 -1.83 Z" />
				<path style="stroke:none" d="M338.14 577.95 l18.4 0.43 -0.32 13.72 2.55 0.06 -0.29 12.49 -20.96 -0.49 0.61 -26.21 Z" />
			</g>
		</g>
		<g id="Line_artwork" style="stroke-linejoin:round;fill:none">
			<g id="highway_service" style="stroke-linecap:round;stroke:#D8D8D8;stroke-width:3.25">
				<path d="M600.42 224.69 l-4.69 -34.07 -2.26 -23.46 -3.99 -5.93 -10.2 -0.24 -6.48 2.59 -6.72 -0.4 -19.91 5.26 -24.53 2.35 -8.01 -1.7 -7.81 0.41 -14.18 1.6 -2.52 3.2 6.43 61.9" />
				<path d="M225.44 335.4 l12.52 -21.99 2.17 -1.89 2.03 -0.13 0.95 1.49 0.54 1.89 0.41 4.33 0.4 11.92 0.95 6.64 1.9 5.69 2.71 3.66 2.98 2.57 6.77 5.15 2.31 2.57 1.35 2.17 0.81 3.79 0.14 3.79 -0.14 14.09 -0.41 4.35 0.41 4.46 v4.74 l-0.95 2.17 -1.76 1.49 -2.57 0.81 -2.57 0.27 -0.54 -1.63 1.49 -2.57 2.44 -2.98 2.57 -3.25 1.49 -3.51" />
				<path d="M379.92 454.71 l29.66 1.24 1.22 -23.07 7.21 -0.08" />
				<path d="M514.68 494.63 l66.21 1.55 2.85 1.3 0.52 4.41 -2.33 1.81 -67.2 -2.08" />
				<path d="M389.26 402.77 l-0.65 23.39 -7.53 -0.08 1.33 -23.58" />
			</g>
			<g id="highway_service1" style="stroke-linecap:round;stroke:#D8D8D8;stroke-width:3.25">
				<path d="M675.51 340.18 l-38.76 4.37" />
				<path d="M373.44 235.46 l-2.58 43.31 -0.48 22.14 -26.19 -3.57 -0.24 -18.81 26.9 0.24" />
				<path d="M268.62 668.56 l1.68 5.2 9.46 -0.45 2.43 -12.95" />
				<path d="M279.77 673.31 l17.77 -0.31 19.73 -0.31 14.07 0.62 0.76 -6.43" />
				<path d="M449.91 309.57 l-3.85 89.61" />
				<path d="M637.38 451.88 l2.18 5.73 1.96 4.89 5.18 4.15 5.44 2.33 5.96 4.14 6.22 7.77 2.33 6.48 1.55 9.07 -1.55 8.29 -0.48 2.39 -0.56 2.79 -0.78 7 v6.47 l0.78 6.48 -1.55 1.29 h-22.54" />
				<path d="M688.84 381.63 l-41.72 6.12" />
				<path d="M249.51 513.31 l-8.36 -1.78" />
				<path d="M582.79 408.36 l13.47 57.77 1.25 5.19 1.86 7.76 7.77 23.31" />
				<path d="M312.29 509.47 l-1.27 -37.63 0.51 -14.53 0.16 -4.59 0.37 -13.73 2.97 -86.65 0.11 -4.58 1.34 -28.83 0.03 -2.41 2.75 -82.85" />
				<path d="M593.32 509.66 l22.28 0.78 5.73 1.31" />
				<path d="M670.5 442.81 l-1.14 -6.16" />
				<path d="M886.21 245.84 l6.68 -33.1 -8.46 -6.07" />
				<path d="M698.59 449.55 l-3.73 6.75 -3.37 1.04 -2.59 -1.04 -3.08 -1.31 -2.36 -1.27 -3.08 1.27 -11.68 11.16 -1.27 2.31 0.52 2.07 11.14 12.69 2.33 0.52 2.57 -0.76 17.22 -15.82" />
				<path d="M454.54 174.5 l27.68 -4.37" />
				<path d="M315.02 352.35 l51.63 2.65 -1.3 49.22 -1.33 35.71 -0.47 32.17 -0.56 1.62" />
				<path d="M364.03 439.93 l-51.97 -0.92" />
				<path d="M735.27 589.18 l31.31 -5.22" />
				<path d="M950.78 247.4 l-35.28 3.07 -24.79 -1.57 -4.49 -3.06 -17.8 -11.53" />
				<path d="M634 158.97 l7.06 56.72 0.73 5.74" />
				<path d="M442.77 286.03 l-11.24 -1.53" />
				<path d="M433.37 431.23 l-8.13 -0.1" />
				<path d="M823.14 527.46 l7.21 -30.2 0.59 -4.87 -4.09 -3.31 -6.04 -1.37 -5.84 -3.9 -2.73 -6.04 0.39 -5.45 4.09 -5.46 4.48 -2.34 10.33 -1.36" />
				<path d="M798.4 522.01 l2.14 -5.07 -0.97 -7.4 -1.75 -4.28" />
				<path d="M789.2 398.02 l16.35 26.6" />
				<path d="M774.31 415.8 l-4.33 -7.68 -3.11 -27.46 -19.69 -33.16 -3.62 -8.29 16.06 -41.96 35.23 -13.73 6.48 -1.03 2.83 3.41 30.13 13.69" />
				<path d="M376.33 342.79 l25.67 0.25" />
				<path d="M491.74 658.91 l-15.54 -0.77 -2.69 9.3" />
				<path d="M514.58 479.85 l0.02 3.48 0.04 5.6 0.04 5.71 0.05 6.99 0.05 7.05 0.05 7.72 0.27 42.48 2.33 2.33" />
				<path d="M366.65 355 l3.56 -3.56 0.75 -30.21 -54.5 -2.28" />
				<path d="M282.57 330.83 l1.41 -72.89" />
				<path d="M331.2 482.44 l-1.29 30.05 35.67 1.43" />
				<path d="M317.27 672.69 l1.38 -7.8" />
				<path d="M288.95 348.22 l-8.69 0.29 -2.89 0.1" />
				<path d="M791.19 572.46 l5.65 -7.99 5.46 -13.64 1.75 -11.1 v-17.14" />
				<path d="M818.86 456.74 l2.34 7.79" />
				<path d="M236.69 525.5 l5.34 4.18 -0.89 7.38" />
				<path d="M894.01 351.68 l-18.52 2.06" />
				<path d="M225.44 335.4 l38.39 50.09" />
				<path d="M379.22 461.7 l37.56 1.78 0.16 -4.05 1.06 -26.62 1.05 -23.32 -0.24 -2.27 -1.13 -2.02 -2.34 -1.38 -26.07 -1.05 -6.85 -0.27 0.11 -1.83 0.3 -5.1" />
				<path d="M837.85 612.88 l11.37 2.8 2.59 5.44 -1.04 11.14 -6.73 6.73 -10.88 8.81 -8.81 1.29 -14.74 5.35" />
				<path d="M879.98 269.58 l-14.21 1.31" />
				<path d="M481.69 145 l0.53 25.13 2.03 24.93 3.32 20.56 -0.16 2.27 -0.97 1.54 -3.16 2.67 -2.83 3.48 -1.21 4.29 0.16 7.45" />
				<path d="M323.69 524.15 l41.72 0.38" />
				<path d="M825.79 409.29 l-13.89 -19.45 -1.87 -2.62 -2.62 -1.12 -9.88 -4.8" />
				<path d="M416.95 459.43 l7.21 0.5" />
				<path d="M818.73 269.54 l-11.4 -36" />
				<path d="M245.36 301.64 l-5.98 3.45 -16.56 27.01" />
				<path d="M689.02 368.91 l-0.18 12.73 3.27 2.33 3.05 11.09" />
				<path d="M216.14 550.98 l8.42 2.72 11.67 3.53" />
				<path d="M804.64 472.13 l7.99 0.2" />
				<path d="M751.04 493.34 l-3.09 1.32 -7.8 3.33 -17.61 2.85 -18.14 -12.18 -3.19 -21.5 -2.62 -17.61 -0.68 -4.58 -0.63 -4.23" />
				<path d="M722.54 500.84 l-41.14 5.19" />
				<path d="M311.53 457.32 l-3.94 -1.74" />
				<path d="M692.74 523.86 l-17.91 2.95" />
				<path d="M681.59 566.64 l-39.29 6.46" />
				<path d="M331.62 176.65 l-18.29 0.69" />
				<path d="M692.22 332.24 l7.13 17.16 0.18 4.98 -59.78 6.82" />
				<path d="M722.89 195.99 l11.39 34.69 -12.79 21.53 3.14 9.16" />
				<path d="M904.84 126.74 l5.82 -32.96 10.88 -50.75" />
				<path d="M779.88 281.45 l-11.05 -34.96" />
				<path d="M315.13 347.78 l-6.78 0.22 -19.4 0.22 -8.22 -8.83 -3.16 -3.39" />
				<path d="M425.15 433.71 l-7.14 -0.9" />
				<path d="M623.89 457.08 l-0.47 5.82 -0.43 5.34 0.9 27.95" />
				<path d="M711.17 440.94 l-0.3 -5.57" />
				<path d="M778.54 411.27 l21.02 33.36" />
				<path d="M395.42 180.53 l-1.53 48.74 -0.07 6.15" />
				<path d="M569.04 422.62 l2 50.08" />
				<path d="M704.24 268.24 l20.41 -6.87 44.18 -14.88 38.51 -12.96 9.84 -2.59 7.77 -0.51 19.17 1.55 13.1 -0.52" />
				<path d="M641.53 506.53 l24.65 0.58" />
				<path d="M691.05 511.79 l1.69 12.08 3.2 24.25" />
				<path d="M325.67 563.14 l37.32 1.05" />
				<path d="M576.42 360.38 l5.18 38.76" />
				<path d="M818.09 -24.67 l-5.05 2.12 -42.69 17.87 -32.84 15.91 -26.72 21.83 13.26 26.32 15.87 28.88 72.55 -29.88 6.22 -21.76 3.63 -26.68" />
				<path d="M452.59 237.71 l-0.14 -6.77 -0.54 -49.26 h-29.5 l-2.74 54.88" />
				<path d="M332.31 223.76 l-0.69 -47.11 0.23 -24.24" />
				<path d="M593.32 528.83 v-19.17 l0.87 -24.36 5.18 -6.22" />
				<path d="M352.43 234.5 l1.14 -9.83 -21.27 -0.91 -16.01 -0.46" />
				<path d="M528.93 637.05 l4.51 -3.96 3.68 -3.23 27.2 1.04 5.22 3.35 6.8 4.37" />
				<path d="M463.77 197.66 l20.48 -2.59" />
				<path d="M443.72 558.11 l4.41 2.1 5.11 6.32 1.08 7.13 -6.59 23.14" />
			</g>
			<g id="highway_residential" style="stroke-linecap:round;stroke:#D8D8D8;stroke-width:7.12">
				<path d="M301.54 630.49 l8.13 -16.97 -0.66 -6.3 -7.8 0.33 -7.47 -0.5 -9.96 -3.15 3.15 -15.1" />
				<path d="M204.05 454.57 l7.43 -5.77 4.48 -1.28 6.02 2.05 6.41 2.94 2.38 0.42 2.62 -1.19 10.37 -5.08" />
				<path d="M313.33 540.94 l-56.78 -10.32" />
				<path d="M824.31 598.57 l17.34 -22.01 10.15 -16.66 3.61 -8.78 2.09 -16.86 0.33 -15.95 6.15 -27.02 6.76 -28.85 8.45 -22.02 4.16 -14.56 3.11 -14.09 -1.58 -17.55 -3.84 -15.4 -5.4 -16.68 -0.13 -8.39 -2.86 -21.92 -1.93 -32.38 -4.93 -28.55 -4.12 -3.93 -11.22 -4.3" />
				<path d="M857.49 534.26 l-4.92 0.51 -12.09 -2.05 -8.18 -2.14 -9.16 -3.12 -11.3 -3.9 -7.79 -0.98 -5.65 -0.58 -16.36 -0.39 -15.2 1.77" />
				<path d="M920.39 418.11 l-33.95 -6.34" />
				<path d="M275.66 513.49 l-15.47 -2.61" />
				<path d="M554.17 674.71 l-5.7 -2.07" />
				<path d="M602.12 654.82 l60.87 7.77 24.26 -0.91 16.84 -1.81 0.28 2.75 1.48 9.4 0.75 15.48" />
				<path d="M274.74 425.33 l-5.59 1.04 -15.9 0.52 -15.77 -4.48 -9.02 -4.73 -11.22 -5.81 -10.17 -3.73 -21.23 -5.75 -11.25 -1.43 -10.41 -1.31 -16.91 1.27 -4.62 0.07 -22.79 6.22 -22.35 12 -9.26 4.31 -42.22 26.94 -15.54 9.58 -23.51 21.72 -19.82 17.9 -15.63 13.71 -20.44 19.13 -13.81 13.62 -12.56 12.6 -1.71 3.34 -0.57 3.89 0.2 5.03" />
				<path d="M245.62 572.39 l-19.43 -5.66 -4.61 -1.9 -14.66 -3.8 -5.43 -0.81 -2.72 -1.63 -5.43 -2.99 -5.43 -6.24 -2.72 -4.62 -0.54 -4.34 -2.71 -4.62 -3.26 -4.35 -6.79 -9.23 -8.41 -7.87 -15.75 -16.29" />
				<path d="M884.87 394.21 l-16.21 4.38" />
				<path d="M510.39 655.02 l-1.3 3.11 9.84 4.14 8.94 -1.07 18.46 8.13 2.14 3.3 -9.37 20.44" />
				<path d="M841.83 366.27 l4.67 2.62 5.98 -0.38 7.29 -2.8 15.84 -3.58" />
				<path d="M238.16 633.73 l10.77 1.53 7.13 -0.4 12.06 -3.24 13.19 -3.4 6.23 -0.24 14 2.51 21.86 4.7 22.91 6.47 43.32 14.48" />
				<path d="M927.86 458.48 l-13.84 -0.19 -3.18 -1.31 -6.17 -7.48 -3.18 -2.62 -4.3 -1.31 -18.01 -5.16" />
				<path d="M403.23 833.22 l-4.75 -41.15 4.91 -19 17.5 -67.69 7.72 -29.85 8.26 -9.29 10.67 -5.85 h8.26 l15.61 6.2 2.09 0.86 15.01 6.14 50.59 19.5 28.94 10.55 5.7 3.11 1.21 1.61 1.12 1.5 2.33 4.66 1.45 3.27" />
				<path d="M287.54 627.98 l-1.21 11.33 -4.13 21.05" />
				<path d="M460.91 735.84 l6.26 -4.56 21.34 -57.71" />
				<path d="M919.82 509.53 l-0.75 -5.79 -2.99 -4.67 -4.67 -3.74 -8.23 -1.13 -13.28 -1.12 -12.16 -1.12 -13.77 -0.66" />
				<path d="M901.86 540.02 l-4.3 15.52" />
				<path d="M860.16 580.26 l-18.51 -3.7" />
				<path d="M228.46 417.68 l-2.82 8.91 1.96 5.21 6.3 4.13 7.38 5.65 2.48 5.1 2.3 11.41 -0.87 9.12 -4.13 9.78 -1.3 8.69 -1.8 11.7 2.45 6.55 0.73 7.63 -4.45 13.97 -4.62 -2.31" />
				<path d="M924.3 545.62 l-6.92 4.68 -6.17 3.37 -5.24 1.87 h-8.42 l-42.15 -4.42" />
				<path d="M214.99 506.46 l2.4 -7.2 3.38 -2.14 3.27 -0.41 2.25 -0.04 11.67 0.69" />
			</g>
			<g id="highway_unclassified" style="stroke-linecap:round;stroke:#D8D8D8;stroke-width:7.12">
				<path d="M446.06 399.18 l-8.84 0.33 -6.76 -0.24" />
				<path d="M272.38 367.56 l-5.16 -13.67 -6.23 -7.16" />
				<path d="M254.28 342.7 l10.29 0.34 8.52 2.67 4.29 2.9 -4.32 -0.03 -5.2 -0.6 -6.88 -1.24 -6.7 -4.03" />
				<path d="M365.22 671.41 l22.7 -8.41 1.72 -6.86" />
				<path d="M769.61 602.13 l-3.03 -18.16 -1.81 -10.84 -5.96 -34.96 -7.77 -44.83 2.07 -8.03" />
				<path d="M237.61 235.44 l7.13 -3.03 13.1 -1.77 4.88 -0.91 3.84 -1.85" />
				<path d="M238.56 241.37 l-3.06 2.75 -4.05 -0.24 -2.52 -2.57 -0.17 -4.01 2.47 -2.87 3.1 -0.61 3.28 1.63 1.2 2.04 -0.26 3.88 2.72 -3.25 4.12 -2.34 12.77 -2.08 4.35 0.65 4.12 1.31" />
				<path d="M755.43 459.13 l3.36 12.74 5.72 34.67 2.33 16.84 6.47 26.94 -2.59 2.85" />
			</g>
			<g id="highway_unclassified1" style="stroke-linecap:round;stroke:#D8D8D8;stroke-width:7.12">
				<path d="M362.09 612.76 l0.89 -48.57 0.49 -8.09 1.94 -31.57 0.16 -10.6 1.3 -39.67" />
				<path d="M254.28 342.7 l-2.69 -6.66 0.71 -28.1 -1.31 -4.57" />
				<path d="M389.63 656.14 l18.55 1.25 25.26 -5.77 31.49 -8.73 5.97 -2.47" />
				<path d="M758.8 538.17 l-62.86 9.95 -7.51 1.55 -3.63 1.55 -2.59 1.56 -0.78 2.33 -0.78 2.59 0.26 4.4 0.68 4.53 8.12 55 1.45 9.86" />
				<path d="M429.24 300.65 l2.28 -16.15 1.99 -47.1" />
				<path d="M875.69 85.94 l34.97 7.85 2.25 0.32 4.88 1.33" />
				<path d="M623.51 223.35 l0.28 2.69 2.09 22.01 5.88 51.49 2.07 18.93 2.92 26.07 1.2 9.22 1.8 7.43 7.37 26.55 12.39 57.51" />
				<path d="M399.82 395.98 l2.19 -52.94 1.05 -29.14 2.27 -5.18 4.61 -2.35 7.2 -0.16 7.97 -0.54" />
				<path d="M509.54 367.75 l66.88 -7.37 61.53 -6.61" />
				<path d="M749.57 94.69 l2.33 49.73 1.55 5.7 3.37 12.43 1.29 8.81 0.35 10.43 0.17 5.11" />
				<path d="M425.24 395.59 l2.54 -0.06 1.13 0.58 1.44 2.17 -0.02 1.96 -0.93 1.64 -2.32 1.17 -2.03 -0.3 -1.15 -0.78 -1.07 -1.93 0.14 -2.13 1.35 -1.82 0.93 -0.5" />
				<path d="M410.38 673.8 l18.24 1.72" />
				<path d="M658.36 131.79 l0.51 17.69 2.57 11.54 2.05 7.44 2.31 9.23 0.77 10.77 1.97 20.6 0.72 5.03" />
				<path d="M506.89 330.65 l58.28 -6.47 68.65 -5.7" />
				<path d="M426.3 403.06 l-1.06 28.07 -0.1 2.58 -0.99 26.21 -0.61 16.24" />
				<path d="M821.08 202.81 l1.31 -4.15 6.47 -16.49 4.89 -13.03 4.81 -22.83 -29.44 -6.75 -7.13 -1.88 -3.19 -2.44 -0.75 -3.94 3 -18.38 9.56 -41.82" />
				<path d="M246.95 294.71 l3.71 -0.81 2.98 2.29 0.38 4.2 -3.02 2.99 -2.9 0.12 -2.74 -1.85 -0.64 -4.75 2.24 -2.19 -7.41 -5.86 -23.24 -23.06 -25.58 -20.1 -29.46 -15.86 -25.26 -5.18 -26 -5.24 -13.5 -10.62 -7.58 -8.75" />
				<path d="M927.27 26.3 l-4.64 0.73 -4.92 0.77 -11.63 0.19 -19.51 -4.31 -3.61 20.66 -7.27 41.61 -13.32 63.76 -23.82 -3.38" />
				<path d="M433.08 305.75 l-2.52 2.83 -3.69 -0.4 -1.76 -2.51 0.86 -3.56 3.27 -1.46 3.28 1.84 0.56 3.27 16.83 3.82" />
				<path d="M812.96 646.24 l-3.34 8.2 -2.36 5.79 3.62 8.03 -6.21 4.4" />
				<path d="M363.47 556.1 l77.25 3.57 2.99 -1.56 1.29 -3.27 0.97 -22.28 -3.84 -3.75 -76.72 -4.28" />
				<path d="M689.71 621.64 l32.07 -5.28" />
				<path d="M422.96 397.9 l-6.87 -1.2 -16.27 -0.73 -16.99 -0.41 -5.92 -0.56" />
			</g>
			<g id="highway_tertiary" style="stroke-linecap:round;stroke:#FEFEB2;stroke-width:10.25">
				<path d="M291.06 224.82 l11.48 8.08 -11.23 5.54" />
				<path d="M855.98 226.79 l-1.04 -5.18 -3.37 -6.22 4.14 0.78 4.13 0.73 4.67 0.82 9.84 -0.52 4.92 -2.07 -8.29 15.54" />
				<path d="M754.66 451.62 l0.78 7.51 -1.03 8.3 7.77 39.89 1.29 20.72 -5.44 -20.46 -4.92 -22.28 -5.15 -24.08 -6.22 -6.74" />
				<path d="M868.42 234.31 l-5.26 5.15 -3.08 4.7 -0.46 -5.96 -2.39 -6.73" />
				<path d="M745.89 438.17 l8.81 -3.89 5.96 -3.89 -3.88 5.7 -2.33 6.22" />
				<path d="M738.85 451.88 l-9.54 -9.31 5.7 -0.78 5.7 -2.07" />
				<path d="M279.16 463.89 l1.29 3.25 0.75 3.23 -0.47 3.37" />
				<path d="M769.38 608.66 l0.23 -6.54 1.12 -11.65 -5.96 -37.56 -0.78 -21.5 6.74 21.76 9.3 40.32 3.85 11.28" />
				<path d="M797.32 654.2 l7.35 18.47 2.59 5.96 17.61 32.12 30.04 49.39 -47.03 -57.27 -7.31 -11.92 -16.07 -31.69" />
				<path d="M292.94 471.93 l-12.21 1.81 -13.18 7.12" />
			</g>
			<g id="highway_tertiary1" style="stroke-linecap:round;stroke:#FEFEB2;stroke-width:10.25">
				<path d="M272.57 453.3 l6.59 10.59 13.78 8.04 18.08 -0.08 h20.72 l31.25 1.87 3.88 0.54 56.67 1.91 23.77 0.84 28.69 1.98 17.16 1.39 21.42 -0.52 3.07 -0.08 -8.12 -112.02 -2.25 -33.54 -0.39 -3.57 -11.34 -94.46 -16.17 1.14 -11.34 0.76 -15.45 -0.38 -19.08 -0.31 -13.85 -0.84 -25.84 -1.14 -20.38 0.04 -21.01 -0.96 -33.18 -0.82 -16.7 -0.78" />
				<path d="M851.58 215.39 l-11.73 -5.42 -18.77 -7.16 -32.36 -11.69 -14.81 -3.96 -15.28 -0.25 -15.6 2.56 -20.14 6.52 -19.39 6.27 -34.25 11.82 -27.46 7.34 -11.55 1.22 -6.74 0.71 -23.09 1.33 -25.46 4.25 -24.04 2.63 -55.35 4.62" />
				<path d="M729.31 442.57 l-18.15 -1.63 -13.88 -0.2 -10.42 0.19 -16.36 1.88 -11 2.46 -13.37 3.63 -8.75 2.98 -13.5 5.2 -27.63 9.05 -25.21 6.57 -17.52 3.32 -23.24 3.18 -12.64 0.57" />
				<path d="M767.73 554.42 l-3.74 -23.01 -0.52 -3.37" />
				<path d="M741.75 454.48 l-2.89 -2.6 -1.51 -4.13 0.51 -3.66 2.86 -4.37 5.18 -1.55 5.4 1.54 3.15 2.61 0.78 4.92 -0.56 4.39 -4.1 3.12 -4.71 1.28 -4.1 -1.54" />
				<path d="M760.66 430.39 l13.65 -14.6 4.23 -4.53 4.69 -6.11 5.96 -7.14 8.34 -16.73 36.76 -81.71 16.14 -36.92 9.65 -18.51" />
				<path d="M868.42 234.31 l-4.14 1.29 -4.4 -1.03 -2.65 -3.11 -1.24 -4.67 1.29 -4.41 2.59 -3.11 4.66 -1.55 5.18 1.03 3.14 2.82 0.23 4.43 -2.07 4.67 -2.59 3.63" />
				<path d="M879.3 215.13 l5.14 -8.47 4.45 -7.33 11.79 -19.97 8.16 -25.21 5.16 -30.16 2.44 -16.06 1.39 -12.5 5.49 -27.43 3.78 -22.45 0.47 -12.61 -0.28 -6.65 0.79 -26.13 2.79 -24.85 2.09 -13.45 5.95 -35.7" />
			</g>
			<g id="highway_primary" style="stroke-linecap:round;stroke:#ECA2A3;stroke-width:10.25">
				<path d="M758.47 642.67 l-7.54 -0.47 -38.63 9.15 -24.34 4.49 -17.63 0.86 -16.47 -0.86 -42.29 -6.27 -36.03 -4.21 -46.36 -1.61 -33.22 4.52 -39.47 7.63 -65.27 16.22 -70.78 15.08 -63.47 13.87" />
				<path d="M777.11 658.21 l-9.52 2.04 -6.52 8.17 0.5 -21.51" />
				<path d="M1021.83 508.58 l-58.15 37.4 -34.01 19.7 -41.17 22.2 -50.65 25 -29.51 14.57" />
				<path d="M367.87 -201.16 l-7.84 9.28 -7.06 8.91 -4.28 6.98 -3.45 6.5 -3.05 6.31 -3.62 9.19 -2.36 7.43 -2.3 8.3 -5.64 26.18 -14.1 71.66 -6.94 35.57 -10.49 50.49 -9.24 45.74 -5.93 49.76 -1.31 13.4 -0.65 38.47 0.29 16.21 4.18 8.5" />
				<path d="M283.76 245.75 l-5.07 11.58 -0.81 59.31 -0.3 19.37 -0.2 12.6 -0.3 7.55 -1.18 29.68 -1.16 39.49 -1.27 15.49 -0.91 12.47 -5.02 27.56 -2.9 9.24 -4.46 20.78 -3.64 19.74 -3.53 21.42 -3.46 21.02 -2.15 14.11 -9.25 46.55 -3.4 16.11 -3.81 15.78 -2.08 11.85 0.46 2.68 1.06 3.03 3.32 6.07" />
				<path d="M804.89 619.4 l12.6 -3.14 68.88 -34.27 40.64 -22.17 35.24 -20.63 59.32 -38.11" />
				<path d="M256.6 694.99 l62.22 -13.29 46.39 -10.29 24.8 -5.5 65.13 -16.36 39.89 -7.78 33.9 -4.73 47.41 1.57 36 3.91 42 6.05 16.54 0.86 16.09 -0.87 23.99 -4.22 37.39 -8.96 9.11 -5.21" />
				<path d="M273.43 218.13 l2.31 -10.88 -0.63 -14.53 0.74 -39.33 1.08 -12.24 3.8 -49.61 9.2 -47.83 4.2 -20.66 11.85 -64.59 16.19 -71.88 1.84 -13.81 2.63 -12.21 4.77 -16.67 2.92 -8.82 3.03 -7.97 3.05 -6.13 2.44 -4.19 2.75 -5.18 3.26 -4.58 1.41 -2.58 1.13 -2.16 1.3 -6.1" />
				<path d="M213.08 682.42 l5.01 -3.2 4.69 -5.58 0.61 -1.86 2.47 -7.54 3.64 -14.97 13.16 -63 2.95 -13.88 2.47 -13.58 12.88 -70.81 7.75 -47.27 0.44 -14.37 2.74 -40.94 0.49 -17.87 0.41 -11.41 0.27 -7.58 0.03 -2.87 0.27 -30.29 1.45 -63.75 -2.1 -6.86" />
			</g>
			<g id="highway_primary1" style="stroke-linecap:round;stroke:#ECA2A3;stroke-width:10.25">
				<path d="M266.63 235.66 l-0.08 -7.78 2.46 -3.83 1.85 -3.06 2.57 -2.86 5.46 -1.26 5.18 0.86 3.82 3.04 3.17 4.05 0.28 6.16 -0.03 7.46 -3.43 3.73 -4.12 3.58 -6.16 1.31 -4.88 -2.26 -2.46 -2.72 -1.97 -3.16 -1.65 -3.26" />
				<path d="M761.57 646.9 l-3.09 -4.23 -1.71 -5.99 0.67 -6.51 8.13 -17.86 3.81 -3.65 7.85 -3.29 6.64 -0.59 5.27 2.6 12.57 8.57 3.18 3.46 3.46 8.05 -0.11 4.74 -7.51 17.36 -3.4 4.65 -5.25 3.49 -7.57 1.57 -7.39 -1.05 -15.54 -11.31" />
				<path d="M757.31 688.53 l0.45 -2.83 3.3 -17.28" />
			</g>
			<g id="highway_primary_link" style="stroke-linecap:round;stroke:#ECA2A3;stroke-width:10.25">
				<path d="M780.02 593.5 l5.6 6.8 20.25 13.78 11.63 2.17" />
			</g>
			<g id="highway_tertiary11" style="stroke-linecap:round;stroke:#FEFEB2;stroke-width:10.25">
				<path d="M767.73 554.42 l10.13 62.34 6.69 23.44 6.7 19.12 23.24 44.32 15.09 21.1" />
			</g>
		</g>
	</g>
</svg>