<?xml version="1.0" encoding="utf-8"?>
<svg xmlns:xlink="http://www.w3.org/1999/xlink" version="1.1" xml:space="preserve" x="0" y="0" width="1280" height="752" style="overflow:hidden;text-rendering:optimizeLegibility" xmlns="http://www.w3.org/2000/svg">
	<g id="Map">
		<g id="Polygons" style="stroke-linejoin:round;stroke:#D8D8D8">
			<g id="building__fill" style="fill:#BCA9A9">
				<path style="stroke:none" d="M511.56 426.99 l0.06 0.24 0.22 -0.05 -0.06 -0.25 -0.22 0.06 Z" />
				<path style="stroke:none" d="M790.39 117.03 l0.42 0.88 2.3 -1.48 -0.58 -0.89 -2.14 1.49 Z" />
				<path style="stroke:none" d="M519.35 425.08 l0.26 0.96 -0.77 0.19 -0.24 -0.96 0.75 -0.2 Z" />
				<path style="stroke:none" d="M765.8 415.38 l1.41 -1.07 -2.46 -3.53 -5.33 4.09 2.19 3.39 1.33 -0.96 -1.28 -1.86 2.78 -2.11 1.36 2.06 Z" />
				<path style="stroke:none" d="M513.16 587.35 l0.79 0.35 0.26 -0.59 -1.46 -0.65 -0.21 0.48 0.67 0.3 -0.05 0.11 Z" />
				<path style="stroke:none" d="M1003.35 360.77 l0.57 -0.14 -0.09 -0.41 -0.58 0.12 0.11 0.43 Z" />
				<path style="stroke:none" d="M1001.62 362.31 l0.13 0.49 0.5 -0.11 -0.12 -0.51 -0.5 0.13 Z" />
				<path style="stroke:none" d="M826.6 161.07 l0.24 0.64 1.27 -0.52 -0.24 -0.62 -1.27 0.5 Z" />
				<path style="stroke:none" d="M754.45 163.62 l-0.78 0.67 0.47 0.56 0.79 -0.62 -0.48 -0.61 Z" />
				<path style="stroke:none" d="M541.94 568.64 l3.6 1.43 0.45 -1.13 -3.6 -1.43 -0.45 1.13 Z" />
				<path style="stroke:none" d="M1004.46 362 l0.38 -0.48 -0.52 -0.38 -0.43 0.49 0.57 0.37 Z" />
			</g>
		</g>
		<g id="Line_artwork" style="stroke-linejoin:round;fill:none">
			<g id="highway_path" style="stroke-linecap:round;stroke:#D8D8D8;stroke-width:0.67">
				<path d="M248.36 449.41 l5.77 -4.53" />
			</g>
			<g id="highway_track" style="stroke-linecap:round;stroke:#D8D8D8;stroke-width:1.17">
				<path d="M503.14 649.73 l-1.12 0.52 1.12 -0.52" />
				<path d="M1018.06 357.47 l-1.22 -1.03 -1.24 -1.03" />
			</g>
			<g id="highway_path1" style="stroke-linecap:round;stroke:#D8D8D8;stroke-width:0.67">
				<path d="M292.41 159.06 l0.03 -0.58" />
			</g>
			<g id="highway_path11" style="stroke-linecap:round;stroke:#D8D8D8;stroke-width:0.67">
				<path d="M291.67 196.21 l18.54 27.73" />
				<path d="M554.64 476.52 l-1.8 0.02 -24.34 -40.45" />
				<path d="M528.02 435.08 l-3.41 -5.81 -1.78 -5.01 -0.36 -0.95" />
				<path d="M431.98 699.78 l6.83 -5.91 0.87 -0.36" />
				<path d="M401.94 737.53 l20.53 -28.75 8.79 -8.33 0.1 -0.09" />
				<path d="M441.01 692.98 l0.07 -1.66 0.21 -1.52 1.12 -1.37 1.48 -1.26 1.92 -3.61 0.74 -1.04 1.81 -0.9 10.44 -8.46 22.12 -22.2 0.11 -0.26" />
				<path d="M1033.61 110.84 l9.9 -13.87 -0.22 -0.42" />
				<path d="M1042.7 96.08 l10.35 -41.12 14.6 -27.95 6.91 -14.77 -2.65 -57.13 4.1 -2.05 2.27 -1.05 0.54 -0.87" />
				<path d="M292.45 158.48 l-0.01 -0.59" />
				<path d="M312.35 220.45 l-1.41 -0.39 -18.26 -24.29 -0.26 -36.71" />
				<path d="M986.09 621.42 l0.81 0.07" />
				<path d="M527 565.75 l-21.69 -7.85 -0.28 -0.11" />
				<path d="M503.8 557.22 l-5.59 -0.97 1.46 -2.19 -31.86 -28.6 -1.12 -0.58 -17.54 -4.55 -31.22 -7.08 -27.59 -5.84 -32.52 -17.8 -17.81 -11.87" />
				<path d="M419.84 662.59 l1 0.94 1.41 -0.01 40.2 -10.27 0.9 1.22 17.6 -3.51" />
				<path d="M869.57 687.8 l1.51 0.86" />
				<path d="M505.64 423.37 l-0.22 -1.76 -44.95 -33.21 -3.06 -2.6 -15.65 -17.65 -1.21 -1.58 -20.01 -43.24 -1.52 -3.35 0.19 -1.28" />
				<path d="M454.37 156.66 l2.96 -10.3 0.82 -2.05 1.95 -3.23 0.62 -1.13 0.42 -1.91 0.11 -2.1 -0.62 -10.42 0.12 -1.33 0.27 -1.31 0.68 -1.17 2.12 -1.97 0.8 -0.99 0.7 -1.38 1.95 -4.97 1.02 -3.74 17.93 -68.18 0.94 -1.65 6.91 -6.9 5.3 -5.29 12.29 -48.76 7.73 -39.74 2.3 -10.14 9.41 -37.14 1.36 -8.43 0.6 -8.16" />
				<path d="M900.49 664.47 l-7.64 5.07" />
				<path d="M489.24 551.03 l-4.97 -6.2 -5.75 -6.37 -11.82 -10.34 -1.71 -0.82 -15.99 -2.49 -1.77 -0.14 -18.07 0.56 -3.66 0.36 -16.91 2.83 -10.67 2.09 -10.55 3.25 -1.78 0.29 -1.72 0.21 -1.43 -0.04 -5.47 -1.7 -1.95 -0.08 -1.25 0.28 -9.84 2.25 -1.93 0.49 -1.39 -0.15 -1.81 -0.24 -1.52 -0.55 -1.19 -0.66 -1.83 0.36 -1.55 -0.01 -26.14 -12.02" />
				<path d="M369.94 73.73 l0.27 -0.4" />
				<path d="M370.31 72.55 l8.71 -14.99 9.86 -21.72 5.95 -11.43 3.51 -5.46 2.23 -3.22 0.53 -1.62 -0.07 -1.88 -3.44 -10.33 -0.45 -1.58 -0.72 -3.55 -0.57 -3.12 -0.42 -3.2 -0.09 -1.68 -1.84 -35.79 0.63 -2.89 1.67 -4.45 0.34 -1.96 -0.09 -1.65 -0.53 -1.89 -1.21 -2.33 -2.36 -3.8 -2.98 -4.28 -1.1 -1.26 -5.93 -6 -4.25 -3.8 -1.89 -2.02 -3.47 -4.01 -6.05 -8.1" />
				<path d="M503.83 642.63 l-20.39 6.65 -1.62 -0.17 -0.67 0.94" />
				<path d="M298.25 233.02 l-3.59 -1.35 -10.8 -10.76 -2.39 -0.18 -37.6 -1.18" />
				<path d="M243.23 219.53 l-1.23 -0.46 -31.49 -31.34 -1.59 -0.53 -12.16 -1.16" />
				<path d="M115.77 434.44 l1.25 0.75 4.15 0.18 3.98 -1.67 39.9 12.51 32.11 -1.29 18.38 -0.8 2.37 0.03 1.95 0.72 27.51 5.2 0.99 -0.66" />
				<path d="M254.13 444.88 l1.51 -0.35 31.92 11.43 51.86 14.57" />
				<path d="M449.4 762.81 l5.46 2.72 6.3 -14.99 0.24 -1.3 -0.23 -1.33 -2.06 -3.02 0.05 -2.36" />
				<path d="M983.01 152.37 l-1.31 -0.21 -5.37 13.64 -0.05 1.07" />
				<path d="M976.67 168.03 l0.99 27.44 0.15 2.52 0.12 2 1.22 25.69 4.85 40.94 12.1 40.37 11.97 22.75 1.09 2.86 5.95 19.66 0.27 1.21 -0.53 1.23" />
				<path d="M956.09 215.37 l-1.07 -1.87 -0.04 -1.55 14.61 -33.17 1.19 -0.83 3.99 -5.24 0.92 -1.95 1.05 -2.5" />
				<path d="M531.22 573.18 l1.63 -4.36 1.11 -16.74" />
				<path d="M534.08 551.26 l-2.4 -22.58 20.71 -34.04 1.01 -1.02" />
				<path d="M323.09 609.34 l31.63 -4.88 31.47 -1.95 10.77 -0.05 5.44 0.15 5.15 0.39 2.04 -0.1 1.22 -0.21 6.14 -1.28 2.58 -0.3 1.9 0.29 1.91 0.6 1.86 0.13 1.66 -0.11 2.83 -0.23 1.45 -0.39 2.12 -0.98 1.24 -0.33 1.72 -0.16 1.95 -0.18 2.73 0.19 20.37 3.98 1.87 0.63 1.93 1.04" />
				<path d="M862.09 320.35 l1.27 -0.44 1.3 0.02 36.5 7.92 33.36 12.66 17.05 10.67 1.6 0.7 1.28 0.35 2.27 0.28 1.84 0.02 36.62 10.25 17.53 7.07 1.04 -0.77 -0.16 -11.08 0.17 -0.88" />
				<path d="M988.18 78.53 l-2.39 26.98 -0.02 0.87" />
				<path d="M996.08 -12.9 l0.62 1.15 0.15 2.94 3.32 24.88 8.92 29.31 -0.63 1.21 1.61 1.9 -22.66 28.39 0.13 0.94" />
				<path d="M442.22 15.3 l-1.8 0.1 -42.08 3.55" />
				<path d="M1058.72 116.83 l-25.1 -5.99 -1.32 -0.07 -14.66 10.7 -1.27 1.43 -1.81 1.39 -0.69 0.53" />
				<path d="M1036.45 396.64 l-25.76 -20.23 -1.1 -0.55" />
				<path d="M1047.07 432.24 l-10.41 -34.91" />
				<path d="M473.34 689.16 l0.64 -1.25 0.9 -1.31 0.62 -1.82 0.43 -1.49 27.92 -40.67 3.95 -10.1 0.15 -1.29 2.68 -6.95 2.3 -7.53 1.08 -3.29 0.89 -2.21 0.76 -1.61 1.91 -4.02 0.6 -1.75 0.44 -1.34 1.07 -2.98 0.19 -1.35 -0.66 -4.52 -0.21 -1.54 -0.23 -1.91 -0.22 -4.24 -0.41 -1.56 -1.34 -1.69" />
				<path d="M843.92 570.45 l14.32 -22.14 1.04 -2.01 0.48 -1.91 0.41 -3.38 0.18 -3.48 0.28 -1.61 0.42 -1.27 0.81 -1.18 1.28 -1.44 -11.77 -18.29" />
				<path d="M850.65 512.55 l-0.52 -0.91" />
				<path d="M853.97 369.15 l1.8 5.2 3.44 9 5.44 25.52 0.37 1.26 21.29 52.97 0.71 2.09 1.93 5.21 2.17 6.04 0.4 1.03" />
				<path d="M281.46 220.74 l-27.73 -21.1 -13.13 -15.21" />
				<path d="M240.27 184.04 l-35.47 -23.21 -0.74 -0.2" />
				<path d="M396.19 745.57 l2.81 -0.62 3.48 -6.49 -2.83 -6.57 -0.19 -1.39 21.28 -25.54 0.96 -1.23 1.6 -2.91 0.72 -3.06 -3.78 -2.68 -1.12 -0.89 -0.57 -1.3 -0.76 -20.42 -0.54 -2.63 -0.22 -1.72 -0.48 -1.75 -0.68 -1.14" />
				<path d="M857.14 706.12 l-0.38 -0.37" />
				<path d="M247.37 450.07 l-4.89 -5.9" />
				<path d="M301.75 156.89 l-0.92 0.8 -8.39 0.19 -5 0.03 -4.65 0.04" />
				<path d="M848.2 711.71 l-1.62 -1.05 -1.75 -0.69 h-1.51 l-2.11 0.56 -1.1 0.55" />
				<path d="M103.19 270.12 l25.13 25.33 7.44 -5.67 10.78 3.21 2.53 0.75 17.78 0.9 23.47 26.96 44.17 44.03 0.62 17.67 -1.28 4.5 -3.85 8.77" />
				<path d="M532.85 568.82 l-5.87 -2.6" />
				<path d="M1047.3 351.15 l23.03 12.84 21.92 11.07 24.96 5.77" />
				<path d="M389.38 95.27 l-1.66 -0.17 -4.49 -0.21 -4.88 0.56 -1.4 -0.76 -0.4 -3.59 -0.45 -2.44 -1.53 -6.27 -0.79 -2.23 -0.64 -1.29 -3.19 -5.15 -2.68 -4.84 -1.02 -1.42 -4.67 -4.75 -1.82 -1.42 -2.6 -1.17 -2.34 -0.89 -8.73 -2.03 -8.94 -1.85 -1.11 -0.85 -6.29 -10.27 -1.01 -2.72 -4.8 -18.93 -0.44 -2.34 -0.08 -1.93 0.75 -11.18 0.06 -1.66 -1.14 -8.99 -0.55 -2.43 -2.84 -9.23 -1.08 -1.86 -0.73 -1.23 -0.85 -1.07 -1.56 -1.32 -2.46 -1 -3.38 -1.53 -1.73 -0.98 -1.92 -2.34 -0.57 -0.74" />
				<path d="M1046.32 456.32 l0.16 -1.3 0.76 -3.33" />
				<path d="M312.21 560.02 l-2.08 0.7" />
				<path d="M302.72 743.74 l3.41 -0.53 1.2 -4.2 h2.23 l36.54 -14.98 15.49 -20.81" />
				<path d="M847.58 313.9 l-0.54 1.15 0.45 3.6 4.37 31.4 0.64 2.53 3.28 11.22 0.34 1.2" />
				<path d="M314.79 669.95 l38.75 -14.43 1.79 0.02 2.65 -0.28 9.55 -2.26 2.42 -0.95 4.62 -2.09 31.6 13.16 5.54 5.19" />
				<path d="M836.05 601.43 l-0.8 -1.2 0.84 -1.6 11.7 -23.27" />
				<path d="M229.89 358.79 l0.78 1.69 1.59 0.86 11.53 11.19 -9.31 23.21 -0.82 2.2" />
				<path d="M476.63 584.63 l-1.19 -1.68 -2.55 -1.94 -1.7 -0.8 -42.53 -6.4 -3.95 1.61 -42.54 6.62 -46.41 0.35 -3.67 2 -4.31 -1.56" />
			</g>
			<g id="highway_footway" style="stroke-linecap:round;stroke:#D8D8D8;stroke-width:0.67">
				<path d="M862.09 320.35 l-1.71 1.92 -1.03 1.23" />
				<path d="M595.03 451.45 l-0.77 1.09 -1.45 0.11" />
				<path d="M591.01 452.79 l-1.22 0.52 -34.05 21.11 -1.11 2.11" />
				<path d="M549.16 578.85 l-0.19 1.23 -1.33 0.88" />
				<path d="M936.24 752.49 l43.61 -11.87 0.15 -0.05" />
				<path d="M650.26 408.6 l-1.99 0.27 -52.64 40.54 -0.56 0.91" />
				<path d="M651.91 408.48 l-0.88 0.06" />
				<path d="M631.35 105.53 l2.06 0.85 1.88 0.76" />
				<path d="M591.34 552.63 l-2.27 -0.06 -16.39 5.83 -1.12 0.43" />
				<path d="M884.56 711.7 l-27.28 -5.44 -0.14 -0.14" />
				<path d="M795.89 539.08 l-1.35 -0.37 -0.11 -0.03" />
				<path d="M793.2 538.36 l-33.81 -8.64 -7.5 2.35 -30.2 4.29 -1.21 0.8 -12.02 -5.48 -1.34 -0.25 -8.44 3.62 -8.96 3.85 -4.19 1.56 -17.51 5.45 -1.24 0.41" />
				<path d="M817.1 737.45 l22.76 -26.09 0.25 -0.28" />
				<path d="M813.28 753.59 l3.61 -15.84" />
				<path d="M980.6 740.4 l5.44 -6.56 8.77 -3.78 2.03 -1.07 1.46 -1.08 11.45 -10.33 7.77 -6.99 0.92 -1.03 1.03 -1.4 0.74 -1.04" />
				<path d="M986.09 621.42 l-50.75 26.39 -33.71 15.95" />
				<path d="M1009.78 755.55 l-1.41 -5.81 0.84 -4.72 1.59 -6.7 2.37 -8.9 3.42 -11.5 1.74 -5.51 0.81 -2.38 1.07 -2.9 4.02 -7.25 0.7 -1.99 0.47 -1.52 0.52 -1.4 0.6 -1.14 1.76 -1.27 2.4 -3.68 2.43 -3.06 7.73 -8.66 1.03 -1.81 0.57 -2.89 41.9 -30.63" />
				<path d="M1070.53 627.76 l-5.72 7.21 -1.29 2.24 -0.79 1.99 -1.53 5.14 -0.95 2.28 -0.87 1.66 -1.11 1.72 -10.57 12.96 -2.85 4.08 -0.99 1.62 -0.57 1.17 -0.88 2.61" />
				<path d="M1009.75 717.58 l-2.35 1.08 -1.52 0.33 -1.81 0.07 -1.26 -0.18 -1.33 -0.41 -1.29 -0.67 -14.52 -11.59 -21.06 3.53" />
				<path d="M953.94 710.63 l10.18 -0.32" />
				<path d="M652.11 406.3 l30.93 -20.44 0.84 -0.93 1.31 -1.33 23.29 -14.78 0.14 -0.27" />
				<path d="M709.49 366.77 l0.57 -1.16 57.46 -64.91 4.36 -5.86 6.57 -10.04 2.69 -3.66 2.86 -2.6 2.93 -2.22 4.32 -3.48 0.78 -1.47" />
				<path d="M643.6 158.2 l1.83 -2.95 12.94 -18.92 0.56 -1.66 -0.09 -1.4 -10.51 -13.03 -5.61 -6.22 -4.43 -4.37 -3.01 -2.51 5.77 -3.96 30.73 -18.48 12.73 -9.53 5.91 -5.45 4.57 -4.89 2.86 -3.51 1.85 -2.75 0.29 -1.51 -1.02 -2.53" />
				<path d="M839.87 711.36 l-34.33 -7.08 -52.07 -2.09" />
				<path d="M753.28 701.83 l-27.44 -12.28 -2.2 -0.82 -2.82 -1.03 -4.75 -1.51 -6.43 -2.72 -2.71 -1.54 -1.88 -1.25 -2.37 -2.48 -5.32 -5.92 -1.91 -1.88 -1.57 -1.01 -1.87 -0.6" />
				<path d="M570.59 381.73 l-7.58 -47.98 20.29 -52.26 16.92 -35 0.78 -1.04 15.26 -28.49" />
				<path d="M545.11 586.14 l-0.38 1.26 -0.12 1.25 0.23 1.23 7.22 11.68 5.95 2.76 8.44 1.66 14.68 2.81 4.71 0.68 4.37 0.3 0.83 -17.13" />
				<path d="M590.75 609.93 l0.98 1.65 0.69 1.84 0.42 1.41 0.41 1.73 0.15 1.35 -0.05 1.54 -0.66 3.05 1.53 0.77 14.12 6.37 4.06 1.66 2.63 0.73 2.3 0.56 2.15 0.25 1.31 -0.02 1.42 -0.36 3.91 -1.67 1.99 -0.4 1.54 0.39 2.06 1.32 2.23 2.04 1.52 1.51 2.49 2.92 2.06 2.17 2.39 2.45 1.64 1.38 3.82 2.52 1.44 0.92 1.34 0.99 2.98 2.63 3.68 4.17 3.9 4.13 1.54 1.41 1.39 0.68 1.4 0.24 2.67 -0.02 19.63 5.01 1.15 0.45 1.32 0.95 1.02 1.08" />
				<path d="M592.01 561.79 l0.54 8.6 -1.5 20.73 -0.01 0.53" />
				<path d="M660.15 688.5 l11.97 6.01 1.17 0.73 1.67 2.68 0.67 1.82 3.89 9.6 0.84 1.35 2.9 1.99 3.07 2.49 10.52 10.44 1.25 1.14 1.08 0.65 2.32 1.05 0.6 1.11 1.24 0.92 5.21 1.38 1.25 0.73 0.84 1.89 1.28 3.27 0.12 1.69 -0.32 1.47 -0.1 1.96 -0.02 1.52 -0.41 5.35 1.97 0.83 1.24 0.54 3.57 3.29 0.85 1.05 0.54 0.8" />
				<path d="M587.68 656.37 l1.15 -0.49 1.48 2.59 1.21 1.38 1.36 0.95 3.72 0.64 6.83 1.11 15.49 2.7 1.61 0.44 1.45 0.55 1.54 0.66 1.88 1.07 2.17 1.61 1.61 1.59 1.46 1.63 1.92 1.52 3.02 1.71 23.85 12.08 0.19 0.09" />
				<path d="M953.55 711.13 l-26.29 2.05 -42.22 -1.08 -0.04 -0.03" />
				<path d="M666.21 547.29 l0.68 -0.29" />
				<path d="M665.64 547.51 l-30.11 11.9 -43.52 2.38 -2.03 -0.23 -0.36 -0.31" />
				<path d="M639.98 116.21 l2.75 -2.2" />
				<path d="M836.05 601.43 l9.67 28.54 0.28 2.44 4.07 16.57 -4.65 33.97 0.81 2.07 0.71 18.67 -1.25 1.81 -0.85 4.47" />
				<path d="M891.98 670.22 l-19.52 18.25 -1.37 0.19" />
			</g>
			<g id="highway_track1" style="stroke-linecap:round;stroke:#D8D8D8;stroke-width:1.17">
				<path d="M519.35 235.33 l0.76 -0.99 2.24 -1.94 1.29 -0.8 1.37 -0.68 3.15 -1.22 5.78 -2.01 3.57 -1.06 3.76 -0.91 2.45 -0.28 2.79 0.52 2.36 0.74 5.89 1.37 1.61 -0.22 1.13 -0.61 1.56 -1.11 1.07 -0.72 2.52 -1.56 3.6 -2.07 6.75 -3.93 9.01 -4.55 3.55 -1.43 2.86 -1.12 1.47 -0.44 2.51 -0.55 2.51 -0.19 1.48 0.02 1.43 0.12 2.42 0.44 2.4 0.67 6.9 2.77 6.73 3.36 1.93 0.83 2.08 0.53 2.05 0.2 1.8 -0.1 3.57 -0.72 1.52 -0.23 h2.22 l1.35 0.3 1.42 0.49 1.61 0.84 7.88 4.95 1.5 0.87 1.54 0.67 3.04 0.97 2.28 0.73 1.69 0.68 2.8 1.24 2.65 1.31 4.03 2.21 2.36 1.6 4.87 3.63 1.72 0.97 2.79 1.96 1.11 -1.25" />
				<path d="M484.27 600.72 l-0.44 2.49 -0.27 4.44 0.03 3.05 0.36 3.84 1.64 9.73 0.98 8.46 0.07 1.48 -0.07 1.66 -1.15 4.98 -0.71 2.99 -1.26 5.42 -1.65 7.41 -0.87 3.58 -1.05 5.09 -0.65 2.76 -3.88 14 -1.41 2.79 -0.37 1.35 0.08 1.45 -0.3 1.45 -3.11 11.96 -0.41 2.84 -0.63 3.61 0.54 -1.28 0.33 -0.35" />
				<path d="M469.81 703.96 l0.08 1.35 0.5 1.14 1.24 0.79 20.47 6.69 1.41 0.44 3.09 0.96 4.55 1.51" />
				<path d="M581.91 560.55 l6.56 0.92 1.15 -0.23" />
				<path d="M1003.2 362.23 l-0.64 0.1" />
				<path d="M310.06 373.27 l0.1 1.83 0.41 2.57 0.96 2.33 5.27 9.35 0.86 1.78 1.39 3.51 4.26 11.38 0.88 2.27 1.13 2.48 4.17 7.74 0.74 1.59 0.56 1.5 0.41 1.38 0.24 2.11 -0.03 1.16" />
				<path d="M976.8 673.19 l-2.6 -12.98 -0.3 -1.7 -0.28 -2.01 0.13 -1.57 0.41 -1.48 0.66 -1.66 0.98 -1.82 2.53 -4.76 0.72 -1.45 1.19 -3.02 0.52 -1.83 0.52 -1.49 1.52 -4.63 0.46 -1.31 3.64 -9.98" />
				<path d="M616.26 216.96 l2.8 -7.09 12.23 -30.96 3.46 -7.02 6.41 -10.01 2.43 -3.69" />
				<path d="M456.85 744.96 l0.94 -1.69" />
				<path d="M879.26 343.25 l-3.04 4.38 -4.38 7.32 -1.34 1.4 -1.21 1.14 -1.93 1.55 -1.93 1.18 -9.32 4.79 -0.88 1.08 -1.27 3.07 -0.75 1.29 -1.24 1.34 -1.99 1.85" />
				<path d="M558.22 643.38 l-1.91 16.65" />
				<path d="M565.66 558.54 l0.23 1.18" />
				<path d="M527.02 564.96 l0.08 -3.2 -1.62 -0.59 0 -2.18" />
				<path d="M457.78 746.77 l0.52 -1.13 -1.44 -0.68 -2.9 -1.35 -1.11 2.52" />
				<path d="M553.69 505.01 l-1.69 0.16" />
				<path d="M368.21 187.03 l-1.58 -0.89" />
				<path d="M504.34 250.97 l-8.12 2.52 -1.34 0.57 -1.79 0.32 -4.71 0.58 -3.15 0.64 -2.24 0.8 -1.03 0.6" />
				<path d="M413.55 158.6 l-0.44 -1.46 -0.05 -1.34" />
				<path d="M981.94 153.12 l1.07 -0.75 2.86 -2.16" />
				<path d="M497.61 207.44 l-16 -4.93 -0.64 0.02" />
				<path d="M564.69 560.01 l1.19 -0.29 1.11 -0.25" />
				<path d="M413.05 156.03 l-1.06 -0.03" />
				<path d="M484.71 643.86 l1.26 -1.86 0.96 -4.31 -0.37 -1.79 3.22 1.41" />
				<path d="M719.22 507 l-4.21 -1.36 0.41 -1.29 0.23 -0.79" />
				<path d="M619.06 209.88 l4.22 1.81" />
				<path d="M413.12 157.14 h-1.15" />
				<path d="M492.11 713.94 l0.66 1.11 1.19 0.51 1.32 0.41 1.33 -0.64" />
				<path d="M286.52 158.85 l-0.03 2.6 1.66 0.01 3.7 -0.91 -0.01 -1.7 h-5.32" />
				<path d="M475.13 682.83 l-0.56 2.59 -0.69 1.81 -0.23 0.48" />
				<path d="M545.11 586.14 l2.53 -5.17 0.61 -1.27 0.33 -0.67" />
				<path d="M287.5 158.85 l0 -3.22" />
				<path d="M406.95 158.46 l0.39 -5.12 0.76 -1.11" />
				<path d="M553.4 493.62 l-1.58 -0.17 -2.66 -1.39 -6.34 0.65" />
				<path d="M642.78 158.26 l-1.61 2.41 2.42 -2.47 -0.82 0.06" />
				<path d="M581.85 647.96 l-2.86 2.78 -1.44 0.37 -2.56 -1.52" />
			</g>
			<g id="highway_track11" style="stroke-linecap:round;stroke:#D8D8D8;stroke-width:0.67">
				<path d="M640.47 523.99 l0.58 0.82" />
				<path d="M975.62 406.4 l-0.57 1.64" />
				<path d="M504.13 250.32 l2.16 -0.85 1.18 -0.84 1.75 -1.67 5.17 -5.09 2.2 -2.66 2.77 -3.88" />
				<path d="M672.17 238.94 l1.5 0.06 1.74 -0.49 1.61 -0.07 1.17 0.38 5.97 4.22" />
				<path d="M457.76 745.4 l1.41 -2.88 0.83 -1.89 1.39 -1.63 0.87 -1.3 1.24 -2.3 0.48 -1.18 0.41 -1.18 0.68 -2.77 1.35 -2.7 0.05 -3.71 2.71 -16.29" />
				<path d="M531.88 574.13 l-1.17 -1.53 -1.02 -0.72 -1.3 -0.62 -1.31 -0.48 -1.87 -0.66" />
				<path d="M561.37 562.96 l0.86 1.14" />
				<path d="M589.62 561.24 l0.84 -6.08 0.3 -1.63 1.39 -1.5 1.07 -0.63 12.77 -5.04 7.44 -3.32 13.2 -8 3.55 -2.55 3.52 -2.93 6.77 -5.57 4.32 -3.56 3.02 -2.28 2.49 -1.56 3.15 -1.49 5.35 -2.11 5.06 -1.35 8.55 -1.61 5.37 -1.04 3.88 -1.14 8.83 -2.72 9.38 -2.94 1.25 -0.34 1.52 -0.17 1.39 -0.05 1.62 0.08 1.97 0.12 5.97 1.18 2.03 0.57 6.51 2.09" />
				<path d="M581.91 560.55 l-10.36 -1.71 -2.37 -0.44 -1.86 -0.11 -1.67 0.25" />
				<path d="M652.8 359.13 l-0.04 1.26 2.71 0.77 1.7 0.09" />
				<path d="M1004.18 362.44 l-0.99 -0.22" />
				<path d="M772.21 408.72 l0.78 -1.91 0.75 -1.46 2.86 -4.28 3 -4.57 1.9 -2.5 1.04 -1.12 1.9 -1.39 1.09 -1.31 0.76 -1.7 8.93 -10.18 1.23 -1.43 0.84 -1.02 5.48 -7.65 5.05 -7.56 0.8 -1.59 2.81 -5.39" />
				<path d="M1017.67 127.05 l-0.85 -1.28 -1.25 -0.87 -1.72 -0.08 -1.2 0.41" />
				<path d="M322.46 554.05 l4.02 8.05 1.12 1.71 1.27 1.46 1.53 1.41 1.44 0.59 2.1 -0.66 1.23 0.05 2.86 -0.32 1.22 -0.15 1.76 -0.16 1.35 -0.22 1.63 -0.37 3.15 -0.06 1.34 -0.03 1.7 -0.22 7.16 -1.45 2.31 -0.34 3.24 -0.11 3.29 0.65 5.24 -1.16 1.27 -0.35 1.5 -0.22 1.46 -0.1 1.93 0.21 1.8 0.58 1.73 0.29 4.09 -0.44 2.02 -0.11 3.95 -0.03 5 -0.67 17.87 -3.9 2.41 -0.4 3.69 -0.28 1.94 -0.04 6.89 0.61 5.23 0 9.01 -0.82 3.22 -0.57 2.45 -0.73 2.01 -0.99 2.66 -1.77 3.58 -2.73 3.01 -1.88 2.81 -1.18 3.49 -1.08 3.24 -0.55 3.11 -0.02 3.38 0.63 3.66 1.31 5.42 2.8 2.26 0.57 1.73 0.19 1.49 0.12 1.86 0.48 2.26 1.02 1.46 0.98 1.14 1.19 0.77 1.42 1.25 2.88" />
				<path d="M457.79 743.26 l0.74 -1 1.47 -1.63" />
				<path d="M514.38 241.86 l-4.76 -3.73 -4.11 -2.52" />
				<path d="M527.08 570.78 l0.94 -2.41 -1.04 -2.15 0.03 -1.27" />
				<path d="M544.61 222.55 l-0.88 2.89" />
				<path d="M946.34 724.6 l1.6 0.81" />
				<path d="M1016.86 127.69 l1.56 -1.26" />
				<path d="M481.97 256.99 l-1.73 1.6" />
				<path d="M982.36 152.83 l1.27 1.74 1.77 -1.26" />
				<path d="M1049.37 545.78 l-2.39 -0.23 -6.22 -0.13 -2.42 -0.1 -2.09 0 -1.8 0.1" />
				<path d="M548.1 578.89 l-8.67 -4.81" />
				<path d="M349.41 180.76 l-4.62 -3.1 -0.91 -2.23" />
				<path d="M985.86 150.21 l2.21 -1.52" />
				<path d="M828.05 330.9 l-0.09 0.08" />
				<path d="M976.53 403.92 l-1.35 0.33 -0.18 1.92 1.33 0.46 2.12 -3.79 -1.92 1.08" />
				<path d="M465.07 730.27 l0.14 -2.86 1.26 -3.55" />
				<path d="M563.93 557.95 l1.16 -0.3" />
				<path d="M559.3 562.33 l-0.13 2.13 -0.23 1.14" />
				<path d="M560.64 561.55 l0.45 0.56" />
				<path d="M344.94 187.18 l1.56 0.27 2.62 -1.3" />
				<path d="M564.2 558.97 l-0.48 -1.83" />
				<path d="M561.74 560.58 l-0.96 -0.95 -2.18 -1.1" />
			</g>
			<g id="highway_track111" style="stroke-linecap:round;stroke:#D8D8D8;stroke-width:0.67">
				<path d="M1012.33 545.04 l-2.14 -1.02 -1.79 -0.54" />
				<path d="M481.52 21.2 l17.86 5.45 11.52 3.15 2.09 0.35 2.25 -0.16 1.56 -0.44 3.51 -1.64 1.46 -0.34 4.08 -0.4 10.01 -0.35 15.4 -0.95 15.09 -1.33 2.24 -0.15 2.08 -0.06 3.4 -0.09 2.74 -0.12 4.25 -0.55 2.28 -0.11 1.58 0.02 1.36 -0.14 3.01 0.15 2.01 0.05 2.46 -0.12 5.03 -0.52 5.22 -0.8 1.38 -0.21 3.1 -0.16 2.14 -0.15 2.75 -0.32 1.45 0.11 5.01 1.83 1.38 0.48 2.05 0.47 2.31 0.22 1.88 0.04 6.29 -0.7 2.53 0.25 2.05 0.77 1.57 0.76 1.28 0.73 1.55 1 1.4 1.79 1.45 1.16 3.83 0.74 3.68 1.15 1.37 0.51 3.17 1.2 4.48 2.37 1.55 0.26 2.8 -0.42 3.33 -0.81 2.92 -0.28 4.72 0.09 2.21 0.14 4.38 1.1 2.55 0.16 1.52 -0.2 1.31 -0.27 3.16 -1.07 1.5 -0.5 1.39 -0.28 1.39 -0.07 1.83 0.14 4.12 0.41 0.98 0.1" />
				<path d="M975.05 408.04 l-0.89 2.32 -0.98 2.01 -1.96 2.82 -1.79 1.94 -5.15 4.77 -10.85 9.19 -5.95 5.07 -5.11 4.66 -2.36 2.48 -1.54 1.6 -1.47 1.74 -1.57 2.16 -1.99 2.66 -1.7 2.01 -1.19 1.02 -5.04 1.89 -2.34 1.18 -2.25 1.83 -1.83 1.99 -1.29 1.66 -1.91 1.74 -3.15 1.5 -4.8 2.34 -7.98 4.13 -8.44 4.71 -6.4 3.57 -3.36 1.81 -1.31 0.6" />
				<path d="M856.15 504.34 l-1.61 2.29 -1.33 1.72 -1.48 1.72 -1.6 1.57 -4.65 4.13 -1.42 1.09 -1.51 1 -1.57 0.97 -9.63 5.23 -3.4 0.45 -1.2 -0.35 -1.31 -0.88 -5.01 -4.79 -1.81 -1.26 -1.4 -0.18 -15.23 15.74 -2 -2.92 -1.02 -1.16 -1.69 -1.07 -1.22 -0.63 -1.21 -0.61 -13.86 -5.79 -1.81 -0.63 -4.41 -1.93 -1.5 -0.56 -1.35 -0.23 -17.59 -2.02 -3.54 -0.58 -28.65 -9.01" />
				<path d="M801.65 533.15 l-5.06 5.19 -12.73 12.93" />
				<path d="M809.18 545.41 l-6.19 -4.07 -1.15 -1.28 -0.62 -1.82 -0.14 -2.59 0.19 -2.11" />
				<path d="M553.9 487.31 l-2.03 0.63 -3.74 0.83 -15.09 3.21 -24.38 4.92 -22.35 4.71 -20.05 2.91 -23.05 1 -26.46 -2 -23.69 -7.92" />
				<path d="M581.77 188.61 l0.73 3.22 0.91 3.28 1.39 3.4 1.76 5.16 0.97 3.46 0.89 3.64" />
				<path d="M1003.54 363.81 l1.93 -0.31 -1.28 -1.06" />
				<path d="M1014.68 370.46 l-1.27 -1 -7.5 -5.68 -0.45 -0.27" />
				<path d="M588.55 665.85 l-0.34 2.57" />
				<path d="M733.98 697.13 l-4.53 -3.14 -1.3 -0.88 -2.2 -1.26 -1.4 -0.7 -1.58 -0.6 -1.36 -0.46 -1.68 -0.49 -3.44 -0.97 -2.74 -0.96 -5.38 -2.31 -1.33 -0.74 -1.36 -0.94 -1.33 -1.11 -1.58 -1.41 -2.31 -2.39 -9.13 -9.07 -1.78 2.35 -1.47 2.18 -2.22 4.01 -1.04 1.82 -2.29 4.27 -0.97 1.45 -4.21 5.63 -1.38 1.5 -2.69 2.3 -1.59 1.35 -2.16 0.77" />
				<path d="M843.74 720.02 l0.54 -1.14" />
				<path d="M480.25 258.59 l-0.96 1.18 -0.74 1.19 -12.96 25.38 -1.09 1.39 -18.73 12.22 -0.99 0.85 -3.71 -2.62 -1.23 -1.02 -3.35 -2.31 -1.38 -1.62 -3.69 -6.93 -0.77 -1.09 -9.23 -11.62 -0.84 -1.69 -0.66 -3.36 -1.38 -1.08 -4.74 -1.26 -1.98 -1.38 -1.92 -2.46" />
				<path d="M817.61 480.41 l-17.35 -0.83 -3.79 -0.27 -2.89 -1.23 -1.38 -0.66 -2.69 -1.92" />
				<path d="M308.71 319.47 l1.14 1.55 1.12 1.76 1.75 3.16 6.42 11.9 0.74 1.86 0.47 2.87 0.07 1.45 -0.02 1.35 -0.32 2.16 -0.37 1.18 -0.44 1.18 -8.37 19.06 -0.61 1.83 -0.23 2.52" />
				<path d="M789.64 477.07 l-0.14 -1.59 -0.85 -1.97 -3.94 -5.61 -1.61 -1.72 -8.61 -7.48 -1.26 -1.1 -0.71 -1.26 -0.57 -2.78 -0.76 -8.45 -0.19 -4.28 0.17 -2.88 0.52 -2.97 1.41 -5.39 0.35 -2.53 0.18 -2.79 -0.26 -5.21 -0.35 -2.14 -1.11 -3.89 -0.2 -1.73 0.5 -2.59" />
				<path d="M802 532.79 l-0.1 -1.65 -0.27 -1.27 -10.28 -17.19 -0.84 -2.57 -0.17 -1.53 -0.62 -27.72" />
				<path d="M499.46 559.13 l-3.94 2.36 -1.09 0.84 -0.78 0.96 -1.65 2.7 -1.49 2.11 -3.92 4.76 -2.5 2.35 -2.12 1.66 -2.7 3.17 -1.58 2.54 -1.07 2.05 -1.43 3.27 -0.97 2.62 -1.98 9.67" />
				<path d="M559.05 636.53 l-0.37 2.87 -0.47 3.98" />
				<path d="M572.25 198.28 l-0.45 1.82 -0.21 1.39 -0.64 1.15 -1.52 1.26 -15.22 7.11 -2.93 1.62 -2.07 1.4 -0.99 0.87 -1.04 1.35 -0.98 1.68 -0.72 1.8 -0.87 2.81" />
				<path d="M472.78 209.16 l1.86 -0.83 5.84 -5.44 -3.11 -1.58 -2.92 -1.05 -8.23 -3.92 -1.27 -0.54 -1.55 -0.45" />
				<path d="M1069.43 553.62 l-1.21 -0.7 -12.94 -5.26 -4.59 -1.53 -1.32 -0.36" />
				<path d="M591.17 661.82 l-1.14 0.92 -0.3 0.27" />
				<path d="M811.45 353.65 l8.15 -12.86 2.05 -3.1 2 -2.55 4.31 -4.17" />
				<path d="M843.18 719.2 l2.15 -1.09" />
				<path d="M544.58 608.58 l-1.6 0.24 -1.2 0.55 -2.58 0.38" />
				<path d="M828.05 330.9 l1.41 -1.35 1.71 -1.87 1.08 -1.45 1.16 -2.03 1.06 -2.19 0.89 -1.59 3.66 -6.19 0.99 -1.73 1.13 -2.18 0.68 -1.43" />
				<path d="M589.31 663.76 l-0.76 2.09 -8.64 -1.81 0.59 -2.87 9.23 1.84 -0.43 0.75" />
			</g>
			<g id="highway_track1111" style="stroke-linecap:round;stroke:#D8D8D8;stroke-width:0.67">
				<path d="M1008.4 543.48 l-1.4 -0.15 -3.06 -0.12 -4.12 0.23 -4.12 0.47 -3.38 0.58 0.5 1.05" />
				<path d="M991.3 544.78 l1.02 -0.29" />
				<path d="M1034.45 545.42 l-7.62 0.33 -9.43 0.17 -1.98 -0.19 -1.7 -0.31 -1.38 -0.38" />
				<path d="M444.49 12.19 l1.52 0.75 11.41 5.19 2.53 0.55 13.49 0.51 3.8 0.68 4.29 1.32" />
				<path d="M880.44 483.45 l-1.27 0.56 -1.38 0.56 -1.98 0.92 -1.47 0.75 -1.49 0.88 -1.33 0.91 -1.28 0.92 -1.84 1.51 -2.55 2.29 -1.54 1.56 -1.38 1.44 -1.01 1.09 -1.26 1.45 -1.18 1.45 -1.21 1.59 -2.11 3.05" />
				<path d="M581.2 184.64 l0.63 1.9 -0.06 2.08" />
				<path d="M1002.84 363.51 l0.69 0.3" />
				<path d="M516.35 424.73 l-1.22 0.48 -2.2 0.31 -1.6 -0.26 -1.17 -0.49 -0.49 6.3" />
				<path d="M509.58 424.62 l-2.13 -0.01" />
				<path d="M783.87 551.27 l-11.47 11.65 -3.01 2.96 -4.35 4.52 -3.06 3.37 -33.06 38.52 -1.93 2.42 -5 6.28 -2.69 3.28 -2.73 3.76 -0.75 1.11 -1.23 2.53 -0.83 2.55 -1.32 4.29 -0.59 1.37 -0.54 1.16 -0.61 1.48 -0.48 1.43 -0.78 1.56 -1.46 2.08 -1.53 1.82 -0.88 0.92 -0.98 0.98 -1.07 0.95 -1.12 0.98 -0.8 0.95 -1.11 1.51 -1.94 2.88 -4.75 7.73 -1.82 2.51 -0.68 0.92" />
				<path d="M843.92 570.45 l-22.85 -16.82 -6.45 -4.6 -5.44 -3.63" />
				<path d="M409.88 262.36 l-7.11 -8.82 -10.84 -12.01 -1.05 -1.65 -0.47 -1.85 0.01 -1.44 0.19 -13.31 -0.54 -11.19" />
				<path d="M437.25 306.93 l2.5 -1.79 4.05 -3.45 0.31 -0.72" />
				<path d="M860.56 483.72 l1.36 -0.03 2.02 -0.27 1.39 0.57 1.54 2.67 0.94 0.89 4.86 -2.45 3.72 -1.53 0.25 -1.25 -1.22 -0.47 -1.63 0.43 -1.29 -0.37 1.51 -1.48 -0.27 -1.21 -1.62 0.37 -1.32 -0.24 1.03 -1.32 0.32 -1.3 -7.05 1.04 -0.79 0.99 -0.11 1.35 -1.48 0.36 -1.47 -0.09 -0.63 -0.1" />
				<path d="M861.12 483.13 l-0.5 -2.85 -0.44 -2.55 -0.14 -0.79" />
				<path d="M872.97 474.45 l-12.94 2.49 -5.3 1.02 -2.65 0.35 -1.57 0.21 -14.81 1.39 -18.09 0.5" />
				<path d="M756.03 475.85 l-0.83 -2.02 0.12 -1.3 0.78 -1.29 9.48 -5.17 7.24 -9.07" />
				<path d="M516.16 425.63 l-0.46 1.23 0.91 4.92" />
				<path d="M573.93 194.52 l-1.69 3.76" />
				<path d="M552 505.17 l-23.03 2.1" />
				<path d="M1064.17 509.82 l-0.86 -1.81 -2.72 -3.56 -2.87 -3.24 -1.13 -1.36 -1.27 -1.66 -0.77 -1.56 -0.39 -1.49 -0.22 -2.34 -0.29 -1.32 -2.44 -11.53 -1.7 -7.43 -0.93 -4.51 -2.26 -11.68" />
				<path d="M366.63 186.14 l-1.53 -0.37 -1.41 -0.21 -4.86 -1.89 -1.25 -0.61 -1.98 -1.21 -2.3 -1.8 -1.56 -1.5 -0.5 -0.4" />
				<path d="M463.4 195.35 l-1.51 -0.18 -3.34 0.2 -6.27 0.08 -3.79 -0.19 -1.68 -0.25 -11.64 -3.68 -1.95 -0.01 -26.48 5.79 -16.69 5.05 -1.3 -0.17 -6.79 -6.58 -1.62 -1.2 -1.8 -0.95 -7.24 -3.63 -1.41 -0.92 -1.34 -1.36 -0.33 -0.32" />
				<path d="M860.02 485.35 l-0.05 1.94 0.88 3.52 0.18 2.13 -0.41 1.16 -4.78 6.39 -1.08 0.75 -1.4 -0.4 -1.03 -3.73 -0.72 -1.2 -1.71 -0.87 -1.11 -1.05 -0.18 -1.63 0.6 -1.4 1.37 -1.77 2.66 -2.55 2.01 -1.4 1.36 -0.71 3.94 -0.8 -0.54 1.62" />
				<path d="M497.87 430.06 l0.06 -3.88 1.26 -1.1 4.81 -0.08 -0.05 -1.49" />
				<path d="M419.54 267.83 l0.7 -0.62" />
				<path d="M535.96 29.55 l-0.11 -2.74 -0.07 -2.46" />
				<path d="M860.15 494.9 l1.75 -1.11 0.5 -1.19 -0.6 -1.23 -0.94 -0.57" />
				<path d="M504 425 l1.46 -0.03" />
				<path d="M511.33 425.25 l1.09 3.3 -0.61 1.32" />
				<path d="M705.2 26.42 l4.52 -1.01 3.84 -0.47 10.85 -0.36 12.74 0.12 5.16 0.12 1.74 -0.18 1.48 -0.27 2.17 -0.58 6.09 -3.03 16.07 -9.52 3.24 -2.35 6.34 -4.82 5.27 -4.45 8.77 -7.99" />
				<path d="M1070.38 197.54 l-24.47 42.37" />
				<path d="M1033.82 356.34 l-1.58 3.01 -0.55 1.21" />
			</g>
			<g id="highway_track11111" style="stroke-linecap:round;stroke:#D8D8D8;stroke-width:0.67">
				<path d="M494.08 31.94 l-1.03 -0.29" />
				<path d="M398.35 755.75 l-0.61 -2.94 -1.55 -7.23 -0.1 -0.5" />
				<path d="M566.14 21.96 l0.2 2.57" />
				<path d="M827.79 697.88 l0.58 -1.29 1.2 -1.07 1.2 -0.62" />
				<path d="M575.73 128.65 l0.19 1.37 3.69 22.92 0.52 3.98 0.31 2.04 0.07 1.25 0.07 1.66 0.62 22.77" />
				<path d="M588.42 210.76 l12.49 32.69 0.73 1.61 1.36 3.07 1.51 2.99 4.91 8.93 1.62 3.08 3.86 7.15 3.08 5.22 1.93 3.65 2.92 7.1 7.73 19.94 6.87 16.72 6.66 16.29 1.46 3.15 1.59 3.97 1.08 2.71 1.12 2.37 1.04 2.05 1.08 1.38 0.77 1.22 0.2 1.76 0.36 1.31" />
				<path d="M1002.56 362.33 l0.28 1.18" />
				<path d="M481.31 297.64 l0.05 1.37 2.02 -1.26 -2.06 -0.11" />
				<path d="M927.09 620.41 l-5.41 -4.44 -1.94 -1.77 -1.18 -1.38 -1.04 -1.91 -0.79 -1.33 -1.63 -1.75 -4.53 -3.76 -1.19 -0.84 -1.4 -0.81 -1.49 -0.71 -1.7 -0.59 -2.43 -0.98 -1.25 -0.58 -2.38 -1.44 -2.33 -1.52 -1.78 -0.88 -1.73 -0.68 -1.86 -0.59 -1.26 -0.29 -1.62 -0.2 -5.58 -0.51 -3.5 -0.19 -1.5 -0.24 -1.66 -0.47 -1.34 -0.74 -1.2 -0.8 -1.45 -0.93 -3.71 -1.72 -4.37 -1.93 -4.05 -1.83 -1.47 -0.61 -1.36 -0.65 -1.47 -0.72 -1.18 -0.72 -2.94 -2.39 -1.18 -1.04 -0.93 -0.86 -0.75 -1 -0.76 -1.23 -1.46 -2.3 -1.63 -1.9 -0.78 -0.72" />
				<path d="M390.07 212.08 l-0.24 -5.38 -0.65 -4.54" />
				<path d="M417.79 319.47 l1.42 -0.78 18.04 -11.76" />
				<path d="M664.99 511.36 l0.06 -5.58 -0.14 -4.97 -0.13 -2.02 -0.23 -2.49 -0.54 -2.72 -1.41 -6.57 -2.34 -12.18 -0.31 -2.17 -0.08 -1.74 -0.57 -1.83 -1.16 -1.92 -0.91 -2.27 -1.11 -3.4 -0.87 -3.17 -0.49 -3.03 -0.95 -7.84 -1.23 -10.73 -1.16 -9.78 -0.25 -3.55 0.25 -8.76 0.2 -2.95 0.31 -3.21 0.2 -2.18 0.02 -5.68 -0.66 -10.32 0.14 -1.53 0.46 -1.54 0.69 -1.37 0.76 -1.84 0.28 -2.68 -0.08 -2.75 -0.31 -2.9 -1.66 -12.3 -0.05 -1.55 1.13 -1.17" />
				<path d="M860.62 480.28 l-3.11 -0.89 -1.39 -0.29 -1.12 0.49 -0.2 1.52 1.18 2.36 0.66 1.05" />
				<path d="M663.87 511.64 l-0.02 1.4 0.05 6.01 0.44 6.42 0.63 7.04 0.77 6.25 0.94 6.77 0.22 1.46 0.52 2.76 0.65 2.59 0.78 2.21 1.41 3.06" />
				<path d="M796.47 479.31 l-23.91 -3.05 -14.22 -2.01 -1.8 -1.37 -1.22 -0.35 -2.02 0.74 -9.79 -0.72" />
				<path d="M1012.66 125.22 l1.68 -1.29 1.84 -1.41 0.1 -0.08" />
				<path d="M1047.24 451.68 l1.54 -7.06 -0.1 -1.43 -1.12 -7.99 -0.5 -2.97" />
				<path d="M560.69 177.76 l5.48 2.54 5.22 1.73 5.94 1.71 1.05 1 -0.43 1.43 -2.04 3.21 -0.89 1.64 -0.61 2 -0.48 1.5" />
				<path d="M1046.32 456.32 l-1.42 0.29" />
				<path d="M441.99 156.77 l-0.31 1.3 -4.57 19.48 -0.72 2.71 -3.17 11.05" />
				<path d="M473.05 20.03 l0.38 -0.83" />
				<path d="M964.6 709.75 l-6.23 7.3" />
				<path d="M1035.36 292.29 l-23.69 31.6 -0.78 1.27 -0.44 1.68 0.12 2.35 9.96 32.87 0.54 1.5" />
				<path d="M852.09 478.31 l0.21 1.43" />
				<path d="M319.28 201.7 l1.42 0.98" />
				<path d="M854.25 379.95 l3.1 1.16 1.88 0.38 11.2 -2.83" />
				<path d="M487.36 297.62 l-3.99 0.13" />
				<path d="M262.51 221.52 l1 1.53 1.37 8.32 1.11 4.45 1.63 4.65" />
				<path d="M192.45 322.02 l37.44 36.76" />
				<path d="M612.94 580.68 l-4.63 0.27 -6.26 0.34" />
				<path d="M630.2 674.47 l0.43 -1.67 2.27 -9.5" />
				<path d="M836.05 601.43 l1.45 -0.48 1.82 0.07" />
				<path d="M603.99 22.08 l-0.22 -1.89" />
				<path d="M481.36 299 l-0.66 5.03" />
				<path d="M929.88 163.66 l-7.22 -7.25 -0.22 -0.21" />
				<path d="M493.27 683.68 l-18.39 2.93" />
			</g>
			<g id="highway_track111111" style="stroke-linecap:round;stroke:#D8D8D8;stroke-width:0.67">
				<path d="M733.98 697.13 l6.72 5.62 2.21 1.76 1.11 0.77 2.3 1.25 1.35 0.6 2.27 1.65 3.75 3.23 1.29 0.9 1.83 0.93 1.09 0.71 2.97 2.95 3.88 4.47 3.53 4.36 7.38 8.9 4.57 5.27 1.58 1.66 1.84 1.64 4.07 3.22 5.04 3 2.12 1.05 2.18 0.88 2.39 0.58 3.08 0.4 2.31 -0.03 2 0.09 1.32 0.17 1.43 0.33 3.32 1.06 1.3 0.7 1.04 0.75 2.11 0.43 6.42 2.08 2.26 0.87 6.37 3.03 1.35 0.96 1.35 1.33" />
				<path d="M1047.47 595.15 l-12.76 30.22" />
				<path d="M698.58 658.56 l-4.76 -21.18 -1.03 -5.33 -0.14 -1.62 v-1.31 l0.1 -1.98 0.24 -1.65 0.15 -1.26 -0.31 -1.79 -0.6 -2.36 -0.66 -2.59 -2.29 -11.96 -1.13 -6.38 -0.3 -2.85 -0.19 -3.68 -0.07 -5.21 -0.37 -2.71 -1.66 -8.43 -0.37 -1.35 -0.64 -1.91 -0.82 -1.65 -1.39 -1.76 -1.16 -0.97 -2.74 -1.61 -4.7 -4.15 -1.67 -2.12 -1.17 -1.86 -0.65 -1.26" />
				<path d="M986.9 621.48 l1.19 -3.46" />
			</g>
			<g id="highway_residential" style="stroke-linecap:round;stroke:#D8D8D8;stroke-width:3.03">
				<path d="M1012.41 125.41 l-3.26 -7.28" />
				<path d="M559.24 556.4 l-2.91 -0.8 -3.31 3.3" />
				<path d="M504.65 563.72 l-2.09 1.36" />
				<path d="M576.88 410.92 l-0.38 -4.51 -1.15 -0.88 -2.16 -1.09" />
				<path d="M565.66 558.54 l-1.46 0.44 -1.36 0.72 -1.1 0.89 -1.11 0.96 -1.33 0.78 -2.25 0.93" />
				<path d="M1012.66 125.22 l-8.43 6.67" />
				<path d="M1012.18 114.45 l0.63 1.27 0.21 0.49" />
				<path d="M545.28 575.52 l2.57 3.18 1.31 0.15 1.04 -0.81 1.01 -1.54 1.06 -2.02 0.61 -1.82 0.12 -1.52 -0.27 -1.44" />
				<path d="M589.41 409.87 l-0.34 1.5 -1.3 0.53 -7.98 0.6 -1.5 0.9 -3.33 0.2 -1.06 -0.87 -0.55 -1.38 0.98 -6.19" />
				<path d="M1008.45 118.55 l4.37 -2.82" />
				<path d="M503.77 562.47 l1.87 0.62 -1.87 -0.62" />
			</g>
			<g id="highway_unclassified" style="stroke-linecap:round;stroke:#D8D8D8;stroke-width:3.03">
				<path d="M519.15 581.23 l-2.35 1.53" />
				<path d="M821 262.88 l-1.67 -0.83 1.93 -1.7 0.79 -0.94 0.94 -1.29 2.1 -3.5 1.56 -2.35 1.58 -2.04 2.06 -2.73 1.35 -1.34 1.26 -0.74 1.57 -0.35 2.44 -0.22 1.25 -0.28 1.98 -0.84 1.8 -1.2 1.71 -1.36 1.2 -0.88 1.42 -1.12 1.69 -0.82 1.66 -0.73 4.19 -1.45 25.04 -7.03 5.46 -1.73 3.43 -1.01 2.7 -0.76 4.16 -0.95 6.28 -1.42 2.51 -0.5 2.78 -0.3 3.81 0.01 2.5 0.37 3.43 0.73 4.59 0.77 4.18 0.28 3.38 0.1 2.72 0.04 3.06 -0.01 3.13 -0.21 1.94 -0.39 1.97 -0.47 1.72 -0.56 0.87 -0.38" />
				<path d="M554.42 -144.82 l-1.56 10.15 -0.22 1.59 -0.1 1.81 -0.01 1.66 0.24 3.07 0.49 3.41 0.37 1.56 1.08 3.77 0.65 1.68 0.47 1.22 0.47 1.15 1.86 3.74 1.88 2.98 1.49 2.35 1.87 2.84 0.85 1.74 0.7 1.97 4 15.1 0.48 3.3 0.24 3.35 0.15 3.51 -0.14 3.85 -0.37 12.83 -0.42 5.11 -0.33 4.05 -0.48 3.59 -0.65 3.97 -1.56 6.22 -1.18 4.96 -0.2 1.6 -0.04 1.99 0.26 2.44 2.14 16.31 2.69 30.25 0.09 2.47 -0.08 2.82 -0.46 2.94 -1.09 4.79 -1.44 4.54 -2.24 7.42 -0.42 1.98 -0.44 3.54 -0.14 4.41 1.12 23.22 0.28 2.95 0.38 1.93 1.19 3.38 1.05 2.05 1.2 2.68 1.05 3.04 1.08 4.16 0.6 3.6 4.44 22.42 2.99 -0.37 1.24 -0.24 3.81 -1.24 2 -0.88 7.25 -3.92 4.6 -3.07 1.63 -1.03 1.22 -0.64 1.48 -0.67 1.61 -0.5 5.66 -1.25 6.44 -1.42 2.76 -0.86 1.92 -0.87 1.95 -1.07 2.9 -1.54 1.59 -0.55 2.12 -0.07 1.32 0.29 1.38 0.69 2.72 1.63 2.24 2 3.41 3.11 16.05 17.69 2.33 2.43 4.91 3.23 9.75 5.18 6.53 4.14 15.18 9.96 4.47 3.63 7.94 6.9 3.12 2.62 2.62 1.73 2.67 1.49 12 6.66 2.46 1.62 2.88 2.37 3.95 4.4 5.16 6.19 4.9 6.15 3.92 5.89 2.14 4.01 4.17 8.01 2.31 4.12 3.55 5.05 14.92 20.07 1.49 2.4 4.24 8.33 1.33 2.42 1.47 2.4 1.48 1.94 4.12 4.13 2.11 0.1 1.53 -0.14 2.02 -0.47 2.23 -0.88 4.77 -2.33 3.7 -1.05 5.01 -1.22 1.73 -0.69 1.71 -0.94 2.49 -1.69" />
				<path d="M813.41 265.37 l-7.51 11.08 -1.84 0.49 0.89 1.1 0.9 0.94 -0.07 -1.53 0.13 -1.01" />
				<path d="M946.49 221.26 l4.33 -2.59 4.49 -2.83 4.52 -2.94 7.88 -5.65 6.63 -5.88 3.48 -3.39 2.16 -1.85 2.61 -1.83 2.34 -1.5 1.86 -1.08 2.6 -1.49 5.95 -3.36 4.65 -2.4 3.06 -1.9 2.4 -1.77 1.98 -1.7 1.58 -1.63 1.9 -2.2 10.79 -12.58 2.66 -3.55 1.4 -2.58 -3.58 -3.44 -7.52 -6.21 -2 -1.6 -1.5 -1.2 -0.8 -1.3 -1.3 -2 -2.81 -5.61 -2 -3.31 -3.9 -3.7 -6.38 -7.91 -1.26 -1.59 -0.9 -1.32 -0.59 -1.2 -2.85 -6.63 -1.15 -1.77 -1.43 -1.39 -8.74 -6.06 -7.13 -4.31 -1.99 -1.57 -1.92 -1.87 -1.46 -1.76 -1.35 -2.05 -3.21 -7.03 -2.25 -3.67 -1.41 -1.79 -1.49 -1.53 -7.55 -5.78 -24.23 -15.04 -15.43 -10.6 -8.67 -5.48 -10.9 -6.32 -8.42 -4.24 -8.74 -3.72 -22.32 -9.32 -2.33 -1.17 -1.35 -0.78 -1.34 -1 -3.76 -3.44 -15.5 -13.32 -10.29 -8.78 -1.85 -1.66 -1.23 -0.96 -1.43 -1.15 -2.22 -1.49 -2.97 -1.6 -14.07 -6.09 -11.69 -4.96 -10.4 -5.26 -3 -1.79 -9.08 -6.1 -3.42 -2.31 -3.59 -2.97 -8.43 -7.52 -2.29 -1.62 -1.46 -0.8 -1.96 -1.01 -3.02 -1.21 -2.98 -0.8 -3.62 -0.85 -3.46 -0.77 -3.28 -0.73 -4.81 -1.33 -4.13 -1.86 -2.15 -1.44" />
				<path d="M1025.75 156.58 l1.27 -2.24 1.92 -2.86 2.83 -3.66 2.91 -3.54 14.45 -16.72 8.52 -9.46 1.06 -1.27 1.59 -1.8 7.49 -8.41 11.19 -12.57 1.5 -1.94 1.4 -2.32 2.04 -4.29 2.87 -7.79 4.07 -11.42 0.5 -1.32 1.07 -2.15 0.56 -1.1 2.18 -4.09 3.37 -5.67 3.24 -4.34 10.48 -13.56 3.68 -4.76 3.93 -4.4 3.43 -3.28 5.94 -4.87 6.47 -4.16 8.72 -5.68 2.32 -1.9 2.11 -1.87 8.23 -8.78 10.17 -10.29 3.06 -2.99 2.1 -2.08 1.6 -1.47 2.19 -1.77 2.8 -1.73 3.57 -1.64 3.53 -1.38 5.99 -2.16 8.24 -2.45 7.28 -1.32 9.61 -1.28 10.63 -0.69 19.67 -1.67 19.33 -0.55 15.82 -0.24 4.25 -0.29 1.25 -0.13 1.45 -0.51" />
				<path d="M306.02 428.19 l1.27 -0.23 4.98 0.2 2.55 -0.1 14.99 -1.69 1.59 -0.11 10.47 0.92 2.91 0.46 3.21 0.59 14.77 3.11 2.97 0.33 3.04 0.34 7.75 0.59 2.13 0.02 2.3 -0.18 2.39 -0.38 2.26 -0.28 2.19 -0.07 2.07 0.23 1.9 0.32 1.89 0.53 9.31 2.28 3.21 0.46 2.41 0.26 3.25 -0.04 2.89 -0.16 16.44 -2.81 17.95 -2.2 6.04 -0.96 9.42 -1.91 4.99 -1.04 6.23 -0.84 28.17 -2.36 1.7 -0.15 2.01 -0.06 2.45 0.23 2.15 0.44 2.63 0.58 1.47 0.17 2.55 -0.21 1.21 -0.31 1.19 -0.41 1.16 -0.49 2.01 -1.09 1.8 -1.12 2.19 -1.66 9.8 -9.43 2.46 -2.11 1.77 -1.23 1.83 -0.93 1.58 -0.68 1.79 -0.53 1.49 -0.22 1.88 0.48 1.22 1.29 0.82 1.46 0.59 1.35 0.67 2.36 0.64 3.7 2.23 -0.64 6.69 -2.63 3.08 -1.68 2.1 -1.29 2.57 -2.27 1.51 -2.03 0.7 -1.5 0.36 -1.57 0.44 -2.99 0.26 -2.44 -0.18 -2.24 -0.39 -2.14 -0.39 -1.4 -0.76 -1.83 -0.93 -2.34 -0.49 -1.62 -0.16 -1.32 0.56 -2.17 0.86 -1.43 1.19 -1.2 1.55 -1.41 1.98 -1.6 2.62 -1.85 3.17 -2.36 2.57 -1.81 1.92 -1.8 1.86 -2.06 3.4 -4.62 2.02 -2.59 1.57 -1.61 2.01 -1.16 1.72 -0.77 1.69 -0.44 1.56 -0.15 1.94 0.14 15.13 1.85 8.95 0.68 11.07 0.75 4.63 0.67 3.85 0.76 2.17 0.3 4.74 -0.68 14.22 -3.56 2.7 -0.38 2.11 -0.14 2.38 0 6.41 0.69 2.89 -0.11 1.8 -0.52 1.97 -0.67 2.07 -0.71 1.64 -0.86 4.04 -3.01 2.58 -2.87 3.36 -4.58 8.3 -12.41 1.7 -2.43 1.82 -2.54 3.5 -4.25 1.95 -2.1 1.39 -1.34 2.42 -1.87 14.98 -11.3 19.12 -14.78 1.44 -1.31 8.83 -9.06 1.94 -1.57 2.21 -1.57 2.83 -1.72 3.4 -1.49 2.17 -0.57 2.37 -0.35 2.64 0.03 2.7 0.02 1.8 0.17" />
				<path d="M571.81 384.39 l-2.82 -2.27 -7.98 -8.63 -4.9 -5.54 -4.01 -5.37 -4.07 -6.83 -4.31 -7.35 -1.91 -2.95 -1.63 -2.2 -6.97 -8.41 -1.53 -2.35 -3.07 -5.75 -0.82 -2.17 -0.57 -1.64 -4.75 -17.29 -0.6 -3.23 -0.29 -3.49 -0.32 -4.63 -0.52 -3.11 -0.94 -3.32 -3.76 -9.21 -1.73 -3.8 -2.21 -4.01 -3.22 -5.07 -1.15 -2.6 -2.2 -7.28 -1.2 -4.92 -1.39 -6.4 -0.51 -2.86 -0.29 -2.67 -0.39 -5.04 -0.12 -1.73 -0.07 -1.8 -0.61 -4.26 -0.55 -3.25 -0.87 -4.13 -0.62 -3.06 -0.32 -1.92 -0.74 -4.23 -0.18 -1.42 -0.14 -1.6 -0.61 -8.88 -0.5 -8.53 -0.55 -13.68 -0.25 -2.48 -0.35 -2.54 -0.48 -2.45 -0.44 -2 -0.65 -2.02 -0.76 -2.33 -0.71 -1.85 -1.08 -2.06 0.47 -3.47 2.38 -0.7 3.79 -0.8 8.45 -1.76 14.78 -3.03 5.6 -1.37 2.42 -0.69 3.85 -1.24 3.28 -1.17 4.85 -2.2 8.09 -3.69 6.42 -3.11 2.76 -1.28 2.78 -0.98 3.43 -1.07 6.56 -1.91 1.84 -0.39 2.81 -0.32" />
				<path d="M795.68 271.32 l1.46 1.13 2.94 1.67 2.18 1.46 1.34 1.01 0.45 0.35" />
				<path d="M805.85 278.98 l1.91 3.24 1.26 1.47 2.02 1.65 1.8 1.23 1.75 0.81 8.69 3.56 4.07 1.61 2.71 1.21 1.25 0.67 1.5 1.22 1.63 1.77 2.77 3.99 3.64 6.01 1 1.48 1.08 1.19 1.17 0.99 3.49 2.82 1.14 0.88 8.55 6.96 2.08 1.75 2.88 2.54 7.9 8.07 9.12 9.15 11.74 11.37 2.83 2.3 2.47 1.91 2.25 1.43 2.17 1.16 3.03 1 3.93 0.84 3.8 0.8 2.61 0.59 3.9 1.28 2.5 1.15 2.21 1.4 11.88 9.89 2.95 2.15 2.54 1.63 1.7 0.77 1.82 0.26 1.3 -0.11 5.28 -1.41 3.31 -0.6 15.14 -1.93 1.93 -0.29 2.13 -0.44 1.95 -0.6 8.57 -3.29 2.29 -0.82 1.94 -0.63 1.88 -0.51 1.77 -0.15 1.91 0.02 3.63 0.23 3.42 0.32 7.05 1.03 1.93 0.15 0.58 1.7 -1.24 2.08 -5.8 6.38 -9.49 9.05 -2.22 2.05 -1.65 1.33 -3.13 1.94 -6.93 3.77 -2.6 1.45 -0.91 2.48" />
				<path d="M976.53 403.92 l-1.35 0.33 -1.91 0.11 -5.14 -0.24" />
				<path d="M1010.11 373.91 l1.86 -1.02 1.06 -0.79 1.65 -1.64 3.12 -3.6 1.85 -2.01 1.42 -1.28 1.71 -1.2 2.46 -1.58 3.36 -1.85 5.21 -2.61 1.39 -0.51 10.53 -4.08 1.56 -0.61 43.89 -15.06 6.63 -2.27 1.24 -0.48 5.26 -1.89 4.48 -1.81 2.96 -1.44 1.21 -0.75 1.01 -0.8 1.2 -1.17 0.94 -1.14 22.76 -28.4 -13.73 -29.01 -13.77 -29.18 -5.02 -10.84 -5.99 -12.56 -1.11 -2.15 -1.43 -2.12 -3.81 -5.01 -4.91 -6.36 -4.59 -5.32 -7.01 -8.31 -0.95 -1.04 -6.87 -7.44 -1.74 -2.29 -1.42 -2.09 -1.05 -1.31 -1.66 -1.39 -1.49 -0.81 -1.56 -0.49 -1.95 -0.29 -2.2 -0.16 -5.34 -0.35 -7.52 -1.33 -2.88 -0.78 -2.57 -0.64 -3.86 -0.99 -5 -1.7 -5.12 -2.78" />
				<path d="M821.26 260.35 l-0.25 2.53 2.18 6.48 0.98 2.97 0.41 2.19 0.33 1.4 0.18 2.06 -0.13 2.52 -0.45 4.32 -0.65 4.02 -0.57 2.11" />
				<path d="M437.18 -149.6 l-6.66 6.27 -3.18 4.56 -2.27 4.21 -2.48 3.05 -11.62 9.67 -2.12 1.61 -1.63 0.93 -2.21 0.93 -2.45 0.65 -3.58 0.82 -2.56 0.33 -3.93 0.43 -1.71 0.33 -1.87 0.53 -1.57 0.67 -1.6 0.87 -1.83 1.18 -1.84 1.46 -13.71 13.84 -2.06 1.8 -1.66 2.27 -2.32 2.74 -1.81 2.56 -1.3 1.59 -1.42 1.46 -7.33 6.1 -2.38 1.51 -2.36 1.19 -2.18 1.26 -1.24 0.88 -1.12 1.04 -0.81 1.02 -0.84 1.21 -0.8 1.36 -0.89 1.88 -1.65 3.89 -5.16 12.68 -2.89 5.77 -0.84 1.4 -0.74 1.22 -0.92 1.14 -1.21 1.11 -2.6 2.11 -11.27 6.84 -3.6 2.75 -1.57 1.22 -3.62 2.34 -44.75 27.01 -2.31 1.53 -1.32 1.03 -0.95 0.87 -1.01 1.04 -7.78 8.22 -5.34 6.3 -3.94 5.51 -5.77 7.7 -2.01 2.45 -1.66 1.66 -7.26 5.51 -5.25 3.85 -5.18 4.36 -8.31 7.43 -3.76 2.86 -4.36 3.01 -11.4 6.32 -10.84 5.11 8.17 2.7 7.61 2.71 3.69 1.72 4.12 2.43 4.15 2.38 4.84 2.94 7.2 4.66 4.2 2.61 1.67 0.97 1.4 0.64 3.34 0.92 1.97 0.62 1.96 0.75 1.56 0.72 2.92 1.79 2.23 1.34 1.92 1.54 5.35 4.4 2.84 2.42 1.39 1.42 1.8 1.62 1.65 1.49 1.44 1.47 1.61 0.95 1.36 0.62 2.03 0.76 1.47 0.35 1.96 0.31 5.94 1.2 3.48 1.03 4 1.4 3.23 1.64 2.71 1.53 2.27 1.35 2.03 1.53 1.21 1.09 1.57 1.76 1.07 1.89 1.31 2.23 0.68 1.06 0.77 1.04 7.75 9.23 1.1 1.19 1.17 1.08 1.17 0.76 1.35 0.63 1.78 0.67 1.47 0.33 1.29 0.15 8.47 0.84 1.7 0.27 1.53 0.35 1.58 0.43 2.24 0.84 1.76 0.66 3.79 1.4 22.03 8.22 1.85 0.87 2.05 1.64 0.95 0.92 1.04 0.65 1.73 0.44 1.67 -0.32 3.73 -3.2 3 -2.47 3.37 -2.29 4.3 -2.45 4.94 -2.4 1.16 -0.49 4.57 -1.9 3.13 -1.13 2.58 -0.85 2.19 -0.1 10.22 0.55 2.09 0.2 2.25 0.27 2.9 0.4 1.94 0.19 1.53 0.15 3.13 0.12 2.38 -0.09 4.59 -0.3 5.54 -0.34 10.36 -0.74 5.24 -0.29 1.63 -0.05 2.23 -0.22 9.85 0.12 1.37 -0.12 10.56 0.11 16.29 -0.37 3.87 -0.3 2.46 -0.47 4.09 -1.27" />
				<path d="M555.54 415.74 l-0.58 2.18 0.08 3.43 0.1 4.08 -0.2 3.62 -0.5 4.08 -0.17 2.76 -0.15 4.26 0.06 8.66 0.37 22.96 0.09 4.75 0.01 1.63 -0.07 2.65 -0.4 4.82 -0.26 1.7 -0.4 4.07 -0.08 1.79 -0.08 2.34 -0.05 3.14 0.15 2.79 0.19 3.03 0.26 5.67 0.58 12.03 0.05 2.13 -0.08 1.94 -0.23 2.18 -0.57 2.21 -0.8 2.36 -1.58 3.45 -1.02 2.53 -0.38 1.23 -0.33 1.66 -0.52 5.74 -0.04 1.35 0.13 2.25 0.22 1.38 0.31 1.4 0.97 2.12 0.74 1.12 1.52 1.54 2.71 1.92 1.13 1.39 0.35 1.18 -0.03 1.57 -0.53 1.2 -0.92 1.19 -1.79 1.63 -1.06 0.85 -2.04 1.69 -3.22 2.68 -1.24 0.88 -1.71 0.72 -1.62 -0.16 -3.46 -1.45 -1.79 -0.38 -2.6 -0.2 -1.4 0.07 -1.76 0.56 -1.27 1.22 -1.14 2.35 -1.52 3.49 -0.32 1.42 -0.49 1.96 -1.55 1.57 -6.84 4.1 -7 3.76 -2.26 1.11 -2.99 1.24 -2.76 0.82 -3.13 0.57 -3.57 1.58 -2.74 1 -2.93 0.25 -3.46 0.2 -3.66 -0.05 -1.24 -0.05 -2.44 -0.19 -3.46 -0.35 -2.99 -0.1 -1.89 0.16 -1.58 0.58 -1.29 0.82 -1.26 1.06 -1.02 0.94 -2.02 1.98 -1.96 2.22 -6.57 9 -3.34 4.03 -7 7.63 -2.49 3.55 -7.8 12.78 -2.78 3.99 -3.48 4.2 -1.8 2.2 -1.98 2.16 -1.6 1.68 -1.8 1.68 -2.64 1.9 -3.57 2.31 -4.56 3.41 -2.84 2.13 -4.87 3.46 -1.57 1.28 -1.24 1.09 -0.94 1.14 -1.15 2.23 -0.53 1.27 -2.54 8.97 -0.84 2.7 -1.12 2.08 -1.48 2.05 -1.7 1.67 -1.54 1.21 -1.09 0.74 -1.73 0.6 -3.91 0.86 -5.25 0.78 -6.83 0.53 -5.15 0.24 -3.82 -0.12 -1.43 -0.2 -1.65 -0.35 -18.13 -3.93 -4.43 -0.76 -1.77 -0.19 -2.31 0.13 -1.84 0.53 -1.56 0.59 -1.25 0.34 -3.07 0.05 -3.08 -0.47 -1.34 0.2 -3.7 -1.33 -2.66 -6.81 -0.74 -1.98 -1.06 -3.28 -0.48 -1.95 -0.18 -1.47 -0.06 -1.25 0.15 -1.38 0.4 -1.72 0.75 -2.23 0.71 -1.63 1.39 -2.77 0.54 -1.39 0.15 -1.52 -0.16 -2.66 -0.05 -1.82 0.08 -1.69 0.42 -7.76 0.32 -3.92 1.36 -8.66 0.63 -3.2 3.61 -15.01 0.76 -4.42 0.65 -4.74 0.52 -5.22 0.17 -2.72 0.62 -4.08 0.66 -3.84 2.16 -10.5 0.82 -3.71 0.19 -1.21 0.14 -2.36 -0.16 -1.44 -0.76 -2.25 -0.74 -1.81 -0.89 -1.53 -8.01 -7 -3.14 -2.53 -1.14 -0.98 -0.93 -1.04 -0.17 -1.37 0.53 -1.35 1.17 -0.99 2.64 -1.25" />
				<path d="M568.99 382.11 l1.6 -0.38 1.62 -0.83" />
				<path d="M384.92 156.92 l-3.18 -0.25 -1.62 -0.32 -2.84 -1.87 -0.33 -1.63 0.17 -2.26 0.32 -1.93 0.43 -2.3 1.07 -3.37 0.84 -2.08 1.18 -2.94 0.74 -2.1 0.52 -1.91 0.23 -2.67 0.81 -11.95 0.13 -1.82 0.42 -2.47 1.11 -4.23 2.62 -9.66 0.86 -3.51 0.55 -1.67 1 -1.42 1.78 -1.24 5.61 -2.52 1.44 -0.86 1.57 -1.3 1.6 -2.03 0.97 -1.49 1.23 -2.77 7.63 -16.43 2.38 -4.39 4.35 -8.45 15.1 -25.42 6.32 -9.12 2.28 -3.22 1.72 -2.38 6.42 -8.45 3.76 -4.98 3.2 -4.8 2.16 -3.58 1.8 -3.64 4.85 -11.68 1.01 -2.33" />
				<path d="M321.32 555.08 l1.14 -1.04 0.32 -1.68 -1.88 -3.82 -0.01 -1.67 1.88 -5.37 0.65 -2.28 0.28 -2.63 0.49 -6.97 0.3 -1.44 0.64 -2.1 0.76 -2.17 0.66 -1.74 1.25 -2.92 1.06 -2.09 1.26 -2.07 1.55 -1.98 3.88 -3.92 1.42 -1.81 0.98 -1.53 1.37 -6.7 0.61 -6.66 0.16 -5.71 -0.08 -9.05 -0.14 -1.82 -0.44 -5.38 -0.27 -3.79 0.58 -3.14 0.39 -1.78 0.21 -1.22 -0.05 -1.74 -1.13 -9.2 -0.58 -2.99 -0.92 -2.96 -5.82 -13.88 -0.35 -1.87 -0.08 -1.69" />
				<path d="M117.95 404.03 l15.85 -3.25 29.86 -7.27 6.95 -1.38 13.17 -2.08 8.39 -0.97 4.24 -0.24 5.14 -0.4 2.98 0.12 2.87 0.48 3.6 0.92 2.98 0.92 15.99 5.68 2.95 1.1 1.47 0.54 2.39 0.95 13.01 5.39 17.07 7.62 2.66 1.35 1.07 0.78 2.85 2.42 3.05 3.08 4.16 3.94 2.92 2.29 2.1 1.53 3.25 1.71 4.36 1.25 1.71 0.21 3.48 0.18 2.02 -0.16 1.65 -0.52" />
				<path d="M499.46 559.13 l2.16 4.25 0.94 1.7 1.73 3.4 4.54 6.19 2.19 2.58 1.55 1.59 1.88 1.22 1.99 0.7 2.71 0.47 7.13 0.65 1.68 -0.69" />
				<path d="M170.63 337.46 l14.88 -10.76 6.93 -4.67 2.46 -1.46 1.26 -0.51 1.41 -0.42 1.41 -0.14 6.35 -0.72 1.55 -0.46 1.36 -0.6 1.71 -1.06 1.71 -1.66 1.17 -1.64 13.35 -18.75 1.72 -2.05 1.9 -2.05 4.74 -4.45 4.31 -3.68 5.69 -4.34 6.28 -3.92 5.71 -3.45 15.25 -7.99 2.05 -1.07 2.89 -1.61 2.71 -2.03 4.99 -4.36 1.15 -0.85 1.39 -0.67 1.94 -0.48 1.76 -0.24 3.03 -0.06 3.07 -0.06 1.96 -0.34 1.19 -0.45 1.32 -1.03 1.66 -3.33 1.82 -4.26 6.98 -19.44 0.67 -1.92 0.61 -1.79 5.78 -16.02 1.1 -1.76 0.85 -0.89 1.05 -1.02 1.97 -1.37 2.13 -1.08 1.38 -0.5 13.98 -6.01 1.63 -0.82 1.37 -1.03 0.74 -0.99 4.27 -6.15 2.03 -2.89 0.75 -1.39 0.4 -1.39 0.09 -0.94" />
				<path d="M487.54 155.62 l3.62 2.19" />
				<path d="M374.64 160.8 l1.27 -1.14 0.79 -2.99 0.24 -2.99" />
				<path d="M526.28 581.88 l1.36 0.73" />
				<path d="M526.49 585.48 l1.34 0.84 4.92 3.8 1.56 1.79 0.82 1.72 0.51 1.69 0.68 1.55 1.44 1.81 2.39 2.28 2.09 1.96 1.11 1.44 0.56 1.28 0.47 1.64 0.21 1.3 1.16 7.9 0.5 1.8 0.5 1.4 1.01 2.1 2.59 3.85 2.48 3.25 2.08 2.37 3.26 4.27 0.88 0.99 1.02 0.96 1.28 0.92 2.61 1.19 3.31 0.95 3.38 1.03 2.69 1.08 4.13 2.12 1.82 1.15 1.53 1.03 1.01 1 1.17 1.19 2.47 3.3 1.23 2.05 0.76 1.45 1.43 3.43 0.87 1.17 1.39 1.27 1.29 0.54 1.82 0.38 2.41 0.28 6.26 1.17 15.71 2.81 1.41 0.36 1.28 0.46 1.32 0.56 1.85 0.96 1.86 1.45 2.37 2.46 1.45 1.24 1.1 0.84 3.63 2.24 7.92 4.5 19.23 9.92 5.1 2.93 1.04 0.67 1 0.99 0.41 1.5 -0.29 1.28 -2.34 3.31 -1.1 1.48 -4.27 5.44 -14.74 20.28 -3.67 5.08 -11.68 15.76 -0.83 1.28 -0.54 1.26 -0.45 3.06 -0.16 1.93 0.32 1.74 8.45 36.38" />
				<path d="M316.01 697.82 l1.12 4.36 0.91 -2.07 0.83 -0.58" />
				<path d="M260.82 868.62 l-0.33 -2.58 -0.04 -1.76 0.16 -1.45 0.53 -2.33 0.43 -1.37 0.65 -2.11 0.85 -2.55 2.73 -8.11 3.61 -10.26 1.45 -3.83 4.17 -11.15 3.11 -9.26 3.7 -9.91 4.03 -9.67 1.99 -4.27 3.03 -6.51 1.77 -4.59 1.11 -3.64 0.89 -2.61 0.66 -2.16 1.39 -3.75 2.92 -7.75 1.29 -4.81 0.46 -2.12 0.32 -1.57 1.03 -4.76 0.67 -4.64 1.22 -7.55 0.8 -3.41 0.74 -2.46 0.94 -2.28 0.99 -1.96 0.94 -2.07 1.89 -3.36 2.9 -4.94 1.2 -2.18 0.8 -1.72 0.52 -1.47 0.81 -3.53" />
				<path d="M301.21 249.4 l-2.42 4.12 -0.57 1.23 -0.45 2.56 -0.06 1.27 -1.09 32.68 0.1 2.68 0.24 2.63 0.53 2.8 0.74 2.51 1.56 4 1.8 3.71 1.13 2.02 1.02 1.64 4.97 6.2" />
				<path d="M947.27 68.97 l12.13 -22.65 6.15 -10.04 4.12 -5.9 6.21 -7.71 6.66 -8.76 4.97 -7.78 4.12 -8.19 3.19 -7.59 0.78 -2.63 0.42 -1.45 3.6 -19.53 0.28 -1.28 0.53 -4.01 2.14 -17.34 0.11 -2.66 -0.08 -2.62 -0.29 -3.35 -0.4 -2.68 -0.63 -2.63 -3.4 -11.89 -0.34 -2.2 -0.18 -1.84 0.04 -3.38 0.25 -1.39 14.82 -69.36 0.31 -1.35 1.92 -8.51 0.49 -1.6 0.58 -1.23 0.61 -1.17 1.02 -1.43 1.55 -1.49 2.07 -1.41 1.58 -0.75 1.26 -0.49 1.23 -0.33 1.45 -0.29 3.81 -0.53 3.56 -0.26 3.3 -0.24 2.19 -0.34 4.86 -1.5 1.69 -0.63 4.48 -1.9 6.16 -2.43" />
				<path d="M516.44 580.76 l0.36 2 -0.57 2.13 -0.82 1.91 -0.78 1.8 -1.36 2.8 -0.63 1.18 -0.87 1.43" />
				<path d="M628.91 108.48 l0.88 -1.67 0.58 -0.7" />
				<path d="M1068.88 626.28 l-1.57 0.93 -1.2 0.57 -2.06 0.58 -1.98 0.33 -4.36 0.58 -2.91 0.14 -2.28 0.08 -1.85 -0.1 -1.32 -0.11 -2.37 -0.58 -2.71 -0.8 -4.61 -1.32 -4.93 -1.19 -3.81 -0.72 -4.2 -0.66 -7.79 -0.8 -13.87 -2.14 -4.67 -0.88 -12.28 -2.14 -20.2 -4.69 -8.67 -2.16 -3.73 -1.08 -1.45 -0.27 -1.45 -0.28 -2.3 0 -1.58 0.2 -2.16 0.4 -1.96 0.52 -2.02 0.58 -1.57 0.67 -3.96 2.23 -1.37 0.84 -1.61 0.87 -1.39 0.72 -1.36 0.47 -1.7 0.95 -1.83 1.57 -1.36 1.89 -3.07 5.3 -1.5 2.54 -0.8 1.18 -1.51 1.71 -1.04 0.91 -1.29 0.99 -2.12 1.14 -1.77 0.78 -1.83 0.64 -2.28 0.83 -1.45 0.61 -1.43 0.87 -1.4 1.25 -1.68 1.77 -1.67 2.15 -1.44 1.98 -0.9 1.37 -1.27 2.3 -0.97 1.65 -1.63 3.59 -2.95 7.78 -0.9 2 -0.78 1.24 -1.66 2.44 -1.71 1.87 -2.55 2.11 -6.8 4.69 -1.42 1.23 -0.99 0.86 -1.07 1.08 -0.81 1.01 -2.43 3.72 -1.74 2.77 -1.86 2.92 -9.15 13.25 -1.1 1.2 -1.37 1.06 -2.36 1.38 -2.1 1.25 -1.13 0.79 -1.11 0.92 -1.18 1.15 -0.85 1.22 -0.63 1.29 -0.73 1.73 -0.66 2.16 -0.45 1.26 -0.44 2.05 -0.14 2.04 0.1 1.44 0.35 1.4 0.5 1.21 0.98 1.47 1.2 1.84 0.63 1.88 -0.33 2.29 -0.82 2.25 -1.32 3.1 -1.06 2.62 -0.84 3.27 -0.46 3 -0.42 4.18 -0.44 2.18 -0.47 1.94 -1.93 4.6 -0.8 1 -1.77 0.99 -2.3 0.58 -1.31 0.75 -1.19 1.2 -1.06 1.54 -13.63 24.37 -3.18 5.89 -2.03 4.74 -0.53 1.63 -0.48 2.15 -1.07 5.71 -0.85 4.81 -1.33 8.82 -0.38 2.8 -0.68 3.23 -0.51 1.66 -0.57 1.57 -0.53 1.24 -0.92 1.71 -1 1.53 -1.93 2.59 -4.26 5.27 -1.92 2.74 -3.24 4.74 -1.55 2.63 -1.52 3.07 -2.32 4.29 -2.39 4.25 -1.26 2.63 -0.69 1.64 -0.86 1.98 -1.34 3.97 -1.49 4.04 -1.84 4.24 -0.68 1.39 -1.23 2.22 -2.58 3.71 -1.08 1.15 -1.06 0.87 -1.11 0.84 -1.59 1.14 -1.86 1.68 -1.12 0.99 -1.89 1.02" />
				<path d="M1000.32 128.19 l-6.57 4.58 -9.62 6.61 -0.62 1.1 0.22 1.31 4.34 6.9 18.16 -13.5" />
				<path d="M625.21 109.1 l5.17 -2.99 9.27 -5.31 30.65 -18.41 12.64 -9.16 5.47 -5.13 4.85 -4.77 2.37 -3.05 1.94 -2.91 1.41 -2.83 0.94 -2.35 1.56 -5.89 2.16 -10.98 1.3 -7.38 0.27 -1.52 0.86 -10.96 1.18 -25.88 0.11 -15.45 0.75 -12.73 0.77 -7.85 1.06 -7.27 1.19 -5.23 1.22 -4.13 1.42 -4.14" />
			</g>
			<g id="highway_path111" style="stroke-linecap:round;stroke:#D8D8D8;stroke-width:0.67">
				<path d="M431.36 700.35 l0.62 -0.57" />
				<path d="M505.04 557.8 l-1.23 -0.57" />
				<path d="M892.85 669.54 l-0.87 0.68" />
				<path d="M901.63 663.75 l-1.14 0.72" />
				<path d="M885 712.07 l-0.44 -0.37" />
			</g>
			<g id="highway_footway1" style="stroke-linecap:round;stroke:#D8D8D8;stroke-width:0.67">
				<path d="M659.6 688.21 l0.55 0.29" />
			</g>
			<g id="bridge_foot1" style="stroke:#D8D8D8;stroke-width:3.45">
				<path d="M592.81 452.65 l-1.8 0.14" />
				<path d="M794.43 538.68 l-1.23 -0.31" />
				<path d="M708.61 368.55 l0.88 -1.78" />
				<path d="M816.9 737.75 l0.21 -0.3" />
				<path d="M591.04 591.65 l-0.01 0.99" />
				<path d="M753.46 702.19 l-0.19 -0.36" />
				<path d="M595.06 450.31 l-0.02 1.14" />
			</g>
			<g id="highway_path1111" style="stroke-linecap:round;stroke:#D8D8D8;stroke-width:0.67">
				<path d="M528.49 436.09 l-0.47 -1" />
				<path d="M439.68 693.51 l1.34 -0.53" />
				<path d="M481.16 650.05 l-0.13 0.65" />
				<path d="M1043.3 96.55 l-0.59 -0.47" />
				<path d="M370.2 73.33 l0.11 -0.78" />
				<path d="M243.85 219.56 l-0.63 -0.04" />
				<path d="M976.29 166.87 l0.38 1.16" />
				<path d="M533.96 552.08 l0.12 -0.82" />
				<path d="M1013.77 357.09 l1.09 -2.4" />
				<path d="M987.53 77.83 l0.65 0.71" />
				<path d="M1036.66 397.33 l-0.22 -0.69" />
				<path d="M851.37 513.75 l-0.72 -1.2" />
				<path d="M240.59 184.43 l-0.32 -0.39" />
				<path d="M953.94 710.63 l-0.39 0.5" />
				<path d="M980.6 740.4 l-0.6 0.17" />
			</g>
			<g id="highway_footway11" style="stroke-linecap:round;stroke:#D8D8D8;stroke-width:0.67">
				<path d="M592.81 452.65 l-1.8 0.14" />
				<path d="M595.06 450.31 l-0.02 1.14" />
				<path d="M794.43 538.68 l-1.23 -0.31" />
				<path d="M816.9 737.75 l0.21 -0.3" />
				<path d="M708.61 368.55 l0.88 -1.78" />
				<path d="M753.46 702.19 l-0.19 -0.36" />
				<path d="M591.04 591.65 l-0.01 0.99" />
			</g>
			<g id="highway_track1111111" style="stroke-linecap:round;stroke:#D8D8D8;stroke-width:0.67">
				<path d="M789.73 480.85 l-0.09 -3.77" />
			</g>
			<g id="highway_unclassified1" style="stroke-linecap:round;stroke:#D8D8D8;stroke-width:3.03">
				<path d="M943.47 222.75 l1.78 -0.81 1.23 -0.68" />
				<path d="M302.14 430.21 l3.88 -2.02" />
				<path d="M316.24 557.38 l5.08 -2.3" />
			</g>
			<g id="bridge_foot11" style="stroke:#D8D8D8;stroke-width:3.45">
				<path d="M651.03 408.54 l-0.78 0.05" />
				<path d="M665.64 547.51 l0.57 -0.22" />
			</g>
			<g id="highway_footway111" style="stroke-linecap:round;stroke:#D8D8D8;stroke-width:0.67">
				<path d="M651.03 408.54 l-0.78 0.05" />
				<path d="M665.64 547.51 l0.57 -0.22" />
			</g>
		</g>
	</g>
</svg>