<?xml version="1.0" encoding="utf-8"?>
<svg xmlns:xlink="http://www.w3.org/1999/xlink" version="1.1" xml:space="preserve" x="0" y="0" width="1280" height="752" style="overflow:hidden;text-rendering:optimizeLegibility" xmlns="http://www.w3.org/2000/svg">
	<!--Title: Map Generated Using Maperitive (http://maperitive.net)-->
	<!--Map Generator: Maperitive v2.3.20 by Igor Brejc
Time: 02/22/2013 23:51:44
-->
	<defs>
		<rect x="0" y="0" width="1280" height="752" id="MapFrame" />
	</defs>
	<g id="Map" clip-path="url(#MapClipRectangle)">
		<g id="Polygons" style="stroke-linejoin:round">
			<g id="building__fill" style="fill:#BCA9A9;stroke:#000000">
				<path style="fill-rule:evenodd;stroke:none" d="M622.7 62.38 l11 5.95 1.38 0.75 1.04 -1.92 2.52 1.37 5.84 -10.79 -4.79 -2.59 1.62 -2.99 -1.66 -0.9 -0.46 0.84 -1.44 -0.78 -1.11 2.04 -3.03 -1.64 1.58 -2.91 -3.98 -2.15 -2.62 4.84 -5.89 10.89 Z M629.85 57.46 l0.96 -1.76 8.95 4.9 -0.96 1.76 -8.95 -4.9 Z" />
				<path style="fill-rule:evenodd;stroke:none" d="M934.61 285.34 l-22.48 -12.33 -6.18 11.26 4.56 2.5 -6.57 12 17.92 9.81 6.57 -11.97 3.51 -6.41 2.66 -4.85 Z M911.29 296.55 l3.94 -7.18 7.96 4.37 -3.94 7.18 -7.96 -4.37 Z" />
				<path style="fill-rule:evenodd;stroke:none" d="M360.2 126.57 l-38.53 -21.06 -12.88 23.57 38.52 21.05 3.85 -7.05 3.56 1.95 5.14 -9.41 -3.54 -1.94 3.89 -7.12 Z M347.09 128.93 l0.45 0.9 -4.26 7.72 -1.05 0.2 -19.59 -10.97 -0.45 -1.06 0.5 -0.95 0.7 0.3 2.95 -5.41 -0.55 -0.4 0.55 -0.95 1.2 -0.25 19.53 10.87 Z" />
				<path style="stroke:none" d="M461 606.97 l12.09 6.75 -6.58 11.6 -12.03 -6.77 6.52 -11.58 Z" />
				<path style="stroke:none" d="M558.07 -5.63 l-13.02 23.44 20.14 11.42 6.24 -28.01 -13.36 -6.86 Z" />
				<path style="stroke:none" d="M588 319.07 l-11.06 -6.17 -2.45 4.38 -35.9 -20.03 12.9 -23.12 18.23 10.17 -2.64 4.73 28.73 16.03 -7.81 14 Z" />
				<path style="stroke:none" d="M914.69 556.69 l-26.01 -14.34 -13.2 23.94 26.01 14.34 13.2 -23.95 Z" />
				<path style="stroke:none" d="M962.13 555.55 l-7.64 13.43 28.01 15.94 6.55 -11.52 -16.49 -9.38 1.09 -1.91 -11.51 -6.55 Z" />
				<path style="stroke:none" d="M700.91 396.94 l-6.19 11.1 4.34 2.42 3.59 -6.45 9.91 5.52 2.6 -4.66 -14.25 -7.94 Z" />
				<path style="stroke:none" d="M443.11 156.02 l-1.7 3.04 -1.61 2.9 3.47 1.95 2.55 -4.67 0.72 -1.37 -3.42 -1.85 Z" />
				<path style="stroke:none" d="M506 127.16 l7.34 3.98 -7.86 14.46 -7.33 -3.98 1.34 -2.5 6.51 -11.96 Z" />
				<path style="stroke:none" d="M241.06 125.04 l0.4 -0.85 -0.75 -0.39 1 -1.91 -1.73 -0.92 -1 1.89 -0.47 -0.32 -3.62 6.9 2.89 1.56 3.28 -5.97 Z" />
				<path style="stroke:none" d="M266.12 254.05 l3.25 1.85 -5.91 10.4 -3.25 -1.85 5.91 -10.4 Z" />
				<path style="stroke:none" d="M495.84 419.49 l-1.76 -1.01 -4.3 -2.31 -1.24 -0.69 -6.51 11.74 7.23 4.07 6.57 -11.81 Z" />
				<path style="stroke:none" d="M278.87 122.01 l2.24 1.22 -1.76 3.26 -1.21 2.23 -2.25 -1.2 2.98 -5.51 Z" />
				<path style="stroke:none" d="M387.55 375.75 l13.08 -23.28 19.25 10.83 15.54 8.75 -13.09 23.27 -15.54 -8.75 -19.25 -10.82 Z" />
				<path style="stroke:none" d="M265.82 115.13 l3.18 1.73 -4.09 7.42 -3.21 -1.79 4.12 -7.36 Z" />
				<path style="stroke:none" d="M621.08 4.96 l12.56 6.96 -5.04 9.08 -22.18 -12.3 10.68 -19.26 9.63 5.34 -5.64 10.17 Z" />
				<path style="stroke:none" d="M271.96 132.83 l-7.26 13.09 -2.6 -1.43 5.97 -10.77 1.29 -2.32 2.6 1.44 Z" />
				<path style="stroke:none" d="M628.32 485.31 l1.13 0.31 3.02 -5.31 -7.63 -4.23 -5.88 10.59 -3.44 6.33 -2.7 -1.47 -3.72 6.82 12.34 6.84 3.86 -7.03 -3.1 -1.7 6.13 -11.16 Z" />
				<path style="stroke:none" d="M414.45 36.73 l3.28 1.8 -3.29 5.97 -3.28 -1.8 3.29 -5.97 Z" />
				<path style="stroke:none" d="M691.55 553.68 l-3.18 5.84 1.48 0.81 -4.46 8.19 -5.39 -2.93 -5.2 9.55 19.83 10.8 12.84 -23.59 -15.92 -8.67 Z" />
				<path style="stroke:none" d="M701.99 428.59 l-10.7 -6.01 0.99 -1.76 1.16 -2.06 1.51 -2.7 0.75 -1.38 -2.1 -4.62 0.71 -1.28 0.41 -0.74 4.34 2.42 9.17 5.12 0.73 0.4 -6.97 12.61 Z" />
				<path style="stroke:none" d="M258.63 142.56 l-2.88 -1.6 5.54 -10.01 0.42 -0.76 2.88 1.6 -5.97 10.77 Z" />
				<path style="stroke:none" d="M456.53 171.25 l-13.27 -7.33 2.55 -4.67 0.72 -1.37 3.45 -6.32 3.05 -5.42 0.83 -1.52 2.48 -4.54 13.33 7.27 -0.65 1.17 -11.81 21.48 -0.69 1.24 Z" />
				<path style="stroke:none" d="M483.42 619.44 l-6.52 11.65 -10.39 -5.76 6.58 -11.6 10.33 5.71 Z" />
				<path style="stroke:none" d="M673.34 40.57 l9.5 -17.72 1.12 0.69 1.9 9.48 2.4 11.98 -2.31 -1.25 -1.55 2.77 -4.61 -2.47 -6.46 -3.47 Z" />
				<path style="stroke:none" d="M841.71 112.18 l7.89 4.3 -6.36 11.66 -7.89 -4.3 6.36 -11.66 Z" />
				<path style="stroke:none" d="M239.32 252.65 l1.83 -3.3 10.58 5.86 0.99 0.55 -1.83 3.3 -11.56 -6.41 Z" />
				<path style="stroke:none" d="M914.1 78.64 l-2.21 3.99 4.06 2.26 2.22 -3.98 -4.07 -2.26 Z" />
				<path style="stroke:none" d="M295.17 70.21 l0.34 -0.62 1.33 -2.39 -3.1 -1.73 -1.68 3.01 3.1 1.73 Z" />
				<path style="stroke:none" d="M850.42 591.62 l-29.19 -16.06 -3.3 -1.81 12.99 -23.61 3.3 1.81 29.19 16.06 -2.24 4.07 -7.15 13 -3.6 6.54 Z" />
				<path style="stroke:none" d="M883.66 620.23 l9.38 5.09 -1.56 2.87 -1.29 2.36 -3.03 -1.65 -2.78 5.1 -3.53 -1.92 2.75 -5.05 -2.81 -1.53 1.15 -2.11 1.71 -3.16 Z" />
				<path style="stroke:none" d="M299.08 214.39 l3.29 1.74 -5.3 9.34 -2.28 -1.29 1.21 -2.13 -0.86 -0.49 3.94 -7.18 Z" />
				<path style="stroke:none" d="M715.59 607.5 l-8.95 16.5 1.84 0.97 -6.29 7.29 -17.15 -9.17 9.32 -16.61 6.88 3.8 -1.35 2.4 4.58 2.53 1.3 -2.43 4.5 -8.2 5.34 2.92 Z" />
				<path style="stroke:none" d="M465.78 185.64 l-6.42 11.77 3.34 1.84 3.96 2.19 6.47 -11.79 -7.35 -4.01 Z" />
				<path style="stroke:none" d="M337.41 154.49 l-5.77 10.48 -3.07 -1.69 5.77 -10.48 3.07 1.69 Z" />
				<path style="stroke:none" d="M340.42 156.15 l-5.77 10.48 -3.01 -1.66 5.77 -10.48 3.01 1.66 Z" />
				<path style="stroke:none" d="M314.18 181.54 l3.12 1.68 -5.32 9.92 -3.12 -1.67 5.32 -9.92 Z" />
				<path style="stroke:none" d="M213.99 197.8 l6.65 -11.98 6.47 3.59 -6.66 11.98 -6.47 -3.59 Z" />
				<path style="stroke:none" d="M320.9 80.59 l-10.91 -6.13 1.66 -2.96 10.91 6.13 -1.66 2.95 Z" />
				<path style="stroke:none" d="M536.94 94.81 l-5.5 -3.02 6.07 -10.71 0.88 -1.43 2.16 1.2 0.25 -0.42 0.9 -1.53 6.55 3.38 -2.1 5.79 -4.22 -2.14 -4.99 8.88 Z" />
				<path style="stroke:none" d="M446.53 157.88 l3.45 -6.32 -5.79 -3.16 2.98 -5.46 5.86 3.2 0.83 -1.52 2.48 -4.54 -12 -6.55 -9.73 17.88 8.49 4.63 3.42 1.85 Z" />
				<path style="stroke:none" d="M331.68 151.33 l-5.77 10.48 -3 -1.65 5.77 -10.48 3 1.65 Z" />
				<path style="stroke:none" d="M624.14 534.26 l-1.74 3.25 15.25 8.34 1.82 -3.11 -15.33 -8.48 Z" />
				<path style="stroke:none" d="M849.81 612.14 l2.69 -4.83 8.42 4.67 -2.67 4.84 -8.44 -4.67 Z" />
				<path style="stroke:none" d="M724.99 210.41 l-1.01 1.79 -1.73 -0.98 -0.98 1.74 -1.73 -0.98 -1.88 3.33 -4.71 8.33 -1.8 3.19 1.74 0.98 -0.98 1.74 1.67 0.95 -0.98 1.73 3.38 1.91 3.31 1.87 3.14 1.78 3.47 1.96 0.61 -1.07 0.8 0.45 0.32 -0.56 9.11 5.15 4.03 -7.16 1.42 -2.52 -5.33 -3 5.14 -9.1 -3.72 -2.11 0.32 -0.58 -0.78 -0.44 0.49 -0.86 -3.47 -1.96 -3.29 -1.86 -3.16 -1.79 -3.39 -1.92 Z" />
				<path style="stroke:none" d="M706.51 602.54 l-7.68 -4.2 -4.49 8.14 6.88 3.8 0.79 0.46 4.49 -8.19 Z" />
				<path style="stroke:none" d="M817.86 363.98 l-7.59 -4.2 -3.61 6.53 7.59 4.2 3.61 -6.53 Z" />
				<path style="stroke:none" d="M462.71 199.25 l-6.66 12.07 -9.21 -5.13 6.61 -11.99 5.91 3.21 3.34 1.84 Z" />
				<path style="stroke:none" d="M504.48 117.1 l23.1 12.95 7.45 -17.21 -21.61 -11.91 -8.95 16.17 Z" />
				<path style="stroke:none" d="M197.58 100.25 l-1.77 3.26 -8.93 -5.02 1.85 -3.2 8.84 4.95 Z" />
				<path style="stroke:none" d="M738.52 389.61 l-1.49 2.62 10.94 6.14 1.08 0.6 1.49 -2.68 -12.03 -6.68 Z" />
				<path style="stroke:none" d="M477.36 465.73 l-2.37 -1.35 6.78 -12.2 2.4 1.32 -6.81 12.23 Z" />
				<path style="stroke:none" d="M277.05 133.03 l1.55 -2.9 10.6 5.66 -1.55 2.9 -10.6 -5.66 Z" />
				<path style="stroke:none" d="M292.98 657.86 l17.61 9.81 -5.34 9.56 -5.08 -2.82 -1.43 2.58 -12.47 -6.78 6.72 -12.35 Z" />
				<path style="stroke:none" d="M313.42 68.36 l1.77 -3.15 10.81 5.96 -1.67 3.33 -10.91 -6.13 Z" />
				<path style="stroke:none" d="M602.69 478.73 l1.18 0.64 2.18 1.19 -3.91 7.15 0.9 0.49 -2.85 5.22 -5.76 -3.2 5.28 -9.58 1.46 0.83 1.5 -2.75 Z" />
				<path style="stroke:none" d="M210.97 105 l-4.4 7.87 -3.03 -1.7 4.37 -7.87 3.05 1.7 Z" />
				<path style="stroke:none" d="M600.1 371.52 l-2.26 -1.29 5.03 -8.81 2.25 1.29 -5.02 8.8 Z" />
				<path style="stroke:none" d="M575.18 109.2 l-4.69 -2.61 8.25 -14.8 1.18 -2.12 1.04 -1.76 9.65 5.46 -10.56 18.65 -4.87 -2.83 Z" />
				<path style="stroke:none" d="M353.07 300.52 l5.73 3.49 -1.32 2.17 -5.73 -3.48 1.32 -2.17 Z" />
				<path style="stroke:none" d="M202.1 100.07 l0.81 -1.61 -1.78 -0.96 -3.74 6.94 -0.57 -0.31 -1.38 2.55 2.3 1.28 4.35 -7.9 Z" />
				<path style="stroke:none" d="M558.94 360.83 l-11.84 20.78 16.47 9.38 11.84 -20.78 -16.47 -9.38 Z" />
				<path style="stroke:none" d="M334.2 289.83 l-3.91 7.26 -2.86 -1.54 -2.69 4.98 10.56 5.7 6.6 -12.23 -7.7 -4.16 Z" />
				<path style="stroke:none" d="M234.99 97.63 l1.62 0.91 -0.28 0.44 -5.62 10.01 -1.59 -0.89 5.87 -10.46 Z" />
				<path style="stroke:none" d="M291.23 232.94 l-3.2 6.06 -2.37 -1.25 3.21 -6.06 2.36 1.25 Z" />
				<path style="stroke:none" d="M931.78 258.55 l13.63 7.51 6.48 -11.76 -13.63 -7.51 -5.1 9.3 -1.38 2.46 Z" />
				<path style="stroke:none" d="M194.18 85.71 l1.82 -3.23 8.72 4.88 -1.82 3.23 -8.72 -4.88 Z" />
				<path style="stroke:none" d="M540.21 666.2 l6.28 -11.16 -1.98 -1.11 -3.25 -1.8 -7.6 -4.31 -6.29 11.11 12.83 7.27 Z" />
				<path style="stroke:none" d="M288.87 231.68 l-3.21 6.06 -2.34 -1.24 3.21 -6.06 2.34 1.24 Z" />
				<path style="stroke:none" d="M299.41 173.33 l2.75 1.42 -5.4 10.49 -2.75 -1.42 5.4 -10.49 Z" />
				<path style="stroke:none" d="M669.37 379.13 l-4.95 -2.75 -6.7 11.97 2.83 1.64 2.08 1.16 6.75 -12.02 Z" />
				<path style="stroke:none" d="M902.53 634.33 l-3.47 6.21 -7.24 -4.04 -3.77 -2.09 2.15 -3.86 1.29 -2.36 11.04 6.13 Z" />
				<path style="stroke:none" d="M206.86 84.82 l0.94 0.51 -3.72 6.9 1.83 0.99 1.07 -1.99 4.16 -7.7 -2.78 -1.5 -1.51 2.79 Z" />
				<path style="stroke:none" d="M495.84 419.49 l-6.57 11.81 12.08 6.75 6.41 -11.35 0.24 -0.43 -12.16 -6.77 Z" />
				<path style="stroke:none" d="M855.04 483.63 l-1.99 3.69 -2.52 -1.37 -8.11 15.01 2.58 1.4 -2.06 3.81 43.68 23.58 12.16 -22.51 -43.73 -23.61 Z" />
				<path style="stroke:none" d="M299.15 145.5 l10.09 5.75 -1.8 3.16 -3.03 -1.73 -7.06 -4.02 1.8 -3.16 Z" />
				<path style="stroke:none" d="M305.35 176.39 l2.89 1.84 -5.44 10.08 -2.85 -1.43 5.4 -10.49 Z" />
				<path style="stroke:none" d="M681.7 329.1 l1.3 -2.32 3.2 1.78 2.72 1.51 2.23 1.22 4.14 -7.46 -2.24 -1.23 -2.75 -1.53 -3.14 -1.75 1.3 -2.32 -3.51 -1.95 -9.88 -5.48 -6.97 -3.87 -1.29 2.32 -6.78 -3.76 -4.14 7.47 6.78 3.76 -1.29 2.33 6.97 3.87 9.87 5.48 3.47 1.92 Z" />
				<path style="stroke:none" d="M615 550.43 l-15.23 -8.25 -4.68 8.64 -2.13 3.94 4.99 2.69 10.24 5.54 6.81 -12.57 Z" />
				<path style="stroke:none" d="M224.3 102.02 l3.03 1.72 -2.5 4.37 -3.01 -1.73 1.42 -2.5 1.06 -1.86 Z" />
				<path style="stroke:none" d="M293.63 234.2 l-3.2 6.06 -2.4 -1.27 3.2 -6.06 2.4 1.27 Z" />
				<path style="stroke:none" d="M284.69 74.96 l2.69 -5.03 0.57 -1.08 -2.85 -1.52 -3.26 6.1 2.85 1.52 Z" />
				<path style="stroke:none" d="M698.95 275.46 l-13.57 23.93 23.25 13.18 13.25 -24.1 -22.93 -13.01 Z" />
				<path style="stroke:none" d="M897.34 643.59 l-7.23 -4.02 -8.39 -4.63 -0.78 1.42 -4.58 -2.53 -4.56 8.27 -1.12 2.03 20.16 11.21 6.52 -11.73 Z" />
				<path style="stroke:none" d="M863.85 78.37 l-1.34 2.41 -4.68 8.4 4.3 2.4 6.01 3.33 5.98 -10.93 -10.27 -5.61 Z" />
				<path style="stroke:none" d="M706.51 602.54 l-4.49 8.19 3.73 2.05 4.5 -8.2 -3.73 -2.04 Z" />
				<path style="stroke:none" d="M633.45 494.74 l3.53 1.98 5.94 -10.61 -3.53 -1.98 -5.94 10.61 Z" />
				<path style="stroke:none" d="M742.92 248.75 l5.37 3.01 -0.66 1.18 1.56 0.87 5.61 -9.99 1.87 1.05 1.17 -2.08 -8.81 -4.91 -1.42 2.52 -4.38 7.77 -0.32 0.58 Z" />
				<path style="stroke:none" d="M271.12 220.87 l-3.77 7.11 -2.15 -1.14 3.77 -7.11 2.15 1.14 Z" />
				<path style="stroke:none" d="M436.01 184.62 l-6.59 12.01 -3 -1.67 6.57 -11.99 3.03 1.65 Z" />
				<path style="stroke:none" d="M350.65 689.9 l9.81 5.37 -3.99 26.79 -1.98 0.6 -31.93 -18 5.69 -10.35 9.06 5.01 -1.29 2.35 12.68 7.21 3.97 -7.5 -6.41 -3.65 4.4 -7.83 Z" />
				<path style="stroke:none" d="M243.82 112.66 l3.16 1.71 3.96 -7.35 -3.16 -1.71 -3.96 7.35 Z" />
				<path style="stroke:none" d="M353.26 154.03 l1.53 -2.79 1.1 0.61 0.5 -0.91 0.32 0.18 0.52 -0.78 0.87 -0.48 0.93 -0.18 0.99 0.24 0.81 0.46 0.76 0.76 0.31 0.99 0.01 0.93 -0.28 0.75 0.41 0.23 -0.52 0.95 1.05 0.58 -1.51 2.74 -7.82 -4.3 Z" />
				<path style="stroke:none" d="M516.7 307.27 l-2.04 -1.2 5.32 -9.53 2.08 1.15 -5.36 9.58 Z" />
				<path style="stroke:none" d="M471.86 204.29 l2.65 1.42 3.19 1.81 1.54 -2.79 1.65 -2.98 9.67 5.16 3.11 -6.21 -15.34 -8.2 -6.46 11.79 Z" />
				<path style="stroke:none" d="M199.38 96.94 l-1.81 3.3 -8.84 -4.95 1.87 -3.27 8.78 4.92 Z" />
				<path style="stroke:none" d="M320.22 184.78 l2.88 1.75 -4.16 7.39 -1.15 2.33 -2.88 -1.55 5.32 -9.92 Z" />
				<path style="stroke:none" d="M929.15 403.13 l-0.45 0.8 -0.56 1.04 -0.44 0.81 -0.86 1.55 -3.8 7.05 4.05 2.18 1.76 0.95 -1.3 2.39 3.42 1.87 5.57 3 1.36 0.75 0.77 0.42 1.04 0.57 0.75 0.43 7.43 -13.54 -18.73 -10.27 Z" />
				<path style="stroke:none" d="M453.3 219.22 l-6.44 11.57 4.89 2.72 6.44 -11.57 -4.9 -2.72 Z" />
				<path style="stroke:none" d="M848.13 130.78 l-6.77 12.33 14.69 8.07 3.48 -6.23 -11.03 -6.17 3.32 -5.94 -3.69 -2.06 Z" />
				<path style="stroke:none" d="M516.7 307.27 l5.36 -9.58 3.56 1.99 -5.36 9.58 -3.57 -1.99 Z" />
				<path style="stroke:none" d="M401 431.31 l-16.9 -8.94 -6.79 12.33 4.43 2.38 -6.73 12.26 6.64 3.85 1.18 1.17 1.61 0.95 1.85 0.29 2.06 -0.24 1.9 -0.71 1.68 -1.2 1.19 -1.69 0.41 -2.31 -0.18 -2.38 4.17 -7.53 1.83 0.92 2.92 -4.83 -1.29 -4.31 Z" />
				<path style="stroke:none" d="M984.93 517.35 l13.43 7.56 -5.85 10.39 2.14 1.2 -5.27 9.37 -15.57 -8.77 11.13 -19.76 Z" />
				<path style="stroke:none" d="M658.3 252.07 l-13.81 24.02 40.89 23.29 13.57 -23.93 -40.66 -23.38 Z" />
				<path style="stroke:none" d="M742.61 581.86 l-13.24 23.86 -25.51 -14.16 13.24 -23.86 25.51 14.16 Z" />
				<path style="stroke:none" d="M330.33 173.86 l3.31 1.86 -2.88 5.9 -3.51 -1.83 3.09 -5.94 Z" />
				<path style="stroke:none" d="M420.55 200.82 l-6.7 11.79 6.69 3.66 2.19 1.24 6.53 -11.71 -8.71 -4.98 Z" />
				<path style="stroke:none" d="M647.12 366.45 l-11.04 -6.34 -0.3 0.54 -6.66 11.8 6.09 3.43 3.09 1.79 1.85 1.01 6.98 -12.23 Z" />
				<path style="stroke:none" d="M533.49 344.55 l-6.28 11.33 3.2 1.78 1.7 0.94 6.27 -11.34 -4.89 -2.71 Z" />
				<path style="stroke:none" d="M343.53 157.86 l-5.77 10.48 -3.11 -1.71 5.77 -10.48 3.11 1.71 Z" />
				<path style="stroke:none" d="M885.51 154.63 l1.56 0.87 -1.19 2.15 1.55 0.85 -0.47 0.86 -0.95 1.71 -0.95 1.72 -0.94 1.72 -1.55 -0.86 -0.94 1.72 -1.56 -0.86 -0.94 1.71 -1.56 -0.86 -1.56 -0.86 -1.56 -0.86 -1.56 -0.86 -1.56 -0.86 -1.56 -0.86 -1.57 -0.86 -1.56 -0.86 -1.56 -0.86 0.95 -1.72 0.94 -1.72 0.95 -1.72 0.95 -1.71 0.94 -1.72 0.95 -1.72 0.94 -1.72 0.94 -1.71 1.57 0.87 1.56 0.86 1.56 0.86 1.56 0.86 1.56 0.86 1.56 0.86 1.56 0.86 1.56 0.86 1.55 0.86 -1.18 2.14 Z" />
				<path style="stroke:none" d="M227.27 124.14 l2.27 1.21 3.1 -6 -0.76 -0.34 1.03 -1.95 -1.48 -0.78 -0.91 1.72 -3.26 6.14 Z" />
				<path style="stroke:none" d="M599.88 371.93 l0.22 -0.41 5.02 -8.8 2.4 1.36 -5.24 9.21 -2.41 -1.36 Z" />
				<path style="stroke:none" d="M324.96 169.94 l1.88 1.05 -2.82 5.05 -1.88 -1.05 2.82 -5.06 Z" />
				<path style="stroke:none" d="M319.36 305.98 l11.8 6.61 -6.67 11.9 -11.8 -6.61 6.67 -11.9 Z" />
				<path style="stroke:none" d="M310.6 667.67 l7.18 4.01 -6.43 11.5 -7.18 -4.01 1.08 -1.94 5.34 -9.56 Z" />
				<path style="stroke:none" d="M370.21 172.55 l-5.8 -3.2 -5.77 10.48 -0.93 1.7 5.8 3.2 0.93 -1.69 5.77 -10.48 Z" />
				<path style="stroke:none" d="M231.69 127.77 l-2.63 -1.47 0.48 -0.94 3.1 -6 0.58 0.3 0.98 -1.9 1.73 0.9 -1.05 2.03 0.43 0.16 -3.63 6.92 Z" />
				<path style="stroke:none" d="M263.18 252.38 l2.94 1.67 -5.91 10.4 -2.94 -1.67 5.91 -10.4 Z" />
				<path style="stroke:none" d="M664.43 376.38 l-4.78 -2.68 -0.24 0.41 -6.43 11.52 1.99 1.11 -6.76 12.12 2.79 1.53 6.71 -12.04 6.7 -11.97 Z" />
				<path style="stroke:none" d="M257.59 129.97 l-5.09 9.19 -2.8 -1.56 3.75 -6.79 1.33 -2.4 2.8 1.55 Z" />
				<path style="stroke:none" d="M325.71 349.98 l11.71 6.43 -3.31 6.02 -11.71 -6.42 3.31 -6.03 Z" />
				<path style="stroke:none" d="M867.56 672.33 l-2.86 5.04 2.79 1.57 0.32 0.2 0.15 -0.27 0.76 -1.35 3.99 2.26 -0.77 1.36 3.39 1.93 3.29 -5.81 -3.24 -1.83 -1.04 1.83 -0.92 -0.52 0.46 -0.81 -6.33 -3.59 Z" />
				<path style="stroke:none" d="M287.31 166.73 l11.63 6.55 -2.08 3.7 -11.63 -6.55 2.08 -3.7 Z" />
				<path style="stroke:none" d="M820.12 385.04 l-10.05 18.9 21.54 11.45 10.05 -18.9 -21.54 -11.45 Z" />
				<path style="stroke:none" d="M672.93 17.44 l8.15 4.46 -13.44 24.57 -12.16 -6.65 7.56 -13.82 4.01 2.19 5.88 -10.75 Z" />
				<path style="stroke:none" d="M533.09 400.61 l6.98 3.91 -5.98 10.6 -0.71 1.27 -6.97 -4.02 6.68 -11.75 Z" />
				<path style="stroke:none" d="M326.94 690.44 l5.76 -10.44 9.04 5 -5.76 10.42 -6.41 -3.54 -2.63 -1.45 Z" />
				<path style="stroke:none" d="M667.72 394.04 l-6.61 11.87 12.34 6.85 6.6 -11.81 -9.3 -5.19 -3.02 -1.71 Z" />
				<path style="stroke:none" d="M329.51 391.74 l-20.23 -11.33 -13.58 24.24 15.14 8.48 6.67 -11.9 5.09 2.85 6.91 -12.34 Z" />
				<path style="stroke:none" d="M282.56 128.22 l1.75 -3.25 -3.2 -1.74 -1.76 3.26 0.93 0.5 2.29 1.23 Z" />
				<path style="stroke:none" d="M609.86 377.48 l6.73 -12.05 -5.04 -2.84 -2.4 -1.39 -1.62 2.87 -5.24 9.21 7.57 4.19 Z" />
				<path style="stroke:none" d="M368.65 300.93 l-2.41 -1.33 3.39 -6.14 2.41 1.33 -3.39 6.14 Z" />
				<path style="stroke:none" d="M590.96 558.51 l1.99 -3.73 4.99 2.69 -6.58 11.96 -24.01 -13.22 4.73 -8.59 2.62 1.44 4.24 -7.69 -2.9 -1.6 4.47 -8.12 19.26 10.53 -4.68 8.64 -3.73 -2.05 -4.2 7.63 3.81 2.1 Z" />
				<path style="stroke:none" d="M784.72 362.94 l-0.8 1.42 -11.6 20.93 -0.92 1.65 4.07 2.27 1.23 -2.19 5.59 3.13 -1.23 2.19 5.03 2.75 6.76 -12.18 -3.62 -2.01 6.57 -11.8 -11.1 -6.15 Z" />
				<path style="stroke:none" d="M379.15 192.57 l-5.97 -3.15 0.56 -1.27 5.71 -10.4 5.84 3.19 -6.14 11.64 Z" />
				<path style="stroke:none" d="M213.48 84.79 l2.6 1.41 -4.15 7.7 -2.6 -1.41 4.15 -7.7 Z" />
				<path style="stroke:none" d="M475.75 191.09 l-2.63 -1.43 -6.47 11.79 2.62 1.44 6.47 -11.8 Z" />
				<path style="stroke:none" d="M301.56 72.93 l-5.22 9.48 -2.95 -1.63 5.22 -9.48 2.95 1.63 Z" />
				<path style="stroke:none" d="M263.22 742.71 l2.6 1.44 1.56 0.83 6.47 -11.67 -16.23 -9 -4.84 8.71 12.09 6.71 -1.66 2.98 Z" />
				<path style="stroke:none" d="M280.11 681.53 l6.16 -11.33 12.47 6.78 8.74 4.74 -1.25 2.31 3.5 1.89 -1.9 3.5 -3.01 5.54 -24.71 -13.44 Z" />
				<path style="stroke:none" d="M524.7 357.17 l-4.22 -2.34 -5.85 10.58 4.24 2.33 5.82 -10.56 Z" />
				<path style="stroke:none" d="M574.2 205.89 l-23.23 -12.9 -13.13 23.64 10.78 5.99 6.41 -11.55 12.44 6.91 6.72 -12.1 Z" />
				<path style="stroke:none" d="M503.36 125.75 l-6.5 11.9 -5.47 -3.02 6.48 -11.85 5.49 2.97 Z" />
				<path style="stroke:none" d="M438.87 619.69 l-12.18 -6.75 -2.61 4.69 -3.08 5.56 -2 3.6 12.17 6.75 7.69 -13.85 Z" />
				<path style="stroke:none" d="M920.67 121.36 l4.74 -9 -2.38 -1.27 -5.34 9.4 2.56 1.21 0.43 -0.34 Z" />
				<path style="stroke:none" d="M309.91 210.79 l6.09 -10.91 2.94 1.64 -6.06 10.9 -2.97 -1.63 Z" />
				<path style="stroke:none" d="M913.27 281.72 l-1.87 -1.03 -2.02 3.69 1.87 1.03 -0.74 1.36 4.72 2.6 7.96 4.37 5.24 2.87 3.51 -6.41 -17.94 -9.84 -0.75 1.36 Z" />
				<path style="stroke:none" d="M280.8 225.99 l-3.77 7.11 -1.98 -1.05 3.77 -7.11 1.98 1.05 Z" />
				<path style="stroke:none" d="M861.42 92.77 l-6.41 11.28 6.27 3.38 6.17 -11.27 -6.03 -3.4 Z" />
				<path style="stroke:none" d="M635.97 158.97 l-1.29 2.28 -1.87 3.33 -7.21 12.72 -1.82 3.23 -1.32 2.34 11.56 6.54 1.3 -2.3 24.93 14.13 1.84 -3.25 4.72 2.67 7.21 -12.71 -4.7 -2.66 1.87 -3.3 -24.97 -14.14 1.31 -2.32 -11.56 -6.54 Z" />
				<path style="stroke:none" d="M521.41 312.84 l-1.32 2.35 -5.33 9.51 -10.29 -5.75 6.63 -11.88 2.29 1.27 2.07 1.17 3.56 1.98 2.39 1.34 Z" />
				<path style="stroke:none" d="M245.23 103.89 l2.55 1.42 -3.96 7.35 -0.53 0.89 -2.54 -1.37 4.47 -8.28 Z" />
				<path style="stroke:none" d="M378.49 505.62 l-7.15 13.48 16.31 8.66 7.15 -13.48 -16.31 -8.66 Z" />
				<path style="stroke:none" d="M497.94 72.99 l14.85 8.36 7.14 -12.78 -8.51 -4.61 6.19 -11.21 -3.34 -1.82 -3.07 -1.71 -13.27 23.77 Z" />
				<path style="stroke:none" d="M216.53 108.21 l-4.17 7.8 -2.92 -1.57 4.19 -7.75 2.9 1.53 Z" />
				<path style="stroke:none" d="M923.53 128.54 l-4.66 -2.33 -0.43 0.65 -7.26 -3.33 -0.28 0.38 -4.88 9.19 16.53 9.26 1.38 -2.53 3.8 -6.96 -5.11 -2.9 0.9 -1.43 Z" />
				<path style="stroke:none" d="M492.42 296.65 l9.21 5.12 2.96 1.64 2.38 1.34 2.03 1.14 -6.63 11.89 -15.67 -8.76 -0.27 -1.65 5.98 -10.72 Z" />
				<path style="stroke:none" d="M536.77 386.16 l-6.22 11.3 -5.39 -2.99 -0.71 1.27 -0.81 1.43 -4.47 -2.5 -2.39 -1.34 -4.17 -2.33 0.96 -1.76 6.74 -12.15 8.05 4.44 8.4 4.63 Z" />
				<path style="stroke:none" d="M548.54 366.43 l-4.56 -2.52 -7.48 13.54 4.59 2.6 7.46 -13.62 Z" />
				<path style="stroke:none" d="M544.51 653.93 l6.58 -11.89 5.59 3.09 -6.64 11.9 -3.55 -1.98 -1.98 -1.11 Z" />
				<path style="stroke:none" d="M334.11 362.43 l-3.28 5.99 -11.73 -6.46 3.3 -5.96 11.71 6.42 Z" />
				<path style="stroke:none" d="M352.45 162.77 l-5.77 10.48 -3 -1.65 5.77 -10.48 3 1.65 Z" />
				<path style="stroke:none" d="M301.87 85.44 l-2.82 -1.55 5.5 -9.99 2.82 1.55 -5.5 9.99 Z" />
				<path style="stroke:none" d="M500.47 613.55 l-5.77 -3.32 -6.59 11.75 2.98 1.68 2.85 1.61 6.53 -11.72 Z" />
				<path style="stroke:none" d="M300.62 237.91 l-3.21 6.06 -2.37 -1.25 3.21 -6.06 2.37 1.25 Z" />
				<path style="stroke:none" d="M274.85 222.84 l-3.77 7.11 -1.7 -0.9 3.77 -7.11 1.7 0.9 Z" />
				<path style="stroke:none" d="M826.59 119.04 l5.84 3.18 -6.72 12.24 -5.82 -3.22 6.7 -12.19 Z" />
				<path style="stroke:none" d="M993.15 69.31 l11.11 5.7 -4.6 8.63 -1.96 -0.83 -1.15 2.44 -9.43 -4.72 6.02 -11.2 Z" />
				<path style="stroke:none" d="M510.71 345.94 l-7.36 13.17 -4.46 -2.49 7.37 -13.17 4.46 2.49 Z" />
				<path style="stroke:none" d="M311.62 685.31 l8.12 4.46 -5.65 10.3 -8.12 -4.46 3.04 -5.54 2.61 -4.76 Z" />
				<path style="stroke:none" d="M760.04 401.27 l-3.11 5.52 -1.98 -1.11 -2.69 -1.44 -1.44 2.73 0.57 2.19 0.43 1.56 10.36 5.87 4.09 -1.16 1.43 -2.48 -1.72 -1 3.17 -5.57 4.65 2.62 1.52 -2.74 -1.08 -3.48 -11.01 -6.15 -3.72 0.92 -1.51 2.59 2.03 1.13 Z" />
				<path style="stroke:none" d="M358.32 291.16 l6.88 3.8 -1.73 3.13 -6.88 -3.8 1.73 -3.12 Z" />
				<path style="stroke:none" d="M519.98 296.54 l-5.32 9.53 -1.27 2.28 -2.29 -1.27 -2.1 -1.18 6.61 -11.8 4.37 2.45 Z" />
				<path style="stroke:none" d="M562.5 451.4 l-4.04 7.27 -12.63 -7.05 4.05 -7.29 12.62 7.06 Z" />
				<path style="stroke:none" d="M301.03 142.2 l10.08 5.75 -1.88 3.3 -10.09 -5.75 1.88 -3.3 Z" />
				<path style="stroke:none" d="M533.49 344.55 l-6.28 11.33 -4.44 -2.47 6.28 -11.32 4.44 2.46 Z" />
				<path style="stroke:none" d="M588.11 455.59 l-5.11 -2.87 -5.86 10.31 5.11 2.93 0.66 -1.05 4.78 -8.58 0.41 -0.74 Z" />
				<path style="stroke:none" d="M653.05 369.88 l-5.93 -3.43 -6.98 12.23 5.96 3.32 6.95 -12.12 Z" />
				<path style="stroke:none" d="M603.2 710.51 l-13.26 23.79 17.49 9.75 13.27 -23.79 -17.49 -9.75 Z" />
				<path style="stroke:none" d="M317.5 401.23 l5.09 2.85 17 9.59 9.71 5.51 -6.79 12.09 -31.68 -18.14 6.67 -11.9 Z" />
				<path style="stroke:none" d="M317.5 364.88 l1.6 -2.91 11.73 6.46 -0.37 0.68 -1.23 2.23 -11.72 -6.46 Z" />
				<path style="stroke:none" d="M727.05 328.9 l22.91 12.58 -5.12 9.32 -22.91 -12.58 5.12 -9.32 Z" />
				<path style="stroke:none" d="M524.45 395.74 l3.05 1.74 -6.65 11.69 -0.9 -0.51 -2.15 -1.22 5.84 -10.27 0.81 -1.43 Z" />
				<path style="stroke:none" d="M717.52 346.81 l22.6 12.39 -4.3 7.91 -22.66 -12.34 4.37 -7.96 Z" />
				<path style="stroke:none" d="M204.83 101.59 l-4.36 7.88 -2.72 -1.5 4.35 -7.9 2.73 1.52 Z" />
				<path style="stroke:none" d="M810.21 465.94 l-0.76 1.38 -4.16 7.58 -0.72 1.32 -4.16 -2.28 -3 5.47 -23.93 -13.13 11.61 -21.16 23.9 13.11 -2.97 5.41 4.21 2.31 Z" />
				<path style="stroke:none" d="M554.27 356.05 l-15.9 -8.79 -6.27 11.34 -1.7 -0.94 -1.13 2.05 -5.82 10.56 13.03 7.18 7.48 -13.54 4.56 2.52 5.74 -10.38 Z" />
				<path style="stroke:none" d="M920.99 600.57 l-16.48 -9.06 -6.4 11.62 -4.16 -2.29 -3.91 -2.18 -3.9 -2.11 -6.61 11.97 28.41 15.69 13.05 -23.64 Z" />
				<path style="stroke:none" d="M225.32 100.07 l3.35 -5.93 3.12 1.69 -3.37 5.99 -3.1 -1.75 Z" />
				<path style="stroke:none" d="M1015.88 334.84 l11.16 6.07 1.84 -3.35 29.25 16.04 -12.52 22.82 -19.88 -11.12 -20.39 -11.09 10.54 -19.36 Z" />
				<path style="stroke:none" d="M507.57 329.91 l9.24 5.27 -6.11 10.76 -4.46 -2.49 -4.78 -2.7 6.1 -10.85 Z" />
				<path style="stroke:none" d="M913.42 399.63 l-2.85 0.75 -1.4 2.71 0.75 2.85 2.75 1.44 2.84 -0.91 1.38 -2.44 -0.8 -3.06 -2.66 -1.35 Z" />
				<path style="stroke:none" d="M863.89 676.92 l-1.54 2.74 3.59 2.03 1.54 -2.74 -2.79 -1.57 -0.81 -0.45 Z" />
				<path style="stroke:none" d="M976.2 141.56 l-12.77 22.98 13.99 7.77 7.36 -13.24 3.13 1.74 0.57 0.32 5.41 -9.73 -17.68 -9.83 Z" />
				<path style="stroke:none" d="M399.54 463.94 l5.41 -7.81 4.51 2.5 -2.6 9.31 -7.31 -4.01 Z" />
				<path style="stroke:none" d="M464.98 120.15 l-1.71 3.01 -1.67 2.99 -1.64 2.93 -2.58 -1.42 -1.49 2.73 4.91 2.76 6.59 -11.77 -2.41 -1.24 Z" />
				<path style="stroke:none" d="M508.28 370.43 l-6.71 12.15 1.64 0.91 6.71 -12.16 -0.85 -0.47 -0.79 -0.43 Z" />
				<path style="stroke:none" d="M224.83 108.11 l2.5 -4.37 1.09 -1.92 3.37 -5.99 3.2 1.79 -5.87 10.46 -1.08 1.85 -3.22 -1.84 Z" />
				<path style="stroke:none" d="M721 610.46 l-5.07 5.87 -5.4 9.78 -2.05 -1.13 -6.29 7.29 9.7 4.65 13.2 -24.23 -4.09 -2.23 Z" />
				<path style="stroke:none" d="M243.84 126.56 l-3.29 5.98 -2.77 -1.53 3.28 -5.97 2.79 1.52 Z" />
				<path style="stroke:none" d="M701.03 518.41 l-5.21 10.02 -12.72 -6.01 2.1 -4.21 -7.21 -4.41 -1 1.8 2.3 1.6 -1.51 3.11 5.71 3.61 -0.5 1.4 3.54 1.98 -0.4 0.9 1.17 1.03 -4.41 9.82 -19.24 -11.02 12.92 -23.14 1.4 -0.4 17.16 9.19 -0.63 1.13 6.51 3.6 Z" />
				<path style="stroke:none" d="M541.08 65.92 l-6.27 11.1 5.98 3.4 0.9 -1.53 6.55 3.38 3.68 -10.2 -10.84 -6.15 Z" />
				<path style="stroke:none" d="M346.59 159.54 l-5.77 10.48 -3.06 -1.69 5.77 -10.48 3.06 1.69 Z" />
				<path style="stroke:none" d="M303.33 166.74 l4.76 -8.79 2.67 1.44 -4.77 8.8 -2.67 -1.45 Z" />
				<path style="stroke:none" d="M271.89 118.49 l2.73 1.5 -6.03 10.96 -2.73 -1.5 6.03 -10.96 Z" />
				<path style="stroke:none" d="M349.45 161.12 l-5.77 10.48 -2.86 -1.57 5.77 -10.48 2.86 1.57 Z" />
				<path style="stroke:none" d="M426.42 194.96 l-11.26 -6.23 13.19 -23.84 8.49 4.69 0.45 1.41 2.94 1.58 3.01 1.62 1.42 -0.28 12.35 6.93 -6.42 11.76 -3.8 -2.08 -10.78 -5.92 -3.03 -1.65 -6.57 11.99 Z" />
				<path style="stroke:none" d="M787.57 418.29 l-8.29 -4.59 -3.11 -1.73 -0.86 1.63 -1.62 2.9 11.35 6.36 2.54 -4.57 Z" />
				<path style="stroke:none" d="M444.25 489.13 l14.27 -24.52 -29.25 -16.43 -1.79 -0.03 -1.55 0.98 -1.02 2.25 -3.96 20.61 0.25 1.84 1.33 1.78 1.53 1.62 2.42 1.76 17.77 10.15 Z" />
				<path style="stroke:none" d="M873.65 144.88 l6.18 -11.2 14.79 8.17 -6.19 11.2 -14.79 -8.17 Z" />
				<path style="stroke:none" d="M618.32 350.69 l-6.78 11.9 -2.4 -1.39 -1.62 2.87 -2.4 -1.36 -2.25 -1.29 -4.27 -2.44 8.41 -14.69 11.31 6.4 Z" />
				<path style="stroke:none" d="M504.48 632.78 l-5.78 10.31 14.8 8.3 5.79 -10.27 -5.17 -2.91 -9.65 -5.43 Z" />
				<path style="stroke:none" d="M765.63 312.66 l-27.77 -15.17 -1.86 3.41 -8.47 -4.62 -8.73 15.89 9.05 4.95 -1.83 3.35 27.14 14.82 4.02 -7.37 -5.57 -3.04 3.66 -6.71 5.65 3.08 4.69 -8.59 Z" />
				<path style="stroke:none" d="M284.16 229.19 l0.59 -1.1 -2.04 -1.08 -3.77 7.11 2.04 1.08 3.18 -6.01 Z" />
				<path style="stroke:none" d="M292.24 219.89 l4.11 -6.76 -0.2 -0.35 2.93 1.61 -3.94 7.18 -1.06 1.93 -2.11 -1.16 0.92 -2.54 -0.63 0.1 Z" />
				<path style="stroke:none" d="M541.73 333.81 l-2.18 3.87 -9.75 -5.38 4.97 -8.94 2.51 1.43 4.77 -8.57 2.9 -5.31 25.24 13.93 -2.24 4.06 16.24 8.96 -7.35 13.32 7.93 4.4 -3.25 5.86 -17.73 -10.14 1.55 -3.07 -22.46 -12.39 0.58 -1.06 -1.74 -0.96 Z" />
				<path style="stroke:none" d="M847.52 671.32 l3.79 -6.74 2.81 1.58 -3.79 6.74 -2.81 -1.58 Z" />
				<path style="stroke:none" d="M946.4 154.04 l17.03 10.5 12.77 -22.98 0.55 -1.07 -17.71 -9.22 -2.85 4.54 1.48 1.5 -1.98 3.6 -1.93 -1.2 -7.36 14.33 Z" />
				<path style="stroke:none" d="M561.18 460.19 l-4.91 8.9 -15.41 -8.56 4.96 -8.9 12.63 7.05 2.73 1.52 Z" />
				<path style="stroke:none" d="M341.74 685.01 l-5.76 10.42 3.39 1.88 5.82 -10.42 -3.44 -1.88 Z" />
				<path style="stroke:none" d="M484.17 453.5 l7.05 3.92 8.22 4.57 -4.13 7.43 -1.14 2.04 -1.55 2.78 -12.61 -7.04 -2.64 -1.47 6.81 -12.23 Z" />
				<path style="stroke:none" d="M530.61 630.72 l5.5 3.1 -6.57 11.77 -4.81 -2.69 -0.72 -0.4 6.6 -11.79 Z" />
				<path style="stroke:none" d="M872.07 613.62 l-9.23 -5.1 -1.92 3.46 -2.67 4.84 -2.18 3.97 9.27 5.09 4.86 -8.85 1.87 -3.41 Z" />
				<path style="stroke:none" d="M492.64 639.74 l4.74 2.61 5.67 -10.27 -4.74 -2.62 -5.67 10.27 Z" />
				<path style="stroke:none" d="M335.13 172.92 l-1.49 2.81 4.11 2.18 0.25 -0.47 2.65 -4.85 -4.18 -2.22 -1.35 2.54 Z" />
				<path style="stroke:none" d="M394.95 388.39 l-20.12 -11.26 -7.07 12.63 20.12 11.26 7.07 -12.63 Z" />
				<path style="stroke:none" d="M713.88 273.7 l3.03 -5.42 6.83 -12.25 3.19 -5.7 -27.07 -15.11 -12.96 -7.23 -12.1 -6.76 -3.2 5.72 0.02 -0.02 2.47 1.4 -6.83 12.25 -2.52 -1.41 -3.02 5.42 25.1 14 27.07 15.11 Z" />
				<path style="stroke:none" d="M227.78 116.53 l1.43 -2.71 -2.48 -1.33 -1.07 2.01 -0.38 -0.2 -3.71 6.74 2.93 1.63 3.28 -6.14 Z" />
				<path style="stroke:none" d="M649.27 383.62 l-6.72 12.11 5.67 3.14 6.76 -12.12 -1.99 -1.11 -3.72 -2.01 Z" />
				<path style="stroke:none" d="M849.44 632.8 l-8.49 -4.69 6.65 -12 8.47 4.68 -0.83 1.51 -5.8 10.5 Z" />
				<path style="stroke:none" d="M369.06 730.23 l7.43 4.12 5.14 -9.37 -10.55 -5.48 -2.02 10.74 Z" />
				<path style="stroke:none" d="M622.16 474.59 l-5.88 10.6 2.69 1.49 5.88 -10.59 -2.69 -1.49 Z" />
				<path style="stroke:none" d="M441.41 159.06 l1.7 -3.04 -8.49 -4.63 -1.65 2.99 8.44 4.67 Z" />
				<path style="stroke:none" d="M994.08 181.04 l7.06 -12.65 6.41 -11.99 -10.82 -5.79 -2.33 4.93 5.18 2.63 -1 1.88 -4.21 -2.18 -2.96 4.64 -0.83 -0.37 -0.32 0.87 -2.7 -1.35 0.33 -0.85 -3.13 -1.74 -7.36 13.24 16.67 8.73 Z" />
				<path style="stroke:none" d="M453.26 420.68 l3.62 2.02 -6.16 11.07 -2.4 4.31 -3.62 -2.02 8.56 -15.38 Z" />
				<path style="stroke:none" d="M251.46 231.07 l6.73 3.48 -1.14 2.21 -6.73 -3.48 1.14 -2.21 Z" />
				<path style="stroke:none" d="M508.2 289.97 l-6.57 11.8 -9.21 -5.12 6.57 -11.8 9.2 5.12 Z" />
				<path style="stroke:none" d="M260.32 250.75 l2.86 1.63 -5.91 10.4 -2.86 -1.63 5.91 -10.4 Z" />
				<path style="stroke:none" d="M498.59 339.14 l2.88 1.61 -7.38 13.18 -2.88 -1.61 7.38 -13.18 Z" />
				<path style="stroke:none" d="M759.13 455.61 l5.41 3.61 11.84 -19.8 -6.23 -3.24 -11.02 19.43 Z" />
				<path style="stroke:none" d="M358.26 165.97 l-5.77 10.48 -2.9 -1.6 5.77 -10.48 2.9 1.6 Z" />
				<path style="stroke:none" d="M547.85 640.24 l3.25 1.8 -6.58 11.89 -3.25 -1.8 6.58 -11.89 Z" />
				<path style="stroke:none" d="M789.36 437.44 l6.6 -12.07 14.51 7.93 -5.01 9.22 -1.58 2.86 -14.53 -7.94 Z" />
				<path style="stroke:none" d="M508.65 200.16 l4.41 -8.55 18.58 10.47 -4.86 8.52 -18.13 -10.44 Z" />
				<path style="stroke:none" d="M898.48 97.96 l24.55 13.12 -5.34 9.4 -0.47 0.82 -0.8 1.5 -3.06 -1.34 0.76 -1.37 -2.96 -1.43 -0.8 0.93 -1.6 -0.4 -1.38 2.86 3.53 1.85 -4.88 9.19 -20.74 -11.43 5.76 -10.18 3.76 2.13 1.05 -1.58 -4.33 -2.58 6.49 -11.77 0.47 0.28 Z" />
				<path style="stroke:none" d="M399.77 310.83 l-4.02 -2.26 -6.39 11.37 4.02 2.26 6.39 -11.37 Z" />
				<path style="stroke:none" d="M687.64 332.4 l1.28 -2.32 2.23 1.22 1.79 0.99 0.53 0.3 4.14 -7.46 -0.53 -0.3 -1.79 -0.99 -2.24 -1.23 1.29 -2.33 -2.76 -1.53 -3.12 -1.73 -3.51 -1.95 -9.88 -5.48 -6.97 -3.87 -1.29 2.32 -6.78 -3.76 -4.14 7.47 6.78 3.76 -1.29 2.33 6.97 3.87 9.87 5.48 3.47 1.92 3.22 1.79 2.71 1.5 Z" />
				<path style="stroke:none" d="M218.85 87.69 l2.51 1.36 -4.17 7.7 -2.49 -1.36 4.15 -7.7 Z" />
				<path style="stroke:none" d="M583 452.72 l-2.17 -1.23 -5.86 10.32 2.17 1.23 5.86 -10.31 Z" />
				<path style="stroke:none" d="M450.72 433.77 l-2.4 4.31 -4.84 8.57 2.2 1.25 4.91 2.79 7.26 -12.96 -4.54 -2.53 -2.59 -1.43 Z" />
				<path style="stroke:none" d="M651.24 46.97 l28.28 15.89 -4.04 7.35 -2.3 0.5 -1.2 2.11 -20.84 -11.22 1.04 -1.95 -5.95 -3.86 5.01 -8.81 Z" />
				<path style="stroke:none" d="M621.43 505.2 l3.86 -7.03 1.94 -3.49 5.8 3.26 -5.84 10.45 -5.76 -3.2 Z" />
				<path style="stroke:none" d="M735.39 246.1 l1.01 -1.79 0.34 -0.61 4.03 -7.16 1.42 -2.52 6.84 3.85 -1.42 2.52 -4.38 7.77 -0.32 0.58 -0.69 1.21 -3.3 -1.86 -3.54 -2 Z" />
				<path style="stroke:none" d="M608.19 563.01 l14.93 7.88 6.65 -12.13 -14.77 -8.32 -6.81 12.57 Z" />
				<path style="stroke:none" d="M779.89 431.99 l-11.31 -6.38 5.1 -9.1 11.35 6.36 -5.14 9.13 Z" />
				<path style="stroke:none" d="M520.99 175.78 l-2.73 5.41 18.28 12.17 3.75 -7.04 -19.3 -10.54 Z" />
				<path style="stroke:none" d="M308.66 169.1 l7.06 3.89 6.19 -11.24 -1.66 -0.91 -2.21 4.01 -3.63 -2 2.26 -4.11 -1.77 -0.98 -6.24 11.34 Z" />
				<path style="stroke:none" d="M379.77 353.69 l11.13 6.21 -2.58 4.69 -11.13 -6.19 2.58 -4.71 Z" />
				<path style="stroke:none" d="M695.5 721.3 l-13.26 23.79 -24.69 -13.76 6.65 -11.93 3.48 1.94 6.61 -11.85 21.21 11.82 Z" />
				<path style="stroke:none" d="M527.51 397.48 l5.58 3.13 -6.68 11.75 -5.55 -3.2 6.65 -11.69 Z" />
				<path style="stroke:none" d="M867.95 678.88 l-0.15 0.27 -1.54 2.7 7.37 4.19 1.68 -2.95 -3.39 -1.93 -3.98 -2.27 Z" />
				<path style="stroke:none" d="M502.94 367.44 l-6.69 12.13 1.78 0.98 6.69 -12.13 -1.78 -0.98 Z" />
				<path style="stroke:none" d="M710.62 207.69 l-8.95 16.44 -19.62 -10.68 8.95 -16.45 19.62 10.68 Z" />
				<path style="stroke:none" d="M601.75 519.03 l2.67 1.5 5.72 3.15 2.95 1.63 -6.86 12.28 -11.29 -6.38 6.81 -12.17 Z" />
				<path style="stroke:none" d="M319.74 689.77 l-5.65 10.3 8.46 4.6 5.69 -10.35 1.33 -2.42 -2.63 -1.45 -1.4 2.55 -5.79 -3.23 Z" />
				<path style="stroke:none" d="M929.46 241.97 l-5.1 9.29 8.81 4.83 5.1 -9.3 -8.8 -4.83 Z" />
				<path style="stroke:none" d="M596.7 218.35 l-22.5 -12.47 -6.72 12.1 -12.44 -6.91 -6.41 11.55 34.96 19.41 1.72 -3.11 11.39 -20.57 Z" />
				<path style="stroke:none" d="M581.51 492.2 l-7.37 -4.12 -7.65 13.68 4.2 2.35 3.17 1.78 7.65 -13.68 Z" />
				<path style="stroke:none" d="M894.2 293.43 l6.57 -12 -19.89 -10.8 -6.44 11.83 19.77 10.96 Z" />
				<path style="stroke:none" d="M566.49 501.76 l-5.76 10.34 4.2 2.33 5.76 -10.32 -4.2 -2.35 Z" />
				<path style="stroke:none" d="M499.33 365.43 l-6.69 12.11 1.78 1.01 6.67 -12.13 -1.76 -0.98 Z" />
				<path style="stroke:none" d="M415.52 661.54 l-11.66 -6.55 -6.66 11.86 11.66 6.55 6.66 -11.86 Z" />
				<path style="stroke:none" d="M519.18 394.66 l4.47 2.5 -5.84 10.27 -3.11 -1.81 -1.35 -0.79 5.83 -10.18 Z" />
				<path style="stroke:none" d="M713.88 457.43 l-1.46 2.61 -11.41 -6.43 7.01 -12.43 24.61 13.85 -3.83 6.8 -1.71 3.03 -13.23 -7.44 Z" />
				<path style="stroke:none" d="M635.21 375.88 l-6.09 -3.43 -6.69 12.03 6.08 3.38 6.7 -11.98 Z" />
				<path style="stroke:none" d="M581.07 505.29 l5.73 3.22 5.73 -10.2 -5.74 -3.22 -5.73 10.21 Z" />
				<path style="stroke:none" d="M269 116.86 l-4.09 7.42 -1.98 3.59 2.93 1.57 6.03 -10.96 -2.89 -1.62 Z" />
				<path style="stroke:none" d="M341.24 18.92 l10.59 5.46 -1.6 2.86 -10.37 -5.71 1.38 -2.61 Z" />
				<path style="stroke:none" d="M311.27 179.84 l2.91 1.7 -5.32 9.92 -2.92 -1.49 5.33 -10.13 Z" />
				<path style="stroke:none" d="M893.04 625.32 l-1.56 2.87 11.04 6.13 1.56 -2.84 -11.05 -6.16 Z" />
				<path style="stroke:none" d="M429.25 205.8 l2.31 1.33 2.6 1.44 -6.5 11.68 -4.95 -2.75 6.53 -11.71 Z" />
				<path style="stroke:none" d="M270.54 145.22 l1.5 -2.81 10.6 5.66 -1.5 2.81 -10.6 -5.66 Z" />
				<path style="stroke:none" d="M711.24 462.13 l10.69 6.03 -4.84 8.59 -22.09 -12.45 6.02 -10.68 11.41 6.43 -1.18 2.09 Z" />
				<path style="stroke:none" d="M403.43 181.86 l13.18 -23.87 -34.27 -18.92 -13.18 23.87 34.27 18.92 Z" />
				<path style="stroke:none" d="M734.07 536.16 l13.41 7.45 -4.36 7.86 -2.27 -1.26 -4.1 7.42 -11.16 -6.2 8.49 -15.26 Z" />
				<path style="stroke:none" d="M933.16 607.34 l-6.5 11.79 28.08 15.47 6.5 -11.79 -28.08 -15.47 Z" />
				<path style="stroke:none" d="M372.7 310.58 l4.76 2.68 3.44 1.93 -6.69 11.9 -4.13 -2.33 -4.06 -2.28 6.69 -11.9 Z" />
				<path style="stroke:none" d="M646.61 382.26 l-0.5 -0.26 -5.96 -3.32 -1.85 -1.01 -6.65 11.9 8.38 4.65 6.58 -11.97 Z" />
				<path style="stroke:none" d="M494.25 362.6 l3.35 1.86 -6.65 12.1 -3.36 -1.85 6.65 -12.11 Z" />
				<path style="stroke:none" d="M653.71 6.93 l-13.45 24.56 15.22 8.32 7.56 -13.82 4.01 2.19 5.88 -10.75 -19.22 -10.51 Z" />
				<path style="stroke:none" d="M511.42 63.96 l8.51 4.61 6.37 3.56 6.16 -11.07 -14.84 -8.3 -6.19 11.21 Z" />
				<path style="stroke:none" d="M538.29 468.1 l-13.38 24.08 30.06 16.71 13.39 -24.06 -30.08 -16.73 Z" />
				<path style="stroke:none" d="M488.1 621.99 l-6.47 11.72 3.01 1.64 6.44 -11.69 -2.98 -1.68 Z" />
				<path style="stroke:none" d="M616.7 511.82 l-6.55 11.85 2.95 1.63 12.25 6.77 -1.21 2.18 15.33 8.48 7.76 -14.03 -30.53 -16.89 Z" />
				<path style="stroke:none" d="M1020.16 469.37 l-5.8 -3.23 -2.57 -1.42 -4.2 7.55 -1.32 2.37 20.76 11.56 3.42 -6.14 -1.46 -0.81 2.11 -3.79 -2.04 -1.13 2.69 -4.83 -8.9 -4.96 -2.7 4.84 Z" />
				<path style="stroke:none" d="M742.95 407.43 l3.27 -5.87 -10.99 -6.14 -3.32 5.85 11.04 6.16 Z" />
				<path style="stroke:none" d="M199.38 96.94 l-8.78 -4.92 1.82 -3.21 8.75 4.9 -1.79 3.23 Z" />
				<path style="stroke:none" d="M351.22 380.65 l-6.12 11.03 38.71 21.68 6.25 -11.15 -2.18 -1.18 -20.12 -11.26 -7.3 -4.05 -9.23 -5.06 Z" />
				<path style="stroke:none" d="M282.64 148.08 l-10.6 -5.66 1.67 -3.12 10.6 5.66 -1.67 3.12 Z" />
				<path style="stroke:none" d="M221.57 121.05 l-3.2 -1.76 3.63 -6.6 0.75 0.41 1.12 -2.03 1.91 1.05 -1.04 1.89 0.54 0.3 -3.71 6.74 Z" />
				<path style="stroke:none" d="M369.63 293.46 l-3.39 6.14 -2.76 -1.52 1.73 -3.13 1.67 -3.01 2.76 1.52 Z" />
				<path style="stroke:none" d="M535.09 305.02 l-4.93 -2.79 -4.53 -2.55 -5.36 9.58 -1.24 2.24 2.39 1.34 7 4.01 6.67 -11.83 Z" />
				<path style="stroke:none" d="M292.52 157.24 l7.1 3.83 4.84 2.61 -1.46 2.72 -11.93 -6.44 1.46 -2.72 Z" />
				<path style="stroke:none" d="M812.54 461.69 l-2.33 4.26 -0.76 1.38 -4.16 7.58 -0.72 1.32 -2.54 4.62 17.05 9.36 10.53 -19.17 -17.05 -9.36 Z" />
				<path style="stroke:none" d="M409.45 458.63 l3.32 -9.74 -2.38 -1.42 -5.45 8.65 4.51 2.5 Z" />
				<path style="stroke:none" d="M464.92 120.19 l-1.65 2.96 -9.73 -5.32 1.6 -2.99 9.78 5.34 Z" />
				<path style="stroke:none" d="M855.02 104.05 l6.41 -11.28 0.71 -1.19 -4.3 -2.4 -6.45 11.47 -0.56 0.97 4.19 2.43 Z" />
				<path style="stroke:none" d="M238.51 122.54 l-0.52 -0.27 1.02 -1.94 -1.92 -1.01 -1.01 1.93 -0.76 -0.4 -3.63 6.92 3.2 1.68 3.62 -6.9 Z" />
				<path style="stroke:none" d="M813.77 419.17 l-11.07 -6.07 -4.99 9.11 11.13 6.09 3.49 -6.45 1.43 -2.67 Z" />
				<path style="stroke:none" d="M521.33 625.43 l-3.38 -2.09 -5.26 9.33 3.49 1.91 5.16 -9.16 Z" />
				<path style="stroke:none" d="M913.54 475.14 l-12.99 23.71 -25.01 -13.7 12.99 -23.71 7.57 4.15 17.43 9.55 Z" />
				<path style="stroke:none" d="M746.22 401.56 l1.76 -3.18 -10.94 -6.14 -1.81 3.19 10.99 6.14 Z" />
				<path style="stroke:none" d="M511.18 291.63 l-6.58 11.79 -2.96 -1.64 6.57 -11.8 2.98 1.65 Z" />
				<path style="stroke:none" d="M276.87 223.91 l-3.77 7.11 -2.02 -1.07 3.77 -7.11 2.02 1.07 Z" />
				<path style="stroke:none" d="M584.63 470.67 l-6.01 10.77 2.24 1.24 6 -10.76 -2.23 -1.24 Z" />
				<path style="stroke:none" d="M329.51 391.74 l17.06 9.55 -6.97 12.38 -17 -9.59 6.91 -12.34 Z" />
				<path style="stroke:none" d="M444.25 489.13 l14.27 -24.52 1.27 0.7 49.45 26.88 -14.18 25.73 -49.16 -27.86 -1.67 -0.93 Z" />
				<path style="stroke:none" d="M286.52 230.44 l-3.21 6.06 -2.33 -1.3 3.18 -6.01 2.36 1.25 Z" />
				<path style="stroke:none" d="M835.9 382.3 l9.09 5.07 2.65 1.48 6.65 -11.92 6.57 -11.77 -2.65 -1.48 -9.09 -5.07 -13.23 23.7 Z" />
				<path style="stroke:none" d="M469.89 122.82 l-2.51 -1.43 -6.59 11.77 2.53 1.42 5.58 -9.94 0.99 -1.82 Z" />
				<path style="stroke:none" d="M304.9 83.52 l1.88 -3.34 10.91 6.13 -1.88 3.34 -10.91 -6.13 Z" />
				<path style="stroke:none" d="M945.74 508.7 l-6.49 11.79 6.18 3.4 5.22 -9.48 1.27 -2.31 -6.18 -3.4 Z" />
				<path style="stroke:none" d="M480.89 201.75 l-1.65 2.98 9.77 5.33 1.55 -3.16 -9.67 -5.16 Z" />
				<path style="stroke:none" d="M299.83 245.24 l-2.42 -1.28 3.21 -6.06 2.42 1.28 -3.21 6.06 Z" />
				<path style="stroke:none" d="M438.07 363.14 l1.34 -6.38 -5.49 -2.9 0.96 -1.79 1.33 0.75 0.56 0.28 0.8 0.28 0.83 0.14 0.89 0.01 0.77 -0.12 0.86 -0.27 0.86 -0.45 0.74 -0.58 0.61 -0.68 0.46 -0.71 0.41 -1.04 0.18 -0.96 -0.01 -1.07 -0.21 -0.98 -0.31 -0.78 -0.46 -0.76 -0.65 -0.74 -0.63 -0.51 -0.89 -0.58 -1.12 -0.59 0.76 -1.42 3.57 1.73 1.64 -7.13 -33.51 -18.12 -12.93 23.82 38.65 21.53 Z" />
				<path style="stroke:none" d="M312.87 144.87 l-1.76 3.08 -10.08 -5.75 1.76 -3.08 10.08 5.75 Z" />
				<path style="stroke:none" d="M285.82 142.13 l-10.6 -5.66 1.83 -3.44 10.6 5.66 -1.83 3.44 Z" />
				<path style="stroke:none" d="M476.29 111.06 l-14.71 -8.02 -5.14 9.44 9.8 5.33 -1.27 2.33 2.41 1.24 2.51 1.43 6.4 -11.75 Z" />
				<path style="stroke:none" d="M851.38 100.65 l-30.5 -17.09 11.13 -19.87 30.5 17.09 -4.68 8.4 -6.45 11.47 Z" />
				<path style="stroke:none" d="M744.66 412.46 l-3.45 -1.94 1.73 -3.09 3.27 -5.87 1.76 -3.18 1.08 0.6 2.41 1.35 -1.46 2.61 -5.34 9.53 Z" />
				<path style="stroke:none" d="M253.45 130.82 l-3.75 6.79 -2.9 -1.6 3.76 -6.79 2.89 1.6 Z" />
				<path style="stroke:none" d="M408.8 249.2 l6.47 3.59 -6.83 12.45 -6.46 -3.52 6.82 -12.52 Z" />
				<path style="stroke:none" d="M829.36 199.09 l6.21 -11.42 -16.03 -8.81 -6.21 11.62 16.03 8.61 Z" />
				<path style="stroke:none" d="M951.03 406.01 l-11.92 -6.61 2.26 -4.12 -25.51 -14.06 5.94 -10.78 -5.55 -3.06 4.88 -8.86 43.04 23.72 -13.14 23.76 Z" />
				<path style="stroke:none" d="M268.02 147.79 l1.62 -3.04 0.9 0.48 10.6 5.66 -1.62 3.04 -11.5 -6.14 Z" />
				<path style="stroke:none" d="M938.8 206.75 l7.47 4.07 -1.17 2.12 -4.64 8.43 -7.47 -3.91 5.81 -10.7 Z" />
				<path style="stroke:none" d="M747.48 543.61 l12.35 6.91 -6.73 12.15 -7.38 -4.07 2.43 -4.41 -5.03 -2.72 4.36 -7.86 Z" />
				<path style="stroke:none" d="M870.2 617.03 l5.46 2.95 6.3 3.41 -1.15 2.11 -4.46 8.31 -4.56 8.27 -5.57 -3.04 -4.78 -2.61 4.53 -8.22 0.87 -1.68 -1.48 -0.65 4.86 -8.85 Z" />
				<path style="stroke:none" d="M298.61 71.3 l-5.22 9.48 -3.09 -1.7 3.18 -5.79 1.69 -3.07 0.34 -0.62 3.1 1.7 Z" />
				<path style="stroke:none" d="M824.16 534.2 l11.42 -20.04 42.73 24.34 -11.41 20.04 -42.74 -24.34 Z" />
				<path style="stroke:none" d="M790.29 10.8 l6.38 -11.71 14.63 8.1 -6.63 11.55 -14.39 -7.94 Z" />
				<path style="stroke:none" d="M748.54 414.45 l-3.88 -1.99 5.34 -9.53 2.26 1.3 -1.44 2.73 0.57 2.19 -2.85 5.3 Z" />
				<path style="stroke:none" d="M945.41 266.06 l-13.63 -7.51 -0.95 -0.53 -6.55 11.9 14.58 8.04 6.56 -11.89 Z" />
				<path style="stroke:none" d="M254.29 108.85 l2.9 1.57 -6.04 11.15 -2.9 -1.57 0.94 -1.74 5.11 -9.42 Z" />
				<path style="stroke:none" d="M849.6 116.48 l-6.36 11.66 4.89 2.64 3.69 2.06 11.03 6.11 6.44 -11.62 -19.69 -10.85 Z" />
				<path style="stroke:none" d="M491.08 623.67 l-6.44 11.69 2.85 1.54 5.67 -10.26 0.77 -1.37 -2.85 -1.61 Z" />
				<path style="stroke:none" d="M827.55 144.87 l-6.71 12.09 23.03 12.77 6.71 -12.1 -23.03 -12.77 Z" />
				<path style="stroke:none" d="M492.62 361.7 l-6.72 12.08 1.7 0.94 6.65 -12.11 -1.63 -0.91 Z" />
				<path style="stroke:none" d="M520.1 315.19 l14.68 8.17 -4.97 8.94 -0.35 0.62 -4.66 -2.59 -10.03 -5.63 5.33 -9.51 Z" />
				<path style="stroke:none" d="M479.72 601.82 l-3.86 6.9 -12.09 -6.72 3.87 -6.96 12.08 6.78 Z" />
				<path style="stroke:none" d="M927.86 113.66 l-7.41 11.87 5.31 2.92 0.43 -0.74 1.75 1.02 -0.45 0.78 8.94 5.18 -1.15 2.34 -2.76 -1.51 0.88 -1.67 -2.55 -1.4 -0.85 1.7 -2.26 -1.28 -3.8 6.96 -1.38 2.53 4.76 1.93 0.75 1.38 1.93 0.85 0.95 -2.6 0.77 0.12 -1.4 3.63 5.81 3.07 7.39 -13.09 -0.58 -0.37 6.26 -12.2 -21.34 -11.42 Z" />
				<path style="stroke:none" d="M219.76 109.94 l-4.12 7.8 -3.29 -1.74 4.17 -7.8 3.24 1.73 Z" />
				<path style="stroke:none" d="M677.47 383.68 l-8.1 -4.55 -6.75 12.02 2 1.12 3.09 1.77 3.02 1.71 1.93 -3.54 1.21 -2.16 2.89 -5.12 0.7 -1.25 Z" />
				<path style="stroke:none" d="M331.97 171.2 l3.16 1.71 1.35 -2.54 0.24 -0.58 -3.07 -1.67 -0.87 1.61 -0.8 1.47 Z" />
				<path style="stroke:none" d="M575.45 448.44 l-4.36 7.77 -1.79 3.18 5.37 3.02 0.3 -0.6 5.86 -10.32 -5.38 -3.04 Z" />
				<path style="stroke:none" d="M801.42 492.3 l15 8.25 -4.33 7.86 -4.33 7.86 -4.33 7.86 -15 -8.25 12.99 -23.59 Z" />
				<path style="stroke:none" d="M946.79 356.66 l-1.95 3.6 -11.13 -6.03 10.17 -18.77 11.55 6.26 -1.96 3.63 1.84 1 3.59 -6.62 10.28 5.57 -3.58 6.61 -6.26 11.54 -2.9 5.34 -10.34 -5.6 2.89 -5.34 -2.21 -1.2 Z" />
				<path style="stroke:none" d="M395.88 474.91 l-13.11 24.55 16.01 8.02 7.09 -27.58 -9.99 -4.99 Z" />
				<path style="stroke:none" d="M795.97 425.37 l1.75 -3.17 11.13 6.09 3.34 1.84 -1.71 3.18 -14.51 -7.93 Z" />
				<path style="stroke:none" d="M861.29 107.44 l14.85 8.12 12.83 -23.46 -14.85 -8.12 -5.98 10.93 -0.69 1.26 -6.17 11.27 Z" />
				<path style="stroke:none" d="M338 177.44 l6.62 3.61 -2.83 5.19 -6.62 -3.61 2.58 -4.72 0.25 -0.47 Z" />
				<path style="stroke:none" d="M498.03 380.56 l1.78 0.98 6.69 -12.13 -1.78 -0.98 -6.69 12.13 Z" />
				<path style="stroke:none" d="M407.7 234.66 l2.48 1.38 -5.36 9.67 -2.13 -1.9 5.02 -9.15 Z" />
				<path style="stroke:none" d="M566.14 82 l-11.21 20.11 18.46 10.29 1.79 -3.2 -4.69 -2.61 8.25 -14.8 1.18 -2.12 -13.77 -7.68 Z" />
				<path style="stroke:none" d="M236.81 386.67 l-12.62 24.24 -9.22 3.79 46.15 25.48 17.29 -30.55 -41.59 -22.96 Z" />
				<path style="stroke:none" d="M413.85 212.61 l-6.79 11.94 -9.49 -5.39 13.49 -23.73 9.49 5.39 -6.7 11.79 Z" />
				<path style="stroke:none" d="M290.06 218.32 l4.21 -6.85 2.08 1.66 -3.47 6.66 -2.82 -1.47 Z" />
				<path style="stroke:none" d="M365.29 132.63 l1.25 -2.35 7.75 4.11 -1.39 2.62 -1.18 -0.63 -0.55 1.03 -0.53 -0.28 -0.51 0.79 -0.82 0.53 -0.83 0.25 -1.24 -0.13 -1.05 -0.71 -0.34 -0.97 -0.13 -1 0.19 -1.27 -0.23 -0.12 0.69 -1.3 -1.08 -0.58 Z" />
				<path style="stroke:none" d="M891.81 636.51 l-1.71 3.06 7.23 4.02 1.71 -3.04 -7.24 -4.04 Z" />
				<path style="stroke:none" d="M736.98 -20.2 l5.61 -9.62 6.41 3.61 -5.61 9.62 -6.41 -3.6 Z" />
				<path style="stroke:none" d="M314.14 92.78 l-11.01 -6.16 1.76 -3.09 10.91 6.13 -1.66 3.12 Z" />
				<path style="stroke:none" d="M618.49 544.55 l15.21 8.41 1.9 -3.45 -15.2 -8.38 -1.9 3.42 Z" />
				<path style="stroke:none" d="M405.4 233.37 l2.3 1.3 -5.02 9.15 -1.95 -1.66 1.03 -1.97 3.65 -6.81 Z" />
				<path style="stroke:none" d="M725.58 551.42 l-3.35 6.03 11.16 6.2 3.35 -6.03 -11.16 -6.2 Z" />
				<path style="stroke:none" d="M506.25 343.45 l-7.37 13.17 -4.8 -2.69 7.38 -13.18 4.78 2.7 Z" />
				<path style="stroke:none" d="M470.72 517.41 l4.66 2.64 14.47 8.19 -13.15 23.22 -14.22 -8.05 -4.92 -2.79 1.79 -3.19 9.52 -16.8 1.84 -3.23 Z" />
				<path style="stroke:none" d="M317.68 86.31 l-10.91 -6.13 1.59 -2.83 10.91 6.13 -1.59 2.83 Z" />
				<path style="stroke:none" d="M242.59 102.5 l2.64 1.4 -4.47 8.28 -2.67 -1.45 4.5 -8.23 Z" />
				<path style="stroke:none" d="M507.57 329.91 l-6.1 10.85 -2.88 -1.61 -12.8 -7.17 -10.41 -5.86 5.03 -8.76 1.09 -0.71 0.93 -0.25 1.71 0.19 23.43 13.32 Z" />
				<path style="stroke:none" d="M686.69 389.01 l3.43 1.94 4.35 2.41 -6.58 11.87 -7.84 -4.28 1.91 -3.52 4.55 -8.09 0.18 -0.33 Z" />
				<path style="stroke:none" d="M453.3 219.22 l-8.22 -4.65 -6.48 11.71 3.47 1.92 4.79 2.58 6.44 -11.57 Z" />
				<path style="stroke:none" d="M802.79 211.28 l14.27 7.82 -4.26 7.77 -2.4 4.38 -2.72 -1.49 -11.55 -6.31 3.89 -7.12 1.59 -2.91 1.17 -2.14 Z" />
				<path style="stroke:none" d="M686.71 540.45 l12.62 6.81 5.41 -10.12 -9.71 -5.71 -3.08 -0.73 -5.24 9.74 Z" />
				<path style="stroke:none" d="M597.95 557.46 l-6.58 11.96 24.95 13.92 6.81 -12.46 -14.93 -7.88 -10.24 -5.54 Z" />
				<path style="stroke:none" d="M223.94 90.48 l-4.18 7.66 -1.61 2.94 1.89 1.03 5.79 -10.6 -1.89 -1.03 Z" />
				<path style="stroke:none" d="M427.11 302.11 l7.03 -12.91 11.95 6.49 -7.03 12.92 -11.95 -6.5 Z" />
				<path style="stroke:none" d="M534.09 415.11 l5.98 -10.6 1.81 -3.29 -9.28 -5.2 4.72 -8.42 21.74 12.19 -12.5 22.31 -12.47 -6.99 Z" />
				<path style="stroke:none" d="M252.82 228.44 l6.73 3.48 -1.36 2.63 -6.73 -3.48 1.36 -2.63 Z" />
				<path style="stroke:none" d="M201.17 93.72 l-8.75 -4.9 1.76 -3.14 8.75 4.9 -1.76 3.13 Z" />
				<path style="stroke:none" d="M656.22 371.67 l-3.17 -1.79 -6.95 12.12 0.5 0.26 2.66 1.36 6.64 -11.41 0.31 -0.53 Z" />
				<path style="stroke:none" d="M519.93 68.56 l-7.14 12.78 6.36 3.56 6.04 -10.81 1.1 -1.97 -6.37 -3.56 Z" />
				<path style="stroke:none" d="M562.78 457.28 l2.33 1.28 -0.49 0.89 -6.04 10.93 -2.32 -1.28 4.91 -8.9 1.6 -2.91 Z" />
				<path style="stroke:none" d="M364.4 169.35 l-5.77 10.48 -2.99 -1.64 5.77 -10.48 2.98 1.64 Z" />
				<path style="stroke:none" d="M693.6 410.06 l0.71 -1.28 -6.43 -3.56 -7.84 -4.28 -6.6 11.81 17.84 9.83 0.99 -1.76 1.16 -2.06 1.51 -2.7 0.75 -1.38 -2.1 -4.62 Z" />
				<path style="stroke:none" d="M715.59 607.5 l-8.95 16.5 1.84 0.97 2.05 1.13 5.4 -9.78 5.07 -5.87 -5.41 -2.95 Z" />
				<path style="stroke:none" d="M740.08 386.86 l12 6.69 -1.53 2.74 -1.49 2.68 2.41 1.35 4.93 2.71 1.61 -2.9 1.51 -2.59 3.25 -5.95 -19.28 -10.75 -3.41 6.01 Z" />
				<path style="stroke:none" d="M631.64 389.57 l-3.14 -1.72 6.7 -11.98 3.09 1.79 -6.65 11.9 Z" />
				<path style="stroke:none" d="M900.35 589.22 l-6.4 11.62 4.16 2.29 6.4 -11.62 -4.16 -2.29 Z" />
				<path style="stroke:none" d="M699.43 714.37 l-11.62 -6.21 13.02 -23.94 11.82 6.51 -13.23 23.64 Z" />
				<path style="stroke:none" d="M804.59 323.76 l-22.89 -12.4 6.18 -11.41 22.89 12.4 -6.18 11.41 Z" />
				<path style="stroke:none" d="M767.8 223.55 l5.45 2.97 6.55 -12 -5.44 -2.97 -6.56 12 Z" />
				<path style="stroke:none" d="M586.8 495.09 l-5.73 10.21 -0.61 -0.35 -1.33 2.27 -6.45 11.6 -7.75 -4.38 5.76 -10.32 3.17 1.78 7.65 -13.68 5.29 2.89 Z" />
				<path style="stroke:none" d="M304.75 135.69 l11.09 6.32 -1.96 3.44 -1 -0.57 -10.08 -5.75 1.96 -3.44 Z" />
				<path style="stroke:none" d="M608.94 467.4 l-6.84 -3.72 -0.29 0.52 -5.58 10.08 6.74 3.78 3.43 -6.08 2.54 -4.57 Z" />
				<path style="stroke:none" d="M400.14 692.42 l-6.56 11.89 -19.18 -10.25 1.98 -14.61 23.75 12.97 Z" />
				<path style="stroke:none" d="M692.95 332.3 l4.14 -7.46 -1.79 -0.99 -2.24 -1.23 -2.75 -1.53 1.28 -2.34 -3.12 -1.73 -3.51 -1.95 -9.88 -5.48 -6.97 -3.87 -1.29 2.32 -6.78 -3.76 -4.14 7.47 6.78 3.76 -1.29 2.33 6.97 3.87 9.87 5.48 3.47 1.92 3.22 1.79 1.28 -2.33 2.72 1.51 2.23 1.22 1.79 0.99 Z" />
				<path style="stroke:none" d="M860.87 365.15 l4.85 2.71 -6.6 11.77 -4.83 -2.71 6.57 -11.77 Z" />
				<path style="stroke:none" d="M883.75 461.91 l-10.6 19.34 -17.89 -9.8 10.59 -19.34 17.89 9.8 Z" />
				<path style="stroke:none" d="M440.2 202.54 l6.64 3.64 6.61 -11.99 -2.87 -1.58 -3.8 -2.08 -6.59 12.01 Z" />
				<path style="stroke:none" d="M213.63 106.68 l1.04 -1.67 -2.82 -1.58 -0.88 1.57 -4.4 7.87 2.87 1.56 4.19 -7.75 Z" />
				<path style="stroke:none" d="M657.72 388.35 l-6.71 12.04 2.88 1.54 6.66 -11.94 -2.83 -1.64 Z" />
				<path style="stroke:none" d="M318.93 193.91 l3.2 1.8 4.16 -7.39 -3.2 -1.8 -4.16 7.39 Z" />
				<path style="stroke:none" d="M1016.3 492.36 l-10.32 18.27 -9.11 -5.15 -5.98 -3.38 10.32 -18.27 5.98 3.38 9.11 5.15 Z" />
				<path style="stroke:none" d="M513.57 292.95 l-2.39 -1.33 -6.58 11.79 2.38 1.34 6.59 -11.8 Z" />
				<path style="stroke:none" d="M733.08 374.17 l-4.42 8.03 -11.47 -6.32 -1.98 3.58 -7.74 -4.27 6.4 -11.61 19.21 10.58 Z" />
				<path style="stroke:none" d="M511.2 49.21 l-14.18 -7.91 -13.26 23.78 14.18 7.91 13.27 -23.77 Z" />
				<path style="stroke:none" d="M308.24 178.23 l3.03 1.61 -5.33 10.13 -3.14 -1.66 5.44 -10.08 Z" />
				<path style="stroke:none" d="M510.71 345.94 l-7.36 13.17 3.96 2.16 7.36 -13.08 -1.65 -0.93 -2.3 -1.32 Z" />
				<path style="stroke:none" d="M250.32 233.28 l6.73 3.48 -1.42 2.74 -6.73 -3.48 1.42 -2.74 Z" />
				<path style="stroke:none" d="M833.04 358.78 l8.65 4.82 -5.06 9.09 -8.65 -4.82 -4.25 7.63 12.17 6.78 13.23 -23.7 -12.2 -6.79 -3.88 6.97 Z" />
				<path style="stroke:none" d="M273.71 139.3 l1.51 -2.83 10.6 5.66 -1.51 2.83 -10.6 -5.66 Z" />
				<path style="stroke:none" d="M694.84 641.55 l1.99 1.09 0.37 -0.66 6.7 3.68 6.72 3.7 6.72 3.69 -1.33 2.43 -1.33 2.42 -1.33 2.42 -3.99 7.26 -1.33 2.42 -1.33 2.42 -1.33 2.42 -1.33 2.42 -6.71 -3.69 -6.7 -3.69 -6.72 -3.69 1.33 -2.42 1.33 -2.42 0.81 -1.49 -10.19 -5.6 -2.71 -1.49 -2.82 -1.55 3.66 -6.65 2.83 1.55 2.72 1.5 8.12 4.47 5.87 -10.53 Z" />
				<path style="stroke:none" d="M259.97 111.85 l3.09 1.73 -4.12 7.37 -3.09 -1.73 4.12 -7.37 Z" />
				<path style="stroke:none" d="M909.03 149.61 l20.02 10.93 -10.96 20.08 -5.59 -3.05 -2.19 4.01 -14.44 -7.88 10.02 -18.36 3.13 -5.73 Z" />
				<path style="stroke:none" d="M250.56 129.22 l-3.76 6.79 -3.12 -1.72 3.32 -5.99 0.45 -0.82 3.11 1.74 Z" />
				<path style="stroke:none" d="M337.42 356.42 l6.07 3.33 -6.97 12.69 -6.06 -3.33 0.37 -0.68 6.59 -12.01 Z" />
				<path style="stroke:none" d="M510.06 389.45 l2.57 1.54 4.17 2.33 -5.82 10.15 -2.49 -1.43 -4.25 -2.44 5.82 -10.16 Z" />
				<path style="stroke:none" d="M581.17 510.78 l3.35 1.88 -5.42 9.68 -3.35 -1.81 5.42 -9.75 Z" />
				<path style="stroke:none" d="M198.99 76.72 l9.38 5.31 -1.51 2.79 -9.42 -5.34 1.55 -2.76 Z" />
				<path style="stroke:none" d="M477.58 232.7 l-9.77 26.2 -15.96 -9.09 -7.01 -4 6.91 -12.29 6.44 -11.57 6.89 3.82 12.5 6.93 Z" />
				<path style="stroke:none" d="M286.65 219.62 l1.89 1.16 1.52 -2.47 4.21 -6.85 -3.82 -2.35 -4.52 7.36 1.93 1.19 -1.21 1.96 Z" />
				<path style="stroke:none" d="M476.29 111.06 l-6.4 11.75 2.5 1.36 6.4 -11.75 -2.51 -1.36 Z" />
				<path style="stroke:none" d="M722.23 557.45 l-1.78 3.18 11.19 6.22 1.76 -3.2 -11.16 -6.2 Z" />
				<path style="stroke:none" d="M597.26 476.89 l-1.93 -1.08 -3.63 -2.03 -6.35 11.4 9.1 5.04 5.28 -9.58 -3.47 -1.91 1 -1.84 Z" />
				<path style="stroke:none" d="M779.45 689.64 l-8.51 14.93 -8.59 -4.9 -4.22 7.4 19.31 11 12.73 -22.33 -10.72 -6.11 Z" />
				<path style="stroke:none" d="M729.54 693.87 l13.82 -24.71 15.51 8.67 -13.82 24.71 -15.52 -8.67 Z" />
				<path style="stroke:none" d="M536.74 144.09 l-12.17 24.84 18.8 10.41 13.22 -24.4 -19.85 -10.86 Z" />
				<path style="stroke:none" d="M469.78 429.87 l-5.98 10.75 4 2.22 0.63 -1.15 5.35 -9.61 -4.01 -2.22 Z" />
				<path style="stroke:none" d="M206.99 91.23 l4.16 -7.7 2.33 1.26 -4.15 7.7 -2.34 -1.26 Z" />
				<path style="stroke:none" d="M795.82 369.08 l6.49 3.61 -6.57 11.8 -2.88 -1.6 -3.62 -2.01 6.57 -11.8 Z" />
				<path style="stroke:none" d="M302.15 174.74 l3.2 1.65 -5.4 10.49 -3.2 -1.65 5.4 -10.49 Z" />
				<path style="stroke:none" d="M831.85 418.94 l6.94 -12.62 8.1 4.45 6.05 -11 14.25 7.83 -12.99 23.62 -22.35 -12.29 Z" />
				<path style="stroke:none" d="M814.5 347.92 l1.55 1.26 0.15 1.79 -1.03 1.34 4.82 2.69 0.56 2.27 -1.09 1.82 -1.9 0.53 -4.71 -2.63 -0.67 1.43 -1.49 0.65 -1.4 -0.42 -0.76 -0.4 -1.08 1.87 -7.72 -4.46 -1.38 2.39 -12.74 -7.36 1.21 -2.09 -13.26 -7.66 -3.26 -1.89 1.83 -3.15 4.06 -7.03 1.82 -3.13 3.25 1.89 13.57 7.83 1.73 -2.98 11.56 6.67 -1.24 2.14 8.59 4.97 -0.96 1.66 Z" />
				<path style="stroke:none" d="M611.03 508.68 l-6.6 11.85 5.72 3.15 6.55 -11.85 -5.67 -3.15 Z" />
				<path style="stroke:none" d="M651.75 491.01 l12 6.63 -13.24 23.71 -20.71 -11.56 6.16 -11.02 1.03 -2.04 8.86 4.97 5.9 -10.68 Z" />
				<path style="stroke:none" d="M623.3 313.47 l-13.22 23.57 64.76 36.33 13.08 -23.65 -64.62 -36.25 Z" />
				<path style="stroke:none" d="M451.92 120.86 l-1.58 2.96 7.03 3.84 2.58 1.42 1.64 -2.93 -9.67 -5.29 Z" />
				<path style="stroke:none" d="M821.79 343.33 l-3.63 6.61 5.66 3.11 3.63 -6.61 -5.66 -3.11 Z" />
				<path style="stroke:none" d="M882.48 417.88 l48.54 26.64 -13.15 23.96 -48.54 -26.65 13.15 -23.95 Z" />
				<path style="stroke:none" d="M475.75 191.09 l-6.47 11.8 2.57 1.41 6.46 -11.79 -2.56 -1.41 Z" />
				<path style="stroke:none" d="M568.37 484.83 l-13.39 24.06 5.76 3.2 5.76 -10.34 7.65 -13.68 -2.88 -1.62 -2.88 -1.62 Z" />
				<path style="stroke:none" d="M1002.8 365.01 l10.09 5.85 4.3 2.49 -11.3 20.42 -4.7 -2.71 -10.09 -5.86 -10.29 -5.89 6.11 -10.17 8.06 -2.1 7.81 -2.03 Z" />
				<path style="stroke:none" d="M267.33 147.38 l-2.62 -1.45 7.26 -13.09 2.62 1.45 -7.26 13.09 Z" />
				<path style="stroke:none" d="M950.98 579.22 l-5.42 9.46 -1.71 -0.98 -5.45 9.51 13.64 7.81 1.08 -1.88 0.86 -1.5 2.72 -4.75 -2.52 -1.44 5.35 -9.33 0.87 -1.51 -9.41 -5.39 Z" />
				<path style="stroke:none" d="M744.3 561.17 l1.42 -2.57 7.38 4.07 -6.9 12.52 -11.16 -6.15 5.49 -9.96 3.77 2.08 Z" />
				<path style="stroke:none" d="M728.81 461.84 l9.17 5.19 3.85 -6.81 -9.19 -5.18 -3.83 6.8 Z" />
				<path style="stroke:none" d="M624.16 32.17 l-6.69 12.37 -5.41 9.99 -1.34 2.47 -21.77 -11.78 4.22 -7.79 5.34 2.88 4.94 -9.12 -5.15 -2.79 4.28 -7.91 21.58 11.68 Z" />
				<path style="stroke:none" d="M524.01 642.51 l0.72 0.4 -6.31 11.26 -2.74 -1.55 6.31 -11.24 2.01 1.13 Z" />
				<path style="stroke:none" d="M459.37 197.41 l-5.91 -3.21 -2.87 -1.58 6.42 -11.76 8.78 4.79 -6.42 11.77 Z" />
				<path style="stroke:none" d="M582.2 508.92 l-3.07 -1.71 -6.45 11.6 3.07 1.71 5.42 -9.75 1.03 -1.85 Z" />
				<path style="stroke:none" d="M285.1 67.33 l-3.26 6.1 -2.24 -1.19 3.26 -6.1 2.24 1.2 Z" />
				<path style="stroke:none" d="M832.43 122.22 l-6.72 12.24 2.94 1.62 6.7 -12.23 -2.92 -1.62 Z" />
				<path style="stroke:none" d="M567.19 163.37 l-3.72 6.8 1.36 0.75 -4.47 8.16 -1.36 -0.74 -3.65 6.66 12.82 7.02 20.98 11.49 13.77 7.54 1.8 -3.29 8.22 -15.02 1.81 -3.3 -13.77 -7.54 -20.98 -11.49 -12.82 -7.02 Z" />
				<path style="stroke:none" d="M304.54 73.9 l-5.5 9.99 -2.7 -1.48 5.22 -9.48 0.28 -0.51 2.7 1.48 Z" />
				<path style="stroke:none" d="M870.97 308.86 l7.96 4.39 -5.45 9.89 -7.96 -4.39 5.45 -9.88 Z" />
				<path style="stroke:none" d="M628.37 356.47 l-10.05 -5.78 -6.78 11.9 5.04 2.84 5.12 2.84 6.66 -11.8 Z" />
				<path style="stroke:none" d="M639.39 484.14 l-2.05 -1.14 -5.88 10.59 1.99 1.16 5.94 -10.61 Z" />
				<path style="stroke:none" d="M226.93 706.44 l-21.8 -12.06 -1.82 3.29 -14.19 -7.86 -1.18 2.13 -14.48 -8.01 -0.85 1.54 -3.32 -1.84 -5.31 9.6 3.32 1.84 -0.85 1.54 14.48 8.01 -1.18 2.13 14.19 7.86 -1.82 3.29 21.8 12.06 13.02 -23.53 Z" />
				<path style="stroke:none" d="M785.05 403.34 l-3.13 -1.72 -5.74 10.35 3.11 1.73 1.96 -3.53 3.8 -6.84 Z" />
				<path style="stroke:none" d="M727.47 180.19 l2.63 1.45 -9.02 16.33 -2.63 -1.45 9.02 -16.34 Z" />
				<path style="stroke:none" d="M462.66 512.9 l-8.68 -4.79 -12.93 23.44 7.51 4.15 6.56 -11.89 1.17 0.65 6.38 -11.55 Z" />
				<path style="stroke:none" d="M945.32 735 l-17.61 -9.91 -13.51 24.03 26.53 14.91 6.75 -11.98 0 -0.02 -8.93 -4.99 6.77 -12.05 Z" />
				<path style="stroke:none" d="M221.36 89.05 l2.59 1.43 -4.18 7.66 -2.58 -1.4 4.17 -7.7 Z" />
				<path style="stroke:none" d="M269.37 255.9 l2.91 1.66 -5.91 10.4 -2.91 -1.66 5.91 -10.4 Z" />
				<path style="stroke:none" d="M250.94 107.02 l3.35 1.83 -5.11 9.42 -3.34 -1.8 1.14 -2.11 3.96 -7.35 Z" />
				<path style="stroke:none" d="M785.05 403.34 l-3.8 6.84 8.26 4.62 3.83 -6.85 -8.28 -4.61 Z" />
				<path style="stroke:none" d="M290.37 71.58 l-3.18 5.79 -2.96 -1.63 0.46 -0.78 2.69 -5.03 3 1.65 Z" />
				<path style="stroke:none" d="M276.6 120.78 l2.27 1.23 -2.98 5.51 -2.27 -1.23 2.98 -5.51 Z" />
				<path style="stroke:none" d="M606.23 537.58 l12.25 6.97 1.9 -3.42 2.01 -3.62 1.74 -3.25 1.21 -2.18 -12.25 -6.77 -6.86 12.28 Z" />
				<path style="stroke:none" d="M423.96 243.63 l-3.71 6.83 1.94 1.06 3.73 -6.84 -1.96 -1.05 Z" />
				<path style="stroke:none" d="M295.82 151.33 l7.06 4.02 -1.6 2.81 -7.06 -4.02 1.6 -2.81 Z" />
				<path style="stroke:none" d="M740.08 386.86 l-1.56 2.75 12.03 6.68 1.53 -2.74 -12 -6.69 Z" />
				<path style="stroke:none" d="M520.32 377.08 l-5.26 -2.9 -5.15 -2.85 -6.71 12.16 10.37 5.74 6.74 -12.15 Z" />
				<path style="stroke:none" d="M896.42 587.07 l3.94 2.14 -6.4 11.62 -3.91 -2.18 6.38 -11.58 Z" />
				<path style="stroke:none" d="M317.3 183.21 l2.92 1.57 -5.32 9.92 -2.92 -1.57 5.32 -9.92 Z" />
				<path style="stroke:none" d="M451.03 379.06 l12.67 7.14 -6.88 12.22 12.15 6.83 -6.2 11.21 -19.81 -10.51 -0.65 -5.41 7.21 -21.24 1.5 -0.25 Z" />
				<path style="stroke:none" d="M263.06 113.58 l2.76 1.55 -4.12 7.36 -2.77 -1.54 4.12 -7.37 Z" />
				<path style="stroke:none" d="M461.59 126.15 l1.67 -2.99 -9.73 -5.32 -1.61 3.02 9.67 5.29 Z" />
				<path style="stroke:none" d="M646.8 615.23 l-1.52 2.77 -5.64 10.27 -4.63 -2.55 -5.64 10.27 28.83 15.84 12.8 -23.3 -24.2 -13.3 Z" />
				<path style="stroke:none" d="M473.11 140.06 l-9.79 -5.49 5.58 -9.94 9.79 5.49 -5.58 9.94 Z" />
				<path style="stroke:none" d="M383.68 301.94 l-2.33 -1.27 -3.78 6.91 2.33 1.27 3.78 -6.91 Z" />
				<path style="stroke:none" d="M311.3 159.32 l1.56 0.82 -4.86 9.21 -1.56 -0.82 4.86 -9.21 Z" />
				<path style="stroke:none" d="M497.88 122.78 l-6.48 11.85 -4.67 -2.62 6.42 -11.75 4.73 2.51 Z" />
				<path style="stroke:none" d="M645.84 501.69 l-8.86 -4.97 5.94 -10.61 8.83 4.89 -5.9 10.68 Z" />
				<path style="stroke:none" d="M786.1 395.08 l6.76 -12.18 2.88 1.6 6.57 -11.8 8.29 4.62 -13.3 23.97 -11.19 -6.21 Z" />
				<path style="stroke:none" d="M351.78 436.47 l12.19 6.78 6.91 -12.37 -12.12 -6.83 -6.98 12.42 Z" />
				<path style="stroke:none" d="M222 112.69 l1.07 -2.09 -2.86 -1.5 -0.44 0.84 -4.12 7.8 2.73 1.55 3.63 -6.6 Z" />
				<path style="stroke:none" d="M462.37 604.56 l-1.37 2.42 12.09 6.75 1.33 -2.42 -12.05 -6.75 Z" />
				<path style="stroke:none" d="M845.68 43.55 l8.16 -14.37 30.24 17.17 -15.09 26.58 -33.1 -18.79 4.76 -8.38 19.02 10.8 -0.93 1.65 6.46 3.66 6.14 -10.82 -6.4 -3.64 -1.26 2.22 -11.33 -6.44 -1.78 3.13 -4.88 -2.77 Z" />
				<path style="stroke:none" d="M503.36 125.75 l-6.5 11.9 2.62 1.46 6.51 -11.96 -2.64 -1.41 Z" />
				<path style="stroke:none" d="M379.45 177.75 l-3.25 -1.78 -5.7 10.39 3.24 1.78 5.71 -10.4 Z" />
				<path style="stroke:none" d="M537.51 81.07 l-12.31 -6.98 -6.04 10.81 12.28 6.88 6.07 -10.71 Z" />
				<path style="stroke:none" d="M329.13 678.03 l-5.77 10.31 3.58 2.11 5.76 -10.44 -3.57 -1.98 Z" />
				<path style="stroke:none" d="M296.05 235.49 l-3.21 6.06 -2.42 -1.28 3.2 -6.06 2.42 1.28 Z" />
				<path style="stroke:none" d="M637.33 483 l-2.36 -1.28 -6.01 10.54 2.49 1.33 5.88 -10.59 Z" />
				<path style="stroke:none" d="M487.44 93.16 l-2.91 5.29 -3.2 5.83 3.47 1.91 6 -10.84 15.36 8.5 -6.01 10.84 2.17 1.22 2.15 1.19 8.95 -16.17 4.16 -7.52 -26.42 -14.62 -3.28 5.81 -3.73 6.76 3.27 1.81 Z" />
				<path style="stroke:none" d="M682.1 634.38 l12.74 7.17 -5.87 10.53 -8.12 -4.47 -2.72 -1.5 -2.83 -1.55 5.42 -9.82 1.38 -0.36 Z" />
				<path style="stroke:none" d="M634.98 481.72 l-2.51 -1.41 -3.02 5.31 -2.96 5.2 2.47 1.43 6.01 -10.54 Z" />
				<path style="stroke:none" d="M216.08 86.2 l2.77 1.49 -4.15 7.7 -2.77 -1.49 4.15 -7.7 Z" />
				<path style="stroke:none" d="M366.87 291.94 l-1.67 3.01 -6.88 -3.8 1.67 -3.02 6.88 3.8 Z" />
				<path style="stroke:none" d="M695.24 384.77 l6.97 -12.58 5.27 3.01 7.74 4.27 11.47 6.33 -6.71 12.5 -24.74 -13.52 Z" />
				<path style="stroke:none" d="M516.81 335.18 l-6.11 10.76 2.3 1.32 2.28 -3.99 3.84 -6.77 -1.14 -0.65 -1.17 -0.67 Z" />
				<path style="stroke:none" d="M531.82 75.33 l2.99 1.69 6.27 -11.1 -2.99 -1.69 -6.27 11.11 Z" />
				<path style="stroke:none" d="M463.77 602 l-1.4 2.56 12.05 6.75 1.44 -2.59 -12.09 -6.72 Z" />
				<path style="stroke:none" d="M230.54 118 l-2.76 -1.47 -3.28 6.14 2.77 1.46 3.26 -6.14 Z" />
				<path style="stroke:none" d="M244.2 243.57 l1.55 -2.87 10.69 5.76 -1.55 2.87 -10.69 -5.76 Z" />
				<path style="stroke:none" d="M516.79 393.32 l2.39 1.34 -5.83 10.18 -1.64 -0.94 -0.73 -0.42 5.82 -10.15 Z" />
				<path style="stroke:none" d="M456.73 291.56 l-14.05 -7.71 -18.09 -9.92 0.9 -1.68 5.26 -9.53 5.48 -9.93 1 -1.91 18.09 9.93 8.67 4.93 -7.26 25.83 Z" />
				<path style="stroke:none" d="M727.28 532.24 l-5.78 11 -21.67 -12 5.61 -10.52 21.84 11.52 Z" />
				<path style="stroke:none" d="M781.24 410.18 l-1.96 3.53 8.29 4.59 1.93 -3.49 -8.26 -4.62 Z" />
				<path style="stroke:none" d="M759.9 350.55 l-12.02 22.17 0.37 1.52 23.16 12.69 0.68 -1 0.24 -0.65 11.6 -20.93 0.21 -0.65 0.58 -0.77 -23.31 -12.81 -1.51 0.43 Z" />
				<path style="stroke:none" d="M499.76 165.4 l-30.73 -16.88 -11.81 21.48 30.73 16.88 11.81 -21.49 Z" />
				<path style="stroke:none" d="M919 412.1 l5.76 -10.31 1.76 0.98 0.46 -0.83 2.17 1.18 -0.45 0.8 -0.56 1.04 -0.44 0.81 -0.86 1.55 -3.8 7.05 -7.06 12.42 -16.22 -9.06 5.55 -9.93 7.39 4.13 1.43 -2.56 4.89 2.74 Z" />
				<path style="stroke:none" d="M627.19 508.4 l5.84 -10.45 0.35 -0.62 2.57 1.44 -6.16 11.02 -2.6 -1.39 Z" />
				<path style="stroke:none" d="M629.62 725.3 l-12.81 23.12 11.47 6.36 12.81 -23.12 -11.47 -6.36 Z" />
				<path style="stroke:none" d="M847.6 616.11 l2.21 -3.96 8.44 4.67 -2.18 3.97 -8.47 -4.68 Z" />
				<path style="stroke:none" d="M314.39 683.31 l8.96 5.03 5.77 -10.31 -8.97 -5.02 -5.76 10.3 Z" />
				<path style="stroke:none" d="M636.37 37.44 l11.11 6.13 -3.48 6.31 -1.2 -0.66 -1.5 2.93 -1.66 -0.9 -0.63 -0.36 1.09 -1.97 -3.77 -2.08 -1.14 1.96 -3.98 -2.15 0.86 -1.54 4.29 -7.66 Z" />
				<path style="stroke:none" d="M456.88 422.7 l2.54 1.44 -6.12 11.06 -2.59 -1.43 6.16 -11.07 Z" />
				<path style="stroke:none" d="M775.31 413.61 l-3.14 -1.76 -6.72 12 3.14 1.76 5.1 -9.1 1.62 -2.9 Z" />
				<path style="stroke:none" d="M432.97 154.38 l8.44 4.67 -1.61 2.9 -8.44 -4.67 1.61 -2.91 Z" />
				<path style="stroke:none" d="M475.55 433.07 l-5.36 9.61 -0.71 1.27 3.94 2.18 6.04 -10.9 -3.9 -2.16 Z" />
				<path style="stroke:none" d="M220.05 102.11 l5.79 -10.6 3.27 1.74 -0.44 0.89 -3.35 5.93 -1.02 1.95 -1.06 1.86 -3.19 -1.78 Z" />
				<path style="stroke:none" d="M509.01 305.89 l2.1 1.18 -6.63 11.88 -2.1 -1.17 6.63 -11.89 Z" />
				<path style="stroke:none" d="M325.99 71.17 l-10.81 -5.96 -1.36 -0.75 1.5 -2.71 12.16 6.71 -1.5 2.71 Z" />
				<path style="stroke:none" d="M453.26 420.68 l-13.99 -7.66 -1.61 0.25 -8.56 25.29 14.38 8.09 4.84 -8.57 -3.62 -2.02 8.56 -15.38 Z" />
				<path style="stroke:none" d="M501.09 366.41 l-6.67 12.13 1.83 1.04 6.69 -12.13 -1.85 -1.04 Z" />
				<path style="stroke:none" d="M780.95 512.87 l-25.8 -13.89 12.8 -23.77 23.3 12.54 1.15 3.85 -11.45 21.27 Z" />
				<path style="stroke:none" d="M317.78 671.68 l-5.76 10.3 2.38 1.33 5.76 -10.3 -2.38 -1.33 Z" />
				<path style="stroke:none" d="M497.87 445.43 l-6.01 10.91 -0.64 1.08 8.22 4.57 4.34 -7.78 1.23 -2.28 1.04 -1.98 -8.17 -4.53 Z" />
				<path style="stroke:none" d="M571.24 526.7 l9.27 4.96 -13.15 24.55 -9.35 -5 13.23 -24.51 Z" />
				<path style="stroke:none" d="M726.68 385.78 l-11.47 -6.33 1.98 -3.58 11.47 6.32 -1.97 3.59 Z" />
				<path style="stroke:none" d="M251.58 259.54 l5.91 -10.4 2.82 1.61 -5.91 10.4 -2.82 -1.61 Z" />
				<path style="stroke:none" d="M247 128.3 l-3.32 5.99 -3.13 -1.75 3.29 -5.98 3.15 1.74 Z" />
				<path style="stroke:none" d="M485.79 331.97 l-7.39 13.16 -10.46 -5.9 7.44 -13.12 10.41 5.86 Z" />
				<path style="stroke:none" d="M902.82 258.22 l-4.26 -2.39 -6.12 -3.43 3.35 -5.96 5.07 -9.03 10.38 5.83 -8.41 14.99 Z" />
				<path style="stroke:none" d="M313.31 155.57 l-3.01 -1.61 6 -11.18 3 1.61 -6 11.18 Z" />
				<path style="stroke:none" d="M251.73 255.21 l1.55 -2.87 -10.69 -5.76 -1.43 2.78 10.58 5.86 Z" />
				<path style="stroke:none" d="M473.78 432.09 l-5.35 9.61 1.76 0.98 5.36 -9.61 -1.77 -0.98 Z" />
				<path style="stroke:none" d="M247.27 64.81 l47.28 26.48 -5.22 9.32 -47.27 -26.48 5.22 -9.32 Z" />
				<path style="stroke:none" d="M531.14 646.49 l-1.59 -0.89 -4.81 -2.69 -6.31 11.26 6.42 3.59 6.3 -11.27 Z" />
				<path style="stroke:none" d="M289.2 135.79 l-10.6 -5.66 1.68 -3.14 2.29 1.23 1.71 0.88 6.54 3.61 -1.62 3.08 Z" />
				<path style="stroke:none" d="M756 107.07 l-1.49 2.66 -4.41 7.74 -14.92 -8.5 4.38 -7.7 2.81 1.6 1.54 -2.7 9.09 5.18 3 1.71 Z" />
				<path style="stroke:none" d="M379.51 665.03 l27.18 15.12 -6.55 12.27 -23.75 -12.97 1.6 -13.57 1.52 -0.85 Z" />
				<path style="stroke:none" d="M934.49 647.9 l-18.2 -10.15 -13.33 23.89 27.03 15.09 6.2 -11.1 -8.84 -4.94 7.14 -12.79 Z" />
				<path style="stroke:none" d="M282.85 66.14 l-3.26 6.1 -1.88 -1.01 3.26 -6.1 1.88 1.01 Z" />
				<path style="stroke:none" d="M459.42 424.14 l4.59 2.49 -6.17 11.11 -4.54 -2.53 6.12 -11.06 Z" />
				<path style="stroke:none" d="M498.31 629.47 l-3.16 -1.73 -1.98 -1.1 -5.67 10.26 5.15 2.84 5.67 -10.27 Z" />
				<path style="stroke:none" d="M526.3 72.12 l5.52 3.22 6.27 -11.11 -5.64 -3.18 -6.16 11.07 Z" />
				<path style="stroke:none" d="M474.99 464.39 l6.78 -12.2 -17.47 -9.68 -6.76 12.15 17.45 9.73 Z" />
				<path style="stroke:none" d="M485.88 620.82 l2.21 1.17 -6.47 11.72 -2.27 -1.24 6.52 -11.65 Z" />
				<path style="stroke:none" d="M642.55 395.73 l-2.53 -1.5 6.58 -11.97 2.66 1.36 -6.72 12.11 Z" />
				<path style="stroke:none" d="M298.25 236.65 l-3.21 6.06 -2.21 -1.17 3.21 -6.06 2.21 1.17 Z" />
				<path style="stroke:none" d="M506.5 369.4 l-6.69 12.13 0.46 0.27 1.3 0.78 6.71 -12.15 -1.78 -1.03 Z" />
				<path style="stroke:none" d="M852.44 391.55 l-4.8 -2.7 6.65 -11.92 4.83 2.71 -6.68 11.91 Z" />
				<path style="stroke:none" d="M345.1 391.67 l6.12 -11.03 -8.63 -4.79 -6.12 11.03 4.12 2.29 4.51 2.5 Z" />
				<path style="stroke:none" d="M716.19 683.93 l-12.16 -6.67 1.33 -2.42 1.33 -2.42 1.33 -2.42 1.33 -2.42 3.99 -7.26 1.33 -2.42 1.33 -2.42 1.33 -2.43 7.35 4.09 4.74 2.59 -13.23 24.2 Z" />
				<path style="stroke:none" d="M284.28 129.1 l1.64 -2.96 6.54 3.61 -1.64 2.96 -6.54 -3.61 Z" />
				<path style="stroke:none" d="M527.99 629.18 l-6.66 -3.75 -5.16 9.16 -2.04 3.62 5.17 2.91 0.52 -0.93 1.49 0.84 6.68 -11.85 Z" />
				<path style="stroke:none" d="M479.24 204.73 l-1.54 2.79 -3.19 -1.81 -6.06 10.86 -0.71 1.32 13.57 7.51 7.7 -15.34 -9.77 -5.33 Z" />
				<path style="stroke:none" d="M527.99 629.18 l2.63 1.54 -6.6 11.79 -2.01 -1.13 -0.69 -0.35 6.68 -11.85 Z" />
				<path style="stroke:none" d="M325.44 174.71 l0.89 0.5 3.9 -6.9 2.54 1.43 -0.8 1.47 -1.64 2.65 -3.09 5.94 -0.37 0.43 -3.44 -1.94 2.02 -3.58 Z" />
				<path style="stroke:none" d="M611.24 477.12 l-4.74 -2.56 -2.63 4.82 2.18 1.19 0.88 0.48 -3.89 7.16 -2.85 5.22 8.9 4.94 3.72 -6.82 -0.76 -0.41 9.3 -16.81 -12.42 -6.9 -2.54 4.57 5.89 3.27 -1.04 1.87 Z" />
				<path style="stroke:none" d="M273.16 221.95 l-3.77 7.11 -2.04 -1.07 3.77 -7.11 2.04 1.08 Z" />
				<path style="stroke:none" d="M280.97 65.13 l-3.26 6.1 -2.16 -1.15 3.26 -6.1 2.17 1.15 Z" />
				<path style="stroke:none" d="M659.41 374.11 l-3.5 -1.9 -6.64 11.41 3.72 2.01 6.43 -11.52 Z" />
				<path style="stroke:none" d="M502.28 438.6 l6.4 -11.4 4.33 2.38 9.37 5.3 -3.28 5.93 -3.13 5.49 -13.7 -7.69 Z" />
				<path style="stroke:none" d="M938.07 569.58 l-23.38 -12.89 -13.2 23.95 23.38 12.89 13.2 -23.95 Z" />
				<path style="stroke:none" d="M207.91 103.3 l-4.37 7.87 -3.07 -1.71 4.36 -7.88 3.08 1.72 Z" />
				<path style="stroke:none" d="M322.56 77.64 l-10.91 -6.13 1.77 -3.15 10.91 6.13 -1.77 3.15 Z" />
				<path style="stroke:none" d="M463.7 386.21 l-6.88 12.22 12.15 6.83 1.03 -1.84 1.12 0.64 0.53 -0.94 3.5 1.94 5.28 -9.44 -16.74 -9.42 Z" />
				<path style="stroke:none" d="M731.91 401.27 l-1.75 3.07 11.05 6.18 1.73 -3.09 -11.04 -6.16 Z" />
				<path style="stroke:none" d="M736.86 231.02 l5.33 3 6.84 3.85 8.81 4.91 6.13 -10.91 -20.99 -11.75 -0.98 1.79 -5.14 9.1 Z" />
				<path style="stroke:none" d="M261.3 130.95 l-5.54 10.01 -3.26 -1.8 5.09 -9.19 0.46 -0.82 3.26 1.8 Z" />
				<path style="stroke:none" d="M373.39 174.43 l-5.7 10.39 -3.26 -1.79 5.77 -10.48 3.19 1.88 Z" />
				<path style="stroke:none" d="M826.03 15.5 l-4.61 8.27 4.17 2.33 -6.36 11.4 4.84 2.7 10.97 -19.67 -9.01 -5.03 Z" />
				<path style="stroke:none" d="M350.65 689.9 l-4.4 7.83 -1.48 2.64 -5.4 -3.06 5.82 -10.42 5.46 3.01 Z" />
				<path style="stroke:none" d="M239.34 100.65 l3.26 1.85 -4.5 8.23 -3.37 -1.77 4.62 -8.3 Z" />
				<path style="stroke:none" d="M772.16 411.85 l-2.97 -1.57 -1.49 2.66 -5.19 9.27 2.93 1.65 6.72 -12 Z" />
				<path style="stroke:none" d="M855.24 622.31 l10.72 5.9 -4.53 8.22 -1.26 2.29 -10.72 -5.92 5.8 -10.5 Z" />
				<path style="stroke:none" d="M253.27 252.34 l-10.69 -5.76 1.62 -3 10.69 5.76 -1.62 3.01 Z" />
				<path style="stroke:none" d="M592.51 513.86 l9.24 5.17 -6.81 12.17 -15.84 -8.86 5.42 -9.68 2.29 -4.14 5.73 -10.2 6.6 3.69 -6.63 11.85 Z" />
				<path style="stroke:none" d="M304.4 152.68 l-1.52 2.67 -7.06 -4.02 1.52 -2.67 7.06 4.02 Z" />
				<path style="stroke:none" d="M664.63 392.27 l-6.65 11.93 3.13 1.7 6.61 -11.87 -3.09 -1.77 Z" />
				<path style="stroke:none" d="M293.48 73.28 l-3.18 5.79 -3.11 -1.71 3.18 -5.79 3.11 1.71 Z" />
				<path style="stroke:none" d="M278.82 224.94 l-3.77 7.11 -1.95 -1.03 3.77 -7.11 1.95 1.03 Z" />
				<path style="stroke:none" d="M248.18 463.6 l12.93 -23.42 -46.15 -25.48 -49.71 -27.45 -2.11 4.2 -2.29 4.37 -2.1 3.95 -2.02 3.21 -4.42 7.7 95.85 52.93 Z" />
				<path style="stroke:none" d="M778.85 399.93 l3.06 1.7 -5.74 10.35 -0.86 1.63 -3.14 -1.76 1.65 -2.86 1.52 -2.74 3.52 -6.33 Z" />
				<path style="stroke:none" d="M697.48 181.24 l10.5 5.68 2.41 -4.46 4 -7.4 2.53 1.38 1.79 -3.32 -2.53 -1.37 2 -3.7 -8.57 -4.64 -2 3.7 -1.93 -1.05 -8.21 15.18 Z" />
				<path style="stroke:none" d="M307.84 689.43 l-3.01 5.54 1.15 0.64 3.04 -5.54 -1.18 -0.64 Z" />
				<path style="stroke:none" d="M856.13 243.5 l-11.56 20.81 20.28 11.26 11.56 -20.81 -20.28 -11.26 Z" />
				<path style="stroke:none" d="M950.65 514.42 l-5.22 9.48 2.37 1.28 2.3 -4.19 2.94 -5.25 -2.38 -1.32 Z" />
				<path style="stroke:none" d="M541.93 85.93 l-4.99 8.88 5.61 3.21 3.6 -9.95 -4.22 -2.14 Z" />
				<path style="stroke:none" d="M497.6 364.47 l-6.65 12.1 0.84 0.5 0.84 0.47 6.69 -12.11 -1.73 -0.96 Z" />
				<path style="stroke:none" d="M236.33 98.98 l3.01 1.67 -4.62 8.3 -1.5 2.57 -3 -1.7 0.48 -0.84 5.62 -10.01 Z" />
				<path style="stroke:none" d="M714.48 148.98 l-0.68 -0.36 -1.58 2.98 1.62 0.86 -0.41 0.77 2.79 1.48 0.31 -0.59 1.44 0.76 0.8 -1.51 2.97 1.58 -0.8 1.51 2.32 1.24 -0.36 0.67 3.51 1.78 6.64 -12.17 -3.81 -2.03 -0.7 1.31 -9.86 -5.25 -1.52 2.86 0.72 0.38 -2.3 4.32 -0.59 -0.32 -0.52 -0.28 Z" />
				<path style="stroke:none" d="M940.45 426.94 l-5.64 10.33 -18.84 -10.47 7.06 -12.42 4.05 2.18 1.76 0.95 -1.3 2.39 3.42 1.87 5.57 3 1.36 0.75 0.77 0.42 1.04 0.57 0.75 0.43 Z" />
				<path style="stroke:none" d="M450.35 123.82 l-1.49 2.73 7.03 3.84 1.49 -2.73 -7.03 -3.84 Z" />
				<path style="stroke:none" d="M278.95 234.12 l-1.91 -1.02 3.77 -7.11 1.91 1.02 -3.77 7.11 Z" />
				<path style="stroke:none" d="M515.61 294.09 l-2.05 -1.13 -6.59 11.8 2.03 1.14 6.61 -11.8 Z" />
				<path style="stroke:none" d="M688.93 552.14 l-30.29 -16.75 -6.27 11.35 30.29 16.75 6.27 -11.35 Z" />
				<path style="stroke:none" d="M334.35 152.8 l-5.77 10.48 -2.67 -1.47 5.77 -10.48 2.67 1.47 Z" />
				<path style="stroke:none" d="M535.13 224.61 l-12.72 22.68 27.52 15.43 12.72 -22.67 -27.52 -15.43 Z" />
				<path style="stroke:none" d="M355.35 164.37 l-5.77 10.48 -2.91 -1.6 5.77 -10.48 2.91 1.6 Z" />
				<path style="stroke:none" d="M195 106.63 l-9.64 -5.46 1.53 -2.67 8.93 5.02 0.7 0.45 -1.51 2.67 Z" />
				<path style="stroke:none" d="M611.03 508.68 l-6.6 11.85 -2.67 -1.5 -9.24 -5.17 6.63 -11.85 11.89 6.67 Z" />
				<path style="stroke:none" d="M416.14 253.31 l5.83 -10.75 -4.01 -2.21 -7.79 -4.3 -5.36 9.67 3.99 3.49 6.47 3.59 0.87 0.51 Z" />
				<path style="stroke:none" d="M394.95 388.39 l-7.07 12.63 2.18 1.18 -6.25 11.15 22.84 12.8 13.3 -23.73 -24.99 -14.03 Z" />
				<path style="stroke:none" d="M898.35 322.59 l-1.56 2.83 -4.49 8.12 -9.42 -5.22 -2.77 -1.53 -2.45 -1.36 -4.16 -2.29 5.45 -9.89 7.99 -14.49 4.21 2.32 2.45 1.36 2.77 1.53 9.42 5.22 -4.49 8.12 -1.56 2.83 -1.36 2.45 Z" />
				<path style="stroke:none" d="M512.21 161.93 l-12.18 -6.64 5.45 -9.69 7.86 -14.46 10.88 6.03 -12.02 24.76 Z" />
				<path style="stroke:none" d="M533.65 536.1 l2.5 -4.7 3.72 -6.9 -20.16 -10.86 -5.06 -2.7 -6.23 11.65 25.24 13.5 Z" />
				<path style="stroke:none" d="M911.41 190.4 l-14.57 25.67 -12.79 -7.26 14.57 -25.67 12.79 7.26 Z" />
				<path style="stroke:none" d="M862.85 138.96 l-3.32 6 -11.03 -6.17 3.32 -5.94 11.03 6.11 Z" />
				<path style="stroke:none" d="M900.77 281.43 l5.18 2.84 4.56 2.5 -6.57 12 -9.74 -5.33 6.57 -12 Z" />
				<path style="stroke:none" d="M488.57 440.28 l-6.04 10.9 9.32 5.16 6.01 -10.91 -9.29 -5.15 Z" />
				<path style="stroke:none" d="M457.54 454.65 l-4.47 -2.57 -2.48 -1.39 7.26 -12.96 6.17 -11.11 3.04 1.68 2.73 1.57 -5.98 10.75 -0.74 1.26 1.24 0.62 -6.76 12.15 Z" />
				<path style="stroke:none" d="M622.29 182.91 l5.21 -9.71 -14.83 -8.31 -5.31 9.41 14.92 8.61 Z" />
				<path style="stroke:none" d="M865.72 367.86 l-6.6 11.77 -6.68 11.91 17.86 10.03 13.29 -23.69 -17.88 -10.03 Z" />
				<path style="stroke:none" d="M626.51 370.98 l-4.8 -2.71 -5.12 -2.84 -6.73 12.05 9.92 5.54 6.73 -12.04 Z" />
				<path style="stroke:none" d="M281.92 2.69 l-2.4 4.4 -2.11 -1.15 -9.93 -5.41 -6.35 -3.46 2.4 -4.4 18.39 10.03 Z" />
				<path style="stroke:none" d="M597.5 370.83 l-4.27 -2.44 5.37 -9.41 4.27 2.44 -5.03 8.81 -0.34 0.6 Z" />
				<path style="stroke:none" d="M689.88 340.47 l4.19 -7.55 4.13 -7.46 4.21 -7.58 -62.53 -34.67 -0.96 1.73 -10.6 19.11 -0.97 1.75 62.53 34.67 Z" />
				<path style="stroke:none" d="M635.78 360.65 l-7.41 -4.18 -6.66 11.8 4.8 2.71 2.61 1.47 6.66 -11.8 Z" />
				<path style="stroke:none" d="M308.36 77.35 l1.62 -2.89 10.91 6.13 -1.63 2.89 -10.91 -6.13 Z" />
				<path style="stroke:none" d="M483.42 619.44 l2.47 1.39 -6.52 11.65 -2.47 -1.39 6.52 -11.65 Z" />
				<path style="stroke:none" d="M389.51 233.77 l4.51 2.37 7.74 4.04 3.65 -6.81 -12.14 -6.66 -3.75 7.06 Z" />
				<path style="stroke:none" d="M466.25 117.82 l-1.33 2.38 -9.78 -5.34 1.31 -2.37 9.8 5.33 Z" />
				<path style="stroke:none" d="M626.51 370.98 l-6.73 12.04 2.64 1.46 6.69 -12.03 -2.61 -1.47 Z" />
				<path style="stroke:none" d="M622.4 537.51 l-2.01 3.62 15.2 8.38 2.06 -3.66 -15.25 -8.34 Z" />
				<path style="stroke:none" d="M702.65 404.01 l-3.59 6.45 9.17 5.12 0.73 0.4 3.6 -6.44 -9.91 -5.52 Z" />
				<path style="stroke:none" d="M835.35 123.84 l7.89 4.3 4.89 2.64 -6.77 12.33 -12.71 -7.04 6.7 -12.23 Z" />
				<path style="stroke:none" d="M312.62 373.75 l4.89 -8.88 11.72 6.46 1.23 -2.23 6.06 3.33 6.07 3.42 -6.12 11.03 -23.85 -13.13 Z" />
				<path style="stroke:none" d="M374.82 377.13 l-3.54 -2.05 -3.77 -2.12 -7.06 12.74 7.3 4.05 7.07 -12.63 Z" />
				<path style="stroke:none" d="M494.69 610.24 l-14.97 -8.42 -3.86 6.9 -1.44 2.59 -1.33 2.42 10.33 5.71 2.47 1.39 2.21 1.17 6.59 -11.75 Z" />
				<path style="stroke:none" d="M268.08 133.71 l-5.97 10.77 -3.48 -1.93 5.97 -10.77 3.48 1.92 Z" />
				<path style="stroke:none" d="M376.21 175.97 l-5.7 10.39 -2.81 -1.54 5.7 -10.39 2.81 1.54 Z" />
				<path style="stroke:none" d="M653.89 401.93 l4.09 2.27 6.65 -11.93 -2 -1.12 -2.08 -1.16 -6.66 11.94 Z" />
				<path style="stroke:none" d="M1003.3 242.79 l-17.45 -9.71 -12.98 23.32 17.45 9.71 12.98 -23.32 Z" />
				<path style="stroke:none" d="M301.28 158.17 l-1.66 2.9 -7.1 -3.83 1.7 -3.1 7.06 4.02 Z" />
				<path style="stroke:none" d="M361.42 167.71 l-5.77 10.48 -3.16 -1.74 5.77 -10.48 3.16 1.74 Z" />
				<path style="stroke:none" d="M479.45 435.23 l-6.04 10.9 9.12 5.05 6.04 -10.9 -2.28 -1.26 -6.84 -3.79 Z" />
				<path style="stroke:none" d="M668.21 657.4 l3.43 -6.19 2.82 1.55 2.71 1.49 10.19 5.6 -0.81 1.49 -1.33 2.42 -1.33 2.42 -15.68 -8.78 Z" />
				<path style="stroke:none" d="M524.7 357.17 l-5.82 10.56 2.16 1.19 2.43 1.34 5.82 -10.56 -4.59 -2.53 Z" />
				<path style="stroke:none" d="M905.77 309.19 l11.88 6.57 -13.48 24.35 -11.88 -6.58 4.49 -8.12 1.56 -2.83 1.36 -2.45 1.56 -2.83 4.49 -8.12 Z" />
				<path style="stroke:none" d="M498.59 339.14 l-7.38 13.18 -12.81 -7.18 7.39 -13.16 12.8 7.17 Z" />
				<path style="stroke:none" d="M522 641.38 l-6.31 11.24 -2.18 -1.23 5.79 -10.27 0.52 -0.93 1.49 0.84 0.69 0.35 Z" />
				<path style="stroke:none" d="M465.48 346.6 l-13.41 24.12 22.57 12.55 6.69 -12.04 4.57 2.54 6.72 -12.08 -27.13 -15.09 Z" />
				<path style="stroke:none" d="M316.26 173.34 l3.57 -4.99 -0.74 -0.47 2.92 -5.23 5.36 2.99 -2.41 4.29 -2.82 5.06 -0.72 1.28 -5.16 -2.94 Z" />
				<path style="stroke:none" d="M700.91 396.94 l-6.44 -3.58 -6.58 11.87 6.43 3.56 0.41 -0.74 6.19 -11.1 Z" />
				<path style="stroke:none" d="M1023.98 578.65 l-1.15 2.14 -2.52 4.7 -0.9 -0.49 -3.94 7.29 0.93 0.5 -2.76 5.15 -1.15 2.14 12.93 6.92 11.48 -21.45 -12.93 -6.92 Z" />
				<path style="stroke:none" d="M500.27 381.81 l-0.46 -0.27 -1.78 -0.98 -1.78 -0.98 -1.83 -1.04 -1.78 -1.01 -0.84 -0.47 -6.74 12.04 8.48 4.74 6.74 -12.04 Z" />
				<path style="stroke:none" d="M488.72 77.47 l-9.68 -5.34 -13.12 23.79 13.54 7.47 3.28 -5.94 1.8 0.99 2.91 -5.29 -3.27 -1.81 3.73 -6.76 -2.38 -1.31 3.2 -5.81 Z" />
				<path style="stroke:none" d="M504.88 628.28 l-7.65 -4.28 -2.09 3.74 -1.98 -1.1 0.77 -1.37 6.53 -11.72 9.64 5.37 3.74 2.11 4.1 2.31 -5.26 9.33 -7.8 -4.4 Z" />
				<path style="stroke:none" d="M854.42 603.86 l8.42 4.67 -1.92 3.46 -8.42 -4.67 1.92 -3.46 Z" />
				<path style="stroke:none" d="M549.88 444.34 l4.35 -7.78 14.72 8.22 -4.36 7.8 -2.1 -1.18 -12.62 -7.06 Z" />
				<path style="stroke:none" d="M500.52 406.82 l-0.94 1.69 -4.55 8.25 -0.95 1.72 -4.3 -2.31 6.46 -11.75 4.28 2.39 Z" />
				<path style="stroke:none" d="M416.14 253.31 l1.99 1.08 2.13 -3.93 3.71 -6.83 -1.99 -1.08 -5.83 10.75 Z" />
				<path style="stroke:none" d="M753.99 478.99 l-0.77 -0.44 -3.4 5.96 0.75 0.43 -5.16 9.04 -28.83 -16.46 0.5 -0.76 4.84 -8.59 1.46 -2.62 11.64 6.6 2.95 -5.11 3.85 -6.81 17.13 9.68 -4.97 9.09 Z" />
				<path style="stroke:none" d="M946.27 210.82 l-1.17 2.12 -4.64 8.43 -3.44 6.24 -0.77 1.4 1.29 0.71 5.34 2.94 5.32 2.9 3.22 1.81 10.01 -18.21 -5.2 -2.86 -1.61 0.24 -2.22 -1.23 -1.9 -1.05 -0.65 -1.48 -3.6 -1.98 Z" />
			</g>
		</g>
		<g id="Line_artwork" style="stroke-linejoin:round;fill:none">
			<g id="highway_pedestrian1" style="stroke-linecap:round;stroke:#EDEDED;stroke-width:4.79">
				<path d="M383.71 377.43 l17.2 -30.86" />
				<path d="M692.26 21.49 l-6.39 11.52" />
				<path d="M679.8 44.04 l-5.98 11.05 -16.62 30.71 -16.86 31.15 -16.77 30.99 -10.11 18.16 -6.78 13.05 -16.54 30.38" />
				<path d="M600.99 625.02 l-14.86 -8.56" />
				<path d="M462.8 300.73 l-9.34 34.71 -8.55 35.45 -10.08 35.01 -12.51 33.38 -9.04 38.31" />
			</g>
			<g id="highway_residential" style="stroke-linecap:round;stroke:#D8D8D8;stroke-width:8.04">
				<path d="M792.89 -9.14 l1.44 -7.07 1.31 -6.45 -4.81 -7.69 -14.75 -10.9 -9.18 -9.36 -2.2 -4.22 -1.36 -6.5 1.01 -8.23 2.95 -6.43 3.66 -4.68 4.24 -5.2" />
				<path d="M1166.18 368.97 l-83.63 -46.58 -59.79 -33.3 -55.2 -30.74 -8.14 -4.53 -57.27 -31.9 -59.99 -33.41 -120.44 -66.87 -64.52 -35.84 -41.71 -23.14 -45.97 -25.52 -60.14 -33.39 -106.23 -58.98 -106.2 -58.96 -56.43 -30.83 -10.28 -5.54 -39.71 -22.26 -75.46 -41.41 -7.14 -3.61 -8.41 -3.41" />
				<path d="M1236.87 569.75 l-50.4 -28.07 -88.47 -49.28 -83.98 -46.77 -59.52 -33.15 -55.13 -30.7 -8.01 -4.46 -57.41 -31.97 -60.11 -33.48 -41.99 -23.57 -7.65 -4.14 -70.93 -39.34 -63.13 -35.29 -42.75 -23.59 -30.67 -17.06 -75.4 -41.93 -106.15 -59.03 -106.22 -59.07 -21.81 -12.13 -11.26 -6.26 -73 -40.54 -76.82 -41.49 -7.47 -4.06" />
				<path d="M713.07 644.72 l18.53 -33.75 -33.91 -18.83 -60.21 -33.23" />
				<path d="M155.41 89.27 l22.45 12.25 106.17 59.08 106.2 58.93 59.88 33.45 22.55 12.6 23.68 12.97 38.19 21.28 67.63 37.69 70.83 39.2 6.38 3.53 43.24 24.37 60.21 33.43 57.45 32.01 7.92 4.38 23.91 13.35 31.29 17.47 59.72 33.18 83.89 46.64" />
				<path d="M1125.88 672.81 l-13.2 -7.45 -83.84 -47.34 -83.69 -47.25 -59.56 -33.63 -54.93 -31.01 -7.85 -4.43 -23.75 -13.41 -33.54 -18.94 -59.7 -33.71 -120.6 -67.35 -25.23 -13.89 -80.99 -44.59 -16.21 -9.07 -89.75 -50 -106.08 -59.21 -106.1 -59.19 -21.72 -11.95" />
				<path d="M56.32 -125.86 l6.67 3.7 76.73 42.52 67.97 37.67 10.2 5.65 27.63 15.32 106.23 58.88 106.17 58.83 73.97 40.99 32.3 17.9 42.49 23.56 63.58 35.23 31.02 17.18 89.56 49.64 59.99 33.38 57.48 31.99 8.04 4.47 14.73 8.16 40.43 22.53 59.82 33.29 83.69 46.57 88.5 49.24" />
				<path d="M1271.35 179.02 l-83.86 -46.7 -59.82 -33.31 -55.12 -30.69 -8.35 -4.65 -57.02 -31.75 -59.84 -33.32" />
				<path d="M913.12 59.7 l60.18 33.59 57.04 31.83 8.28 4.62 55.06 30.73 31.97 17.85 27.87 15.55 84.02 46.89" />
				<path d="M243.72 -269.36 l3.75 2 9.24 4.93 93.74 51.47 106.39 58.41 106.45 58.45 25.08 13.77 81.34 44.65 106.52 58.48 95.96 53.95 10.84 -18.93 6.9 -12.47" />
				<path d="M872.19 76.74 l24.13 13.53 60 33.58 57.11 31.96 8.24 4.61 55.09 30.83 32.61 18.25 27.07 15.15 83.57 46.77 29.64 16.59" />
				<path d="M103.96 -260.38 l9.04 5.01 7.17 3.97 87.35 47.53 28.69 16.68 9.76 5.4 67.9 36.76 106 59.48 106.26 58.81 51.65 28.59 3.1 1.72 51.51 28.51 106.31 58.83 120.57 66.73 59.98 33.42 57.19 31.87 8.18 4.56 55.17 30.75 59.74 33.29 83.7 46.65 88.43 49.28 84.13 46.89" />
				<path d="M1029.28 776.84 l-67.52 -37.43 -83.89 -46.69 -59.72 -33.28" />
				<path d="M835.17 628.62 l59.72 33.33 83.66 46.49 90.62 50.92" />
				<path d="M654.59 527.94 l59.95 33.68 33.61 18.88" />
			</g>
			<g id="highway_residential1" style="stroke-linecap:round;stroke:#D8D8D8;stroke-width:8.04">
				<path d="M913.12 59.7 l-11.79 -7.3 -11.4 -7.05 -97.03 -54.49 -102.73 -57.32 -3.42 -1.91" />
				<path d="M731.6 610.97 l16.55 -30.47 17.11 -31.16 17.11 -30.83 16.71 -30.22" />
				<path d="M908.3 18.11 l1.37 -9.2 5.97 -12.14 3.7 -7.52 9.07 -18.44 1.08 -3.95 -0.18 -4.35 -0.59 -3.93 -1.27 -3.48 -11.94 -29.65 -6.58 -28.59 -1.17 -28.09 6.75 -34.49 2.54 -6.21" />
			</g>
			<g id="highway_unclassified" style="stroke-linecap:round;stroke:#D8D8D8;stroke-width:8.04">
				<path d="M7.28 334.67 l32.09 18.23 10.51 6.05 49.01 27.08 10.92 6.02 35.78 19.41 106.02 58.9 105.85 59.22 38.36 21.3 68.05 37.67 13.87 7.72 49.38 27.46 57.05 31.73 59.78 33.31 55.47 30.91 6.04 3.37 2.66 1.26 56.64 31.79 41.19 22.96 18.63 10.38 32.38 18.04 51.32 28.6 32 17.83 57.96 32.3" />
				<path d="M637.48 558.9 l-71.3 -39.67 -49.31 -27.43 -54.89 -30.48 -39.68 -22.04 -11.28 -6.36 -106.04 -59.02 -106.15 -58.95 -106.22 -59.04 -20.83 -11.64" />
				<path d="M980.16 915.51 l-56.63 -31.48 -31.93 -17.74 -51.52 -28.64 -32.24 -17.92 -59.83 -33.25 -56.92 -31.4 -8.34 -4.86 -55.74 -31 -59.75 -33.21 -43.1 -24.05 -76.9 -42.91 -59.8 -33.13 -46.54 -25.79 -106.15 -59.17 -106.94 -57.32 -23.63 -13.52 -16.15 -9.25" />
				<path d="M500 808.03 l-120.19 -66.51 -18.11 -10.35 -87.96 -49.2 -106.26 -58.92 -105.92 -59.29 -46.71 -26.15 -1.8 -1.01 -7.79 -4.35" />
				<path d="M93.72 463.52 l17.51 10.21 106.51 57.96 106.3 58.67 55.17 30.77 50.91 28.4 120.38 66.95 59.8 33.38 55.8 30.89 8.52 4.9 56.51 31.31 59.76 33.33 32.34 17.9 51.47 28.89 31.78 17.5 36.64 20.57 19.91 11.18" />
				<path d="M600.99 625.02 l59.84 33.3 55.28 30.77 9.46 5.12 56.07 31.35 41.33 23 18.44 10.26" />
				<path d="M89.66 213.92 l20.04 11.08 106.18 59.11 106.11 58.93 61.72 34.39 43.9 24.49 7.21 3.99 99.09 55.13 120.68 66.91" />
				<path d="M480.58 557.82 l-76.31 -42.3 -30.18 -16.67 -105.66 -58.87 -92.2 -51.14 -2.91 -2.65 -2.89 -3.12 -2.73 -2.55 -3.57 -2.64" />
				<path d="M583.21 -39.32 l-5.44 41.17 -8.26 35.29 -9.92 35.41 -12.89 32.74 -14.81 32.41 -15.17 31.19 -15.75 31.6 -15.46 32.1 -12.85 32.99 -9.86 35.16" />
			</g>
			<g id="highway_secondary" style="stroke-linecap:round;stroke:#FDD6A4;stroke-width:10.45">
				<path d="M686.75 -68.37 l-17.04 32.68 -18.82 34.14 -18.5 33.62 -16.9 30.59 -17.09 31.32 -17.04 30.54 -17.18 31.08 -16.8 30.35 -17.03 30.81 -17.44 31.41 -16.58 30.37 -17.33 31.26 -16.7 30.47 -17.4 30.62 -17.29 31.01 -16.58 31.01 -18.34 33.23 -18.6 32.69 -16.62 30.72 -16.55 30.57 -16.88 30.22 -17.03 30.67 -16.84 30.32 -16.43 30.62 -18.13 32.64 -18.32 33.42 -16.92 30.22" />
				<path d="M28.75 -59.83 l76.17 41.79 75.11 40.21 11.13 5.96 20.8 11.59 106.15 59.1 106.14 58.95 76.72 42.7 29.39 16.27 37.64 20.94 68.32 37.99 70.86 39.48 2.95 1.64 4.62 2.62 13.59 7.6 28.44 15.77 60.13 33.43 57.41 32.02 7.98 4.43 55.21 30.71 59.83 33.18 83.66 46.74" />
				<path d="M149.52 655.5 l17.95 -32.45 16.84 -30.57 16.77 -30.42 16.66 -30.37 17.03 -30.72 1.58 -2.87 15.26 -27.74 16.81 -30.37 18.11 -32.89 18.45 -33.18 16.99 -30.87 16.84 -31.11 17.33 -30.92 16.88 -30.28 17.18 -31.21 16.96 -30.67 17.07 -31.07 17.07 -30.82 16.6 -30.25 17.21 -31.12 16.72 -30.44 17.51 -31.41 16.75 -30.48 18.66 -33.69" />
				<path d="M801.42 562.71 l-0.51 -1.56 0.31 -1.65 12.86 -23.34 16.59 -30.03 17.51 -31.68 17.11 -30.98 17.01 -30.79 17.07 -30.89 16.98 -30.74 17.12 -30.98 17.07 -30.9 17.03 -30.82 17.05 -30.86 18.39 -33.28 18.66 -33.78 16.96 -30.69 16.85 -30.51 17.08 -30.9 17.01 -30.79 17.05 -30.85 17.08 -30.9 17.06 -30.89 16.97 -30.72 17.04 -30.85 17.18 -31.1 16.92 -30.63 17.29 -31.3 16.86 -30.52 18.66 -33.77 18.48 -33.44 17.23 -31.17 17.52 -31.72 17.32 -31.35 17.2 -31.14 16.82 -30.45 18.67 -33.79 18.89 -34.18 17.26 -31.24 17.4 -31.5 17.32 -31.35 17.3 -31.32 17.21 -31.16 18.61 -33.68 18.5 -33.49 16.94 -30.66 17.26 -31.25 17.07 -30.88 17.06 -30.88 16.97 -30.72 17.35 -31.4 17.02 -30.8 16.73 -30.28 18.85 -34.12 18.19 -32.92" />
				<path d="M690.17 748.33 l15.3 -25.3 13.89 -23.98" />
				<path d="M532.62 748.75 l-119.39 -68.8 -40.79 -22.63 -65.44 -36.29 -105.92 -58.97 -106.55 -58.07 -19.38 -10.62" />
				<path d="M619.14 306.7 l-67.14 -37 -1.64 -0.9 -37.44 -20.63 -27.41 -15.58 -18.5 -10.33 -59.83 -33.41 -106.11 -59.14 -106.15 -59.06 -22.25 -12.38 -8.98 -4.84 -75.46 -40.69 -76.81 -42.76 -7.69 -4.17" />
				<path d="M1110.63 130.12 l-55.15 -30.89 -8.31 -4.65 -57.07 -31.96 -59.71 -33.44 -4.44 -3.9 -5.38 -3.45 -5.12 -2.32 -5.3 -1.63 -1.84 0.22 -2.23 0.65 -2.97 1.9 -2.15 2.03 -4.67 9.58 -3.76 7.87 -2.6 5.22" />
				<path d="M1032.27 -155.65 l-17.03 30.63 -16.7 31.12 -17.22 30.92 -17.14 30.77 -16.84 30.82 -16.96 30.57 -9.44 16.7 -7.82 13.83 -6.64 12.09 -10.16 18.49 -18.79 34.12 -18.26 33.24 -17.11 30.87 -17.11 30.92 -17.11 30.67 -17.11 31.11 -16.99 30.67 -17.07 30.92 -6.19 11.14 -4.62 8.49 -6.14 11.24 -17.22 30.97 -16.77 31.01 -17.14 30.72 -17.14 30.92 -16.96 30.67 -17.11 30.96 -18.41 33.23 -18.08 32.89 -16.81 30.42 -16.92 30.57 -16.77 30.47 -17.87 32.27 -15.63 28.62 -16.99 30.67 -18.08 32.69" />
				<path d="M413.27 477.6 l-9 37.92 -8.44 35.35 -8.37 35.06 -8.25 35.2 -6.76 36.19 -5.71 36.48 -5.04 37.37" />
				<path d="M310.55 869.3 l16.45 -31.79 16.81 -30.14 10.64 -18.51 7.76 -14.84 17.6 -32.49 17.56 -31.41 15.87 -30.17 16.88 -30.42 17.14 -30.47 16.62 -30.52 16.7 -30.72 17.85 -32.79 3.37 -6.08 15.08 -27.15 17.03 -30.77 17.03 -31.11 17.03 -30.37 17.26 -31.26 16.92 -30.77 12.39 -22.91 4.61 -7.9 17.18 -31.02 16.95 -30.86 16.99 -30.44 17.19 -31.01 17.03 -30.82 17.23 -30.92 16.98 -30.73 18.27 -33.42 19.26 -34.69 16.67 -31.93" />
				<path d="M-130.85 659.95 l16.42 -28.71 16.41 -29.8 6.19 -11.23 10.8 -19.61 18.3 -32.89 18 -32.89 16.92 -30.42 16.81 -30.47 16.88 -30.72 17.15 -31.12 6.1 -10.85 10.27 -18.33 17.39 -31.95 17.52 -31.85 18.34 -33.19 17.07 -30.92 17.03 -30.82 17.22 -31.16 16.92 -30.67 16.99 -30.82 17.07 -30.87 17.03 -30.92 16.99 -30.87 16.57 -29.86 17.15 -31.28 16.92 -30.99 106.03 59.77 106.23 58.66 67.73 37.4 38.81 21.43 41.94 22.97 64.14 35.61 120.56 66.87 60.01 33.35 57.36 31.88 8.11 4.51 55.29 30.73 59.65 33.16" />
				<path d="M1086.41 727.31 l-90.71 -49.73 -83.7 -46.54 -59.87 -33.28 -39.37 -21.89 -11.6 -6.48 -17.8 -9.94 -18.11 -10.11 -33.65 -18.69 -60.06 -33.38 -120.6 -67.35 -106.04 -59.02 -43.99 -24.33 -62.08 -34.64 -105.96 -58.63 -106.15 -59.12 -20.95 -11.63" />
				<path d="M122.94 151.41 l21.01 11.6 106.22 58.96 106 59.04 97.3 54.44 8.85 4.83 79.89 44.81 25.77 14.46 120.71 66.81 60.03 33.41 33.65 18.74 17.68 9.84 6.19 3.45 7.84 4.36 4.45 2.48 50.7 28.22 59.84 33.32 83.92 46.3 90.45 50.98" />
				<path d="M606.59 908.99 l17.92 -31.92 16.82 -29.97 16.74 -29.82 16.54 -31.63 16.48 -30.57 11.75 -21.84 5.29 -8.94 17.45 -30.07 17.69 -32.55" />
				<path d="M1673.09 -1041.28 l-18.8 34.12 -16.72 30.33 -16.97 30.8 -17.32 31.43 -16.95 30.76 -17.02 30.89 -17.03 30.9 -17.24 31.27 -16.9 30.67 -18.47 33.52 -18.57 33.7 -17.18 31.17 -17.26 31.33 -17.29 31.37 -17.36 31.5 -17.23 31.27 -18.85 34.2 -18.61 33.77 -16.82 30.52 -17.17 31.16 -17.29 31.37 -17.47 31.7 -17.19 31.2 -18.45 33.47 -18.62 33.79 -16.85 30.58 -17.24 31.29 -16.89 30.65 -17.15 31.12 -17.01 30.87 -16.94 30.74 -17.03 30.91 -17.04 30.93 -17.01 30.87 -16.97 30.8 -17.03 30.9 -16.83 30.54 -16.92 30.7 -18.63 33.82 -18.35 33.3 -17.02 30.88 -17 30.84 -17.03 30.91 -17.09 31.01 -16.95 30.75 -17.04 30.92 -16.99 30.82 -17.08 30.99 -17.43 31.63 -16.58 30.1 -13.03 24.1 -2.17 0.87 -1.55 -0.37" />
				<path d="M716.15 697.25 l-16.72 22.41" />
				<path d="M474.12 -183.86 l-17.27 31.3 -18.1 32.8 -18.88 34.21 -16.73 30.31 -17.51 31.73 -16.9 30.06 -16.97 31.32 -16.58 30.06 -17.06 30.9 -17.04 30.87 -17.05 30.89 -17.07 30.93 -16.8 30.44 -17.29 31.33 -17 30.81 -17.03 30.85 -18.33 33.23 -16.39 29.7 -18.53 33.57 -17.76 32.19 -16.6 30.08 -16.7 30.26 -6.32 11.45 -9.48 17.17 -17.19 31.15 -18.03 32.68" />
				<path d="M733.97 656.41 l-17.85 32.69 -16.68 30.57 -16.68 30.55" />
				<path d="M1195.87 -24.39 l-16.99 30.92 -17.14 30.82 -16.95 30.91 -17.11 30.76 -17.04 31.1 -16.95 30.35 -16.92 30.79 -18.6 33.62 -18.37 33.35 -17.02 30.85 -16.94 30.8 -17.14 30.95 -17.17 30.89 -17.02 30.75 -16.98 30.9 -17.11 30.96 -17.03 30.91 -17.77 31.88 -16.37 29.72 -17.1 30.9 -16.96 30.86 -17.03 30.81 -18.53 33.69 -17.97 32.44 -16.87 30.51 -16.76 30.39 -16.9 30.48 -17.05 30.91 -16.57 30.08 -16.81 30.37 -18.15 32.83 -18.11 32.93 -16.67 29.73 -16.95 31.21 -16.84 30.37 -16.77 30.42 -16.92 30.56 -16.81 30.51 -16.81 30.46 -16.81 30.46 -16.77 30.46" />
				<path d="M506.83 936.61 l16.81 -29.78 18.15 -32.88 18.08 -32.88 16.77 -30.47 15.85 -29.15 17.8 -31.59 16.73 -30.64 16.95 -30.46 16.87 -30.43 18.07 -32.72 18.79 -33.47 16.84 -30.52 17.07 -30.96 17.11 -30.88 16.82 -30.42 17.27 -31.3 17.14 -30.87 16.96 -30.97 17.04 -30.87 16.87 -30.77 17.16 -31.03 17.08 -30.78 17.09 -30.86 17.09 -30.86 18.35 -33.25 18.72 -33.96 16.99 -30.56 16.79 -30.67 17.08 -30.7 16.97 -30.78 17.09 -30.81 17.1 -30.94 17.08 -30.89" />
				<path d="M702.84 733.23 l2.63 -10.2" />
				<path d="M1152.12 603.82 l-88.22 -49.65 -83.63 -46.45 -59.87 -33.38 -31.37 -17.58 -23.75 -13.3 -7.96 -4.4 -57.38 -31.88 -60.13 -33.53 -28.43 -15.7 -15.08 -8.34 -3.4 -1.79 -3.02 -1.69 -70.74 -39.44 -3.85 7" />
				<path d="M-90.49 440.16 l62.67 34.24 57.9 32.25 9.94 5.04 38.73 20.93 105.58 59.87 105.85 58.87 76.57 42.45 30.63 16.32 119.62 67.25" />
				<path d="M1048.36 384.11 l-59.68 -33.27 -40.77 -22.75 -14.45 -8.04 -8.07 -4.5 -57.41 -32.01 -60.04 -33.47 -89.52 -49.57 -30.97 -17.15 -63.88 -35.43 -42.21 -23.42 -34.66 -19.23 -71.56 -39.7 -106.42 -59.04 -106.05 -58.84 -33.6 -18.64 -9.28 -5.25 -62.94 -34.82" />
			</g>
			<g id="highway_primary" style="stroke-linecap:round;stroke:#ECA2A3;stroke-width:10.45">
				<path d="M1046.98 585.09 l-18.14 32.94 -15.85 28.45 -17.29 31.11 -17.14 30.86 -16.81 30.96 -18.77 33.92 -17.79 31.99 -16.89 30.73 -16.68 30.23 -16.92 30.78 -16.46 30.87 -1.85 3.33" />
				<path d="M552.7 1281.54 l16.96 -30.46 16.77 -30.46 16.81 -30.46 16.92 -30.51 16.77 -30.42 16.84 -30.47 16.84 -30.56 16.95 -31.3 16.7 -29.48 18.15 -32.93 18.11 -32.83 16.73 -30.47 16.92 -30.47 16.7 -30.42 16.97 -30.56 16.74 -30.32 6.24 -11.34 10.58 -19.24 17.86 -32.32 18.59 -33.79 17.03 -30.77 17.11 -30.91 17.07 -30.86 16.09 -29.41 17.94 -32.32 17.18 -30.72 17.07 -31.16 16.67 -30.93 17.31 -30.61 17.04 -30.91 17.11 -31.06 17.08 -30.66 16.97 -30.86 18.36 -33.42 18.55 -33.45 17.09 -30.79 16.82 -30.66 17.14 -30.88 16.99 -30.84 17.12 -30.83 17.04 -30.84 17.04 -30.88" />
			</g>
			<g id="highway_primary1" style="stroke-linecap:round;stroke:#ECA2A3;stroke-width:10.45">
				<path d="M131.73 321.05 l48.78 27.13 106.03 58.91 106.15 59.07 20.58 11.44 30.2 16.82 54.96 30.61 13.99 7.78 49.85 27.72 56.8 31.6 59.83 33.47 34.17 19.12 20.89 11.69 9.3 5.26 16.93 9.41 39.41 22.05 59.67 33.38 83.7 46.82 84.62 47.34 8.96 5.06" />
				<path d="M1290.08 353.9 l-58.94 -32.79 -29.53 -16.43 -83.73 -46.58 -59.73 -33.23 -55.15 -30.68 -8.21 -4.57 -57.2 -31.82 -60.06 -33.41 -120.56 -66.92 -64.71 -35.99 -41.36 -23.03 -65.18 -36.38 -2.49 -1.39" />
			</g>
			<g id="highway_trunk" style="stroke-linecap:round;stroke:#96D296;stroke-width:10.45">
				<path d="M481.92 840.72 l-119.71 -66.71 -5.32 -3.02 -101.28 -56.38 -106.08 -59.11 -106 -59.07" />
			</g>

			<g id="highway_secondary1" style="stroke-linecap:round;stroke:#FDD6A4;stroke-width:10.45">
				<path d="M719.36 699.06 l23.24 -42.47 1.31 -1.94 1.9 -1.26 1.66 -0.38 1.95 0.38 9.01 4.82 2.14 0.63 1.65 0.11 1.95 -0.46 1.54 -1.09 1.66 -1.29 1.08 -1.83 40.27 -74.24 0.7 -2.72 -0.1 -2.94 -0.07 -2.05 -0.83 -3.68 -1.37 -2.68 -5.61 -3.24" />
				<path d="M789.48 556.4 l-11.06 -6.12 -1.95 -0.83 -2.07 0.31 -1.62 1.19 -5.43 9.29 -13.56 24.01 -27.3 47.46 -0.65 2.42 0.01 2.39 0.72 2.17 1.53 1.68 11.22 6.41 1.17 1.55 0.47 2.17 -0.35 2.28 -1.22 2.41 -23.24 42.07" />
			</g>
		</g>
	</g>
</svg>