<?xml version="1.0" encoding="utf-8"?>
<svg xmlns:xlink="http://www.w3.org/1999/xlink" version="1.1" xml:space="preserve" x="0" y="0" width="1280" height="752" style="overflow:hidden;text-rendering:optimizeLegibility" xmlns="http://www.w3.org/2000/svg">
	<!--Title: Map Generated Using Maperitive (http://maperitive.net)-->
	<!--Map Generator: Maperitive v2.3.20 by Igor Brejc
Time: 02/21/2013 22:43:05
-->
	<defs>
		<rect x="0" y="0" width="1280" height="752" id="MapFrame" />
	</defs>
	<g id="Map" clip-path="url(#MapClipRectangle)">
		<g id="Polygons" style="stroke-linejoin:round">
			<g id="building__fill" style="fill:#BCA9A9;stroke:#000000">
				<path style="fill-rule:evenodd;stroke:none" d="M252.55 257.72 l4.83 2.22 17.39 7.99 14.82 6.81 4.71 -10.14 5.04 -11.08 4.22 -9.18 -12.35 -5.67 -2.13 -0.98 -2.54 -1.17 -20.01 -9.2 -9.4 20.45 -4.57 9.94 Z M270.94 239.12 l20.83 9.58 -6.01 13.07 -20.83 -9.58 6.01 -13.07 Z" />
				<path style="fill-rule:evenodd;stroke:none" d="M378.47 364.12 l-9.58 -4.43 -2.05 -0.95 -18.31 -8.46 -1.95 -0.9 -1.83 -0.85 -3.78 -1.75 -25.02 53.18 -1.71 3.63 29.24 13.16 15.33 -4.73 -1.25 -4.08 6.36 -13.32 -1.04 -0.47 -6.18 -2.84 0.76 -1.94 -3.34 -1.65 -0.95 1.97 -3.25 -1.5 2.24 -4.75 12.9 6.08 1.07 0.5 10.83 -22.67 1.52 -3.19 Z M339.52 380.55 l6.59 3.08 -0.96 2.32 -5.39 -2.56 -6.08 12.59 -1.11 -0.57 6.94 -14.86 Z M343.35 353.76 l6.63 2.8 -6.39 13.89 -6.55 -3.27 6.31 -13.42 Z M359.89 361.19 l6.63 3.19 -6.39 13.74 -6.63 -2.96 6.39 -13.98 Z" />
				<path style="fill-rule:evenodd;stroke:none" d="M199.64 600.9 l-3.96 5.37 2.56 1.88 -6.41 8.68 2.16 1.59 -0.99 1.35 -1.04 -0.77 -4.86 6.59 0.96 0.71 -2.41 3.27 -1.66 -1.23 -3.14 4.25 13.88 10.24 0.96 -1.3 2.95 2.18 0.95 -1.29 1.77 1.31 2.54 -3.45 -0.32 -0.24 2.18 -2.95 -4.79 -3.54 4.98 -6.74 6 4.43 3.85 -5.23 -3.16 -2.32 6.39 -8.66 -6.19 -4.57 -2.56 3.46 -3.75 -2.77 2.47 -3.35 -9.36 -6.91 Z M196.21 624.95 l1.79 -2.33 0.8 0.61 1.36 -1.78 3.23 2.49 -3.16 4.11 -4.04 -3.1 Z" />
				<path style="fill-rule:evenodd;stroke:none" d="M251.29 428.46 l-2 4.37 -13.3 29.04 -0.91 1.98 -0.42 0.93 4.17 1.94 17.89 8.31 3.52 1.63 2.83 1.32 3.07 1.44 3.59 1.64 1.27 0.58 6.96 -14.9 6.56 -14.24 3.48 -6.95 -36.72 -17.09 Z M275.78 448.92 l-9.74 21.22 -18.65 -8.57 9.74 -21.21 18.66 8.56 Z" />
				<path style="stroke:none" d="M616.99 336.28 l25.08 10.76 -9.58 22.31 -25.08 -10.76 9.58 -22.31 Z" />
				<path style="stroke:none" d="M328.77 442.56 l-8.95 19.68 3.91 1.78 5.96 2.66 11.04 4.92 -3.9 9 -0.97 -0.45 -1.38 2.44 -9.96 -4.56 4.36 -9.46 -5.96 -2.75 -3.85 8.45 2.6 1.18 -0.2 0.45 -5 10.98 2.46 1.12 -8.06 17.72 14.4 6.55 6.83 -15.01 1.91 0.86 2.7 1.23 -4.43 9.72 25.12 11.44 7.81 -17.15 -10.39 -4.73 6.43 -14.22 1.57 -3.46 12.03 5.42 5.06 -11.23 3.06 -6.54 0.48 -1.13 -0.49 -0.21 -3.28 -1.38 -3.51 -1.47 -21.82 -10.16 -3.44 -1.6 -3.48 -1.59 -18.64 -8.48 Z" />
				<path style="stroke:none" d="M438.86 577.88 l7.14 -1.53 0.08 0.46 1.11 -0.26 0.51 2.18 -1.07 0.17 0.73 3.42 0.68 -0.17 0.64 3.12 -0.9 0.13 1.11 4.78 -5.94 1.12 1.11 4.23 2.61 -0.69 0.98 4.32 -7.83 1.66 -0.17 -1.02 -0.82 0.13 -0.73 -3.3 1.88 -0.34 -0.21 -1.03 -1.97 0.43 -0.3 -2.18 h-1.11 l-0.47 -0.51 -0.6 -2.61 0.73 -0.9 -0.3 -1.71 7.4 -1.54 -0.6 -2.78 -2.48 0.39 -1.24 -5.99 Z" />
				<path style="stroke:none" d="M650.77 94.21 l5.27 -0.48 0.51 6.46 -4.94 0.89 -0.84 -6.87 Z" />
				<path style="stroke:none" d="M331.48 164.92 l-9.69 1.03 -1.41 -1.99 0.75 14.98 2.42 24.22 8.04 -0.62 3.25 -0.26 0.13 1.12 0.1 1.64 10.46 -1.48 -4.13 -36.91 -6.58 0.55 -0.45 -4.69 -3.01 0.38 0.12 2.04 Z" />
				<path style="stroke:none" d="M475.7 592.37 l11.6 -4.91 3.78 8.92 -11.6 4.91 -3.78 -8.92 Z" />
				<path style="stroke:none" d="M193.9 459.49 l16.29 7.46 7.46 -16.33 1.62 -3.53 1.57 -3.43 32.72 -71.58 -31.98 -14.61 -1.01 -0.46 -7.2 15.75 16.69 7.64 -36.17 79.11 Z" />
				<path style="stroke:none" d="M599.39 360.85 l6.06 -13.2 -54.57 -25.05 -6.08 13.26 20.56 9.44 20.97 9.56 13.07 5.99 Z" />
				<path style="stroke:none" d="M508.11 325.89 l1.83 -4.11 6.11 3 6.67 -14.93 3.28 1.39 -1.4 2.8 7.27 3.36 1.08 -2.32 -5.52 -2.03 1.32 -2.76 7.75 3.36 -2.2 4.91 -7.15 17.25 -13.45 -6.27 0.2 -0.6 -5.79 -3.03 Z" />
				<path style="stroke:none" d="M345.63 295.02 l-6.31 13.95 4.85 2.19 -0.92 2.03 1.11 0.5 1.23 0.56 0.85 -1.88 2.19 0.99 -3.35 7.38 5.07 2.31 0.53 -1.17 0.39 0.18 0.61 0.27 -0.52 1.14 4.78 2.16 0.46 -1.04 1.11 0.5 -0.49 1.08 4.69 2.13 0.57 -1.25 1.11 0.51 -0.57 1.25 4.74 2.15 0.58 -1.29 1.31 0.6 -0.61 1.36 4.69 2.12 0.55 -1.22 0.46 0.21 0.78 0.36 -0.57 1.26 5.02 2.28 13.02 -28.75 -6.28 -2.84 -23.02 -10.42 -5.01 -2.27 -3.23 7.15 -3.71 -1.68 -6.13 -2.78 Z" />
				<path style="stroke:none" d="M444.04 607.42 l-0.92 -3.55 6.78 -1.6 -0.27 -1.51 6.74 -1.41 1.19 4.61 -13.51 3.46 Z" />
				<path style="stroke:none" d="M510.26 271.65 l13.08 -2.84 2.63 12.79 4.06 -0.76 2.27 12.7 -3.35 0.76 0.76 6.29 -5.18 1.01 0.79 4.29 -6.7 1.3 -1.91 -10.52 -2.33 0.28 -2.27 -12.42 0.83 -0.19 -2.69 -12.69 Z" />
				<path style="stroke:none" d="M667.05 93.07 l5.56 -0.4 0.44 6.29 1.2 -0.09 0.23 3.18 -5.09 0.36 -0.18 -2.67 -1.67 0.11 -0.48 -6.79 Z" />
				<path style="stroke:none" d="M751.68 83.35 l0.86 7.08 4.93 -0.6 -0.86 -7.07 -4.93 0.6 Z" />
				<path style="stroke:none" d="M454.99 83.39 l1.66 19.97 16.63 -1.38 -1.66 -19.97 -16.62 1.38 Z" />
				<path style="stroke:none" d="M432.01 135.17 l10.32 4.95 4.44 2.1 -5.07 10.61 -3.51 7.35 -2.82 5.9 -4.88 -2.33 -9.88 -4.72 1.07 -2.25 10.32 -21.62 Z" />
				<path style="stroke:none" d="M244.04 253.14 l-10.63 -2.48 1.27 -7.07 2 0.4 0.04 -0.56 0.72 0.04 1.64 -6.3 -0.56 -0.16 -0.16 -1.28 -0.6 -0.05 -1 -9.06 9.51 -1 1.2 8.95 0.12 0.36 0.44 3.03 -0.84 0.12 -0.11 0.3 -0.21 0.58 0.43 0.43 -3.27 13.74 Z" />
				<path style="stroke:none" d="M481.19 521.21 l-10.7 23.24 -0.88 -0.4 -2 5.35 10.63 5.09 3.75 -7.65 -1.44 -0.56 0.88 -2.32 2.16 1.12 2.56 -4.79 -2.39 -1.36 2.79 -6.23 1.28 0.4 1.04 -2.48 -1.27 -0.4 1.18 -2.48 1.3 -2.72 -8.87 -3.83 Z" />
				<path style="stroke:none" d="M219.13 342.19 l2.14 0.74 14.4 6.4 1.85 -4.15 1.29 -2.91 1.14 -2.55 2.25 -5.06 -16.56 -7.29 -6.5 14.82 Z" />
				<path style="stroke:none" d="M629.88 97.89 l1.48 8.27 -1.67 0.4 0.72 4.04 -2.76 0.47 -0.6 -3.59 -1.88 -8.83 4.71 -0.76 Z" />
				<path style="stroke:none" d="M471.72 572.04 l9.02 -3.76 0.47 1.29 3.29 -1.37 1.37 3.72 -2.27 1.11 0.73 1.63 -0.51 0.9 0.38 1.12 -7.3 3.12 -1.37 -0.81 -0.77 0.26 -3.04 -7.18 Z" />
				<path style="stroke:none" d="M276.27 296.59 l-3 -1.43 -2.44 5.03 2.98 1.45 2.46 -5.05 Z" />
				<path style="stroke:none" d="M384.08 449.18 l-1.16 2.37 -2.21 4.72 -0.96 2.01 24.53 11.28 2.67 -5.9 1.6 -3.53 -1.11 -0.5 -23.35 -10.46 Z" />
				<path style="stroke:none" d="M390.81 210.28 l13.55 -1.67 8.48 68.69 -13.55 1.67 -8.48 -68.69 Z" />
				<path style="stroke:none" d="M220.85 443.65 l-1.57 3.43 -1.62 3.53 4.5 2.27 3.28 -7.02 -4.59 -2.21 Z" />
				<path style="stroke:none" d="M459.71 533.08 l7.34 -14.67 -2.23 -4.95 2.56 -1.12 0.96 1.76 7.67 -4.15 -2.07 -4.16 -7.51 -3.67 1.76 -4.32 -24.76 -11.66 -0.98 2.05 -0.94 1.95 2.1 0.9 -0.79 2.27 -5.63 -1.68 22.55 41.46 Z" />
				<path style="stroke:none" d="M429.95 549.08 l1.62 6.92 8.7 -2.04 -1.02 -4.34 -0.83 0.19 -0.61 -2.58 -7.86 1.85 Z" />
				<path style="stroke:none" d="M761.58 82.14 l0.94 7.05 -5.04 0.63 -0.86 -7.07 4.97 -0.61 Z" />
				<path style="stroke:none" d="M316.48 336 l13.79 -30.46 6.23 -13.76 4.01 -8.86 8.8 3.99 -3.67 8.11 -6.31 13.95 -9.23 20.39 -1.1 2.44 -3.71 8.19 -8.8 -3.99 Z" />
				<path style="stroke:none" d="M401.04 142.94 l-7.03 2.19 0.12 0.36 -8.87 3.07 0.58 1.69 -3.22 1.07 1.12 4.43 3.47 -1.12 0.45 1.71 9.62 -3.39 0.08 0.36 1.11 -0.45 4.47 -1.81 1.01 -0.41 -2.92 -7.7 Z" />
				<path style="stroke:none" d="M480.16 483.59 l-39.62 -17.89 -6.87 15.49 9.75 4.95 24.76 11.66 3.84 2.08 8.15 -16.29 Z" />
				<path style="stroke:none" d="M703.5 98.17 l5.74 -0.73 -1.14 -8.54 -5.7 0.78 1.11 8.49 Z" />
				<path style="stroke:none" d="M558.75 379.17 l-5.03 8.62 1.61 1.26 1.82 1.13 2.23 1.04 2 0.8 1.63 0.48 1.73 0.56 3.14 -9.54 -4.5 -2.15 -4.63 -2.21 Z" />
				<path style="stroke:none" d="M458.73 274.23 l2.73 -0.07 8.57 18.75 15.38 0.36 3.32 9.73 2.82 0.67 7.67 -14.21 -14.11 -39.92 -13.15 -25.93 -17.25 13.27 2.55 5.54 1.48 31.82 Z" />
				<path style="stroke:none" d="M708.1 88.9 l1.14 8.54 5.61 -0.76 -1.15 -8.54 -5.6 0.76 Z" />
				<path style="stroke:none" d="M241.17 278.41 l2.12 1.91 -0.29 11.19 -0.57 22.45 -2.04 1.3 -14.12 -12.76 -6.27 -5.67 -0.83 -0.75 10.99 -10.12 1.76 2.01 7.06 -7.32 2.17 -2.25 Z" />
				<path style="stroke:none" d="M333.15 273.55 l2.37 -5.34 5.75 -12.95 18.93 8.48 -8.15 18.2 -18.9 -8.39 Z" />
				<path style="stroke:none" d="M583.59 403.1 l-7.71 16.94 -6.01 13.18 4.79 2.18 5 2.28 5.97 -13.11 8.53 3.88 -5.97 13.11 9.19 4.19 13.72 -30.12 -27.51 -12.53 Z" />
				<path style="stroke:none" d="M254.68 413.45 l-4.79 10.3 2.95 1.37 -1.55 3.34 36.72 17.09 2.39 -5.13 -8.66 -4.04 -1.5 3.23 -0.95 -0.43 -0.84 -0.4 4.71 -10.11 -7.87 -3.66 -0.61 1.31 -8.76 -4.08 0.54 -1.15 0.83 -1.78 -12.59 -5.86 Z" />
				<path style="stroke:none" d="M290.64 302.28 l5.01 -11.1 -17.08 -7.71 -2.66 5.4 -2.72 5.52 3.45 1.42 3.5 1.73 5 2.41 2.03 0.77 -2.13 4.7 0.32 0.14 0.98 0.44 1.27 0.57 2.12 -4.69 0.92 0.41 Z" />
				<path style="stroke:none" d="M529.16 545.13 l-8.34 -3.59 3.19 -6.51 -4.79 -2.24 -0.4 -1.24 0.08 -0.95 0.56 -0.8 0.76 -0.24 1.2 0.2 4.28 2.12 1.27 -2.51 -19.65 -9.83 2.6 -5.39 -1.2 -0.48 5.27 -11.1 1.04 0.32 0.99 -2.2 3 1.32 0.48 -0.92 -6.19 -2.8 -1.16 2.24 -6.27 -2.8 -2.84 5.47 -8.39 -3.96 2.72 -5.67 -7.59 -3.59 2.87 -6.35 22.29 10.71 -0.96 2.48 6.11 3.03 0.32 -0.41 20.41 9.51 -1.16 2.72 2.75 1.47 -0.95 2.15 1.11 0.68 -10.78 22.61 0.36 0.24 -3 6.31 Z" />
				<path style="stroke:none" d="M606.46 157.7 l0.54 -4.96 1.69 0.09 6.34 2.4 -0.22 3.07 -2 -0.18 -6.35 -0.42 Z" />
				<path style="stroke:none" d="M253.58 291.79 l16.85 8.2 2.76 -5.6 2.72 -5.52 2.66 -5.4 3.38 -6.87 -9.12 -4.5 -7.61 -3.75 -11.65 23.44 Z" />
				<path style="stroke:none" d="M496.74 324.67 l98.03 45.54 -5.69 12.2 -6.97 -3.17 -4.19 9.04 -10.02 -4.76 -4.5 -2.15 -4.63 -2.21 -32.86 -15.65 1.99 -4.19 -5.09 -2.32 -1.9 3.97 -4.42 -2.02 -24.26 -11.12 4.27 -8.58 -8.02 -4.11 2.5 -5.98 2.81 1.54 2.97 -6.04 Z" />
				<path style="stroke:none" d="M534.09 143.5 l16.12 -20.6 0.18 2.05 3.31 -0.48 3.19 -0.47 -0.27 -2.23 20.24 15.74 -14.91 20.63 -7.81 0.45 -20.04 -15.08 Z" />
				<path style="stroke:none" d="M736.16 85.18 l4.23 -0.54 4.84 -0.62 2.55 19.86 -9.08 1.16 -2.55 -19.86 Z" />
				<path style="stroke:none" d="M692.1 90.85 l8.1 -1.04 0.96 7.49 -1.14 0.14 0.44 3.41 -5.61 0.72 -0.46 -3.54 -1.36 0.17 -0.94 -7.34 Z" />
				<path style="stroke:none" d="M632.02 104.16 l-1.46 -6.72 8.35 -1.51 1.23 6.41 -4.22 0.64 2.15 14.06 -4.5 0.62 -1.55 -13.51 Z" />
				<path style="stroke:none" d="M686.17 92.13 l5.04 -0.67 0.95 7.15 -1.8 0.24 0.3 2.26 -3.24 0.43 -1.25 -9.41 Z" />
				<path style="stroke:none" d="M569.01 519.59 l-2.36 5.04 -18.86 -8.87 2.37 -5.03 18.86 8.86 Z" />
				<path style="stroke:none" d="M482.19 566.83 l0.39 -1.36 -0.73 -1.84 2.31 -1.12 -1.37 -3.29 -3.12 0.95 -0.47 -1.42 -9.45 3.89 1.67 4.27 0.89 -0.34 1.8 3.93 8.08 -3.68 Z" />
				<path style="stroke:none" d="M506.14 418.2 l37.09 17.56 6.9 -14.57 8.41 3.99 -6.44 13.61 -3.07 -1.46 -0.92 1.94 -3.1 6.54 -1.99 -0.95 -40.44 -19.15 3.56 -7.51 Z" />
				<path style="stroke:none" d="M525.28 582.37 l-4.87 -0.62 -0.72 -15.74 -0.32 -3.52 -7.19 -1.28 0.16 -1.99 -1.27 -0.56 1.51 -8.71 0.64 -4.15 2.39 0.48 0.08 -0.8 6.39 0.88 0.4 -1.2 2.32 0.48 -0.08 1.12 5.19 1.04 -4.63 34.57 Z" />
				<path style="stroke:none" d="M488.63 465.41 l8.67 -18.4 -26.34 -12.4 -10.14 21.52 8.72 4.11 1.47 -3.13 17.61 8.3 Z" />
				<path style="stroke:none" d="M685.08 92.31 l-3.91 0.5 1.21 11.09 2.94 -0.26 -0.37 -3.53 0.94 -0.09 -0.81 -7.7 Z" />
				<path style="stroke:none" d="M721.12 87.34 l0.98 8.01 5.12 -0.6 -0.96 -8.07 -5.14 0.65 Z" />
				<path style="stroke:none" d="M299.4 144.64 l-1.35 2.13 8.77 5.85 2.32 1.54 2.09 0.61 8.67 -0.73 0.28 1.57 48.64 -5.7 11.76 -6.46 -0.1 -1.67 5.17 -0.75 -0.12 -1.27 -0.26 -2.75 -8.02 -0.56 -7.05 -0.48 -14.06 0.5 -12.78 1.48 -14.53 4.19 -5.47 0.26 -23.97 2.24 Z" />
				<path style="stroke:none" d="M727.86 86.52 l6.24 -0.81 1.04 7.93 -6.24 0.81 -1.04 -7.93 Z" />
				<path style="stroke:none" d="M565.46 439.44 l6.05 2.65 23.82 10.42 -22.17 48.39 5.49 2.98 -4.43 9.37 -24.31 -11.88 -13.65 -6.23 3.53 -7.41 1.17 -2.15 2.31 0.83 5.44 -10.5 4.08 -8.89 12.66 -27.57 Z" />
				<path style="stroke:none" d="M649.26 94.78 l-0.64 0.05 -0.16 -0.73 -2.23 0.28 0.11 0.67 -1.62 0.22 -0.1 -0.73 -2.58 0.35 0.07 0.55 -1.26 0.17 1.76 13.13 3.1 -0.42 -0.55 -4.09 2.17 -0.28 0.56 4.17 3.2 -0.43 -1.83 -12.9 Z" />
				<path style="stroke:none" d="M659.79 99.93 l-3.24 0.26 -0.51 -6.46 3.27 -0.26 0.48 6.46 Z" />
				<path style="stroke:none" d="M292.39 310.28 l12.83 -27.88 7.16 -15.55 2.71 -5.9 4.63 -10.07 10.98 5.06 -3.85 8.41 -1.18 2.66 -1.19 2.68 -2.37 5.13 -11.58 25.07 -1.55 3.35 -1.2 2.57 -1 2.26 -3.4 7.26 6.58 3.06 -3.57 8.7 -1.51 -0.66 -1.2 -0.52 -1.23 2.9 -1.07 2.5 -18.02 -8.29 5.59 -12 0.85 -1.98 2.6 1.24 Z" />
				<path style="stroke:none" d="M751.68 83.35 l0.86 7.08 -5.63 0.87 -1 -7.23 5.77 -0.72 Z" />
				<path style="stroke:none" d="M336.5 291.78 l-6.19 -2.78 -2.19 4.94 -2.2 4.82 -0.38 0.81 -1.43 3.17 6.16 2.8 6.23 -13.76 Z" />
				<path style="stroke:none" d="M613.06 343.22 l6.39 -14.7 -21.01 -9.9 -27.96 -12.46 0.64 -1.12 1.84 0.88 1.67 -4.47 -7.27 -3.19 -5.67 12.31 9.51 4.15 -2.56 6.23 35.46 15.9 -0.8 1.99 9.74 4.39 Z" />
				<path style="stroke:none" d="M455.41 139.4 l-10.35 21.88 16.2 7.67 10.33 -21.85 -16.19 -7.69 Z" />
				<path style="stroke:none" d="M505.01 253.77 l8.96 -2.27 2.57 8.9 -9.08 2.47 -2.45 -9.1 Z" />
				<path style="stroke:none" d="M608.85 259.49 l6.03 -1.81 3.83 12.79 -6.02 1.81 -3.84 -12.79 Z" />
				<path style="stroke:none" d="M488.03 119.15 l0.64 5.51 -7.15 0.83 -0.64 -5.51 7.15 -0.83 Z" />
				<path style="stroke:none" d="M367.36 280.11 l-2.01 4.04 0.33 1.8 3.81 1.68 1.68 -0.23 1.13 -1.57 v-1.9 l-0.67 -1.68 -2.69 -2.35 -1.57 0.22 Z" />
				<path style="stroke:none" d="M270.94 239.12 l-6.01 13.07 20.83 9.58 6.01 -13.07 -20.83 -9.58 Z" />
				<path style="stroke:none" d="M622.94 98.64 l-3.6 -0.4 -3.56 0.63 -12.95 2.02 1.1 6.97 9.37 -1.41 3.35 -0.32 3.67 -0.25 3.19 0.21 -0.58 -7.46 Z" />
				<path style="stroke:none" d="M659.31 93.46 l0.48 6.46 2.88 -0.13 -0.47 -6.62 -2.88 0.28 Z" />
				<path style="stroke:none" d="M612.11 389.19 l9.76 4.56 7.92 -16.95 -24.18 -11.3 -6.78 14.51 -3.17 -1.5 -8.17 17.87 17.72 8.09 6.9 -15.28 Z" />
				<path style="stroke:none" d="M475.54 209.3 l10.2 -5.82 18.15 31.77 -10.45 5.97 -5.69 -9.96 4.15 -2.37 -5.5 -9.63 -3.9 2.22 -6.96 -12.17 Z" />
				<path style="stroke:none" d="M535.27 389.49 l-4.31 9.26 -0.48 1.28 -1.6 2.24 -1.92 2.08 5.12 3.19 0.96 -1.92 2.07 -1.12 0.96 -1.92 0.96 -0.64 21.25 10.55 3.35 1.44 2.56 -5.59 -2.08 -1.12 -2.39 4.79 3.19 -8.95 -8.06 -3.96 -19.57 -9.61 Z" />
				<path style="stroke:none" d="M676.79 93.29 l4.38 -0.48 1.21 11.09 -3.08 0.33 -0.36 -3.24 -1.29 0.14 -0.86 -7.84 Z" />
				<path style="stroke:none" d="M781.98 79.89 l-6.09 0.87 1.21 8.48 3.2 -0.45 0.47 3.3 2.89 -0.42 -1.68 -11.78 Z" />
				<path style="stroke:none" d="M282.49 146.38 l12.38 -1.28 -4.17 5.15 -8.21 -3.88 Z" />
				<path style="stroke:none" d="M535.25 485.56 l1.84 -3.87 -2.06 -0.98 3.76 -7.89 8.17 3.89 2.34 -4.9 -2.44 -1.26 -3.53 -1.67 -3.27 -1.47 3.65 -7.66 -24.37 -11.62 -3.28 6.86 -9.6 -4.57 -9.6 20.13 26.33 12.55 -2.26 4.73 15.33 7.31 3.53 -7.41 -4.55 -2.16 Z" />
				<path style="stroke:none" d="M689.34 146.46 l-18.49 13.18 -8.48 -11.91 19.09 -13.6 1.79 2.51 4.98 -3.55 3.15 4.42 -5.59 3.98 3.54 4.97 Z" />
				<path style="stroke:none" d="M258.77 300.79 l8.28 4.04 -0.73 1.53 10.89 5.23 -1.15 2.04 3.24 1.61 1.1 -2.2 3.42 1.57 -4.71 10.6 1.87 0.91 9.65 4.39 -1.77 3.14 -4.01 1.73 -2.48 1.07 -4.47 -1.12 -1.86 4.2 -15.08 -6.71 2.32 -5.14 -8.86 -4.07 6.95 -14.73 -5.22 -2.18 2.61 -5.88 Z" />
				<path style="stroke:none" d="M353.6 444.3 l-10.13 -27.56 15.33 -4.73 3.71 -1.14 2.1 5.43 -1.17 0.44 0.46 1.32 2.03 5.83 2.35 5.55 0.67 1.59 1.02 -0.6 2.94 7.11 -15.86 5.56 -3.45 1.21 Z" />
				<path style="stroke:none" d="M434.69 414.46 l2.83 -6.03 1.55 0.82 1.49 -3.3 3.78 -8.37 -1.1 -0.54 -1.1 -0.53 2.56 -5.47 1.08 0.43 1.15 0.47 3.9 -8.11 1.87 -3.88 -1.51 -0.82 2.7 -5.99 1.6 0.77 0.84 -1.63 7.26 3.41 -0.27 0.65 -0.36 0.86 3.84 1.69 2.47 -5.31 0.87 0.37 3.57 -8.19 1.7 -3.57 -3.02 -1.46 3.18 -6.63 8.86 4.02 0.6 -1.46 7.27 3.35 -8.14 17.66 6.06 2.86 7.37 -16.42 11.75 5.02 0.6 -1.32 14.24 5.6 1 2.5 0.6 2.47 0.46 2.25 -0.14 2.42 -0.41 2.43 -0.68 2.47 -1.14 2.43 -1.6 2.56 -2.66 2.61 -3.12 2.42 -3.75 3.7 -3.98 5.57 -2.88 5.17 -1.78 -0.51 -12.45 27.01 -3.7 -1.83 -0.24 0.41 -20.28 -9.23 6.47 -14.26 -6.71 -3.18 -1.19 2.58 -1.73 3.75 0.87 0.41 -2.82 6.25 -2.11 4.69 -10.87 24.07 -6.54 -3.18 -1.1 -0.55 -3.35 -1.64 0.71 -1.48 -4.72 -2.51 3.2 -6.5 3.02 1.32 1.92 -4.23 1.6 -3.55 0.89 -1.96 0.66 -1.51 -0.01 -0.01 -0.81 -0.41 0.92 -2.24 0.75 -1.69 0.71 -1.62 0.22 -0.49 -1.23 -0.59 -2.42 -1.16 -0.42 0.77 -0.38 0.7 -7.51 -3.43 0.68 -1.29 -1.45 -0.83 Z" />
				<path style="stroke:none" d="M662.19 93.18 l0.47 6.62 3.87 -0.27 -0.47 -6.62 -3.87 0.27 Z" />
				<path style="stroke:none" d="M432.14 230.91 l8.53 76.55 15.77 -1.39 -8.45 -76.82 -15.85 1.66 Z" />
				<path style="stroke:none" d="M715.7 88 l0.98 8.01 5.41 -0.66 -0.98 -8.01 -5.41 0.66 Z" />
				<path style="stroke:none" d="M382.47 540.43 l31.39 -15.05 14.29 -6.84 -8.81 -19 -5.14 -11.08 -1.54 -3.32 -34.35 6.87 -5.12 4.16 -5.59 10.06 14.85 34.18 Z" />
				<path style="stroke:none" d="M323.14 246.21 l-8.98 -4.24 -1.23 -0.58 0.21 -0.53 0.29 -0.54 -6.66 -3.15 8.74 -18.5 7.16 3.38 -1.68 3.55 5.04 2.37 -1.82 3.87 4.68 2.2 -5.74 12.15 Z" />
				<path style="stroke:none" d="M294.73 203.29 l-8.66 -3.19 -1.87 3.88 -3.61 7 -31.04 -15.04 4.01 -8.16 9.23 4.15 1.2 -1.87 -1.45 -0.96 19.94 -42.72 8.21 3.88 25.46 12.03 1.88 0.74 2.36 0.93 0.75 14.98 -8.37 -4.47 -2.78 -1.68 -15.26 30.51 Z" />
			</g>
		</g>
		<g id="Line_artwork" style="stroke-linejoin:round;fill:none">
			<g id="highway_service__border" style="stroke:#CBCB8E;stroke-width:5.07">
				<path d="M462.88 578.71 l-14.91 -4.33 -15.02 2.88" />
				<path d="M401.19 537.07 l11.89 -5.55 28.17 -13.14" />
				<path d="M415.99 458.83 l6.38 -3.87 5.03 -3.18 2.51 -0.23 5.85 -0.53 13.76 6.34 2.98 1.39 23.59 11.03 12.19 7.48 2.11 0.99 54.02 25.55" />
				<path d="M579.04 398.09 l-51.99 -25.39 -29.55 -14.42 -13.12 -6.4 -15.16 -1.9 -11.33 -2.08 -16.37 -3.01 -10.12 -1.61" />
				<path d="M431.61 338.14 l-10.56 0.77 -6.34 -2.88 -3.51 -6.39 -1.83 -12.43 -0.54 -3.65 -0.34 -2.3 -0.74 -4.93 -0.93 -6.19 -33.06 -30.26 -3 -2.74 -1.66 -14.3 -0.34 -2.93 -3.41 -29.13 -1.67 -14.3" />
				<path d="M407.74 306.33 l-6.77 2.53 -5.68 -2.22 -1.55 -0.75 -36.56 -17.65 8.99 -15.99 4.58 -5.11" />
				<path d="M411.54 433.5 l-10.05 1.3 -1.36 0.18 -4.09 0.53 -7.7 -0.26 -6.23 -0.21 -2.7 -2.08 -3.95 -3.03 -6.13 -14.31 -1.64 -7.07 0.1 -6.23 5.12 -13.8 11.36 -25.31 16.25 -4.96 7.49 0.47 8.94 2.31 9.4 2.87" />
				<path d="M547.52 505.18 l-7.86 24.87 -7.27 17.97 -2.87 30.19 2.16 3.91 37.93 15.06" />
				<path d="M488.29 477.26 l15.24 -30.73 3.51 -7.09 32.71 15.37" />
				<path d="M480.58 513.7 l-2.62 3.09 -1.6 2.56 -5.12 11.18 -2.07 2.32 -7.27 4 -9.27 5.6" />
				<path d="M536.1 161.32 l-4.22 -15.28 -1.94 -4.02 1.6 -3.36 10.21 -12.82 5.59 -7.01 9.46 -1.88 12.07 8.2 12 8.15 0.68 3.88 -1.23 1.66 -9.27 12.51 -4.29 5.79 -0.85 6.83 v2.42" />
			</g>
			<g id="highway_service__border1" style="stroke:#CBCB8E;stroke-width:5.07">
				<path d="M767.66 150.56 l-16.98 40.92" />
				<path d="M422.16 478.06 l-11.43 2.76 -11.87 2.47 -12.51 2.61 -9.99 2.34 -7.82 5.31" />
				<path d="M357.33 206.95 l-1.06 -8.97 -4.47 -37.83 13.26 -1.44 0.96 7.43 12.3 -1.12 3.29 30.41 0.97 9.01 0.86 10.78 0.43 4.53 2.09 13.49 1.9 13.01 -13.08 1.29" />
				<path d="M571.04 151.37 l13.28 9.81" />
				<path d="M442.55 221.44 l-1.11 -11.67 -0.77 -14.79 -0.7 -13.41 -0.31 -5.84 1.49 -3.67 0.91 -2.09 -1.01 -5.98 9.32 -23.87" />
				<path d="M457.07 130.99 l16.46 6.39 2.72 4.79 v2.88 l-12.94 33.86 -21.24 -8.95" />
				<path d="M413.59 581.2 l13.02 -3.05 6.34 -0.89" />
				<path d="M366.02 166.14 l3.04 30.56" />
				<path d="M580.31 138.86 l7.31 6.25" />
				<path d="M580.43 195.39 l-48.37 -5.88" />
				<path d="M417.07 603.07 l-3.48 -21.87 -2.42 -15.2 -9.98 -28.94" />
				<path d="M544.41 503.8 l3.11 1.38 36.25 18.15" />
				<path d="M539.75 454.81 l5.35 2.15 6.5 -1.66 10.61 -22.11 16.83 -35.09 4.72 0.1 32.35 14.7 12.64 5.75" />
				<path d="M793.01 107.62 l-6.86 1.58 -28.77 6.46" />
				<path d="M210.82 518.26 l21.41 -27.89" />
				<path d="M440.67 194.98 l-11.39 1.61" />
				<path d="M246.12 259.14 l11.51 5.01 2.53 1.1 36.5 16.86" />
				<path d="M598.54 370.93 l-57.26 -26.62 -44.03 -19.94 -6.63 -0.88 -4.07 1.6 -12.83 18.46 -4.48 6.45" />
				<path d="M413.07 531.52 l6.08 18.66 7.35 22.05 0.11 5.92 0.05 2.87 3.51 18.69" />
				<path d="M441.44 209.77 l-10.3 0.89" />
				<path d="M500.8 528.05 l-1.67 -4.79 -2.48 -2.72 -4.31 -0.95 -4.47 -1.36 -6.71 -2.71 -0.57 -1.81 -1.02 -3.21 -0.96 -4.39 2 -5.76 4.48 -8.94 1.36 -4.8 3.97 -8.34" />
				<path d="M611.44 457.96 l-12.04 -5.42 1.1 -2.61 15.6 -37.04" />
				<path d="M506.96 167.85 l0.25 -2.24 1.61 -16.48 -12.92 1.74 -1.77 14.07 -0.33 1.93 8.12 0.62 5.06 0.36 13.84 0.97 1.63 -20.88 0.15 -2.03 -0.17 -24.79 -15.96 3.48" />
				<path d="M530.36 203.53 l48.48 5.63 1.6 -13.78 1.53 -13.16 -48.49 -5.97 -12.67 -7.44" />
				<path d="M568.86 125.16 l9.63 -16.64" />
				<path d="M255.23 501.05 l-23 -10.68 -36 -18.78" />
				<path d="M601.26 140 l4.34 0.55 13.05 -0.66 65.42 -12.39 14.21 -1.65 3.62 20.41 -9.24 21.96" />
				<path d="M698.28 125.84 l31.19 -3.07 9.09 5.98 1.75 1.31 10.85 9.7 14.4 9.43 2.11 1.36 11.48 7.38 8.77 5.64 1.2 3.91 -13.94 34.6" />
				<path d="M761.04 71.01 l4.71 33.97 -20.57 3.35" />
				<path d="M470.17 415.96 l-5.75 13.93 -11.92 28.87" />
				<path d="M172.8 448.34 l12.28 5.29" />
				<path d="M177.42 470.27 l7.66 -16.63 9.27 -20.12 15.66 -34.01" />
				<path d="M371.74 220.85 l12.13 -1.11" />
				<path d="M239.35 268.12 l11.44 9.77" />
				<path d="M506.88 135.05 l1.94 14.07 13.61 -1.18" />
				<path d="M205.16 652.76 l25.11 -33.69" />
				<path d="M566.12 326.61 l43.08 18.84 -10.66 25.49 -14.78 27.27" />
				<path d="M785.29 266.99 l4.04 -9.56 -1.93 -2.62 7.34 -16.9" />
				<path d="M751.15 139.76 l-18.77 43.78" />
				<path d="M490.62 323.49 l6.97 -16.89 9.12 -12.38 7.15 10.42 2.23 4.95 0.64 5.43 -2.08 4.94" />
				<path d="M449.18 221.97 l17.11 -10.86 h3.75 l6.81 9.57 20.96 39.89 7.42 19.8 1.49 13.84" />
				<path d="M401.63 120.42 l-2.64 -26.6" />
				<path d="M541.75 125.85 l-10.38 -7.83" />
				<path d="M274.84 506.84 l-5.83 13.69" />
				<path d="M779.14 157.94 l-16.24 38.84" />
				<path d="M399.07 475.75 l-0.21 7.53" />
				<path d="M373.34 234.27 l12.62 -1.04" />
				<path d="M673.67 81.33 l3.51 30.09 -1.11 1.47 -15.03 3.52 -1.17 1.17 -1.45 2.07 -2.28 1.24 -7.59 0.08 -18.14 0.69 -3.72 -1.04 -1.17 -2.2 -1.58 -19.58 -1.64 -10.05" />
				<path d="M287.91 310.54 l11.54 -26.63 -2.79 -1.8 1.16 -2.96" />
				<path d="M596.83 166.14 l-5.04 -0.56 -13.97 2.44 -11.91 -1.61 -17.99 -2.42 -6.08 -3.21 -5.74 0.54 -2.03 4.02 0.07 4.6 -0.68 6.31 -1.41 13.25 -0.18 1.7 -29.37 -12.99" />
				<path d="M439.96 181.57 l-12.2 2.02" />
				<path d="M283.42 510.36 l-6.03 11.7 -2.24 2.33" />
				<path d="M587.15 230.7 l279.32 116.85 316.03 132.03" />
				<path d="M246.24 288.12 l4.55 -10.23 6.84 -13.74" />
				<path d="M740.29 130.07 l-19.8 48.32" />
				<path d="M500.67 190.85 l22 11.21 7.69 1.47 1.52 -12.32" />
				<path d="M335.69 219.14 l17.21 -1.91" />
				<path d="M334.28 209.55 l1.41 9.58 1.93 13.17 1.82 12.38 18.83 -2.06" />
				<path d="M337.62 232.3 l17.52 -1.74" />
				<path d="M210.12 341.79 l2.22 2.09 2.87 2.69 3.19 6.95 -0.4 4.16 -9.66 22.92" />
				<path d="M729.46 122.77 l-21.74 50.07 12.78 5.54 11.88 5.16 18.3 7.94 12.22 5.29 12.28 5.32 12.11 5.25 14.38 -33.15" />
				<path d="M429.15 172.01 l12 0.05" />
				<path d="M256.18 218.15 l-3.14 17.37 -4.23 18.59 -2.68 5.03 -2.24 4.19 -4.53 4.79 -20.74 21.93 -4.72 16.51 -0.12 21.06 -3.65 14.18 -0.78 3.01 -26.47 84.14 -6.25 5.34 -3.82 14.05 -6.06 22.31 1.86 18.4 -10.9 13.51" />
				<path d="M255.65 551.95 l19.5 -27.56 -6.15 -3.86 -9.37 -5.78 6.63 -14.2 10.23 -21.94" />
			</g>
			<g id="highway_residential__border" style="stroke:#BFBFBF;stroke-width:13.08">
				<path d="M403.7 635.94 l1.58 21.83 1.5 23.57 11.14 12.76 15.66 11.79 5.78 -1.45 11.75 -14.4 3.7 -6.8 5.24 -16.46 21.6 -6.65" />
				<path d="M527.46 688.1 l28.8 -52.86 10.45 -31.39 2.9 -6.66 3.18 -16.23 0.09 -23.55 2.75 -15.03 8.14 -19.06 22.94 -54.37 4.72 -11 17.3 -39.32 3.07 -3.57 5.59 -1.5 26.24 11.32 147.61 61.19 23.47 9.29" />
				<path d="M484.16 664.77 l-2.5 -4.65 -3.82 -16.08 -4.4 -19.2 -7.86 -34.31 -2.71 -11.82 -6.07 -26.5 -4.18 -9.76 -11.38 -24.06 -19.08 -40.33 -6.17 -19.22 -3.51 -13.18 -0.94 -12.15 2.17 -18.07 5.5 -25.78 7.14 -25.74 3.05 -12.42 2.01 -8.18 0.2 -5.16 -2.82 -26.6 -2.58 -21.82 -3.14 -20.11 -1.59 -20.17 -2.29 -25.92 -3.13 -22.74 -2.78 -26.35 -3.73 -35.41 -0.61 -7.76 -0.91 -11.45" />
				<path d="M596.02 93.34 l3.99 20.2 1.77 15.83 -0.52 10.63 -4.43 26.14 -2.22 21.07 -7.46 43.49 -1.33 10.94 0.49 11.31 1.7 8.02 2.01 5.46 5.94 9.73 7.94 7.96 10.62 6.3 234.69 98.11 305.13 127.36 13.91 8.89 5.91 4.88 4.34 3.59 26.39 19.68" />
				<path d="M594.61 187.21 l190.68 79.78 97.87 40.95" />
				<path d="M416.06 200.76 l-10.42 1.14 -23.06 2.52 -18.89 2.05 -6.36 0.47 -8.99 1.01 -14.05 1.59 -78.11 8.6 -17.05 1.35" />
				<path d="M320.77 601.51 l-65.12 -49.56 -22.45 -16.99 -22.38 -16.7 -42.22 -29.2" />
				<path d="M138.32 744.05 l20.87 -25.21 8.34 -13.52 37.62 -52.55" />
				<path d="M698.98 658.38 l45.32 -132.09" />
				<path d="M196.53 584.78 l-59.51 -42.3 -69.44 129.8" />
				<path d="M370.78 46.97 l7.08 68.51" />
				<path d="M770.96 686.91 l-71.98 -28.53 -69.14 -29.64 -63.13 -24.89" />
				<path d="M230.27 619.07 l2.87 -2.83 4.28 -4.6 24.03 17.16" />
				<path d="M629.84 628.75 l45.22 -131.27" />
				<path d="M814.52 554.65 l-70.21 -28.36 -69.25 -28.82 -68.34 -28.52" />
				<path d="M100.53 717.87 l27.83 -37.39 66.79 -93.85 1.37 -1.85 36.67 -49.82" />
				<path d="M215.32 73.55 l-12.84 3.77 -12.31 3.04 -12.7 3.22 -6.35 0.84 -6.32 -0.41 -5.32 -2.33 -4.34 -4.13 -37.34 -44.96 -16.56 -21.15 -9.15 -11.13 -4.05 -5.26 -2.4 -5.36 -0.04 -5.38 1.83 -3.11 10 -7.69 11.44 -6.88 22.24 -13.56 20.44 -12.66 20.61 -11.66" />
				<path d="M229.91 794.91 l1.17 -3.52 0.85 -1.45 26.37 -34.67 35.74 -50.17 -56.02 -43.06 23.42 -33.24 6.49 -9.13" />
				<path d="M655.26 74.15 l-6.66 -54.9 -4 -63.86 -0.59 -6.84 -2.66 -7.71 -3.05 -6.29 -4.71 -7.29 -66.76 -61.92" />
			</g>
			<g id="highway_unclassified__border" style="stroke:#BFBFBF;stroke-width:13.08">
				<path d="M234.91 137.71 l-18.55 -61.26 -1.05 -2.91 -11.19 -38.07 -6.05 -19.15 -5.43 -17.84 -20.5 -69.75 -2.87 -7.59 -29.72 -97.11 -6.56 -24.34 -2.67 -9.14 -0.59 -6.13" />
				<path d="M587.89 25.23 l8.13 68.11" />
				<path d="M419.19 223.5 l8.6 0.06 14.76 -2.12 6.63 0.53" />
			</g>
			<g id="bridge_foot" style="stroke:#FFFFFF;stroke-width:5.18">
				<path d="M253.84 246.54 l3.29 1.24" />
				<path d="M571.5 442.09 l3.16 -6.68" />
				<path d="M315.87 462.07 l1.52 0.44 2.55 0.74" />
				<path d="M265.65 363.41 l1.94 -4.27" />
				<path d="M316.18 473.52 l1.3 0.56 3.99 1.81" />
				<path d="M369.52 608 l-1.7 0.52" />
				<path d="M316.18 441.54 h-2.9" />
				<path d="M349.24 551.16 l1.29 -0.16 1.09 -0.09" />
				<path d="M302.91 410.14 l4.97 -2.97" />
				<path d="M341.8 535.76 l2.45 -0.7 3 -0.63" />
			</g>
			<g id="highway_path" style="stroke-dasharray:3.68,1.23;stroke-linecap:round;stroke:#6E7C6D;stroke-width:1.23">
				<path d="M120.25 526.94 l-7.81 -1.85 -39.97 61.75 -25.11 -12.55 -28.44 -57.66 -27.93 -23.06 17.67 -162.68" />
				<path d="M-113.51 348.8 l-16.05 -17.8 -11.21 -15.37 93.84 -31.07 21.46 14.41 38.11 -9.93 99.61 -60.53 121.7 -67.07" />
			</g>
			<g id="highway_footway" style="stroke-dasharray:1.23,1.23;stroke-linecap:round;stroke:#F68474;stroke-width:1.23">
				<path d="M253.84 246.54 l3.29 1.24" />
				<path d="M369.52 608 l-1.7 0.52" />
				<path d="M571.5 442.09 l3.16 -6.68" />
				<path d="M316.18 441.54 h-2.9" />
				<path d="M315.87 462.07 l1.52 0.44 2.55 0.74" />
				<path d="M316.18 473.52 l1.3 0.56 3.99 1.81" />
				<path d="M341.8 535.76 l2.45 -0.7 3 -0.63" />
				<path d="M265.65 363.41 l1.94 -4.27" />
				<path d="M349.24 551.16 l1.29 -0.16 1.09 -0.09" />
			</g>
			<g id="highway_footway1" style="stroke-dasharray:1.23,1.23;stroke-linecap:round;stroke:#F68474;stroke-width:1.23">
				<path d="M385.65 141.03 l-0.12 -1.27 1.02 -0.82 0.45 -1.55 -0.29 -1.46 -1.64 -1.2 0.03 -4.27 5.34 0.63 4.07 1.36 2.34 0.07 1.96 -0.47 2.26 -0.56 0.73 1.59 0.77 1.65 0.67 2.7 -3.76 0.92 -2.54 -0.02 -2.28 0.09 -2.78 2.34 -6.25 0.26" />
				<path d="M249.29 432.83 l2.5 -7.33 -3.98 -0.87" />
				<path d="M490.62 323.49 l-5.54 -0.91" />
				<path d="M195.16 586.64 l37.98 29.61" />
				<path d="M384.08 449.18 l3.86 0.76 11.79 -1.15 2.5 -0.34 5.32 -0.71 1.68 -0.34 -0.21 -1.69 -0.21 -1.75 -4.49 0.34 -3.42 0.3 -12.27 1.24 -2.75 -0.85 -1.79 4.2" />
				<path d="M500.1 281.77 l5.12 -1.39" />
				<path d="M246.18 214.34 l34.41 -3.36 43.25 -5.14 7.96 -0.72 -0.2 -2.59 3.25 -0.26 0.23 2.75 10.46 -1.48 -4.13 -36.91 -1.37 -8.29 4.39 -0.5 4.79 44.09 4.04 -0.47 -0.26 1.85 -1.08 0.98 -2.59 0.27 -3.03 0.33 -99.89 10.71 -0.22 -1.28" />
				<path d="M349.31 579.47 l5.29 3.87 3.91 5.07 1.97 5.57 1.9 4.32" />
				<path d="M470.16 304.36 l-6.1 -16.89 -3.12 -3.23" />
				<path d="M316.93 389.04 l1.91 1.02 -0.27 0.6" />
				<path d="M347.42 451.04 l0.56 -1.1 1.03 -3.36 2.9 -1.46 1.7 -0.82 3.45 -1.21 15.86 -5.56 2.58 2 6.34 4.53 4.04 0.92 -1.79 4.2 -1.16 2.37 -2.21 4.72 -0.96 2.01 -1.08 0.6 -1.95 4.33 -0.57 1.17 -21.82 -10.16 -3.44 -1.6 -3.48 -1.59" />
				<path d="M367.82 608.52 l-4.4 1.3 -7.68 1.86 -5.32 -0.21 -2.7 -2.14 -3.04 -11.13 6.02 -10.23 -1.39 -8.51 -2.63 -4.42 -4.84 -15.49 -0.35 -2.63 5.06 -6.67" />
				<path d="M376.1 591.86 l1.22 4.06 2 2.84 1.39 3.25 1.17 3.11 -1.04 3.11 -3.11 1.81 -2.97 -0.97 -1.59 -2.21 -3.65 1.15" />
				<path d="M455.81 336.26 l-15.91 -5.75" />
				<path d="M385.7 197.65 l0.38 1.27 2.14 1.35 14.63 -1.77 -0.33 -2.83 -2.48 0.29 -2.57 0.3 -1.85 0.22 -4.57 0.54 -1.58 0.18 -1.45 0.17 -2.32 0.27" />
				<path d="M472.99 303.19 l1.19 -0.53 18.56 -8.22 9.75 -4.33 -16.31 15.86 -10.39 0.8 -1.61 -4.11 -4.28 -8.26 -3.23 -6.26 -2.62 -0.67" />
				<path d="M244.5 321.14 l-4.6 -5.1 -10.45 -9.78 -3.25 -2.09 -7.02 7.35 0.05 13.89" />
				<path d="M325.41 516.53 l0.6 2.83 -15.12 -3.8 -9.86 -3.55 -9.32 -1.71 -6.48 14.45 -6.22 2.28 -3.85 -2.63" />
				<path d="M677.18 111.42 l6.89 16.08" />
				<path d="M294.73 203.29 l15.26 -30.51 2.78 1.68 8.37 4.47 2.42 24.22 0.28 2.68 -43.25 5.14 3.61 -7 1.87 -3.88 8.66 3.19" />
				<path d="M375.16 587.97 l8.73 -1.24" />
				<path d="M306.38 331.52 l-1.06 2.52 -0.79 1.74 22.22 10.11 4.01 1.83 1.93 0.97 2.42 -4.86 -3.91 -2.72 -2.01 -1.03 -0.56 1.46 -3.37 -1.57 -8.8 -3.99 -3.69 -1.46 -6.41 -3.02" />
				<path d="M420.24 166.22 l9.95 -0.77 5.99 1.81 0.73 -1.84 2.23 -4.71 -0.95 -0.52" />
				<path d="M401.81 133.08 l7.13 -1.84 10.63 0.4" />
				<path d="M285.71 453.13 l-1.18 -0.63" />
				<path d="M326.31 276.7 l1.27 0.63 -3.71 7.45 1.4 0.61 -0.54 1.15 -2.44 -1.09 4.02 -8.76" />
				<path d="M447.51 594.36 l18.08 -3.83" />
				<path d="M222.72 439.46 l11.85 5.46 2.75 1.29 2.82 1.28 -6.07 13.46 1.93 0.93 -0.91 1.98 -4.46 -2.03 -10.22 -4.79 -5.35 11.82 -4.86 -1.91 7.46 -16.33 1.62 -3.53 1.57 -3.43 1.88 -4.19" />
				<path d="M312.97 404.57 l0.68 -3.75 0.81 -4.43 2.46 -7.34 9.45 -28.19 5.4 -12.53" />
				<path d="M367.33 569.79 l5.83 3.47 4.5 4.97 4.84 4.08 1.39 4.42 3.04 8.36" />
				<path d="M294.06 219.51 l-3.09 6.93 -1.03 2.1 -3.41 7.99 2.54 1.17 2.13 0.98 3.54 -8.01 0.91 -1.74 4.54 -9.89 -6.15 0.46" />
				<path d="M334.53 531.71 l2.26 -1.4 2.35 0.11 1.94 1.34 0.92 2.25 -0.19 1.75 -0.87 2.15 -1.95 0.72 -1.97 -0.04 -2.56 -1.54 -0.88 -2.08 0.2 -1.94 0.76 -1.33 -3.88 -3.76 -1.9 -4.3 -1.61 -2.51 -1.14 -1.78" />
				<path d="M468.93 542.73 l-4.96 -2.32 -2.08 -3.57 -1.88 -2.46 -1.32 0.96 -1.76 0.43 -2.51 -0.28 -1.92 -1.96 -12.54 -24.32 -9.11 -19.25 -4.23 -10.15 -0.66 -2.84 -4.34 -13.2 0.73 -8.81 0.23 -4.29 -0.91 -4.98 7.27 0.9 5 0.87 7.92 3.75 0.88 -1.86" />
				<path d="M425.36 242.78 l3.81 -1.46 8.37 68.41 2.36 20.77 1.64 14.39 2.44 7.45 2.73 8.34 -0.03 13.16 -2.63 7.09" />
				<path d="M429.17 241.33 l-1.38 -17.77 -6.21 -47.13 -1.34 -10.21 -0.99 -7.52 2.48 -9.13 5.82 -21.41 3.04 -11.19" />
				<path d="M268.08 358.03 l2.96 2.84 1.28 1.92 5.75 5.59 1.44 3.12 0.71 5.03 15.66 10.55 1.76 3.43 16.02 10.31" />
				<path d="M313.28 441.54 l-6.72 0.72 -10.64 -9.99 -8.72 -7.21 -2.63 -1.1" />
				<path d="M328.26 441.57 l-12.08 -0.03" />
				<path d="M338.98 538.64 l-1.13 1.08 -0.81 1.96 0.14 1.97 1 1.75 1.62 1.11 1.9 0.3 1.61 -0.4 1.38 -0.99 1.07 -1.94 -0.08 -2.5 -1.2 -1.88 -1.7 -0.99 -1.85 -0.17 -1.95 0.72" />
				<path d="M387.94 449.93 l11.79 -1.15 0.2 1.63 1.76 -0.2 0.88 6.91 -14.62 -7.19" />
				<path d="M332.88 282.31 l-2.57 6.69 -2.19 4.94 -2.07 -0.93 -3.23 5.28 2.73 1.28 -1.43 3.17 -11.55 23 0.23 8.8 -6.41 -3.02 8.62 -18.82 2.68 -5.91 1.82 -4 -1.91 -0.88 7.14 -15.38 0.54 -1.15 2.53 -5.45 2.62 1.23 2.45 1.14" />
				<path d="M329.45 508.29 l0.85 -1.75" />
				<path d="M655.26 74.15 l1.93 9.77" />
				<path d="M313.03 461.88 l2.85 0.19" />
				<path d="M319.95 463.25 l1.54 0.67 2.23 1.29" />
				<path d="M422.09 118.26 l12.17 -77.68" />
				<path d="M284.51 307.25 l0.85 -1.7 2.25 1.01 -0.77 1.75 -2.33 -1.06" />
				<path d="M469.91 294.4 l22.84 0.04" />
				<path d="M456.78 359.77 l0.82 -8.69 0.3 -3.17 0.5 -2.75" />
				<path d="M311.71 471.53 l4.47 1.99" />
				<path d="M450.81 368.09 l14.27 6.78 -0.77 1.94 -0.97 -0.44" />
				<path d="M268.95 356.11 l31.04 3.92 12.18 -2.6 9.48 -6.51 5.1 -5.03" />
				<path d="M295.66 228.93 l10.68 5.32 -0.66 1.63 -10.93 -5.21 0.91 -1.74" />
				<path d="M328.99 331.8 l2.16 0.97 -1.82 4 -1.13 2.93 0.45 1.86 -3.37 -1.57 3.71 -8.19" />
				<path d="M365.82 249.99 l2.94 -0.08 3.91 -0.73 2.1 -1.65" />
				<path d="M347.26 534.43 l2.7 -0.83 2.6 0.27 3.14 2.06 1.43 3.58 3.67 9.76 6.53 20.51 2.15 3.76 2.6 4.56 2.33 5.38 0.75 4.48 0.18 1.21" />
				<path d="M402.23 448.44 l1.55 1.32 3.65 9.88 -0.48 4.03 0.85 1.96 -0.14 1.32 -0.79 2.38 -0.14 1.59 0.38 1.39 0.61 1.56 2.58 4.64 5.98 -1.12 0.7 -1.01 -2.81 -1.7 -2.35 -0.96 -1.85 -1.93 -0.17 -2.32 1.14 -6.97 -0.42 -1.98 -0.42 -1.72 -0.51 -1.46 -2.81 -7.81 0.25 -1.47 -4.81 0.38" />
				<path d="M421.73 149.57 l-4.36 -0.38 0.46 -14.88 1.73 -2.67 7.98 -3.48" />
				<path d="M263.72 367.67 l1.93 -4.26" />
				<path d="M267.58 359.14 l1.37 -3.02 9.76 -19.68 2.95 0.88 3.6 -0.64 4.39 -2.15 2.2 -3.48" />
				<path d="M376.72 463.21 l2.28 1.08 0.85 -2.07 2.38 1.05 2.51 0.06 1.44 0.66 5.68 2.61 2.61 1.19 7.85 3.61 1.78 0.81 3.6 1.65 -0.61 -1.56 -0.38 -1.39 -3.14 -1.28 -24.91 -10.75 -1.95 4.33" />
				<path d="M437.53 309.74 l27.85 -3.4 2.25 -0.93" />
				<path d="M266.44 421.09 l2.85 -3.68" />
				<path d="M251.55 256.02 l-1.79 -0.36 6.93 -30.39 1.39 -1.97 1.47 -1.3 1.66 -0.76 67.21 -7.55 0.13 2.24 -14.72 1.68 -13.62 1.43 -6.15 0.46 -12.74 1.47 -4.11 0.53 -13.9 1.3 -2.36 0.4 -1.12 1.29 -1.2 2.28 -4.78 19.75 -2.28 9.48" />
				<path d="M399.6 406.04 l-17.45 23.27 -2.73 3.65 -3.92 6.58" />
				<path d="M386.65 358.05 l1.42 -0.3 8.06 -5.59 14.15 -2.93 10.11 1.46 -4.71 -3.96 -5.91 -3.36 -4.96 -5.26 -2.72 -7.03" />
				<path d="M443.03 422.78 l1.37 -3.02 -1.05 -0.44" />
				<path d="M442.72 177.57 l-1.57 -5.51 -4.23 -6.64" />
				<path d="M411.04 246.53 l5.35 41.12 0.98 7.85 0.37 4.34 3.31 39.07 -0.67 11.78 -3.43 10.34 -1.33 2.22 -8.23 13.76 -6.39 17.25 -1.41 11.79 -1.14 9.47 1.41 16.32 0.27 3.15" />
				<path d="M226.87 470.13 l-3.91 8.22 11.34 4.73 -2 4.15 7.03 3.03 1.83 -3.67 18.05 8.22 4.49 2.29 0.92 -1.53 -15.82 -7.34 2.22 -5.04 -11.85 -5.27 -7.44 -5.56 -4.86 -2.24" />
				<path d="M326.05 293.02 l-2.2 4.72 2.07 1.03" />
				<path d="M400.89 444.59 l-1.53 -7.41 -0.36 -2.06 2.49 -0.32 0.35 1.81 0.63 3.15 1.85 4.54 -3.42 0.3" />
				<path d="M361.78 203.16 l16.17 -1.69 1.54 -1.54 -0.24 -1.53 -18.85 2.22 0.11 1.5 1.27 1.04" />
				<path d="M424.33 424.02 l1.89 3.35 1.05 0.77" />
				<path d="M469.3 304.72 l1.69 -0.7" />
				<path d="M420.38 350.69 l9.02 0.79 14.57 0.87 13.63 -1.28 11.63 -1.09 -12.45 9.78 -5.97 8.32 -4.13 5.76" />
				<path d="M263.85 493.65 l5.88 -12.59 -3.59 -1.64 -3.07 -1.44 -2.83 -1.32 -3.52 -1.63 -0.85 1.85 -17.89 -8.31 0.85 -1.85 -4.17 -1.94 -4.03 -2.96 -3.75 8.31 4.86 2.24 21.7 10.03 -2.47 5.15 12.89 6.11" />
				<path d="M411.19 482.18 l1.48 2.98 1.54 3.32 5.14 11.08 4.86 -2.05 -6.32 -16.52 -6.69 1.2" />
				<path d="M351.63 550.9 l2.99 -0.1 3.14 -0.36 3.04 -1.16" />
				<path d="M343.31 546.4 l1.36 1.98 1.88 1.88 2.69 0.9" />
				<path d="M277.21 221.51 l6.97 3.27 5.76 3.75 1.03 -2.1 -9.65 -5.45 -4.11 0.53" />
				<path d="M393.03 307.87 l12.36 5.87 -0.85 3.37 0.93 9.65 0.41 3.29 -1.95 0.53 -1.84 0.49 -1.78 -3.36 -1.76 -2.44 -1.86 -0.59 -3.13 0.49 -1.95 0.77 -1.17 1.86 -0.88 2.34 -1.27 3.41 -1.8 5.68 -6.49 -2.63 13.02 -28.75" />
				<path d="M283.82 314.59 l-4.71 10.6 1.87 0.91 9.65 4.39 1.22 0.55 4.01 0.79 6.49 2.96 0.9 -1.62 1.59 -3.15 -1.25 -0.62 -1.16 -0.59 -1.07 2.5 -18.02 -8.29 5.59 -12 -3.87 -1.76 -1.45 -0.64 -1.33 -1.37 -1.46 1.74 4.63 2.23 -0.74 1.64 -0.9 1.72" />
				<path d="M434.07 402.69 l-5.86 12.41 -3.88 8.92 -2.23 9.41 -1.13 8.88 0.73 3.38 -9.21 -0.05 -3.46 0.05" />
				<path d="M378.62 122.64 l-0.76 -7.16" />
				<path d="M428.21 415.1 l11.08 5.86 3.75 1.82 2.69 1.3" />
				<path d="M331.13 504.78 l0.76 -1.71" />
				<path d="M324.91 247.45 l5.13 -11.19 0.85 -2.91 1.14 -2.24 -0.38 -2.37 -2.15 -1.08 -0.73 -6.23 -1.3 -0.81 1.39 -3.42 -0.33 -1.27 -14.72 1.68 -7.49 16.63 -0.66 1.63 -0.67 1.69 2.94 1.39 2.27 1.1 2.7 1.33 -6.16 -4.22 8.74 -18.5 7.16 3.38 -1.68 3.55 5.04 2.37 -1.82 3.87 4.68 2.2 -5.74 12.15 1.77 1.25 1.32 2.49 8.86 7.66 -3.36 8.93" />
				<path d="M519.82 363.7 l-4.48 -1.93 -25.17 -10.84 -16.45 -7.39 -6.38 -2.58" />
				<path d="M291.7 510.29 l-5.8 -1.81 -0.58 1.22 -19.06 -9.16" />
				<path d="M337.93 216.02 l0.42 -1.59 2.34 -1.6 6.45 -0.72 3.05 -0.34 9.54 -1.07 1.06 0.95 0.55 1.97 -6.89 0.57 -16.53 1.82" />
				<path d="M400.11 444.66 l-1.35 -6.7 -5.47 0.38 -2.64 0.18 -1.79 0.21 -3 6.26 2.75 0.85 11.49 -1.17" />
				<path d="M187.68 429.18 l13.08 -29.75 2.28 -5.82 -5.46 -2.16 12.1 -38.64 2.66 -8.91 2 -6.97 1.94 -6.77 2.23 -4.4 21.38 -9.71 4.93 -2.24" />
				<path d="M442.43 488.19 l-3.77 -1.93 -7.11 -3.19 -1.04 -1.68 0.32 -6.95" />
				<path d="M269.33 303.22 l4.33 4.06 11.07 5.6 -0.9 1.72 -6.61 -3.01 -10.89 -5.23 0.73 -1.53 -8.28 -4.04 -5.96 -3 -3.56 -1.16 2.86 -1.81 17.22 8.39" />
				<path d="M501.91 167.49 l0.6 10.74 -0.17 6 -1.67 6.63 -3.67 4.71 -13.82 6.77 -9.15 6.15 1.86 4.74 0.95 7.48" />
				<path d="M439.29 420.96 l-1.42 3.18 -4.6 3.67" />
				<path d="M404.31 204.71 l2.86 -0.22 4.75 37.79 3.32 -0.32 0.57 3.99 -3.44 0.38 -1.33 0.21 -1.4 0.14 -5.07 -40.32 -0.25 -1.64 -34.03 4.33 -1.3 1.18 -0.82 0.94 36.4 -4.8 -0.25 -1.64" />
				<path d="M431.36 432.84 l-2.39 13.76 0.95 4.96 2.39 10.87 -0.51 9.93 -0.96 2.08 -4.85 2.54 -3.82 1.08" />
				<path d="M281.78 434.04 l4.04 -6.07 1.38 -2.91" />
				<path d="M522.32 364.93 l1.33 -0.46 27.52 13.3 11.63 4.87 0.58 -1.25" />
				<path d="M562.21 433.19 l38.3 16.75" />
				<path d="M288.15 448.17 l7.77 -15.91" />
				<path d="M306.56 442.26 l6.46 19.62 -1.32 9.65 -0.85 6.21 -4.36 19.6 -0.3 10.24 19.21 8.95 4.04 -8.24 28.26 13.37 8.36 -18.65 2.47 -9.47" />
				<path d="M332.76 501.07 l1.24 -2.96" />
				<path d="M527.05 372.71 l-0.34 2.26 0.43 3.87 0.14 4.57 -0.78 4.25 -1.88 4.36 -2.51 3.48 -3.17 2.71 -2.78 2.64 -2.98 3.25 -3.43 4.67 -2.86 4.74 -12.07 29.45" />
				<path d="M378.48 337.35 l1.53 -0.73 -5.02 -2.28 0.57 -1.26 -1.24 -0.57 -0.55 1.22 -4.69 -2.12 0.61 -1.36 -1.31 -0.6 -0.58 1.29 -4.74 -2.15 0.57 -1.25 -1.11 -0.51 -0.57 1.25 -4.69 -2.13 -0.62 -1.58 -5.24 -1.12 0.52 -1.14 -1.54 0.72 -5.07 -2.31 3.35 -7.38 -2.19 -0.99 -0.85 1.88 -1.23 -0.56 -0.18 -2.53 -4.85 -2.19 -9.23 20.39 -1.1 2.44 2.16 0.97 -1.82 4 3.08 1.4 4.3 1.95 0.8 -1.78 0.83 -1.83 3.34 -7.38 9.16 4.15 23.04 10.43 1.42 0.64 1.67 -3.69 1.5 -3.31" />
				<path d="M214.34 336.92 l1.75 4.25 2.45 3.06 2.52 5.42 0.92 3.59 36.72 1.48 -4.64 -2.27 -15.24 -10.2" />
				<path d="M254.05 410.88 l7.74 -17.13 1.93 -26.08 -2.5 -6.96 -2.53 -5.98 -14.19 -33.59 0.33 -7.34 0.93 -20.79 0.49 -4.89" />
				<path d="M310.11 538.82 l23.85 14.73 7.54 3.38" />
				<path d="M300.71 261.23 l1.21 -2.39 1.8 -0.95 2.75 1.11 0.76 -1.72" />
				<path d="M520.8 168.82 l13.35 1.12 14.7 1.74 33.6 3.6 5.8 -3.49 8.58 -5.65" />
				<path d="M185.67 428.25 l2.01 0.93 4.55 2.09 8.55 3.74 -2.32 4.99 -8.58 -3.86 -8.97 -3.56 4.75 -4.33" />
				<path d="M390.08 347.05 l2.88 1.51 3.17 3.6" />
				<path d="M464.42 429.89 l30.41 13.08 8.7 3.56" />
				<path d="M280.71 145.92 l9.88 -0.9 0.71 2.24 3.48 2.59 6.48 4.24 2.77 0.49 1.92 -0.85 0.86 -1.12 2.32 1.54 2.09 0.61 8.67 -0.73 0.28 1.57 48.64 -5.7 11.76 -6.46 -0.1 -1.67 5.17 -0.75 6.25 -0.26 -22.24 12.13 -1.8 2.18 -4.48 0.53 -9.87 1.16 -4.76 0.56 -4.32 0.51 -4.39 0.5 -19.23 1.13 -2.78 3.54 -1.88 -0.74 -35.44 -16.37" />
				<path d="M282.3 307.26 l2.84 -6.23 1.14 0.52 -2.27 4.97 0.7 0.32" />
				<path d="M314.47 396.38 l-5.34 -20.35 -9.14 -16 -9.7 -15.85 -5.03 -7.51 -0.42 -1.31" />
				<path d="M515.34 361.77 l1.13 -2.81" />
				<path d="M309.95 318.4 l3.51 -6.41 2.79 -5.87 1.24 -2.63 -1.88 -0.97 -2 -0.97 -1.5 3.13 -3.13 -1.43 -1.2 2.57 -1 2.26 -3.4 7.26 6.58 3.06" />
				<path d="M297.81 279.15 l3.35 -7.47 -2.04 -7.32 -0.96 -0.83 5.8 -12.74" />
				<path d="M464.63 310.58 l0.76 -4.24 -4.46 -22.1 -4.06 -9.29" />
				<path d="M421.58 176.43 l13.93 -1.64 4.15 0.95 3.06 1.84 3.42 2.05 9.02 3.65 11.19 4.45 9.51 -20.73 13.52 -0.47 4.41 0.34" />
				<path d="M406.79 474.22 l-2.16 4.04 -5.56 -2.51 -5.89 -2.66 0.69 -1.47 -4.24 -1.98 -0.79 1.69 -5.87 -2.75 0.48 -1.13 1.08 -3.64 1.66 0.18 5.47 3.17 2.82 0.63 7.52 4.33 2.11 0.09 2.68 2.01" />
				<path d="M349.31 286.91 l-8.8 -3.99 -5.97 -2.3 -3.25 -1.51 -2.58 -1.21 -1.12 -0.58 -1.27 -0.63 -4.2 -1.86 2.37 -5.13 1.79 0.77 2.49 -5.26 2.97 1.31 3.78 1.68 -2.37 5.34 18.9 8.39 -1.19 2.3 -1.55 2.67" />
			</g>
			<g id="highway_track" style="stroke-dasharray:3.68,1.23;stroke-linecap:round;stroke:#9D7517;stroke-width:1.23">
				<path d="M135.14 494.96 l-16.05 -54.15 -10.22 -42.42 -17.89 -30.68 -24.54 -26.58 -32.72 -7.67 -25.06 -2.57 -9.7 -1 -30.67 5.11 -44.99 7.15 -36.81 6.64 -68.59 14.45" />
				<path d="M588.01 260.98 l-31 10.76" />
			</g>
			<g id="highway_pedestrian" style="stroke-linecap:round;stroke:#EDEDED;stroke-width:5.18">
				<path d="M399.49 138.36 l3.76 -0.92 3.14 27.49 -3.75 0.49 3.75 32.29 -3.55 0.78 -0.33 -2.83 -3.57 -36.44 4.15 -6.05 -0.15 -2.13 -1.91 -8.11 -1.55 -4.58" />
				<path d="M402.04 159.77 l1.65 -2.88 0.88 6.44 -2.08 0.22 -0.45 -3.77" />
			</g>
			<g id="highway_service" style="stroke-linecap:round;stroke:#FFFFFF;stroke-width:3.9">
				<path d="M462.88 578.71 l-14.91 -4.33 -15.02 2.88" />
				<path d="M401.19 537.07 l11.89 -5.55 28.17 -13.14" />
				<path d="M415.99 458.83 l6.38 -3.87 5.03 -3.18 2.51 -0.23 5.85 -0.53 13.76 6.34 2.98 1.39 23.59 11.03 12.19 7.48 2.11 0.99 54.02 25.55" />
				<path d="M579.04 398.09 l-51.99 -25.39 -29.55 -14.42 -13.12 -6.4 -15.16 -1.9 -11.33 -2.08 -16.37 -3.01 -10.12 -1.61" />
				<path d="M431.61 338.14 l-10.56 0.77 -6.34 -2.88 -3.51 -6.39 -1.83 -12.43 -0.54 -3.65 -0.34 -2.3 -0.74 -4.93 -0.93 -6.19 -33.06 -30.26 -3 -2.74 -1.66 -14.3 -0.34 -2.93 -3.41 -29.13 -1.67 -14.3" />
				<path d="M407.74 306.33 l-6.77 2.53 -5.68 -2.22 -1.55 -0.75 -36.56 -17.65 8.99 -15.99 4.58 -5.11" />
				<path d="M411.54 433.5 l-10.05 1.3 -1.36 0.18 -4.09 0.53 -7.7 -0.26 -6.23 -0.21 -2.7 -2.08 -3.95 -3.03 -6.13 -14.31 -1.64 -7.07 0.1 -6.23 5.12 -13.8 11.36 -25.31 16.25 -4.96 7.49 0.47 8.94 2.31 9.4 2.87" />
				<path d="M547.52 505.18 l-7.86 24.87 -7.27 17.97 -2.87 30.19 2.16 3.91 37.93 15.06" />
				<path d="M488.29 477.26 l15.24 -30.73 3.51 -7.09 32.71 15.37" />
				<path d="M480.58 513.7 l-2.62 3.09 -1.6 2.56 -5.12 11.18 -2.07 2.32 -7.27 4 -9.27 5.6" />
				<path d="M536.1 161.32 l-4.22 -15.28 -1.94 -4.02 1.6 -3.36 10.21 -12.82 5.59 -7.01 9.46 -1.88 12.07 8.2 12 8.15 0.68 3.88 -1.23 1.66 -9.27 12.51 -4.29 5.79 -0.85 6.83 v2.42" />
			</g>
			<g id="highway_service1" style="stroke-linecap:round;stroke:#FFFFFF;stroke-width:3.9">
				<path d="M767.66 150.56 l-16.98 40.92" />
				<path d="M422.16 478.06 l-11.43 2.76 -11.87 2.47 -12.51 2.61 -9.99 2.34 -7.82 5.31" />
				<path d="M357.33 206.95 l-1.06 -8.97 -4.47 -37.83 13.26 -1.44 0.96 7.43 12.3 -1.12 3.29 30.41 0.97 9.01 0.86 10.78 0.43 4.53 2.09 13.49 1.9 13.01 -13.08 1.29" />
				<path d="M571.04 151.37 l13.28 9.81" />
				<path d="M442.55 221.44 l-1.11 -11.67 -0.77 -14.79 -0.7 -13.41 -0.31 -5.84 1.49 -3.67 0.91 -2.09 -1.01 -5.98 9.32 -23.87" />
				<path d="M457.07 130.99 l16.46 6.39 2.72 4.79 v2.88 l-12.94 33.86 -21.24 -8.95" />
				<path d="M413.59 581.2 l13.02 -3.05 6.34 -0.89" />
				<path d="M366.02 166.14 l3.04 30.56" />
				<path d="M580.31 138.86 l7.31 6.25" />
				<path d="M580.43 195.39 l-48.37 -5.88" />
				<path d="M417.07 603.07 l-3.48 -21.87 -2.42 -15.2 -9.98 -28.94" />
				<path d="M544.41 503.8 l3.11 1.38 36.25 18.15" />
				<path d="M539.75 454.81 l5.35 2.15 6.5 -1.66 10.61 -22.11 16.83 -35.09 4.72 0.1 32.35 14.7 12.64 5.75" />
				<path d="M793.01 107.62 l-6.86 1.58 -28.77 6.46" />
				<path d="M210.82 518.26 l21.41 -27.89" />
				<path d="M440.67 194.98 l-11.39 1.61" />
				<path d="M246.12 259.14 l11.51 5.01 2.53 1.1 36.5 16.86" />
				<path d="M598.54 370.93 l-57.26 -26.62 -44.03 -19.94 -6.63 -0.88 -4.07 1.6 -12.83 18.46 -4.48 6.45" />
				<path d="M413.07 531.52 l6.08 18.66 7.35 22.05 0.11 5.92 0.05 2.87 3.51 18.69" />
				<path d="M441.44 209.77 l-10.3 0.89" />
				<path d="M500.8 528.05 l-1.67 -4.79 -2.48 -2.72 -4.31 -0.95 -4.47 -1.36 -6.71 -2.71 -0.57 -1.81 -1.02 -3.21 -0.96 -4.39 2 -5.76 4.48 -8.94 1.36 -4.8 3.97 -8.34" />
				<path d="M611.44 457.96 l-12.04 -5.42 1.1 -2.61 15.6 -37.04" />
				<path d="M506.96 167.85 l0.25 -2.24 1.61 -16.48 -12.92 1.74 -1.77 14.07 -0.33 1.93 8.12 0.62 5.06 0.36 13.84 0.97 1.63 -20.88 0.15 -2.03 -0.17 -24.79 -15.96 3.48" />
				<path d="M530.36 203.53 l48.48 5.63 1.6 -13.78 1.53 -13.16 -48.49 -5.97 -12.67 -7.44" />
				<path d="M568.86 125.16 l9.63 -16.64" />
				<path d="M255.23 501.05 l-23 -10.68 -36 -18.78" />
				<path d="M601.26 140 l4.34 0.55 13.05 -0.66 65.42 -12.39 14.21 -1.65 3.62 20.41 -9.24 21.96" />
				<path d="M698.28 125.84 l31.19 -3.07 9.09 5.98 1.75 1.31 10.85 9.7 14.4 9.43 2.11 1.36 11.48 7.38 8.77 5.64 1.2 3.91 -13.94 34.6" />
				<path d="M761.04 71.01 l4.71 33.97 -20.57 3.35" />
				<path d="M470.17 415.96 l-5.75 13.93 -11.92 28.87" />
				<path d="M172.8 448.34 l12.28 5.29" />
				<path d="M177.42 470.27 l7.66 -16.63 9.27 -20.12 15.66 -34.01" />
				<path d="M371.74 220.85 l12.13 -1.11" />
				<path d="M239.35 268.12 l11.44 9.77" />
				<path d="M506.88 135.05 l1.94 14.07 13.61 -1.18" />
				<path d="M205.16 652.76 l25.11 -33.69" />
				<path d="M566.12 326.61 l43.08 18.84 -10.66 25.49 -14.78 27.27" />
				<path d="M785.29 266.99 l4.04 -9.56 -1.93 -2.62 7.34 -16.9" />
				<path d="M751.15 139.76 l-18.77 43.78" />
				<path d="M490.62 323.49 l6.97 -16.89 9.12 -12.38 7.15 10.42 2.23 4.95 0.64 5.43 -2.08 4.94" />
				<path d="M449.18 221.97 l17.11 -10.86 h3.75 l6.81 9.57 20.96 39.89 7.42 19.8 1.49 13.84" />
				<path d="M401.63 120.42 l-2.64 -26.6" />
				<path d="M541.75 125.85 l-10.38 -7.83" />
				<path d="M274.84 506.84 l-5.83 13.69" />
				<path d="M779.14 157.94 l-16.24 38.84" />
				<path d="M399.07 475.75 l-0.21 7.53" />
				<path d="M373.34 234.27 l12.62 -1.04" />
				<path d="M673.67 81.33 l3.51 30.09 -1.11 1.47 -15.03 3.52 -1.17 1.17 -1.45 2.07 -2.28 1.24 -7.59 0.08 -18.14 0.69 -3.72 -1.04 -1.17 -2.2 -1.58 -19.58 -1.64 -10.05" />
				<path d="M287.91 310.54 l11.54 -26.63 -2.79 -1.8 1.16 -2.96" />
				<path d="M596.83 166.14 l-5.04 -0.56 -13.97 2.44 -11.91 -1.61 -17.99 -2.42 -6.08 -3.21 -5.74 0.54 -2.03 4.02 0.07 4.6 -0.68 6.31 -1.41 13.25 -0.18 1.7 -29.37 -12.99" />
				<path d="M439.96 181.57 l-12.2 2.02" />
				<path d="M283.42 510.36 l-6.03 11.7 -2.24 2.33" />
				<path d="M587.15 230.7 l279.32 116.85 316.03 132.03" />
				<path d="M246.24 288.12 l4.55 -10.23 6.84 -13.74" />
				<path d="M740.29 130.07 l-19.8 48.32" />
				<path d="M500.67 190.85 l22 11.21 7.69 1.47 1.52 -12.32" />
				<path d="M335.69 219.14 l17.21 -1.91" />
				<path d="M334.28 209.55 l1.41 9.58 1.93 13.17 1.82 12.38 18.83 -2.06" />
				<path d="M337.62 232.3 l17.52 -1.74" />
				<path d="M210.12 341.79 l2.22 2.09 2.87 2.69 3.19 6.95 -0.4 4.16 -9.66 22.92" />
				<path d="M729.46 122.77 l-21.74 50.07 12.78 5.54 11.88 5.16 18.3 7.94 12.22 5.29 12.28 5.32 12.11 5.25 14.38 -33.15" />
				<path d="M429.15 172.01 l12 0.05" />
				<path d="M256.18 218.15 l-3.14 17.37 -4.23 18.59 -2.68 5.03 -2.24 4.19 -4.53 4.79 -20.74 21.93 -4.72 16.51 -0.12 21.06 -3.65 14.18 -0.78 3.01 -26.47 84.14 -6.25 5.34 -3.82 14.05 -6.06 22.31 1.86 18.4 -10.9 13.51" />
				<path d="M255.65 551.95 l19.5 -27.56 -6.15 -3.86 -9.37 -5.78 6.63 -14.2 10.23 -21.94" />
			</g>
			<g id="highway_residential" style="stroke-linecap:round;stroke:#FFFFFF;stroke-width:10.06">
				<path d="M403.7 635.94 l1.58 21.83 1.5 23.57 11.14 12.76 15.66 11.79 5.78 -1.45 11.75 -14.4 3.7 -6.8 5.24 -16.46 21.6 -6.65" />
				<path d="M527.46 688.1 l28.8 -52.86 10.45 -31.39 2.9 -6.66 3.18 -16.23 0.09 -23.55 2.75 -15.03 8.14 -19.06 22.94 -54.37 4.72 -11 17.3 -39.32 3.07 -3.57 5.59 -1.5 26.24 11.32 147.61 61.19 23.47 9.29" />
				<path d="M484.16 664.77 l-2.5 -4.65 -3.82 -16.08 -4.4 -19.2 -7.86 -34.31 -2.71 -11.82 -6.07 -26.5 -4.18 -9.76 -11.38 -24.06 -19.08 -40.33 -6.17 -19.22 -3.51 -13.18 -0.94 -12.15 2.17 -18.07 5.5 -25.78 7.14 -25.74 3.05 -12.42 2.01 -8.18 0.2 -5.16 -2.82 -26.6 -2.58 -21.82 -3.14 -20.11 -1.59 -20.17 -2.29 -25.92 -3.13 -22.74 -2.78 -26.35 -3.73 -35.41 -0.61 -7.76 -0.91 -11.45" />
				<path d="M596.02 93.34 l3.99 20.2 1.77 15.83 -0.52 10.63 -4.43 26.14 -2.22 21.07 -7.46 43.49 -1.33 10.94 0.49 11.31 1.7 8.02 2.01 5.46 5.94 9.73 7.94 7.96 10.62 6.3 234.69 98.11 305.13 127.36 13.91 8.89 5.91 4.88 4.34 3.59 26.39 19.68" />
				<path d="M594.61 187.21 l190.68 79.78 97.87 40.95" />
				<path d="M416.06 200.76 l-10.42 1.14 -23.06 2.52 -18.89 2.05 -6.36 0.47 -8.99 1.01 -14.05 1.59 -78.11 8.6 -17.05 1.35" />
				<path d="M320.77 601.51 l-65.12 -49.56 -22.45 -16.99 -22.38 -16.7 -42.22 -29.2" />
				<path d="M138.32 744.05 l20.87 -25.21 8.34 -13.52 37.62 -52.55" />
				<path d="M698.98 658.38 l45.32 -132.09" />
				<path d="M196.53 584.78 l-59.51 -42.3 -69.44 129.8" />
				<path d="M370.78 46.97 l7.08 68.51" />
				<path d="M770.96 686.91 l-71.98 -28.53 -69.14 -29.64 -63.13 -24.89" />
				<path d="M230.27 619.07 l2.87 -2.83 4.28 -4.6 24.03 17.16" />
				<path d="M629.84 628.75 l45.22 -131.27" />
				<path d="M814.52 554.65 l-70.21 -28.36 -69.25 -28.82 -68.34 -28.52" />
				<path d="M100.53 717.87 l27.83 -37.39 66.79 -93.85 1.37 -1.85 36.67 -49.82" />
				<path d="M215.32 73.55 l-12.84 3.77 -12.31 3.04 -12.7 3.22 -6.35 0.84 -6.32 -0.41 -5.32 -2.33 -4.34 -4.13 -37.34 -44.96 -16.56 -21.15 -9.15 -11.13 -4.05 -5.26 -2.4 -5.36 -0.04 -5.38 1.83 -3.11 10 -7.69 11.44 -6.88 22.24 -13.56 20.44 -12.66 20.61 -11.66" />
				<path d="M229.91 794.91 l1.17 -3.52 0.85 -1.45 26.37 -34.67 35.74 -50.17 -56.02 -43.06 23.42 -33.24 6.49 -9.13" />
				<path d="M655.26 74.15 l-6.66 -54.9 -4 -63.86 -0.59 -6.84 -2.66 -7.71 -3.05 -6.29 -4.71 -7.29 -66.76 -61.92" />
			</g>
			<g id="highway_unclassified" style="stroke-linecap:round;stroke:#FFFFFF;stroke-width:10.06">
				<path d="M234.91 137.71 l-18.55 -61.26 -1.05 -2.91 -11.19 -38.07 -6.05 -19.15 -5.43 -17.84 -20.5 -69.75 -2.87 -7.59 -29.72 -97.11 -6.56 -24.34 -2.67 -9.14 -0.59 -6.13" />
				<path d="M587.89 25.23 l8.13 68.11" />
				<path d="M419.19 223.5 l8.6 0.06 14.76 -2.12 6.63 0.53" />
			</g>
			<g id="highway_primary" style="stroke-linecap:round;stroke:#ECA2A3;stroke-width:10.9">
				<path d="M786.6 68 l-25.56 3.02 -87.37 10.31 -16.48 2.6 -34.9 4.86 -26.28 4.56 -33.25 4.03 -74.72 10.84 -57.46 8.76 -8.51 1.29 -14.06 1.53 -6.41 0.62 -23.01 2.22 -105.94 11.03 -14.71 1.11 -11.73 1.38 -11.33 1.56 -10.39 3.59 -12.32 5.08 -22.02 10.38 -16.83 8.04 -17.75 8.52 -38.49 15.03 -69.33 29.5 -23.22 9.81 -21.37 8.77 -16.94 7.17 -16.71 7.58 -12.64 7.71 -13.32 7.51 -3.44 1.56 -4.94 1.95 -7.96 3.63 -8.84 3.51 -16.57 6.68 -8.68 3.51 -36.03 14.78 -36.16 16.01 -6.03 3.87" />
			</g>
			<g id="highway_pedestrian1" style="stroke-linecap:round;stroke:#EDEDED;stroke-width:5.18">
				<path d="M399.49 138.36 l3.76 -0.92 3.14 27.49 -3.75 0.49 3.75 32.29 -3.55 0.78 -0.33 -2.83 -3.57 -36.44 4.15 -6.05 -0.15 -2.13 -1.91 -8.11 -1.55 -4.58" />
				<path d="M402.04 159.77 l1.65 -2.88 0.88 6.44 -2.08 0.22 -0.45 -3.77" />
			</g>
			<g id="highway_access_private" style="stroke-dasharray:8.71,2.9;stroke:#F7D4D4;stroke-width:2.9">
				<path d="M403.7 635.94 l1.58 21.83 1.5 23.57 11.14 12.76" />
				<path d="M431.61 338.14 l-10.56 0.77 -6.34 -2.88 -3.51 -6.39 -1.83 -12.43 -0.54 -3.65 -0.34 -2.3 -0.74 -4.93 -0.93 -6.19 -33.06 -30.26 -3 -2.74 -1.66 -14.3 -0.34 -2.93 -3.41 -29.13 -1.67 -14.3" />
				<path d="M407.74 306.33 l-6.77 2.53 -5.68 -2.22 -1.55 -0.75 -36.56 -17.65 8.99 -15.99 4.58 -5.11" />
				<path d="M601.26 140 l4.34 0.55 13.05 -0.66 65.42 -12.39 14.21 -1.65" />
				<path d="M411.54 433.5 l-10.05 1.3 -1.36 0.18 -4.09 0.53 -7.7 -0.26 -6.23 -0.21 -2.7 -2.08 -3.95 -3.03 -6.13 -14.31 -1.64 -7.07 0.1 -6.23 5.12 -13.8 11.36 -25.31 16.25 -4.96 7.49 0.47 8.94 2.31 9.4 2.87" />
				<path d="M205.16 652.76 l25.11 -33.69" />
				<path d="M449.18 221.97 l17.11 -10.86 h3.75 l6.81 9.57 20.96 39.89 7.42 19.8 1.49 13.84" />
			</g>
			<g id="bridge_foot__border1" style="stroke:#CBCB8E;stroke-width:6.73">
				<path d="M299.34 253.52 l7.89 3.75 7.86 3.69" />
				<path d="M272.84 272.1 l1.93 -4.18" />
				<path d="M375.34 589.18 l0.76 2.68" />
				<path d="M307.24 257.27 l6.93 -15.31" />
			</g>
			<g id="highway_footway__border11" style="stroke:#000000;stroke-opacity:0.3;stroke-width:3.68">
				<path d="M375.34 589.18 l0.76 2.68" />
				<path d="M299.34 253.52 l7.89 3.75 7.86 3.69" />
				<path d="M272.84 272.1 l1.93 -4.18" />
				<path d="M307.24 257.27 l6.93 -15.31" />
			</g>
			<g id="highway_footway__border111" style="stroke:#FFFFFF;stroke-opacity:0.3;stroke-width:3.68">
				<path d="M315.36 397.67 l-0.72 1.58 1.3 0.71" />
				<path d="M278.58 283.47 l-2.66 5.4 -2.72 5.52 3.45 1.42 3.5 1.73 5 2.41 2.03 0.77 2.56 1.16 5.93 -10.69 -17.08 -7.71" />
				<path d="M317.5 392.97 l-1.01 2.21" />
			</g>
			<g id="bridge_foot1" style="stroke:#FFFFFF;stroke-width:5.18">
				<path d="M299.34 253.52 l7.89 3.75 7.86 3.69" />
				<path d="M272.84 272.1 l1.93 -4.18" />
				<path d="M375.34 589.18 l0.76 2.68" />
				<path d="M307.24 257.27 l6.93 -15.31" />
			</g>
			<g id="highway_footway11" style="stroke-dasharray:1.23,1.23;stroke-linecap:round;stroke:#F68474;stroke-width:1.23">
				<path d="M375.34 589.18 l0.76 2.68" />
				<path d="M299.34 253.52 l7.89 3.75 7.86 3.69" />
				<path d="M272.84 272.1 l1.93 -4.18" />
				<path d="M307.24 257.27 l6.93 -15.31" />
			</g>
			<g id="highway_footway111" style="stroke-dasharray:1.23,1.23;stroke-linecap:round;stroke:#F68474;stroke-width:1.23">
				<path d="M315.36 397.67 l-0.72 1.58 1.3 0.71" />
				<path d="M278.58 283.47 l-2.66 5.4 -2.72 5.52 3.45 1.42 3.5 1.73 5 2.41 2.03 0.77 2.56 1.16 5.93 -10.69 -17.08 -7.71" />
				<path d="M317.5 392.97 l-1.01 2.21" />
			</g>
		</g>
	</g>
</svg>